<?xml version="1.0" encoding="UTF-8"?>
<svg id="Layer_2" data-name="Layer 2" xmlns="http://www.w3.org/2000/svg" xmlns:xlink="http://www.w3.org/1999/xlink" viewBox="0 0 3555.02 2400">
  <defs>
    <style>
      .cls-1, .cls-2 {
        fill: #232323;
      }

      .cls-1, .cls-3, .cls-4, .cls-5 {
        fill-rule: evenodd;
      }

      .cls-6 {
        fill: #7a8db0;
      }

      .cls-7, .cls-5 {
        fill: #f18a8b;
      }

      .cls-8, .cls-9, .cls-10 {
        fill: #fff;
      }

      .cls-11 {
        fill: #d1d1d1;
      }

      .cls-12 {
        fill: #99b1da;
      }

      .cls-13 {
        fill: #5fb270;
      }

      .cls-14 {
        opacity: .9;
      }

      .cls-15 {
        fill: #d1dbed;
      }

      .cls-3, .cls-16 {
        fill: #234591;
      }

      .cls-17 {
        fill: #dedede;
      }

      .cls-18 {
        fill: #bdbdbd;
      }

      .cls-19 {
        fill: #3d5891;
      }

      .cls-4, .cls-20 {
        fill: #f5b0a6;
      }

      .cls-21 {
        fill: #2b2b2b;
      }

      .cls-22 {
        fill: #212121;
      }

      .cls-23 {
        fill: #6fc183;
      }

      .cls-9 {
        opacity: .33;
      }

      .cls-24 {
        clip-path: url(#clippath);
      }

      .cls-25 {
        fill: #2e6857;
      }

      .cls-26 {
        fill: #243354;
      }

      .cls-27 {
        fill: #5681bf;
      }

      .cls-28 {
        fill: none;
      }

      .cls-29 {
        fill: url(#_çŒž_Ø_žŽ_ŠŒ_2);
      }

      .cls-30 {
        fill: #2c4da2;
      }

      .cls-31 {
        opacity: .21;
      }

      .cls-32 {
        opacity: .83;
      }

      .cls-32, .cls-33 {
        fill: #f3ce90;
      }

      .cls-10 {
        opacity: .13;
      }

      .cls-34 {
        fill: #93493a;
      }

      .cls-35, .cls-36 {
        fill: #ef7c59;
      }

      .cls-37 {
        fill: #40947e;
      }

      .cls-38 {
        fill: #f5f5f7;
      }

      .cls-36 {
        opacity: .2;
      }

      .cls-39 {
        fill: #375ea5;
      }

      .cls-40 {
        fill: #f2f2f2;
      }

      .cls-41 {
        fill: #3c3c3c;
      }
    </style>
    <linearGradient id="_çŒž_Ø_žŽ_ŠŒ_2" data-name="çŒž“Ø’’žŽ ‹ˆŠŒ’˜ 2" x1="2111.17" y1="1532.77" x2="2189.17" y2="1532.77" gradientTransform="translate(3555.02) rotate(-180) scale(1 -1)" gradientUnits="userSpaceOnUse">
      <stop offset="0" stop-color="#f8f8f8"/>
      <stop offset="1" stop-color="#c2c2c2"/>
    </linearGradient>
    <clipPath id="clippath">
      <path class="cls-28" d="m173.65,892.18c-2.11-2.1-4.16-4.27-6.17-6.49-.08-.09-.17-.17-.25-.26-1.92-2.14-3.78-4.35-5.6-6.6-.15-.19-.31-.36-.46-.55-1.72-2.15-3.38-4.37-5.01-6.62-.22-.31-.46-.6-.69-.91-1.53-2.14-2.98-4.35-4.42-6.58-.29-.44-.6-.87-.88-1.31-1.38-2.19-2.68-4.44-3.97-6.71-.3-.52-.62-1.02-.91-1.54-1.31-2.37-2.54-4.8-3.75-7.26-.23-.46-.48-.89-.7-1.35-1.41-2.93-2.74-5.91-4-8.96-1.02-2.48-1.98-4.98-2.88-7.48-.29-.8-.52-1.6-.8-2.4-.58-1.71-1.18-3.42-1.7-5.14-.26-.86-.47-1.72-.72-2.57-.48-1.67-.97-3.33-1.4-5-.24-.92-.42-1.85-.64-2.77-.38-1.61-.78-3.22-1.11-4.83-.19-.91-.33-1.82-.5-2.73-.31-1.63-.63-3.26-.89-4.9-.14-.86-.23-1.72-.35-2.58-.24-1.68-.49-3.37-.68-5.05-.1-.86-.15-1.71-.23-2.57-.16-1.69-.34-3.38-.45-5.06-.06-.83-.07-1.67-.11-2.5-.08-1.66-.18-3.32-.22-4.97-.93-12.19.28-24.4,3.13-36.36.15-.65.26-1.3.42-1.95.01-.05.03-.11.04-.16.01-.05.02-.09.03-.14.13-.62.31-1.22.45-1.84.59-2.64,1.21-5.28,1.93-7.89.15-.55.35-1.09.5-1.65.76-2.67,1.56-5.34,2.45-7.96.17-.51.39-1.02.57-1.53.93-2.65,1.89-5.28,2.95-7.88.21-.51.46-1,.67-1.51,1.08-2.58,2.19-5.15,3.4-7.67.24-.49.51-.97.75-1.45,1.24-2.52,2.5-5.02,3.86-7.48.28-.5.59-.98.88-1.48,1.37-2.42,2.77-4.82,4.26-7.17.34-.54.73-1.06,1.08-1.6,1.48-2.28,2.98-4.54,4.57-6.75.4-.55.84-1.08,1.25-1.63,1.59-2.15,3.2-4.3,4.9-6.38.53-.64,1.1-1.25,1.64-1.88,1.64-1.95,3.28-3.9,5.02-5.77.65-.71,1.36-1.37,2.02-2.06,1.68-1.76,3.35-3.52,5.11-5.21.82-.79,1.7-1.52,2.54-2.29,1.67-1.54,3.33-3.1,5.07-4.57,1-.85,2.07-1.64,3.1-2.47,1.65-1.33,3.27-2.69,4.98-3.96,1.16-.87,2.39-1.66,3.58-2.5,1.64-1.16,3.26-2.36,4.95-3.46,1.47-.96,3.02-1.84,4.53-2.76,1.48-.9,2.92-1.85,4.44-2.71,2.03-1.15,4.14-2.21,6.23-3.29,1.06-.55,2.09-1.14,3.17-1.67,3.2-1.56,6.48-3.04,9.82-4.41,3.34-1.38,6.7-2.64,10.08-3.79,1.14-.39,2.29-.69,3.43-1.05,2.24-.71,4.48-1.45,6.74-2.06,1.68-.46,3.37-.8,5.06-1.21,1.72-.41,3.43-.87,5.16-1.23,1.98-.41,3.97-.7,5.95-1.03,1.43-.24,2.87-.54,4.3-.74,2.11-.3,4.21-.48,6.32-.7,1.31-.13,2.63-.33,3.94-.43,2.28-.18,4.55-.24,6.82-.33,1.14-.04,2.28-.14,3.41-.16,2.44-.04,4.87.03,7.3.09.96.03,1.93,0,2.89.04,2.55.11,5.09.33,7.63.56.83.07,1.66.1,2.49.18,2.67.28,5.33.67,7.98,1.07.68.1,1.36.16,2.04.28,2.69.44,5.35,1,8,1.57.63.14,1.26.23,1.89.37,2.71.62,5.4,1.34,8.08,2.09.55.15,1.11.27,1.66.43,2.72.79,5.42,1.69,8.1,2.61.48.17.98.3,1.46.47,2.64.94,5.25,1.98,7.84,3.05.5.21,1.02.38,1.52.6,2.58,1.1,5.12,2.29,7.64,3.51.49.24.99.44,1.48.68,2.49,1.23,4.93,2.57,7.35,3.92.5.28,1.02.53,1.52.81,2.35,1.34,4.64,2.78,6.93,4.24.53.34,1.09.64,1.62.99.04.03.08.05.12.08.05.03.1.06.14.09.57.34,1.11.74,1.67,1.09,10.45,6.48,19.91,14.28,27.84,23.59,1.14,1.2,2.24,2.45,3.35,3.68.56.62,1.14,1.22,1.68,1.85,1.11,1.27,2.18,2.6,3.25,3.91.54.67,1.11,1.31,1.65,1.98,1.05,1.33,2.06,2.7,3.08,4.06.52.7,1.06,1.37,1.57,2.08,1,1.39,1.96,2.83,2.92,4.25.48.72.99,1.41,1.46,2.13.92,1.41,1.8,2.87,2.68,4.32.47.78.97,1.53,1.43,2.31.87,1.49,1.7,3.01,2.53,4.53.43.78.88,1.54,1.3,2.33.84,1.59,1.62,3.22,2.41,4.84.37.76.77,1.5,1.13,2.26,1.13,2.41,2.2,4.85,3.23,7.33,1.25,3.04,2.41,6.1,3.48,9.17.17.48.3.97.46,1.45.87,2.59,1.71,5.19,2.45,7.79.16.58.28,1.16.44,1.74.69,2.52,1.35,5.04,1.91,7.56.11.49.18.98.28,1.46.56,2.62,1.09,5.25,1.52,7.88.04.23.06.47.1.7.46,2.88.86,5.76,1.17,8.65.03.24.03.48.06.71.3,2.88.53,5.76.68,8.63,0,.12,0,.24,0,.36.14,2.99.22,5.98.2,8.95,0,.15-.01.29-.01.44-.02,2.91-.11,5.82-.28,8.71.23,16.45-1.66,32.7-5.02,49.54-10.34,51.82-7.34,78.33,5.23,108.82.13.31.25.61.37.91,8.03,20.39-2.17,43.43-22.43,51.78h-.01s-94.52,38.97-94.52,38.97h-.01c-20.26,8.36-43.74-.8-52.41-20.92-.13-.3-.25-.6-.38-.9-12.57-30.49-29.12-51.41-72.98-80.89-14.25-9.58-27.05-19.78-38.48-31.61-2.16-1.93-4.27-3.93-6.34-5.98-.1-.1-.22-.2-.32-.3Z"/>
    </clipPath>
  </defs>
  <g id="_09" data-name="09">
    <g>
      <path class="cls-38" d="m93.01,1323.74c54.36,129.58,194.88,244.24,143.17,383.45-27.3,73.46-21.05,259.1,98.28,415.7,135.65,178.04,417.48,318.54,962.34,213.94,306.18-58.78,618.31-74.48,928.2-44.94l217.39,20.72,9.67.93,14.1,1.35,16.02,1.53,7.56.72,19.21,1.83,23.1,2.2,11.51,1.1,28.16,2.68,8.13.77,24.57,2.35c204.82,19.53,396.77-61.71,531.45-205.16,105.85-112.71,176.34-263.84,189.97-434.7.98-12.38,1.65-24.62,1.96-36.69,6.72-258.63-266.09-598.64-303.45-709.63-36.84-109.45,79.88-312.9,68.4-428.39-25.36-254.86-237.83-446.95-496.98-497.8-228.56-44.84-475,10.63-689.98,113.7-157.94,75.72-310.75,179.02-484.21,194.08-118.93,10.33-234.14-22.48-350.3-41.02-277.31-44.24-593.74,3.99-802.91,195.37-134.25,122.81-211.75,294.67-227.87,466.24-11.8,125.66,4.13,264.36,52.51,379.69Z"/>
      <g>
        <g>
          <rect class="cls-15" x="381.17" y="187.96" width="2104.88" height="1490.14" rx="46.25" ry="46.25" transform="translate(2867.22 1866.06) rotate(-180)"/>
          <path class="cls-19" d="m381.17,139.37h2104.88v47.24c0,48.19-39.13,87.32-87.32,87.32H468.49c-48.19,0-87.32-39.13-87.32-87.32v-47.24h0Z" transform="translate(2867.22 413.31) rotate(-180)"/>
          <circle class="cls-8" cx="670.14" cy="208.88" r="19.78" transform="translate(48.58 535.04) rotate(-45)"/>
          <circle class="cls-8" cx="609.58" cy="208.88" r="19.78" transform="translate(30.84 492.22) rotate(-45)"/>
          <circle class="cls-8" cx="549.03" cy="208.88" r="19.78" transform="translate(13.1 449.4) rotate(-45)"/>
        </g>
        <rect class="cls-12" x="456.34" y="369.65" width="1189.21" height="802.4" rx="54.35" ry="54.35" transform="translate(2101.9 1541.71) rotate(-180)"/>
        <g>
          <rect class="cls-12" x="1713.51" y="369.65" width="223.09" height="802.4" rx="54.35" ry="54.35" transform="translate(3650.12 1541.71) rotate(-180)"/>
          <g>
            <rect class="cls-27" x="1759.01" y="1017.54" width="132.1" height="104.66"/>
            <g>
              <rect class="cls-27" x="1759.01" y="407.84" width="132.1" height="104.66"/>
              <rect class="cls-8" x="1794.57" y="427.15" width="77.23" height="52.84"/>
            </g>
            <g>
              <rect class="cls-27" x="1759.01" y="529.78" width="132.1" height="104.66"/>
              <rect class="cls-8" x="1766.12" y="536.89" width="28.45" height="69.1"/>
              <rect class="cls-8" x="1800.67" y="582.11" width="71.13" height="27.94"/>
            </g>
            <g>
              <rect class="cls-27" x="1759.01" y="651.72" width="132.1" height="104.66"/>
              <rect class="cls-8" x="1770.19" y="691.35" width="109.75" height="21.34"/>
            </g>
            <g>
              <rect class="cls-27" x="1759.01" y="773.66" width="132.1" height="104.66"/>
              <rect class="cls-8" x="1807.78" y="785.85" width="25.41" height="80.27"/>
              <rect class="cls-8" x="1766.12" y="811.76" width="34.55" height="23.88"/>
            </g>
            <g>
              <rect class="cls-27" x="1759.01" y="895.6" width="132.1" height="104.66"/>
              <polygon class="cls-8" points="1875.87 958.06 1807.78 908.81 1875.87 908.81 1875.87 958.06"/>
            </g>
          </g>
        </g>
        <g>
          <g>
            <polygon class="cls-19" points="1036.49 806.39 555.51 908.71 555.51 545.95 1036.49 442.19 1036.49 806.39"/>
            <polygon class="cls-27" points="1036.49 806.39 1517.48 908.71 1517.48 545.95 1036.49 442.19 1036.49 806.39"/>
            <g>
              <polygon class="cls-40" points="1145.17 661.28 1242.33 683.86 1242.33 610.58 1145.17 590.4 1145.17 661.28"/>
              <polygon class="cls-39" points="1278.81 873.81 1376.85 888.9 1375.58 650.16 1278.42 628.34 1278.81 873.81"/>
              <polygon class="cls-39" points="1155.1 655.01 1232.4 672.78 1232.4 617.34 1155.1 603.16 1155.1 655.01"/>
            </g>
            <polygon class="cls-12" points="1119.02 1051.85 555.51 908.71 1036.49 806.39 1517.48 908.71 1119.02 1051.85"/>
            <polygon class="cls-39" points="1114.18 1007.19 754.65 909.27 1037.36 836.77 1376.27 913.88 1114.18 1007.19"/>
            <g>
              <polygon class="cls-40" points="902.66 715.39 746.37 757.1 746.07 582.84 902.37 546.75 902.66 715.39"/>
              <polygon class="cls-39" points="893.47 707.36 755.52 745.54 755.26 591.72 893.22 558.31 893.47 707.36"/>
              <polygon class="cls-40" points="902.48 622.9 833.78 635.9 833.68 570.2 824.23 570.77 824.5 734.81 833.95 734.23 833.79 646.66 902.5 633.13 902.48 622.9"/>
            </g>
            <polygon class="cls-39" points="1119.02 1051.85 1118.39 1119.38 554.66 972.93 555.51 908.71 1119.02 1051.85"/>
          </g>
          <g>
            <rect class="cls-8" x="510.87" y="784.28" width="364.12" height="252.1"/>
            <rect class="cls-12" x="545.79" y="809.71" width="294.28" height="203.74"/>
            <rect class="cls-39" x="827.44" y="855.68" width="12.63" height="109.28"/>
            <rect class="cls-39" x="713.32" y="809.71" width="56.09" height="5.51"/>
            <rect class="cls-39" x="557.63" y="998.59" width="56.09" height="13.9"/>
            <rect class="cls-39" x="608.23" y="855.68" width="145.07" height="114.29"/>
          </g>
          <polygon class="cls-19" points="680.19 1267.32 664.66 1202.11 599.46 1186.59 729.18 1137.59 680.19 1267.32"/>
          <g>
            <g>
              <path class="cls-27" d="m646.28,620.83l40.54-5.98c3.11-.46,5.63-3.39,5.63-6.55v-11.58c0-3.16-2.53-5.34-5.64-4.89l-40.54,5.98c-3.11.46-5.63,3.39-5.63,6.55v11.58c0,3.16,2.53,5.34,5.64,4.89Z"/>
              <path class="cls-27" d="m587.2,630.1l40.54-5.98c3.11-.46,5.63-3.39,5.63-6.55v-11.58c0-3.16-2.53-5.34-5.64-4.89l-40.54,5.98c-3.11.46-5.63,3.39-5.63,6.55v11.58c0,3.16,2.53,5.34,5.64,4.89Z"/>
              <path class="cls-27" d="m616.75,653.52l40.54-5.98c3.11-.46,5.63-3.39,5.63-6.55v-11.58c0-3.16-2.53-5.34-5.64-4.89l-40.54,5.98c-3.11.46-5.63,3.39-5.63,6.55v11.58c0,3.16,2.53,5.34,5.64,4.89Z"/>
            </g>
            <g>
              <path class="cls-27" d="m964.6,778.85l40.54-5.98c3.11-.46,5.63-3.39,5.63-6.55v-11.58c0-3.16-2.53-5.34-5.64-4.89l-40.54,5.98c-3.11.46-5.63,3.39-5.63,6.55v11.58c0,3.16,2.53,5.34,5.64,4.89Z"/>
              <path class="cls-27" d="m905.52,788.12l40.54-5.98c3.11-.46,5.63-3.39,5.63-6.55v-11.58c0-3.16-2.53-5.34-5.64-4.89l-40.54,5.98c-3.11.46-5.63,3.39-5.63,6.55v11.58c0,3.16,2.53,5.34,5.64,4.89Z"/>
              <path class="cls-27" d="m935.07,811.54l40.54-5.98c3.11-.46,5.63-3.39,5.63-6.55v-11.58c0-3.16-2.53-5.34-5.64-4.89l-40.54,5.98c-3.11.46-5.63,3.39-5.63,6.55v11.58c0,3.16,2.53,5.34,5.64,4.89Z"/>
            </g>
            <g>
              <path class="cls-12" d="m1439.22,608.52l38.38,5.15c2.94.4,5.36-1.98,5.39-5.31l.12-12.21c.03-3.33-2.33-6.35-5.27-6.75l-38.38-5.16c-2.94-.4-5.36,1.98-5.39,5.31l-.12,12.21c-.03,3.33,2.33,6.35,5.27,6.75Z"/>
              <path class="cls-12" d="m1383.27,601.59l38.38,5.15c2.94.4,5.36-1.98,5.39-5.31l.12-12.21c.03-3.33-2.33-6.35-5.27-6.75l-38.38-5.16c-2.94-.4-5.36,1.98-5.39,5.31l-.12,12.21c-.03,3.33,2.33,6.35,5.27,6.75Z"/>
              <path class="cls-12" d="m1410.96,634.65l38.38,5.15c2.94.4,5.36-1.98,5.39-5.31l.12-12.21c.03-3.33-2.33-6.35-5.27-6.75l-38.38-5.15c-2.94-.4-5.36,1.98-5.39,5.31l-.12,12.21c-.03,3.33,2.33,6.35,5.27,6.75Z"/>
            </g>
          </g>
        </g>
        <g>
          <g>
            <polygon class="cls-8" points="2395.27 369.65 2395.27 924.25 2012.46 924.25 2012.46 432.05 2072.3 369.65 2395.27 369.65"/>
            <polygon class="cls-27" points="2018.31 425.11 2063.59 378.32 2068.78 427.5 2018.31 425.11"/>
            <polygon class="cls-12" points="2018.31 425.11 2063.59 378.32 2063.8 422.51 2018.31 425.11"/>
          </g>
          <g>
            <rect class="cls-19" x="2063.8" y="453.29" width="237.88" height="11.05"/>
            <rect class="cls-19" x="2063.8" y="703.51" width="237.88" height="11.05"/>
            <rect class="cls-19" x="2290.63" y="453.29" width="11.05" height="68.89"/>
            <rect class="cls-19" x="2290.63" y="559.88" width="11.05" height="154.68"/>
            <rect class="cls-19" x="2063.26" y="453.29" width="11.05" height="261.27"/>
            <rect class="cls-19" x="2127.12" y="881.31" width="169.03" height="7.85"/>
            <rect class="cls-19" x="2288.3" y="854.94" width="7.85" height="34.22"/>
            <rect class="cls-19" x="2288.3" y="703.51" width="7.85" height="34.22"/>
            <rect class="cls-19" x="2126.74" y="747.11" width="7.85" height="142.04"/>
            <rect class="cls-19" x="2291.06" y="737.73" width="2.33" height="117.22"/>
            <rect class="cls-19" x="2294.99" y="522.18" width="2.33" height="37.7"/>
            <rect class="cls-19" x="2178.13" y="412.35" width="5.79" height="49.39"/>
            <rect class="cls-19" x="2063.12" y="703.51" width="5.79" height="49.39"/>
            <rect class="cls-19" x="2185.48" y="703.51" width="5.79" height="49.39"/>
            <rect class="cls-19" x="2338.13" y="412.35" width="5.79" height="224.87"/>
            <rect class="cls-19" x="2178.13" y="412.35" width="165.79" height="5.79"/>
            <rect class="cls-19" x="2290.63" y="631.43" width="53.29" height="5.79"/>
            <rect class="cls-19" x="2063.12" y="747.11" width="125.26" height="5.79"/>
            <rect class="cls-19" x="2068.78" y="610.57" width="109.35" height="5.2"/>
            <rect class="cls-19" x="2215.24" y="458.82" width="5.2" height="154.36"/>
            <rect class="cls-19" x="2215.24" y="610.57" width="79.75" height="5.2"/>
            <rect class="cls-19" x="2148.87" y="613.17" width="5.2" height="95.86"/>
            <rect class="cls-19" x="2068.78" y="658.5" width="82.69" height="5.2"/>
            <rect class="cls-19" x="2034.19" y="454.13" width="12.79" height="433.73"/>
          </g>
          <path class="cls-19" d="m2289.89,856.09l2.35-2.3-76.46-78.15c19.14-32.59,74.82-36.24,75.39-36.28l-.19-3.28c-2.41.14-59.25,3.86-78.67,39.02l-.59,1.07,78.18,79.91Z"/>
        </g>
        <polygon class="cls-27" points="1516.84 909.13 1516.84 967.99 1117.61 1120.41 1118.38 1052.26 1516.84 909.13"/>
      </g>
      <g>
        <g>
          <g>
            <path class="cls-25" d="m2732.1,1828.75c39.98,65.49,57.47,216.37,62.67,335.65,2.77,63.42,2.07,117.92-.58,145.92l63.68,18.22c.11.32.22.64.32.95.11-.25.21-.51.32-.77,23.54-57.64,131.06-328.36,126.35-453.79-.4-10.85-1.65-20.61-3.87-29.05-30.94-118.04-110.33-230.71-219.66-244.34-109.33-13.63-96.19,117.47-29.23,227.21Z"/>
            <path class="cls-23" d="m2859.65,2164.16c2.41.69,4.91-.09,5.82-1.91,1.43-2.87,35.11-70.88,35.4-124.49.16-29.06-2.96-43.1-5.98-56.68-2.55-11.47-4.96-22.31-5.16-41.88-.12-11.72,2.08-23.57,4.41-36.11,5.96-32.02,12.71-68.31-20.93-110.64-22.06-27.75-35.73-52.87-46.72-73.06-11.75-21.59-21.03-38.64-35.27-50.11-25.53-20.57-39.24-42.95-39.38-43.18-1.29-2.13-4.34-3.23-6.82-2.44-2.47.79-3.43,3.15-2.13,5.28.59.97,14.75,24.08,41.71,45.8,12.61,10.17,21.49,26.48,32.74,47.13,11.16,20.49,25.04,46,47.6,74.38,31.34,39.42,25.17,72.55,19.21,104.58-2.39,12.86-4.65,25-4.52,37.36.21,20.28,2.7,31.46,5.33,43.3,2.93,13.2,5.97,26.85,5.81,55.16-.28,52.1-34.38,120.98-34.73,121.67-1,2,.3,4.5,2.91,5.58.23.1.47.18.71.25Z"/>
          </g>
          <g>
            <path class="cls-23" d="m2557.24,2119.58c62.03,20.02,163.07,120.17,220.9,186.16l79.72,22.81c-1.72-5.13-4.04-11.9-6.85-19.97-11.68-33.49-32.1-89.4-56.25-144.17-29.06-65.91-63.53-130.14-94.65-151.62-71.82-49.53-167.39-73.58-233-29.98-65.61,43.6,2.66,108.52,90.12,136.77Z"/>
            <path class="cls-25" d="m2818.39,2310.14c1.87-.71,3.09-2.4,2.8-3.99-.45-2.52-11.34-62-36.69-96.39-13.75-18.64-22.43-26.12-30.83-33.36-7.09-6.11-13.79-11.89-23.25-24.29-5.66-7.43-9.9-16.05-14.38-25.17-11.45-23.29-24.42-49.69-66.08-60.7-27.31-7.22-48.01-16.75-64.65-24.41-17.79-8.19-31.84-14.66-46.4-15.21-26.11-.98-45.53-8.74-45.72-8.82-1.84-.75-4.31,0-5.52,1.69-1.21,1.68-.69,3.65,1.15,4.39.84.34,20.89,8.35,48.46,9.39,12.9.48,26.35,6.68,43.37,14.51,16.89,7.78,37.91,17.46,65.85,24.84,38.8,10.26,50.64,34.35,62.1,57.66,4.6,9.35,8.94,18.19,14.91,26.02,9.79,12.85,16.71,18.81,24.03,25.12,8.16,7.04,16.61,14.31,29.99,32.47,24.64,33.42,35.67,93.66,35.78,94.27.31,1.75,2.34,2.73,4.51,2.18.2-.05.39-.11.57-.18Z"/>
          </g>
          <g>
            <path class="cls-23" d="m2851.02,2308.58c-1.14,6.27-2.15,12-3.04,17.14l9.88,2.83c.11.32.22.64.32.95.11-.25.21-.51.32-.77l86.02,24.62c4.23-8.53,10.39-20.9,17.97-35.92,8.97-17.76,19.93-39.23,32.01-62.45,48.18-92.51,114.36-212.66,144.47-235.81,50.22-38.63,121.41,2.48,179.58-96.08,58.16-98.57,264.82-136.31,233.19-227.12-31.63-90.79-271.69-97.35-454.64,34.66-43.58,31.45-80.81,83.41-112.25,144.3-75.48,146.25-117.55,344.12-133.84,433.64Z"/>
            <path class="cls-25" d="m2900.94,2322.45c.37.11.76.17,1.16.19,2.83.14,5.23-2.03,5.38-4.86.05-1.01,5.21-101.32,19.17-146.65,6.74-21.9,27.91-60.03,52.41-104.18,26.89-48.44,57.36-103.34,78.98-154.69,25.73-61.1,46.75-69.28,84.91-84.11,22.15-8.61,49.71-19.33,86.47-43.21,98.46-63.99,250.46-78.88,251.99-79.03,2.82-.26,4.89-2.76,4.62-5.58-.26-2.82-2.76-4.89-5.58-4.62-1.55.15-156.07,15.28-256.62,80.64-35.87,23.31-62.88,33.81-84.59,42.25-39.43,15.33-63.23,24.58-90.65,89.69-21.41,50.85-51.74,105.49-78.5,153.7-24.78,44.65-46.19,83.21-53.25,106.14-14.33,46.55-19.4,144.98-19.61,149.15-.12,2.43,1.47,4.54,3.71,5.18Z"/>
          </g>
          <path class="cls-37" d="m2927.13,2348.36l36.27,10.38c1.04-1.18,1.98-2.47,2.81-3.86,10.36-17.6,27.39-44.07,41.03-53.24,21.13-14.22,49.57-16.74,67.6-27.58,18.02-10.83,49-14.76,70.92-28.03,21.93-13.26,11.9-37.83,36.54-38.25,24.63-.42,61.68.59,61.68.59,0,0,79.7-17.71,79.07-63.96-.62-46.26-129.16-44.2-203.58-11.46-36.24,15.95-84.74,70.37-124.97,122.03-29.77,38.23-55,74.93-67.38,93.38Z"/>
        </g>
        <g>
          <g>
            <path class="cls-25" d="m380.6,1865c64.92,50.84,139.4,196.1,189.59,314.2,26.7,62.78,46.53,117.9,54.42,147.08l70.96-5.66c.23.28.46.56.68.83.02-.29.02-.59.03-.89,1.97-66.89,8.14-379.88-43.88-504.34-4.49-10.77-9.44-20.12-14.84-27.78-75.63-107.14-198.01-190.61-313.18-163.12-115.18,27.49-52.53,154.49,56.23,239.69Z"/>
            <path class="cls-23" d="m635.4,2154.49c2.68-.21,4.9-1.94,5.13-4.12.36-3.43,8.62-84.57-11.3-138.63-10.8-29.31-19.23-42.27-27.39-54.8-6.89-10.59-13.4-20.58-20.98-40.2-4.54-11.75-6.79-24.5-9.17-38.01-6.07-34.47-12.96-73.54-62.77-103.46-32.66-19.61-55.89-39.74-74.56-55.92-19.96-17.3-35.73-30.96-54.39-37.14-33.45-11.08-55.68-28.44-55.91-28.61-2.1-1.66-5.59-1.61-7.78.11-2.19,1.72-2.26,4.46-.16,6.12.96.76,23.92,18.67,59.24,30.38,16.53,5.48,31.61,18.55,50.71,35.1,18.95,16.42,42.54,36.86,75.95,56.92,46.4,27.87,52.68,63.53,58.76,98.01,2.44,13.84,4.74,26.92,9.53,39.3,7.86,20.33,14.57,30.65,21.68,41.57,7.93,12.18,16.13,24.78,26.64,53.32,19.36,52.54,11,134.72,10.91,135.55-.25,2.39,2,4.41,5.03,4.52.27,0,.54,0,.81-.02Z"/>
          </g>
          <g>
            <path class="cls-23" d="m314.24,2223.61c69.98-3.23,209.42,59.48,292.5,104.09l88.83-7.09c-3.67-4.52-8.55-10.46-14.42-17.52-24.38-29.31-66-77.88-110.96-123.9-54.09-55.38-113-107.03-152.41-116.92-90.95-22.78-196.2-10.96-245.8,57.65-49.6,68.61,43.58,108.22,142.26,103.68Z"/>
            <path class="cls-25" d="m648.9,2316.97c1.61-1.41,2.21-3.58,1.32-5.08-1.4-2.36-34.78-58.13-73.26-83.18-20.86-13.58-32.42-17.84-43.6-21.96-9.44-3.48-18.37-6.77-32.55-15.69-8.5-5.34-16.01-12.42-23.96-19.91-20.3-19.13-43.31-40.81-89.39-36.19-30.2,3.03-54.64,1.24-74.27-.2-20.99-1.54-37.58-2.75-52.44,2.18-26.65,8.85-49.12,8.36-49.34,8.36-2.13-.06-4.34,1.63-4.92,3.78-.58,2.14.68,3.93,2.82,3.99.97.03,24.18.53,52.32-8.82,13.17-4.37,29.03-3.21,49.12-1.74,19.93,1.46,44.73,3.28,75.63.18,42.92-4.3,63.92,15.48,84.23,34.62,8.15,7.68,15.85,14.94,24.81,20.57,14.7,9.24,23.91,12.64,33.66,16.23,10.87,4,22.11,8.15,42.42,21.37,37.4,24.35,71.21,80.82,71.54,81.39.98,1.65,3.38,1.87,5.36.49.18-.12.35-.26.51-.4Z"/>
          </g>
          <path class="cls-37" d="m688.85,2313.09l40.42-3.23c.61-1.58,1.06-3.23,1.37-4.95,3.79-21.62,10.96-54.68,21.22-69.05,15.91-22.28,43.58-35.53,57.65-53.24,14.05-17.7,43.76-33.32,60.82-54.94,17.07-21.61-2.29-42.56,22.36-52.27,24.64-9.7,62.3-22.66,62.3-22.66,0,0,73.54-47.87,55.48-94.18-18.06-46.32-146.66,4.2-209.21,65.2-30.46,29.71-58.76,102.77-79.78,169.92-15.55,49.7-27.11,96.15-32.62,119.38Z"/>
        </g>
      </g>
      <ellipse class="cls-6" cx="1823.6" cy="2331.22" rx="1238.41" ry="68.78"/>
      <g>
        <polygon class="cls-35" points="2932.66 1639.63 2981.97 2344.27 2957.32 2344.27 2879.25 1647.27 2932.66 1639.63"/>
        <polygon class="cls-35" points="2414.83 1639.63 2365.53 2344.27 2390.18 2344.27 2468.24 1647.27 2414.83 1639.63"/>
        <g>
          <path class="cls-12" d="m3147.82,916.82s-394.1-11.68-419.6-9.85c-25.51,1.82-49.09,83.83-49.09,83.83,0,0-115.12,427.09-112.82,438.84,2.29,11.75-107.4,286.97-107.4,286.97,0,0,94.62-2.52,98.81,0,4.19,2.52,365.92-31.04,370.94-34.4,5.02-3.36,23.45-66.29,24.28-69.64.84-3.36,28.47-248.37,28.47-248.37l14.24-135.09s54.43-115.9,55.26-116.27c.84-.36,51.08-101.89,54.43-106.93,3.35-5.04,55.26-61.25,56.94-66.29,1.67-5.04-14.46-22.79-14.46-22.79Z"/>
          <path class="cls-33" d="m3147.82,916.82s-135.87-4.02-253.22-6.98c45.61,26.84,71.18,101.9,52.2,235.43-16.13,113.47-34.05,236.62-105.5,384.3-36.8,76.06-195.26,33.46-325.14,40.98-27.98,72.62-57.25,146.05-57.25,146.05,0,0,94.62-2.52,98.81,0,4.19,2.52,365.92-31.04,370.94-34.4,5.03-3.36,23.44-66.29,24.28-69.64.84-3.36,28.47-248.37,28.47-248.37l14.24-135.09s54.43-115.9,55.26-116.27c.84-.36,51.08-101.89,54.43-106.93,3.35-5.04,55.26-61.25,56.94-66.29,1.67-5.04-14.46-22.79-14.46-22.79Z"/>
          <path class="cls-35" d="m2386.91,1731.64v-.02c-.84-13.47,9.32-25.09,22.76-26,42.11-2.86,133.18-9.38,226.85-18.26,179.56-17.04,244.47-30.98,267.71-38.27,8.02-2.52,14.18-9.03,16.23-17.2,6.3-25.1,10-77.19,13.09-120.76,11.73-165.36,31.07-438.04,200.96-587.75,10.6-9.34,26.92-7.68,35.53,3.54h0c7.84,10.21,6.5,24.8-3.17,33.29-154.78,135.92-172.56,386.54-184.46,554.4-6.79,95.69-10.98,142.65-31.88,164.51-10.08,10.54-28.84,30.15-301.84,56.38-96.85,9.3-192.18,16.13-235.72,19.09-13.54.92-25.21-9.38-26.06-22.95Z"/>
        </g>
      </g>
      <g>
        <g>
          <g>
            <g>
              <path class="cls-21" d="m2672.86,494.04s48.93-22.48,88.27,31.12c39.35,53.6,91.13,186.42,45.98,232.67-45.15,46.25-169.88,4.97-169.88,4.97l-97.22-32.18s35.35-36.82,46.26-141.64c12.17-116.95,86.59-94.94,86.59-94.94Z"/>
              <path d="m2637.24,762.8l-72.74-24.08c9.4-12.78,33.77-53.11,42.49-136.97,12.17-116.95,86.59-94.94,86.59-94.94,0,0,23.56-10.82,51.13.47,5.56,4.72,11.08,10.59,16.43,17.88,39.35,53.6,91.13,186.42,45.98,232.67-45.15,46.25-169.88,4.97-169.88,4.97Z"/>
              <g>
                <path d="m2822.12,696.11c3.28-8.6.68-48.81-20.2-102.75-21.87-56.48-49.02-91.51-80.71-104.1-31.52-12.52-50.38,5.82-50.56,6.01l.51.51c.18-.18,18.72-18.19,49.78-5.85,31.49,12.51,58.51,47.4,80.3,103.69,22.48,58.06,22.67,95.77,20.2,102.23l.68.26Z"/>
                <path d="m2609.11,521.12c11.06-22.08,31.3-32.09,45.43-32.04,14.93.06,19.52,6.07,19.57,6.13l.58-.43c-.19-.26-4.88-6.37-20.15-6.42-14.34-.05-34.88,10.08-46.08,32.44l.65.33Z"/>
                <path d="m2614.49,518.09c2.67-7.64,16.71-30.24,35.93-31.55,19.39-1.32,22.56,8.73,22.59,8.83l.7-.2c-.13-.44-3.32-10.72-23.33-9.36-19.59,1.33-33.86,24.28-36.57,32.03l.68.24Z"/>
                <path d="m2765.92,541.52l.68-.26c-10.2-26.14-27.53-43.57-51.53-51.81-19.74-6.77-42.13,4.15-42.36,4.26l.32.65c.22-.11,22.35-10.9,41.8-4.22,23.79,8.16,40.98,25.45,51.09,51.39Z"/>
                <path d="m2807.16,617.51l.71-.15c-.18-.87-19.03-87.82-72.08-125.28-25.47-17.98-52.78-9.52-64.05,2.23l.52.5c11.08-11.56,37.99-19.87,63.11-2.14,52.83,37.29,71.61,123.97,71.79,124.84Z"/>
                <path class="cls-41" d="m2641.06,529.87s-10.73-7.64-22.33-.5c-13.39,8.23-8.44,34.56,3.19,43.7-7.31-10.22-8.95-15.58-8.47-25.73.48-10.15,13.54-18.62,25.76-15.22,3.22-.54,1.85-2.25,1.85-2.25Z"/>
                <path class="cls-41" d="m2640.58,528.96s-12.99-2.12-20.25,9.4c-8.38,13.3,7.69,34.74,22.16,37.8-11.07-5.94-14.91-10.03-18.96-19.35-4.05-9.32,3.93-22.68,16.39-25.03,2.65-1.9.66-2.84.66-2.84Z"/>
              </g>
            </g>
            <g>
              <g>
                <path class="cls-20" d="m2744.02,504.42c8.27.73,16.64,2.33,24,6.22,10.4,5.5,17.9,15.06,24.27,24.77,19.71,30,30.96,65.12,23.44,99.44-10.88,49.66-51.03,134.89-119.81,134.92-29.86.01-68.83-31.55-75.16-61.76-11.13-53.18-1.22-106.38,19.96-155.13,16.06-36.97,63.88-51.95,103.3-48.46Z"/>
                <g>
                  <g>
                    <g>
                      <path class="cls-4" d="m2824.27,706.79c-4.98,4.83-15.16,6.09-18.53,12.18-.42.82-.85,1.71-1.18,2.61l-25.66,2.3-5.43,62.39-2.31,25.43c-.4,3.32-1.58,14.1-1.88,16.81-.48,4.21-22.86,12.53-42.93,10.78-15.75-1.37-65.59-2.93-62.79-20.02l9.05-55.28c-39.44.62-65.73-37.96-70.18-71.14-1.74-12.93-.78-26.41,1.67-39.69,7.63-41.85,14.06-87.3,36.22-104.98,22.4-17.87,83.35-20.13,110.88-19.19,56.31,1.98,80.21,36.96,85.98,85.07,1.93,16.05-1.19,38.96-7.41,50.83,14.76,8.93,4.33,32.26-5.49,41.88Z"/>
                      <g>
                        <path class="cls-5" d="m2665.9,804.96c61.54-12.26,84.35-62.54,84.35-62.54-39.16,21.09-82.2,22-82.2,22l-2.15,40.54Z"/>
                        <path class="cls-1" d="m2632.3,606.8c10.57.3,19.09,2.77,19.03,5.52-.09,2.77-8.73,4.77-19.31,4.47-10.58-.28-19.1-2.76-19.02-5.53.08-2.76,8.73-4.77,19.3-4.46Z"/>
                        <path class="cls-1" d="m2681.28,619.26c.89-2.8,10.23-2.31,20.89,1.05,10.66,3.38,18.6,8.37,17.74,11.15-.88,2.78-10.26,2.3-20.9-1.08-10.67-3.36-18.6-8.34-17.72-11.12Z"/>
                        <path class="cls-7" d="m2647.56,657.08c2.76-7.55,5.9-16.11,7.75-25.45.34-1.71,2.03-2.86,3.74-2.49,1.72.34,2.83,2.01,2.49,3.74-1.96,9.82-5.18,18.61-8.02,26.38-3.68,10.04-6.84,18.73-4.62,23.38.93,1.91,2.88,3.35,5.96,4.37,1.66.57,2.57,2.37,2.01,4.03-.49,1.48-1.98,2.34-3.47,2.13-.2-.03-.38-.07-.56-.14-4.81-1.61-7.96-4.12-9.66-7.63-3.41-7.08.02-16.46,4.37-28.32Z"/>
                      </g>
                      <g>
                        <path class="cls-22" d="m2670.6,706.88l-33.76-3.78c-2.61-.29-4.81,1.96-4.42,4.57,1.02,6.73,4.79,17.84,18.58,18.68,15.95.98,21.26-8.54,23.02-14.46.7-2.35-.99-4.74-3.42-5.01Z"/>
                        <path class="cls-8" d="m2652.61,710.6c-.77-.2-1.54-.41-2.31-.62-2.2-.61-4.32-.91-6.58-1.25-3.12-.47-5.09-2.52-5.52-5.47l30.66,3.43c-.15,1.67-.58,3.15-2.14,3.95-1.61.83-3.63.84-5.39.8-2.92-.06-5.82-.5-8.72-.85Z"/>
                        <path class="cls-7" d="m2649.18,715.45c6.9.08,13.71,2.1,20,4.98-3.49,3.64-9.12,6.48-18.19,5.92-7.11-.44-11.52-3.61-14.3-7.5,3.7-2.14,7.74-3.45,12.49-3.4Z"/>
                      </g>
                    </g>
                    <path class="cls-7" d="m2687.45,683.32c-.96,11.13,7.29,20.94,18.42,21.9,11.13.96,20.94-7.29,21.9-18.42.96-11.13-7.29-20.94-18.42-21.9-11.13-.96-20.94,7.29-21.9,18.42Z"/>
                    <path class="cls-7" d="m2627.22,674.91c-.96,11.14-10.76,19.39-21.87,18.43-1.01-.09-1.99-.24-2.93-.48-1.53-12.95-.78-26.41,1.67-39.69,1.52-.25,3.12-.3,4.73-.17,11.11.96,19.36,10.76,18.39,21.9Z"/>
                    <path class="cls-2" d="m2673.67,648.59c-.42,3.92,2.41,7.43,6.33,7.86,3.92.42,7.43-2.41,7.86-6.33.42-3.92-2.41-7.43-6.32-7.85-3.92-.42-7.43,2.41-7.86,6.33Z"/>
                    <path class="cls-2" d="m2625.23,640.15c-.42,3.92,2.41,7.43,6.32,7.86,3.92.42,7.43-2.41,7.86-6.32.42-3.92-2.41-7.43-6.33-7.86-3.92-.42-7.43,2.41-7.85,6.33Z"/>
                  </g>
                  <path d="m2785.42,773.42c-36.82,1.07-21.08-58.02-17.79-106.53-3.31-10.36-8.94-38.98-.62-76.08,0,0-65.48-41.19-151.52-21.13-.59.14-1.18.28-1.76.42,8.04-23.3,26.54-56.81,61.12-68.55,39.32-13.32,92.39-.78,124.81,16.44,0,0,.04-.03.07,0,12.78,6.77,22.31,14.26,26.56,21.17,0,0,20.91,13.79,26.89,51.68.97,6.05,1.51,12.41,1.41,19.07-.54,44.47-29.01,162.36-69.18,163.52Z"/>
                  <path class="cls-3" d="m2836.15,635.66s-47.13-23.73-64.47-75.47l27.55,23.25s-7.98-39.67-25.51-53.54c0,0,30.89,12.95,40.18,56.68,0,0,4.12,31.96,22.25,49.07Z"/>
                  <g>
                    <path class="cls-4" d="m2806.09,684.6c-2.41,13.3-22.89,40.82-37.12,36.18-10.68-3.46-5.33-30.26-2.91-43.55.08-.42.16-.83.25-1.24,2.85-13.27,17.42-21.06,29.6-15.07.47.23.93.48,1.38.76,10.14,6.29,10.48,13.69,8.8,22.91Z"/>
                    <g>
                      <path class="cls-7" d="m2770.61,697.83c-.21-.04-.41-.12-.59-.2-1.28-.58-1.83-2.09-1.23-3.39,4.57-10.25,12.24-16.58,21.59-17.85,1.38-.19,2.64.79,2.82,2.2.18,1.39-.8,2.68-2.16,2.87-7.59,1.04-13.87,6.34-17.69,14.89-.5,1.09-1.63,1.68-2.73,1.48Z"/>
                      <path class="cls-7" d="m2787.12,701.23c-1.2-.22-2.1-1.36-2-2.66.27-4.78-2.14-9.25-6.8-12.61-1.11-.81-1.38-2.41-.55-3.58.8-1.14,2.35-1.44,3.48-.61,6.12,4.4,9.28,10.47,8.87,17.07-.1,1.43-1.3,2.51-2.66,2.42-.09,0-.19-.02-.33-.04Z"/>
                    </g>
                  </g>
                </g>
              </g>
              <g>
                <path d="m2719.91,527.98s-37.73,4.4-40.39,45.03c-2.26-22.83-48.19-51.1-30.28-72.46,31.4-37.44,93.52-15.01,103.08-10.48,9.56,4.53-32.41,37.9-32.41,37.9Z"/>
                <path d="m2752.32,490.08s-31.19,28.55-32.41,37.9c0,0,33.01,1.41,57.44,46.54,24.43,45.13,44.8,59.42,44.8,59.42,0,0,32.53-61.95,9.32-107.15-23.21-45.2-79.15-36.7-79.15-36.7Z"/>
                <path d="m2781.46,581.88s22.62,24.66,6.32,60.74c9.1-5.38,18.93-33.22,18.93-33.22l-25.25-27.52Z"/>
                <path d="m2840.6,521.2c-39.35-53.6-88.27-31.12-88.27-31.12,0,0-13.24,9.43-28.48,28,13.88-.8,29.37,4.77,43.74,24.33,39.35,53.6,91.55,174.73,46.4,220.98-4.5,4.61-9.81,8.46-15.71,11.67,33.24,2.55,68.46-.86,88.3-21.19,45.15-46.25-6.63-179.07-45.98-232.67Z"/>
                <path class="cls-21" d="m2806.19,647.35s18.57,84.28-51.71,112.1c31.36,22.47,75.29,28.14,98.74-7.45,23.45-35.59,6.01-132.94-35.62-193.32-34.64-50.23-66.17-58.3-86.65-47.08-12.29,10.61-12.55,16.71-12.55,16.71,0,0,17.11.61,32.99,16.65,15.88,16.03,29.86,53.34,48.83,66.92,7.74,5.61,5.97,35.48,5.97,35.48Z"/>
                <g>
                  <path d="m2796.27,609.1l.24-.68c-7.2-2.52-12.94-11.53-20.21-22.95-11.01-17.29-24.7-38.81-50.93-49.08-6.89-2.7-8.87-5.41-9.31-7.21-.47-1.88.62-3.16.63-3.18l-.55-.47c-.06.06-1.34,1.58-.78,3.82.71,2.86,3.99,5.45,9.75,7.71,26.01,10.18,39.63,31.59,50.58,48.79,7.34,11.54,13.14,20.65,20.58,23.25Z"/>
                  <path d="m2796.07,611.55l.22-.69c-8.69-2.72-11.21-5.17-26.6-32.74-13.88-24.86-30.18-32.54-43.28-38.7-1.4-.66-2.77-1.3-4.11-1.95-7.32-3.56-8.96-6.2-9.04-7.79-.07-1.46,1.16-2.24,1.21-2.27l-.38-.62c-.07.04-1.65,1.03-1.56,2.92.12,2.59,3.3,5.42,9.44,8.41,1.34.65,2.71,1.3,4.12,1.96,13.68,6.44,29.19,13.74,42.96,38.4,15.53,27.8,18.09,30.28,27.02,33.08Z"/>
                </g>
                <path d="m2728.65,517c3.1-1.22,6.45-1.62,9.74-1.65,3.31-.02,6.59.45,9.79,1.25,6.39,1.65,12.36,4.64,17.76,8.41,5.46,3.72,10.6,7.91,15.48,12.36,2.48,2.18,4.79,4.55,7.14,6.87,1.17,1.17,2.26,2.41,3.39,3.61,1.12,1.22,2.27,2.4,3.32,3.68,8.62,10.01,16.35,20.79,22.8,32.32,6.47,11.51,11.73,23.69,15.77,36.25,4.11,12.53,7.08,25.48,9.39,38.51,2.27,13.03,3.5,26.25,3.4,39.45-.21,13.18-2.13,26.42-6.79,38.77-4.43,12.46-12.57,23.42-22.72,31.97l3.84-3.18,1.93-1.59c.6-.57,1.17-1.18,1.76-1.77l3.48-3.59c1.06-1.29,2.07-2.62,3.11-3.93l1.55-1.97c.48-.68.9-1.41,1.35-2.11l2.68-4.25c.79-1.47,1.51-2.98,2.27-4.48l1.12-2.25c.38-.75.63-1.55.95-2.32,5.01-12.45,7.22-25.88,7.7-39.24.02-3.34.05-6.69.03-10.04-.18-3.34-.34-6.68-.57-10.02l-1.03-9.97-1.45-9.91c-2.24-13.16-5.14-26.21-9.24-38.97-8.35-25.41-21.72-49.28-39.66-69.14-1.08-1.27-2.27-2.45-3.43-3.66-1.17-1.19-2.3-2.43-3.5-3.59-2.43-2.3-4.81-4.65-7.36-6.81-5.03-4.4-10.29-8.54-15.91-12.17-5.62-3.66-11.81-6.51-18.36-7.98-6.5-1.41-13.54-1.48-19.7,1.14Z"/>
                <path d="m2818.84,609.29s-4.74-11.82-18.39-33.39c-13.65-21.57-33.48-42.46-51.38-48.39,15.19,9.81,32.02,22.68,44.95,44.19,12.93,21.51,21.9,44.02,21.9,44.02l2.93-6.43Z"/>
                <path d="m2816.44,636.93s9.43,28.54,3.78,64.44c-5.65,35.91-34.03,58.1-46.48,61.67,13.86-8.7,32.17-23.89,39.1-50.57,6.93-26.67,4.9-46.72,1.03-67.6.04-8.85,2.57-7.95,2.57-7.95Z"/>
              </g>
              <g>
                <path d="m2575.36,601.73c46.91,5.46,45.01,6.58,63.56-36.77-2.36,12.94-4.72,25.89-7.08,38.83,9.79-1.69,19.96-1.1,29.49,1.69,1.86-12.52,6.43-24.63,13.3-35.25-.41,13.94-.81,27.88-1.22,41.83,31.9,5.57,63.36,13.32,94.46,22.33,8.93,2.41,9.96-5.34,10.78-12.56,7.33-49.58-38.93-149.64-96.85-127.68-48.76-38.02-117.85,56.77-106.44,107.59Z"/>
                <g>
                  <path class="cls-21" d="m2755.71,618.07c.59,0,1.13-.4,1.27-1,6.75-28.18-.88-59.25-19.92-81.1-5.93-6.81-12.25-11.89-18.79-15.11-.65-.32-1.43-.05-1.75.6-.32.65-.05,1.43.6,1.75,6.22,3.06,12.27,7.94,17.97,14.48,18.49,21.22,25.9,51.4,19.35,78.77-.17.7.26,1.41.97,1.58.1.02.2.04.31.04Z"/>
                  <path class="cls-21" d="m2723.15,606.76c.67,0,1.24-.51,1.3-1.19,1.46-16.48.97-29.54-1.54-41.13-3.21-14.85-9.91-27.38-19.35-36.23-.53-.49-1.36-.47-1.85.06-.49.53-.47,1.36.06,1.85,11.44,10.72,16.42,24.88,18.58,34.87,2.45,11.32,2.92,24.13,1.49,40.34-.06.72.47,1.36,1.19,1.42.04,0,.08,0,.12,0Z"/>
                  <path class="cls-21" d="m2683.67,603.48c.57,0,1.1-.38,1.26-.95,6.66-23.64,8.95-48.04,6.8-72.51-.06-.72-.72-1.24-1.42-1.19-.72.06-1.25.7-1.19,1.42,2.12,24.15-.13,48.24-6.71,71.57-.2.7.21,1.42.91,1.62.12.03.24.05.36.05Z"/>
                  <path class="cls-21" d="m2603.63,593.33c.55,0,1.06-.34,1.24-.89,9.95-29.36,31.29-54.68,58.54-69.46.64-.34.87-1.14.53-1.78-.35-.64-1.14-.87-1.78-.53-27.83,15.09-49.62,40.94-59.78,70.92-.23.68.13,1.43.82,1.66.14.05.28.07.42.07Z"/>
                  <path class="cls-21" d="m2586.97,589.01c.64,0,1.2-.47,1.29-1.12,4.31-29.8,23.82-56.49,50.91-69.64.65-.32.92-1.1.61-1.75-.32-.65-1.1-.92-1.75-.61-27.86,13.53-47.92,40.97-52.35,71.62-.1.72.39,1.38,1.11,1.48.06,0,.13.01.19.01Z"/>
                </g>
              </g>
            </g>
            <g>
              <path class="cls-8" d="m2604.62,655.16c-2.62-6.28-2.83-13.53-.58-20.43,2.25-6.9,6.69-12.64,12.51-16.17,5.92-3.59,12.54-4.47,18.65-2.47,6.11,1.99,10.95,6.61,13.61,12.99,2.62,6.28,2.83,13.53.58,20.43-4.68,14.35-18.66,22.72-31.16,18.64-.57-.18-1.12-.39-1.66-.62-5.33-2.24-9.53-6.58-11.95-12.37Zm40.86-6.93c1.94-5.96,1.78-12.2-.46-17.57-2.2-5.26-6.13-9.04-11.09-10.66-4.96-1.61-10.37-.88-15.24,2.08-4.97,3.02-8.78,7.96-10.73,13.93-1.94,5.96-1.78,12.2.46,17.57,2.19,5.26,6.12,9.05,11.09,10.66,10.35,3.37,22-3.81,25.97-16l1.96.64-1.96-.64Z"/>
              <path class="cls-8" d="m2658.4,664.05c-2.62-6.28-2.82-13.53-.58-20.43,2.25-6.9,6.69-12.64,12.51-16.17,5.92-3.59,12.54-4.47,18.65-2.47,12.51,4.07,18.87,19.07,14.19,33.42h0c-2.25,6.9-6.69,12.64-12.51,16.17-5.91,3.59-12.54,4.47-18.65,2.47-.56-.18-1.12-.39-1.66-.62-5.33-2.24-9.53-6.58-11.95-12.37Zm40.86-6.93c3.97-12.2-1.2-24.84-11.55-28.24-4.96-1.61-10.37-.88-15.24,2.08-4.98,3.02-8.78,7.96-10.73,13.92-1.94,5.96-1.78,12.2.46,17.57,2.2,5.26,6.14,9.05,11.09,10.66,4.96,1.62,10.37.88,15.24-2.08,4.97-3.02,8.79-7.96,10.73-13.92h0Z"/>
              <path class="cls-8" d="m2648.69,640.14c3.69-2.17,8.13-2.03,11.6.55,1.59,1.19-.32,3.61-1.91,2.42-2.27-1.69-5.37-1.96-7.83-.51-1.69,1-3.57-1.46-1.85-2.47h0Z"/>
              <path class="cls-8" d="m2703.2,650.32c22.37,3.16,52.09,8.93,66.61,12.18,1.93.43.64,5.53-1.26,4.95-12.14-3.73-50.29-10-64.51-11.77-1.96-.24-3.37-1.79-1.57-2.65l.73-2.7Z"/>
            </g>
          </g>
          <path class="cls-20" d="m2764.87,807.79l34.91,11.59s-28.34,52.42-42.23,59.36c-13.89,6.95-67.39,18.02-84.85,8.26-17.46-9.76-50.5-58.57-50.5-58.57l9.75-11.18,42.43-6.09,90.48-3.38Z"/>
        </g>
        <g>
          <g>
            <g>
              <g>
                <g>
                  <path class="cls-20" d="m2409.03,1253.33h98.86s8.94-46.87,17.85-91.96c8.21-41.62,16.39-81.73,17.48-82.09l-81.92-63.57c-.18-.08-8.93,39.52-19.21,86.41-14.91,67.95-33.06,151.21-33.06,151.21Z"/>
                  <path class="cls-7" d="m2442.08,1102.12c19.55,13.82,55.87,43.79,83.66,59.25,8.21-41.62,16.39-81.73,17.48-82.09l-81.92-63.57c-.18-.08-8.93,39.52-19.21,86.41Z"/>
                </g>
                <g>
                  <path class="cls-23" d="m2414.16,1057.38l38.25,17.94,82.31,38.6,4.41,2.07,7.92-281.69c-4.75,1.19-42.72,5.94-68.82,58.15-26.1,52.21-64.07,164.93-64.07,164.93Z"/>
                  <path class="cls-23" d="m2535.4,1116.13l-19.92,246.92h350.84s8.06-258.23,8.06-258.23l8.16-261.5-82.76-23.93-23.29,24.6c-43.2,45.61-118.96,32.25-143.95-25.39l-.58-1.33-84.91,17.04-22.78,132.1s-15.43,40.99-11.71,76.53c4.39,41.88,22.84,73.19,22.84,73.19Z"/>
                  <path class="cls-13" d="m2707.5,1363.04h158.83s8.06-258.23,8.06-258.23c-19.19-33.28-36.07-56.93-36.07-56.93l-21.5-2.56,6.28-114.54s-37.42,109-30.81,187.19c6.6,78.18,14.63,136.5-5.74,170.64-13.57,22.74-50.11,62.11-79.03,74.44Z"/>
                  <path class="cls-23" d="m2881.43,842.99s50,23.27,56.03,103.81c5.45,72.87,13.25,101.09,13.25,101.09h-133.77s-6.78-124.06,25.21-164.02c2.64-3.3,39.28-40.89,39.28-40.89Z"/>
                </g>
                <g>
                  <g>
                    <path class="cls-20" d="m2564.45,926.01l37.86,62.33,32.37,22.16s17.02,12,30.87,19.39c13.85,7.39,35.09,18.01,35.09,18.01l55.86-49.86s-36.01-49.4-41.55-55.86c-5.54-6.46-66.94-34.16-66.94-34.16,0,0-7.39,3.23-.46,13.85,6.92,10.62,22.16,26.32,22.16,26.32l13.39,5.54-20.31-4.16-28.1-22.62s-13.45-17.54-20.83-12.93c-7.39,4.62-7.85,10.16-4.16,17.08,3.69,6.92,16.16,19.85,16.16,19.85l26.68,23.64-12.83-4.25s-40.63-44.32-47.55-45.71c-6.92-1.38-9.72.46-9.72.46,0,0-10.13-13.39-17.98.92Z"/>
                    <path class="cls-7" d="m2664.82,1003.27c-.1.36-6.33-1.51-16.2-4.99-4.94-1.74-10.8-3.86-17.28-6.31-3.24-1.26-6.62-2.57-10.13-3.93-1.75-.72-3.53-1.43-5.32-2.22-.9-.37-1.8-.82-2.71-1.26-1.2-.61-1.72-1.46-2.38-2.23-9.71-12.8-17.36-25.07-22.85-34-2.71-4.48-4.81-8.17-6.18-10.76-1.37-2.59-2.04-4.07-1.96-4.12.1-.05.95,1.32,2.49,3.81,1.71,2.72,3.93,6.24,6.59,10.48,5.71,8.74,13.54,20.95,23.13,33.6.62.76,1.24,1.58,1.88,1.82.87.41,1.72.84,2.61,1.22,1.78.75,3.54,1.49,5.27,2.22,3.49,1.39,6.85,2.73,10.07,4.01,6.38,2.46,12.17,4.7,17.14,6.61,4.68,1.78,8.58,3.26,11.58,4.4,2.74,1.07,4.23,1.54,4.24,1.63Z"/>
                    <path class="cls-7" d="m2685.3,982.18c-.03.42-7.82,0-17.08-2.39-9.24-2.38-16.46-5.06-16.36-5.43.13-.46,7.58,1.55,16.74,3.91,9.15,2.37,16.74,3.47,16.7,3.91Z"/>
                    <path class="cls-7" d="m2715.51,958.88c-.02.21-2.48.17-6.44-.2-3.96-.37-9.4-1.14-15.35-2.27-5.95-1.13-11.29-2.33-15.15-3.24-3.86-.92-6.22-1.56-6.18-1.78.08-.46,9.77,1.17,21.62,3.48,5.93,1.13,11.3,2.06,15.2,2.71,3.9.65,6.32,1.07,6.3,1.3Z"/>
                  </g>
                  <g>
                    <path class="cls-20" d="m2690.39,1041.98s14.08,26.89,32.34,61.37c30.2,57.05,71.83,134.92,80.03,146.23,14.17,19.54,27.14,31.57,61.56,28.59,33.95-2.94,67.04-17.27,71.05-72.43,1.34-18.47,2.71-82.31,3.48-122.92.38-20.38.61-34.92.61-34.92l-101.16-.02-.1,36.7-.03,10.21-8.42-10.07-77.89-93.03-61.47,50.29Z"/>
                    <path class="cls-7" d="m2838.3,1047.88l-.1,36.7,100.65-1.76c.38-20.38.61-34.92.61-34.92l-101.16-.02Z"/>
                    <path class="cls-7" d="m2904.07,1211.21c-.13,0-.28-1.91-.66-5.35-.38-3.44-1.13-8.39-2.56-14.4-2.75-12.03-9.07-28.09-19.07-44.08-9.96-16.03-21.98-28.39-30.31-37.54-4.21-4.56-7.6-8.26-9.88-10.88-1.03-1.2-1.88-2.21-2.59-3.04-.58-.71-.86-1.1-.82-1.13.08-.07,1.44,1.28,3.86,3.76,2.6,2.67,6.05,6.22,10.24,10.53,8.52,8.96,20.75,21.25,30.83,37.48,10.09,16.13,16.32,32.45,18.82,44.66,1.31,6.1,1.89,11.12,2.08,14.59.14,1.73.11,3.09.13,4,0,.92-.02,1.4-.08,1.4Z"/>
                  </g>
                </g>
              </g>
              <g>
                <path class="cls-20" d="m2506.44,1222.02c4.76,48.8-10.19,76.39-48.39,66.49-30.15-7.82-184.59-147.55-184.59-147.55l39.7-59.24s188.53,91.51,193.29,140.3Z"/>
                <g>
                  <path class="cls-20" d="m2224.48,1160.95c3.88,11.81,11.6,14.45,21.61,20.87,10.01,6.42,28.86,6.02,53.02.34,6.41-1.5,18.89.13,31.8,2.71,1.05-8.37,3.23-16.48,6.27-23.1.56-1.22,1.08-2.44,1.55-3.67,4.73-12.14,5.42-24.28,4.63-34.26-8.22-3.16-15.39-6.69-18.82-10.27-10.87-11.36-40.9-44.95-51.93-48.76-6.11-2.11-16.07-2.19-24.92.4-7.09,2.07-13.46,5.86-16.52,11.65-9.35,17.67-10.59,72.28-6.7,84.08Z"/>
                  <path class="cls-20" d="m2250.94,1063.43s-10.98.05-17.75,5.56c-6.78,5.51-4.09,12.79-4.09,12.79,0,0-11.75,6.76-4.77,22.97-6.21,4.33-8.89,16.57-1.9,30.65-4.97,6.38-5.38,19.02,3.94,30.05,7.57-1.51,24.58-102.02,24.58-102.02Z"/>
                  <path class="cls-20" d="m2251.14,1086.43s15.39-1.39,33.49-.94c16.13.4,13.94,38.51,13.48,58.06-.46,19.55-5.39,28.16-13.57,33.03-8.18,4.87-25.74,5.47-42.24-3.41-16.49-8.88,8.84-86.75,8.84-86.75Z"/>
                  <g>
                    <path class="cls-7" d="m2232.76,1169.53c5.79,3.81,12.22,6.6,18.88,8.71,6.67,2.06,13.7,3.27,20.81,3.04,3.54-.23,7.12-.6,10.56-1.65,3.38-1.06,7.01-2.27,9.64-5.28,1.28-1.49,2.2-3.4,2.29-5.43,0-2.01-.66-3.87-1.64-5.44-2.17-2.95-5.31-5.17-8.8-5.57,3.25,1.16,5.86,3.59,7.31,6.45.69,1.44,1.05,2.96.91,4.4-.22,1.43-.98,2.68-2.04,3.71-2.18,2.04-5.38,3.16-8.54,3.92-3.17.87-6.5,1.19-9.81,1.35-6.66.3-13.36-.75-19.99-2.12-6.61-1.51-13.14-3.58-19.58-6.08Z"/>
                    <path class="cls-7" d="m2222.42,1135.4c4.53,7.58,11.52,13.69,19.45,17.84,7.87,4.38,17.11,6.1,25.9,6.62,8.77.56,18.01.86,26.71-2.5,2.13-.89,4.17-2,6.02-3.38,1.91-1.31,3.82-3.63,3.58-6.39-.3-2.65-2.09-4.53-3.88-5.85-1.83-1.35-3.97-2.3-6.2-2.44,4.06,1.18,8.02,4.67,8.21,8.38-.08,3.66-5.09,5.52-8.76,6.89-7.97,2.67-16.82,2.2-25.46,1.83-8.71-.41-17.17-1.7-25.05-5.34-7.79-3.57-15.01-8.8-20.51-15.67Z"/>
                    <path class="cls-7" d="m2224.32,1104.75c2.07,8.39,7.72,15.81,14.79,20.97,7.02,5.39,15.62,8.37,24.21,9.87,8.6,1.42,17.38,2.16,26.19.19,4.19-1.09,9.08-3.27,10.81-8.01,1.35-4.54-.39-9.72-4.25-11.88,3.31,2.82,3.88,7.72,2.45,11.18-1.61,3.53-5.74,5.08-9.67,5.77-8.06,1.43-16.7.51-24.96-.67-8.23-1.39-16.36-3.89-23.36-8.49-6.97-4.53-12.94-10.99-16.21-18.94Z"/>
                    <path class="cls-7" d="m2229.09,1081.78c1.77,8.29,7,15.79,13.76,21.1,6.67,5.56,14.99,8.83,23.37,10.62,8.41,1.69,16.94,2.73,25.7,1.2,2.16-.52,4.34-1.23,6.3-2.53,1.96-1.27,3.53-3.34,4.09-5.62.96-4.41-.59-9.5-4.44-11.6,3.28,2.8,3.79,7.47,2.6,11.06-1.23,3.68-5.23,5.17-9.09,5.71-7.94.98-16.41-.15-24.46-1.61-8.03-1.64-15.9-4.41-22.59-9.19-6.69-4.68-12.28-11.25-15.24-19.15Z"/>
                  </g>
                  <g>
                    <path class="cls-20" d="m2247.71,1065.22c-4.63,13.62-8.99,61.25-8.47,68.35.59,7.96,18.68,7.29,24.57-11.26,5.89-18.54,5.67-32.95,5.67-32.95l8.99-2.01s10.53,40.61,26.47,57.08c5.02,5.19,19.13,9.93,33.79,13.68,4.73-12.14,5.42-24.28,4.63-34.26-1.08-13.6-4.87-23.16-4.87-23.16-10.41-6.07-34.59-39.19-44.23-47.93-9.64-8.74-39.67,4.42-44.86,9.12-.57.51-1.14,1.67-1.71,3.34Z"/>
                    <path class="cls-7" d="m2299.12,1182.16s24.32-8.94,34.87-43.91c-.7,13.85-10.57,39.86-34.87,43.91Z"/>
                    <path class="cls-7" d="m2321.46,1152.66c-7.05,0-12.82-4.84-17.26-9.76-4.46-5.15-7.85-11.13-10.94-17.18-5.87-12.34-9.79-25.52-13.25-38.76l-.39-1.48-1.5.32-9,1.95-1.13.24-.15,1.19c-1.31,10.44-2.93,20.98-5.7,31-1.42,4.99-3.58,9.6-7.89,11.91-2.08,1.15-4.48,1.73-6.9,1.76-2.3.07-5.15-.54-6.44-1.61l.42,1.05c-.1-10.14.55-20.34,1.44-30.51.87-10.18,1.81-20.37,3.1-30.52-3.81,20.11-6.94,40.39-7.54,61.03l-.02.69.45.36c2.88,2.32,5.69,2.47,8.6,2.6,2.89,0,5.81-.66,8.41-2.06,5.4-2.78,8.09-8.67,9.58-13.71,3.15-10.41,4.58-21,5.75-31.65l-1.27,1.43,8.98-2.06-1.88-1.16c1.9,6.66,3.66,13.36,6.11,19.86,2.33,6.53,5.12,12.91,8.29,19.09,3.34,6.09,7.03,12.08,11.97,17.04,4.84,4.78,11.1,9.36,18.16,8.92Z"/>
                  </g>
                </g>
              </g>
            </g>
            <path class="cls-13" d="m2534.72,1113.93c-2.23-3.66-39.88-67.31-10.44-147.52l-71.87,108.92,82.31,38.6Z"/>
          </g>
          <g>
            <g>
              <path class="cls-20" d="m2567.99,2045.26s81.45,117.05,82,125.66c.54,8.61-3.27,102.59-13.07,111.2-9.8,8.61-38.58,14.72-29.33,24.4,6.99,7.32,60.8,5.75,96.45,3.79,10.41-.57,23.46-83.78,27.59-96,5.99-17.76,20.55-57.76,15.1-70.14-2.65-6.03-15.34-18.43-33.22-30-18.81-12.17-57.23-79.01-57.23-79.01l-88.29,10.1Z"/>
              <path class="cls-20" d="m2170.34,2110.87s-56.13,94.88-51.19,124.9c2.64,16.08,14.42,37.11,7.66,52.24-6.76,15.13-14.48,18.91-14.48,18.91l-175.09,3.38c-9.54.18-3.23-7.17,4.46-13.95,12.59-11.09,22.75-18.42,62.95-41.73,2.62-1.52,12.17-8.79,15.61-11.32,8.73-6.39,17.5-16.44,25.05-26.51,12.57-16.77,67.86-153.45,67.86-153.45l57.18,47.53Z"/>
              <path class="cls-20" d="m2020.29,2243.29c46.31,14.24,80.53,4.56,99.68-4.69,4.94,16.77,11.48,37.81,8.01,49.94-4.25,14.85-10.3,18.21-15.65,18.38-42.3,1.33-154.93,3.14-187.18,3.65-4.5.07-6.99-6.24-4.09-10.38,8-11.45,95.78-54.37,99.23-56.9Z"/>
              <path class="cls-20" d="m2494.57,1578.23c-5.28,0-121.2-52.73-121.2-52.73,0,0,71.35,92.54,87.22,110.34.45.5.9,1.02,1.35,1.53,50.38,57.16,93.35,142.49,125.6,219.86,40.64,97.53,68.74,177.93,68.74,177.93l-56.43,54.12s-68.02-98.14-135.52-200.55h0c-25.91-39.32-51.77-79.27-73.66-114.54-9.62-15.52-18.49-30.13-26.26-43.38-47.38-80.8-43.89-94.16-57.34-126.47-3.26-7.81-7.5-16.72-13.7-27.98-.84-1.5-1.7-3.05-2.6-4.64-19.54-34.5-15.11-81.15,10.66-109.14,3.21-3.48,6.69-7.12,10.48-10.9,52.55-52.59,412.79-111.79,412.79-111.79l130.92,29.43.22.02s-88.98,156.16-96.01,160.39c-3.65,2.19-73.8,15.22-141.05,27.22-62.07,11.07-121.66,21.28-124.19,21.28Z"/>
              <path class="cls-20" d="m2859.47,1580.57c-37.03,41.5-89.06,51.85-225.69,55.53-65.34,1.77-127.31,1.47-171.83,1.26-11.43-.04-21.72-.09-30.61-.09,0,0-24.96,82.14-40.68,136.91-5.94,20.73-10.57,37.54-12.02,44.48-1.04,5.02-11.26,22.21-26.96,46.57-63.49,98.49-216.82,314-216.82,314l-52.75-43.46s60.1-144.71,123.19-294.01c36.63-86.75,74.29-175.05,101.75-237.42,9.75-22.16,18.21-41.04,24.89-55.42,7.57-16.31,12.84-26.83,15.08-29.76,19.32-25.31,295.11-126.55,363.61-149.75,54.01-18.29,90.12-5.39,144.97-.11l.22.02c7.29.71,13.14,1.31,17.17,1.74,4.03.43,6.24.68,6.24.68,0,0,39.52,142.37-19.77,208.81Z"/>
              <path class="cls-7" d="m2587.54,1857.23c-34.2,13.97-79.97,27.2-123.22,31.5h0c-25.91-39.32-51.77-79.27-73.66-114.54-5.94,20.73-10.57,37.54-12.02,44.48-1.04,5.02-11.26,22.21-26.96,46.57-56.76-31.64-122.1-26.77-146.38-23.48,36.63-86.75,74.29-175.05,101.75-237.42-3.26-7.81-7.5-16.72-13.7-27.98,12.46-9.38,25.41-18.57,38.59-27.44,89.5-60.26,190.1-106.53,226.74-102.82,25.28,2.56,45.52,50.1,60.08,110.83,5.98,24.9,11,52.01,15.02,79.16-65.34,1.77-127.31,1.47-171.83,1.26,50.38,57.16,93.35,142.49,125.6,219.86Z"/>
            </g>
            <path class="cls-30" d="m2139.79,1835.46c7.85,25.02,113.07-80.79,211.53-26.63,98.47,54.15,243.68,2.01,243.68,2.01,0,0-48.71-119.63-34.86-137.96,1.04-1.36,2.41-2.16,4.17-2.31,23.36-2.04,427.22,66.13,349.71-211.93h0c-7.21-25.86-17.47-55.28-34.79-86.87-27.85-50.79-154.55-31.88-154.55-31.88,0,0-140,11.63-179.58,19.22-39.57,7.59-251.89,48.66-271.01,95.82-19.12,47.16-142.16,355.51-134.31,380.53Z"/>
            <path class="cls-16" d="m2428.1,1831.7s-95.06-132.88-113.13-216.56c0,0-29.7,111.1-10.11,178.45,0,0,39.63,9.36,64.23,26.11,24.6,16.76,59.01,11.99,59.01,11.99Z"/>
            <path class="cls-16" d="m2560.14,1672.88c1.04-1.36,2.41-2.16,4.17-2.31,23.36-2.04,427.22,66.13,349.71-211.93-3.66,168.7-127.45,184.14-205.48,183.2-78.29-.95-153.12-49.94-173.38-54.07-20.07-4.09,24.12,83.44,24.97,85.12Z"/>
            <path class="cls-20" d="m1952.58,2279.21s-14.87,8.42-28.25,7.65c-13.39-.78-9.86,18.13-4.52,20.92,5.34,2.79,60.17-10.07,60.17-10.07l-27.4-18.49Z"/>
          </g>
        </g>
      </g>
      <g>
        <g>
          <rect class="cls-26" x="2074.05" y="1281.37" width="7.03" height="1123.74" transform="translate(-663.05 1392.85) rotate(-32.25)"/>
          <rect class="cls-26" x="1515.69" y="1839.73" width="1123.74" height="7.03" transform="translate(-590.09 2616.17) rotate(-57.74)"/>
        </g>
        <path class="cls-27" d="m1418.62,1329.21h1291.45c21.9,0,39.67,17.78,39.67,39.67v39.56h-1370.8v-39.56c0-21.9,17.78-39.67,39.67-39.67Z"/>
      </g>
      <g>
        <path class="cls-19" d="m2578.53,1329.13h-663.03c-14.23,0-26.43-10.15-29.01-24.13l-5.06-27.3-52.08-281.24c-2.29-11.52,6.49-22.27,18.24-22.31h438.28c8.94,0,16.76,6.01,19.07,14.65l83.87,314.23s150.99,9.03,168.57,9.86c17.57.83,21.15,16.25,21.15,16.25Z"/>
        <path class="cls-10" d="m2044.5,1214.05c-76.45,45.13-132.21,59.33-163.07,63.65l-52.08-281.24c-2.29-11.52,6.49-22.27,18.24-22.31h274.75c8.18,60.88,12.56,186.53-77.85,239.9Z"/>
        <path class="cls-26" d="m2388.81,1303.02h-22.22s-70.76-267.79-81.33-301.44c-4.2-13.37-8.4-21.95-11.96-27.44h12.57c8.94,0,16.76,6.01,19.07,14.65l83.87,314.23Z"/>
        <path class="cls-26" d="m2133.77,1157.99c0,23.36-21.55,42.31-48.13,42.31-26.58,0-48.13-18.94-48.13-42.31,0-23.36,21.55-42.31,48.13-42.31,26.58,0,48.13,18.94,48.13,42.31Z"/>
      </g>
      <g>
        <g>
          <polygon class="cls-27" points="1176.54 1877.23 1176.54 1288.76 953.19 1339.2 729.8 1288.76 506.43 1339.2 283.06 1288.76 283.06 1877.23 506.43 1927.66 729.8 1877.23 953.19 1927.66 1176.54 1877.23"/>
          <polygon class="cls-31" points="1176.54 1877.23 1176.54 1288.77 953.16 1339.24 953.16 1927.69 1176.54 1877.23"/>
          <polygon class="cls-31" points="729.78 1877.23 729.78 1288.77 506.4 1339.24 506.4 1927.69 729.78 1877.23"/>
        </g>
        <g class="cls-14">
          <path class="cls-40" d="m303.87,1314.01v193.86q0,.11,0,.21v345.14s199.4,44.99,199.4,44.99l3.12-.71,220.23-49.72,3.12.7,220.23,49.73,3.22-.71,196.17-44.28v-539.21s-196.17,44.29-196.17,44.29l-3.22.7-220.23-49.72-3.12-.71-220.23,49.73-3.12.7-199.4-44.99Zm9.66,11.98l189.73,42.88,3.12-.71,220.23-49.72,3.12.7,220.23,49.73,3.22-.71,186.51-42.17v519.57s-186.51,42.08-186.51,42.08l-3.22.7-220.23-49.72-3.12-.71-220.23,49.73-3.12.7-189.73-42.78v-519.57Z"/>
        </g>
        <path class="cls-8" d="m785.7,1798.65v-93.71s-52.24,0-52.24,0v15.5s36.84,0,36.84,0v62.81h-260.49v-217.61h156.82v154.8s15.5,0,15.5,0v-170.31s-131.05,0-131.05,0v-106.39h244.69v108.31h-62.3s0,15.5,0,15.5h245.09v158.63h-119.88v-115.75s-15.5,0-15.5,0v131.25s150.88,0,150.88,0v-189.63s-182.89,0-182.89,0v-123.81s-275.59,0-275.59,0v121.9h-41.27s0,248.52,0,248.52h291.4Zm-236.64-12.29h70.36v9.26h-70.36v-9.26Zm405.13-48.21h-70.46v-9.36h70.46v9.36Zm27.48-148.36h9.26v80.12h-9.26v-80.12Zm-290.49-158.43h70.46v9.26h-70.46v-9.26Zm-103.87,0h70.56v9.26h-70.56v-9.26Zm-80.63,329.64h-9.26v-70.46h9.26v70.46Zm-9.26-174.43h9.26v70.56h-9.26v-70.56Z"/>
        <rect class="cls-8" x="527.6" y="1386.9" width="170.54" height="12.02"/>
        <path class="cls-40" d="m512.32,1562v.21c.5,1.21,1.01,2.31,1.51,3.42,5.23,10.77,16.21,18.42,28.89,18.82.4.1.9.1,1.31.1,13.29,0,24.76-7.75,30.2-18.92,2.22-4.42,3.43-9.46,3.43-14.69v-.81c-.4-15.7-11.58-28.89-26.57-32.01-2.22-.5-4.63-.81-7.05-.81-2.92,0-5.74.4-8.45,1.11-3.02.7-5.84,1.91-8.35,3.42-1.11.6-2.11,1.21-3.02,2.01-1.11.71-2.11,1.61-3.02,2.42-1.81,1.71-3.32,3.53-4.73,5.53-3.12,4.53-5.23,9.87-5.84,15.71v.1c-.1.81-.2,1.61-.2,2.52v.81c0,3.92.7,7.65,1.91,11.07Zm14.9-31.5c2.52-2,5.34-3.62,8.35-4.63,2.62-.9,5.53-1.41,8.45-1.41,2.42,0,4.83.31,7.05,1,10.97,3.03,19.02,12.89,19.42,24.66v.81c0,5.44-1.61,10.47-4.43,14.69-4.63,6.74-12.28,11.37-21.03,11.68h-1.01c-9.16,0-17.21-4.63-21.94-11.68-2.22-3.32-3.73-7.05-4.23-11.18v-.29c-.1-1.01-.2-2.11-.2-3.22v-.81c.2-7.85,3.93-14.89,9.56-19.63Z"/>
        <path class="cls-40" d="m673.47,1750.53c18.52,0,33.62-15.1,33.62-33.62,0-6.95-2.22-13.49-5.74-18.92-1.41-2.02-3.02-3.82-4.83-5.44-3.92-3.82-8.86-6.65-14.39-8.05-2.72-.81-5.64-1.21-8.66-1.21-2.32,0-4.63.2-6.85.7-15.3,3.22-26.78,16.71-26.78,32.92,0,18.52,15.1,33.62,33.62,33.62Zm-6.85-59.18c2.21-.61,4.53-.9,6.85-.9,3.02,0,5.94.5,8.66,1.5,10.37,3.53,17.82,13.39,17.82,24.97,0,14.49-11.88,26.37-26.47,26.37s-26.37-11.88-26.37-26.37c0-12.18,8.36-22.55,19.53-25.57Z"/>
        <path class="cls-40" d="m951.58,1738.15c.2,1.21.4,2.42.81,3.53,3.62,12.98,14.9,22.84,28.68,24.36,1.21.1,2.42.2,3.63.2s2.41-.1,3.62-.2c16.81-1.81,29.99-16.1,29.99-33.42,0-15.3-10.27-28.28-24.26-32.41-2.92-.81-6.14-1.31-9.36-1.31-2.11,0-4.13.2-6.14.6-13.49,2.52-24.25,13.08-26.77,26.68-.2.81-.4,1.71-.4,2.61-.2,1.21-.31,2.52-.31,3.82,0,1.92.2,3.73.51,5.53Zm26.97-31.3c2.02-.5,4.03-.71,6.14-.71,3.32,0,6.44.61,9.36,1.81,9.97,3.73,17.11,13.39,17.11,24.66,0,14.5-11.88,26.37-26.47,26.37-11.38,0-21.04-7.24-24.76-17.31-1.01-2.82-1.61-5.84-1.61-9.06,0-2.21.3-4.33.81-6.44,2.32-9.56,9.86-17.01,19.42-19.32Z"/>
        <path class="cls-40" d="m771.91,1567.55c2.72,15.7,16.51,27.68,33.01,27.68,7.55,0,14.5-2.42,20.03-6.65,6.74-5.03,11.57-12.48,12.99-21.03.4-1.92.6-3.93.6-5.95,0-3.31-.51-6.54-1.41-9.55-1.41-4.74-3.82-9.06-7.05-12.69-1.51-1.81-3.22-3.31-5.13-4.73,0-.1-.1-.1-.2-.1-3.93-3.02-8.56-5.03-13.59-5.94-2.01-.4-4.13-.61-6.24-.61-3.22,0-6.24.4-9.16,1.31-11.07,3.13-19.83,11.79-23.05,22.75-.91,3.02-1.41,6.24-1.41,9.55,0,2.02.2,4.03.6,5.95Zm23.86-30.71c2.82-1.1,5.94-1.71,9.16-1.71,2.11,0,4.23.31,6.24.81,5.44,1.31,10.27,4.34,13.79,8.45,2.02,2.22,3.52,4.84,4.63,7.66,1.21,2.92,1.81,6.13,1.81,9.55,0,2.02-.2,4.03-.71,5.95-.9,4.23-2.92,8.05-5.74,11.27-4.83,5.63-11.98,9.15-20.03,9.15-12.58,0-23.05-8.76-25.66-20.42-.5-1.92-.7-3.93-.7-5.95,0-3.42.6-6.63,1.81-9.55,2.72-7.05,8.35-12.69,15.4-15.21Z"/>
        <polygon class="cls-40" points="523.85 1529.02 518.72 1534.09 489.66 1505.02 425.52 1505.02 425.52 1497.82 492.64 1497.82 523.85 1529.02"/>
        <polygon class="cls-40" points="795.41 1660.67 795.41 1667.89 731.41 1667.89 699.03 1700.27 693.91 1695.17 728.43 1660.67 795.41 1660.67"/>
        <polygon class="cls-40" points="933.11 1495.36 933.11 1502.57 866.94 1502.57 827.59 1541.92 822.48 1536.83 863.96 1495.36 933.11 1495.36"/>
        <polygon class="cls-40" points="981.1 1809.35 981.1 1762.59 988.32 1762.59 988.32 1812.32 959.11 1841.54 907.1 1841.54 907.1 1834.32 956.12 1834.32 981.1 1809.35"/>
      </g>
      <g>
        <path class="cls-27" d="m2621.55,210.33h342.33c9.89,0,17.98,8.09,17.98,17.98v126.02c0,9.89-8.09,17.98-17.98,17.98h-137.52c-9.89,0-23.81,5.61-30.93,12.46l-44.62,42.91c-7.12,6.86-12.96,4.37-12.96-5.51v-31.89c0-9.89-8.09-17.98-17.98-17.98h-98.33c-9.89,0-17.98-8.09-17.98-17.98v-126.02c0-9.89,8.09-17.98,17.98-17.98Z"/>
        <g>
          <path class="cls-8" d="m2642.65,248.38h300.13c3.58,0,6.49,2.91,6.49,6.49s-2.91,6.49-6.49,6.49h-300.13c-3.58,0-6.49-2.9-6.49-6.49s2.91-6.49,6.49-6.49Z"/>
          <path class="cls-8" d="m2642.65,280.74h300.13c3.58,0,6.49,2.91,6.49,6.49s-2.91,6.49-6.49,6.49h-300.13c-3.58,0-6.49-2.91-6.49-6.49s2.91-6.49,6.49-6.49Z"/>
          <path class="cls-8" d="m2730.81,313.1h211.97c3.58,0,6.49,2.91,6.49,6.49s-2.91,6.49-6.49,6.49h-211.97c-3.58,0-6.49-2.91-6.49-6.49s2.91-6.49,6.49-6.49Z"/>
        </g>
      </g>
      <g>
        <g>
          <g>
            <path class="cls-8" d="m1498.26,1403.22c69.75-40.45,201.84-4.44,211.25,59.86-2.07,4.48-4.21,9.41-6.38,14.72-41.8,101.07-104.2,344.83-42.91,487.05-22.4,3.45-95.12,31.32-118.75,57.33-8.09-67.89-27.98-419.17-87.16-518.24,0,0-8.33-19.48-2.74-43.71,4.25-18.42,16.56-39.57,46.69-57.03Z"/>
            <path class="cls-11" d="m1636.86,1416.3c40.28,12.66,58.3,40.6,66.26,61.51-35.83,86.63-86.8,278.09-62.02,420.59,6.48,37.25-13.38,74.12-47.59,90.23-21.23,10-41.52,21.97-52.05,33.56-8.09-67.89-27.98-419.17-87.16-518.24,0,0-8.33-19.48-2.74-43.71,48.83-50.58,130.06-61.29,185.29-43.95Z"/>
            <path class="cls-8" d="m1529.36,1495.86c-.85-19.43,2.94-57.42,44.07-66.42,46.3-10.16,85.37,21.27,87.56,64.44.47,8.95-.67,18.41-3.68,28.13-38.02,61.47-45.9,114.39-45.9,114.39l-91.77-39.41,10.94-89.56s-.92-4.58-1.23-11.57Z"/>
            <path class="cls-18" d="m1529.36,1495.86c9.01-9.35,21.05-17.24,37.1-22.6,53.6-17.94,81.2,2.18,94.53,20.63.47,8.95-.67,18.41-3.68,28.13-38.02,61.47-45.9,114.39-45.9,114.39l-91.77-39.41,10.94-89.56s-.92-4.58-1.23-11.57Z"/>
            <path class="cls-17" d="m1580.51,1516.47c17.62-7.32,1.79-17.21,1.79-17.21,30.55-19.82,6.45,127.4,6.45,127.4l-69.07-29.65s8.54-70.07,10.14-89.35c15.99,12.99,33.08,16.14,50.7,8.82Z"/>
            <path class="cls-8" d="m1498.91,1548.69c60.77,43.28,129.16,30.31,158.4-26.64-.76,1.99-26.69,71.6-41.86,175.49-9.26,63.1-14.49,138.84-7.72,219.73,2.81,33.54,7.64,67.95,15.17,102.74-6.73,23.7-19.67,40.53-36.2,51.04-24.56,15.66-57.06,17.37-88.77,6.99,1.45-107.34,28.17-383.35-43.6-574.09,13.82,18.77,28.93,33.61,44.6,44.74Z"/>
            <path class="cls-17" d="m1498.91,1548.69c.11,30.77,9.29,80.34,56.22,130.95,19.09,20.56,39.85,24.12,60.31,17.9-9.26,63.1-14.49,138.84-7.72,219.73-17.19,3.84-48.46,19.08-43.65,79.27,3.04,38.06,12.89,60.92,22.62,74.51-24.56,15.66-57.06,17.37-88.77,6.99,1.45-107.34,28.17-383.35-43.6-574.09,13.82,18.77,28.93,33.61,44.6,44.74Z"/>
            <path class="cls-8" d="m1434.08,1474.9c.56,1.3,1.78,3.82,3.5,7.49,18.09,38.13,94.03,199.21,98.71,377.19,1.88,72.4-8.02,147.6-38.38,218.47-84.02-25.23-89.82-74.59-89.82-74.59,0,0,12.57-37.53,20.55-91.56,8.27-55.65,11.67-128.86-8.45-196.55-39.66-133.34-87.39-168.55-87.39-168.55,0,0-1.82-1.98-3.74-5.45-4.74-8.45-10.23-25.81,7.78-45.1,25.43-27.21,71.21-39.04,97.24-21.35Z"/>
            <path class="cls-11" d="m1370.5,1497.09c32.2-16.46,55.85-16.28,67.09-14.7,18.09,38.13,94.03,199.21,98.71,377.19l-107.65,52.32c8.27-55.65,11.67-128.86-8.45-196.55-39.66-133.34-87.39-168.55-87.39-168.55,0,0-1.82-1.98-3.74-5.45,4.46-12.95,15.3-30.9,41.44-44.26Z"/>
            <path class="cls-29" d="m1423.57,1498.04c12.29,6.91,20.17,18.73,20.17,18.73,2.89,22.4-50.01,55.61-50.01,55.61,0,0-9.9-19.23-27.88-48.21,21.54-35.69,42.85-34.51,57.72-26.12Z"/>
            <path class="cls-18" d="m1443.74,1516.77c2.89,22.4-50.01,55.61-50.01,55.61,0,0-9.9-19.23-27.88-48.21,21.03-19.92,41.66-25.67,57.72-26.12,12.29,6.91,20.17,18.73,20.17,18.73Z"/>
            <path class="cls-17" d="m1401.65,1511.54c14.19,18.08,15.42,43.74,15.42,43.74l-23.35,17.09s-23.5-28.51-27.88-48.21c16.26,14.99,35.8-12.62,35.8-12.62Z"/>
            <path class="cls-8" d="m1332.81,1546.8c4.53,2.12,9.5,3.79,14.71,5.03,31.31,7.44,72.64-1.31,96.23-35.06,22.45,38.65,39.65,95.9,51.14,162.42,7.59,43.89,12.69,91.82,15.14,141.12,1.67,33.43,2.12,67.48,1.33,101.32-1.24,53.77-5.67,107.04-13.44,156.41-26.07,3.29-45.07,3.46-59.96.48-26-5.23-39.51-20.12-56.19-45.24h0s-8.58-84.33-8.58-84.33c31.67-50.67,44.67-86.75,44.95-128.64.19-28.25-5.41-59.16-14.97-98.96-24.26-100.97-70.35-174.56-70.35-174.56Z"/>
            <path class="cls-17" d="m1332.81,1546.8c4.53,2.12,9.5,3.79,14.71,5.03,22.04,57.34,74.56,175.69,125.35,151.85,11.13-5.22,18.11-13.82,22.02-24.48,7.59,43.89,12.69,91.82,15.14,141.12,1.67,33.43,2.12,67.48,1.33,101.32-19.71-17.4-45.4-25.85-63.09,20.85-19.31,50.95-16.1,102.56-10.31,136.04-26.01-5.23-39.51-20.13-56.19-45.25l-8.58-84.32c31.67-50.67,44.67-86.75,44.95-128.64.19-28.25-5.41-59.16-14.97-98.96-24.26-100.97-70.35-174.56-70.35-174.56Z"/>
          </g>
          <path class="cls-33" d="m1657.1,2297.53c-1.85,20.67-19.17,36.53-39.93,36.53h-168.58c-20.51,0-37.69-15.47-39.86-35.84l-26.97-264.93h0s-8.58-84.33-8.58-84.33l-13.1-128.64h339.5s-42.49,477.21-42.49,477.21Z"/>
        </g>
        <path class="cls-36" d="m1504.96,2202.17c30.64,43.21,88.46,86,152.14,95.36-1.85,20.67-19.17,36.53-39.93,36.53h-168.58c-20.51,0-37.69-15.47-39.86-35.84l-26.97-264.93h0s-8.58-84.33-8.58-84.33l-13.1-128.64h101.15c-1.91,86.82-2.03,317.33,43.72,381.85Z"/>
        <path class="cls-36" d="m1563.66,1871.12c39.56-15.38,62.24,4.02,62.24,47.97,0,0,8.09,272.9-24.88,292.68-32.97,19.78-76.92-325.27-37.36-340.66Z"/>
      </g>
      <g>
        <g>
          <g>
            <g class="cls-24">
              <path class="cls-32" d="m127.72,738.18c.01-.05.03-.11.04-.16.01-.05.02-.1.03-.14.13-.62.31-1.22.45-1.84.59-2.64,1.21-5.28,1.93-7.89.15-.55.34-1.09.5-1.65.76-2.67,1.56-5.34,2.45-7.96.17-.52.39-1.02.57-1.53.93-2.65,1.89-5.28,2.95-7.88.21-.51.46-1,.67-1.51,1.08-2.58,2.19-5.15,3.4-7.67.24-.49.51-.96.75-1.45,1.24-2.52,2.5-5.02,3.86-7.48.28-.5.59-.98.88-1.48,1.37-2.42,2.77-4.82,4.26-7.17.34-.54.73-1.06,1.08-1.6,1.48-2.28,2.98-4.54,4.57-6.75.4-.56.84-1.08,1.25-1.63,1.59-2.15,3.2-4.3,4.9-6.38.53-.64,1.1-1.25,1.64-1.88,1.64-1.95,3.28-3.89,5.02-5.77.65-.71,1.36-1.37,2.02-2.06,1.68-1.76,3.35-3.52,5.11-5.21.82-.79,1.7-1.52,2.54-2.29,1.67-1.54,3.33-3.1,5.07-4.57,1-.85,2.07-1.64,3.1-2.47,1.65-1.33,3.27-2.69,4.98-3.96,1.16-.87,2.39-1.66,3.58-2.5,1.64-1.16,3.26-2.36,4.95-3.46,1.47-.96,3.02-1.84,4.53-2.76,1.48-.9,2.92-1.85,4.44-2.71,2.03-1.15,4.14-2.21,6.23-3.29,1.06-.55,2.09-1.14,3.17-1.67,3.2-1.56,6.48-3.04,9.82-4.41,3.34-1.38,6.7-2.64,10.08-3.79,1.14-.39,2.29-.69,3.43-1.05,2.24-.71,4.48-1.45,6.74-2.06,1.68-.46,3.37-.8,5.06-1.21,1.72-.41,3.43-.87,5.16-1.23,1.98-.41,3.97-.7,5.95-1.03,1.43-.24,2.87-.54,4.3-.74,2.11-.3,4.21-.48,6.32-.7,1.31-.13,2.63-.33,3.94-.43,2.28-.18,4.55-.24,6.82-.33,1.14-.04,2.28-.14,3.41-.16,2.44-.04,4.87.03,7.3.09.96.03,1.93,0,2.89.04,2.55.11,5.09.33,7.63.56.83.07,1.66.1,2.49.18,2.67.28,5.33.67,7.98,1.07.68.1,1.36.16,2.04.28,2.69.44,5.35,1,8,1.57.63.14,1.26.23,1.89.37,2.71.62,5.4,1.34,8.08,2.09.55.15,1.11.27,1.66.43,2.72.79,5.42,1.69,8.1,2.61.48.17.98.3,1.46.47,2.64.94,5.25,1.98,7.84,3.05.5.21,1.02.38,1.52.6,2.58,1.1,5.12,2.29,7.64,3.51.49.24.99.44,1.48.68,2.49,1.23,4.93,2.57,7.35,3.92.5.28,1.02.53,1.52.81,2.35,1.34,4.64,2.78,6.93,4.24.53.34,1.09.64,1.62.99.04.02.08.05.12.08.05.03.1.06.14.09.57.34,1.11.74,1.67,1.09,10.45,6.48,19.91,14.28,27.84,23.59,1.14,1.2,2.24,2.44,3.35,3.68.56.62,1.14,1.22,1.68,1.85,1.11,1.27,2.18,2.6,3.25,3.91.54.67,1.11,1.31,1.65,1.98,1.05,1.33,2.06,2.7,3.08,4.06.52.7,1.06,1.37,1.57,2.08,1,1.39,1.96,2.83,2.92,4.25.48.72.99,1.41,1.46,2.13.92,1.41,1.8,2.87,2.68,4.32.47.78.97,1.53,1.43,2.31.87,1.49,1.7,3.01,2.53,4.53.43.78.88,1.54,1.3,2.33.84,1.59,1.62,3.22,2.41,4.84.37.76.77,1.5,1.13,2.26,1.13,2.41,2.21,4.85,3.23,7.33,1.25,3.04,2.41,6.1,3.48,9.17.17.48.3.97.46,1.45.87,2.59,1.71,5.19,2.45,7.79.16.58.28,1.16.44,1.74.69,2.52,1.35,5.04,1.91,7.56.11.49.18.98.28,1.46.56,2.62,1.09,5.25,1.52,7.88.04.23.06.47.09.7.46,2.88.86,5.76,1.17,8.65.03.24.03.48.06.71.29,2.88.53,5.76.68,8.63,0,.12,0,.24,0,.36.14,2.99.22,5.98.2,8.95,0,.15-.01.29-.01.44-.02,2.91-.11,5.82-.28,8.71.23,16.45-1.66,32.7-5.02,49.54-10.34,51.82-7.34,78.33,5.23,108.82.13.31.25.61.37.91,8.03,20.39-2.17,43.43-22.43,51.78h-.01s-94.52,38.97-94.52,38.97h-.01c-20.26,8.36-43.74-.8-52.41-20.92-.13-.3-.25-.6-.38-.9-12.57-30.49-29.12-51.41-72.98-80.89-14.25-9.58-27.05-19.78-38.48-31.61-2.16-1.93-4.27-3.93-6.34-5.98-.1-.1-.22-.2-.32-.3-2.11-2.1-4.16-4.27-6.17-6.49-.08-.09-.17-.17-.25-.26-1.92-2.14-3.78-4.35-5.6-6.6-.15-.19-.31-.36-.46-.55-1.72-2.15-3.38-4.37-5.01-6.62-.22-.31-.46-.6-.69-.91-1.53-2.14-2.98-4.35-4.42-6.58-.29-.44-.6-.87-.88-1.31-1.38-2.19-2.68-4.44-3.97-6.71-.3-.52-.62-1.02-.91-1.54-1.31-2.37-2.54-4.8-3.75-7.26-.23-.46-.48-.89-.7-1.36-1.41-2.93-2.74-5.91-4-8.96-1.02-2.48-1.98-4.98-2.88-7.48-.29-.8-.52-1.6-.8-2.4-.58-1.71-1.18-3.42-1.7-5.14-.26-.86-.47-1.72-.72-2.57-.48-1.67-.97-3.33-1.4-5-.24-.92-.42-1.85-.64-2.77-.38-1.61-.78-3.22-1.11-4.83-.19-.91-.33-1.82-.5-2.73-.31-1.63-.63-3.26-.89-4.9-.14-.86-.23-1.72-.35-2.58-.24-1.68-.49-3.37-.68-5.05-.1-.86-.15-1.71-.23-2.57-.16-1.69-.34-3.38-.45-5.06-.06-.83-.07-1.67-.11-2.5-.08-1.66-.18-3.32-.22-4.97-.93-12.19.28-24.4,3.13-36.36.15-.65.26-1.3.42-1.95Z"/>
              <path class="cls-9" d="m239.3,609.41c6.49-1.84,12.77-3.26,18.93-4.41l-.07-.22c4.15-.7,100.95-23.28,163.21,57.75,1.82,2.24,2.93,3.76,3.22,4.18h-.02c4.22,5.87,8.27,12.22,12.1,19.13,10.49,18.94,3.64,42.8-15.3,53.29-1.34.74-2.71,1.4-4.1,1.97-18.16,7.49-39.44.33-49.19-17.27-2.4-4.34-4.93-8.28-7.53-11.94l-.03.02.29.41c-3.53-4.72-36.28-45.57-100.15-27.47-19.35,5.48-39.43-4.57-46.91-22.73-.57-1.38-1.07-2.82-1.49-4.3-5.9-20.83,6.2-42.5,27.03-48.4Z"/>
              <path class="cls-36" d="m167.9,825.12c1.34-.74,2.71-1.4,4.1-1.97,18.16-7.49,39.44-.33,49.19,17.27,2.4,4.34,4.93,8.28,7.53,11.94l.03-.02-.29-.41c3.52,4.72,36.28,45.57,100.15,27.47,19.35-5.48,39.43,4.57,46.91,22.73.57,1.39,1.07,2.82,1.49,4.3,5.9,20.83-6.2,42.5-27.03,48.41-6.49,1.84-12.78,3.26-18.93,4.41l.07.22c-4.15.7-100.95,23.28-163.21-57.75-1.82-2.24-2.93-3.76-3.22-4.18h.02c-4.22-5.87-8.27-12.22-12.1-19.13-10.49-18.94-3.64-42.8,15.29-53.29Z"/>
            </g>
            <path class="cls-35" d="m320.53,1030.81l134.22-55.33c6.9-2.84,14.8.44,17.65,7.34l.87,2.11c2.84,6.9-.44,14.8-7.34,17.65l-134.22,55.33c-6.9,2.85-14.8-.44-17.65-7.34l-.87-2.11c-2.85-6.9.44-14.8,7.34-17.65Z"/>
            <path class="cls-35" d="m340.17,1054.42l117.29-48.35c6.9-2.85,14.8.44,17.65,7.34l.87,2.11c2.85,6.9-.44,14.8-7.34,17.65l-117.29,48.35c-6.9,2.85-14.8-.44-17.65-7.34l-.87-2.11c-2.84-6.9.44-14.8,7.34-17.65Z"/>
            <path class="cls-35" d="m362.35,1076.98l95.27-39.27c6.9-2.84,14.8.44,17.65,7.34l.87,2.11c2.85,6.9-.44,14.8-7.34,17.65l-95.27,39.27c-6.9,2.85-14.8-.44-17.65-7.34l-.87-2.11c-2.85-6.9.44-14.8,7.34-17.65Z"/>
            <path class="cls-34" d="m321.42,1030.45s4.4,29.89,85.7-3.62l-68.43,28.21s-11.25,8.18-20.63.37c-9.39-7.81-4.32-17.31-4.32-17.31,0,0,.91-4.85,7.69-7.64Z"/>
            <path class="cls-34" d="m339.36,1054.76s4.4,29.89,85.7-3.62l-68.43,28.21s-11.25,8.18-20.63.37c-9.39-7.81-4.32-17.31-4.32-17.31,0,0,.91-4.85,7.69-7.64Z"/>
            <path class="cls-34" d="m360.7,1077.67s4.4,29.89,85.7-3.62l-68.43,28.21s-11.25,8.18-20.63.37c-9.39-7.81-4.32-17.31-4.32-17.31,0,0,.91-4.85,7.68-7.64Z"/>
            <path class="cls-9" d="m400.2,1001.93l51.87-21.38c3.45-1.42,7.4.22,8.82,3.67l.43,1.05c1.42,3.45-.22,7.4-3.67,8.82l-51.87,21.38c-3.45,1.42-7.4-.22-8.82-3.67l-.43-1.05c-1.42-3.45.22-7.4,3.67-8.82Z"/>
            <path class="cls-9" d="m447.58,1012.2h12.13c3.73,0,6.76,3.03,6.76,6.76v1.14c0,3.73-3.03,6.76-6.76,6.76h-12.13c-3.73,0-6.76-3.03-6.76-6.76v-1.14c0-3.73,3.03-6.76,6.76-6.76Z" transform="translate(-354.33 249.85) rotate(-22.4)"/>
            <path class="cls-9" d="m456.42,1042.17l1.05-.43c3.45-1.42,7.4.22,8.82,3.67l.43,1.05c1.42,3.45-.22,7.4-3.67,8.82l-1.05.43c-3.45,1.42-7.4-.22-8.82-3.67l-.44-1.05c-1.42-3.45.22-7.4,3.67-8.82Z"/>
          </g>
          <rect x="393.95" y="924.48" width="2.08" height="71.43" transform="translate(-289.44 179.46) rotate(-18.88)"/>
          <rect x="346.65" y="943.98" width="2.08" height="71.43" transform="translate(-393.5 250.77) rotate(-25.94)"/>
          <g>
            <g>
              <path d="m385.45,915.54c.13,0,.27-.03.4-.08.53-.22.78-.83.56-1.36-.98-2.38.16-5.12,2.54-6.1,2.39-.98,5.12.16,6.1,2.54.22.53.83.79,1.36.56.53-.22.78-.83.56-1.36-.69-1.67-1.98-2.97-3.65-3.66-1.66-.69-3.5-.7-5.16,0-1.67.69-2.97,1.98-3.66,3.65-.69,1.67-.7,3.5,0,5.17.17.4.55.64.96.64Z"/>
              <path d="m380.17,923.43c.87,0,1.74-.17,2.57-.51,1.67-.69,2.97-1.98,3.66-3.65.69-1.67.7-3.5,0-5.17-.22-.53-.83-.78-1.36-.56-.53.22-.78.83-.56,1.36.48,1.15.47,2.42,0,3.58-.48,1.15-1.38,2.05-2.53,2.52-1.15.47-2.42.47-3.58,0-1.15-.48-2.05-1.38-2.52-2.53-.22-.53-.83-.78-1.36-.56-.53.22-.78.83-.56,1.36.69,1.67,1.98,2.97,3.65,3.66.83.35,1.71.52,2.59.52Z"/>
            </g>
            <g>
              <path d="m364.34,924.25c.13,0,.27-.03.4-.08.53-.22.78-.83.56-1.36-.48-1.15-.47-2.42,0-3.58.48-1.15,1.38-2.05,2.53-2.52,1.15-.47,2.42-.47,3.58,0,1.15.48,2.05,1.38,2.52,2.53.22.53.82.79,1.36.56.53-.22.78-.83.56-1.36-.69-1.67-1.98-2.97-3.65-3.66-1.66-.69-3.5-.7-5.17,0-1.67.69-2.97,1.98-3.66,3.65-.69,1.66-.7,3.5,0,5.17.16.4.55.64.96.64Z"/>
              <path d="m359.06,932.14c.87,0,1.74-.17,2.57-.51,1.67-.69,2.97-1.98,3.66-3.65.69-1.66.7-3.5,0-5.16-.22-.53-.83-.78-1.36-.56-.53.22-.78.83-.56,1.36.48,1.15.47,2.42,0,3.58-.48,1.15-1.38,2.05-2.53,2.52-1.15.47-2.42.47-3.58,0-1.15-.48-2.05-1.38-2.52-2.53-.22-.53-.83-.78-1.36-.56-.53.22-.78.83-.56,1.36.69,1.67,1.98,2.97,3.65,3.66.84.35,1.71.52,2.59.52Z"/>
            </g>
            <g>
              <path d="m343.22,932.95c.13,0,.27-.03.4-.08.53-.22.78-.83.56-1.36-.48-1.15-.47-2.42,0-3.58.48-1.15,1.38-2.05,2.53-2.52,1.16-.47,2.42-.47,3.58,0,1.15.48,2.05,1.38,2.52,2.53.22.53.83.79,1.36.56.53-.22.78-.83.56-1.36-.69-1.67-1.98-2.97-3.65-3.66-1.66-.69-3.5-.7-5.17,0-1.67.69-2.97,1.98-3.66,3.65-.69,1.66-.7,3.5,0,5.17.16.4.55.64.96.64Z"/>
              <path d="m337.95,940.84c.86,0,1.72-.16,2.56-.51,1.67-.69,2.97-1.98,3.66-3.65.69-1.66.7-3.5,0-5.17-.22-.53-.83-.78-1.36-.56-.53.22-.78.83-.56,1.36.48,1.15.47,2.42,0,3.58-.48,1.15-1.38,2.05-2.53,2.52-2.38.98-5.12-.16-6.1-2.54-.22-.53-.83-.78-1.36-.56-.53.22-.78.83-.56,1.36,1.07,2.6,3.59,4.18,6.25,4.18Z"/>
            </g>
            <g>
              <path d="m322.1,941.66c.13,0,.27-.03.4-.08.53-.22.78-.83.56-1.36-.48-1.15-.47-2.42,0-3.58.48-1.15,1.38-2.05,2.53-2.52,2.39-.98,5.12.16,6.1,2.54.22.53.83.79,1.36.56.53-.22.78-.83.56-1.36-.69-1.67-1.98-2.97-3.65-3.66-1.66-.69-3.5-.7-5.17,0-1.67.69-2.97,1.98-3.66,3.65-.69,1.66-.7,3.5,0,5.17.16.4.55.64.96.64Z"/>
              <path d="m316.82,949.55c.87,0,1.74-.17,2.57-.51,3.44-1.42,5.09-5.37,3.67-8.81-.22-.53-.83-.78-1.36-.56-.53.22-.78.83-.56,1.36.98,2.38-.16,5.12-2.54,6.1-1.15.47-2.42.47-3.58,0-1.15-.48-2.05-1.38-2.52-2.53-.22-.53-.83-.78-1.36-.56-.53.22-.78.83-.56,1.36.69,1.67,1.98,2.97,3.65,3.66.84.35,1.71.52,2.59.52Z"/>
            </g>
          </g>
        </g>
        <g>
          <path class="cls-33" d="m114.26,473.84c6.47-3.63,14.67-1.32,18.3,5.15l58.07,103.56c3.63,6.48,1.32,14.67-5.15,18.3-6.47,3.63-14.67,1.32-18.3-5.15l-58.06-103.56c-3.63-6.47-1.32-14.67,5.15-18.3Z"/>
          <path class="cls-33" d="m291.6,472.71c2.4-6.2,9.37-9.28,15.57-6.88l1.6.62c6.2,2.4,9.28,9.37,6.88,15.57l-35.21,90.99c-2.4,6.2-9.37,9.28-15.57,6.88l-1.6-.62c-6.2-2.4-9.28-9.37-6.88-15.57l35.21-90.99Z"/>
          <path class="cls-33" d="m.37,637.93c.96-6.58,7.06-11.13,13.64-10.18l96.55,14.03c6.58.96,11.13,7.06,10.18,13.64l-.25,1.69c-.96,6.58-7.06,11.13-13.64,10.18l-96.55-14.03c-6.58-.96-11.13-7.06-10.18-13.64l.25-1.69Z"/>
        </g>
      </g>
    </g>
  </g>
</svg>