<?xml version="1.0" encoding="UTF-8"?>
<svg id="Layer_2" data-name="Layer 2" xmlns="http://www.w3.org/2000/svg" viewBox="0 0 1173.34 636.12">
  <defs>
    <style>
      .cls-1 {
        fill: #e49d69;
      }

      .cls-2 {
        fill: #3b5162;
      }

      .cls-3 {
        fill: #f1e2e2;
      }

      .cls-4 {
        fill: #c1b5b5;
      }

      .cls-5 {
        fill: #fff;
      }

      .cls-6 {
        fill: #7a4a1f;
      }

      .cls-7 {
        fill: #eb7675;
      }

      .cls-8 {
        fill: #99998f;
      }

      .cls-9 {
        fill: #a3d4aa;
      }

      .cls-10 {
        fill: #4fb781;
      }

      .cls-11 {
        fill: #c59559;
      }

      .cls-12 {
        fill: #87c0fa;
      }

      .cls-13 {
        opacity: .2;
      }

      .cls-14 {
        fill: #55554f;
      }

      .cls-15 {
        fill: #ea546b;
      }

      .cls-16 {
        fill: #faed00;
      }

      .cls-17 {
        fill: #4276a3;
      }

      .cls-18 {
        fill: #fa8787;
      }

      .cls-19 {
        fill: #565862;
      }

      .cls-20 {
        fill: #635d5d;
      }

      .cls-21 {
        fill: #f28f19;
      }

      .cls-22 {
        fill: #f76bb7;
      }

      .cls-23 {
        fill: #f7bc54;
      }

      .cls-24 {
        fill: #d7eaf7;
      }

      .cls-25 {
        fill: #b7d9f4;
      }

      .cls-26 {
        fill: #b9fafa;
      }

      .cls-27 {
        fill: #61483b;
      }

      .cls-28 {
        fill: #58c78f;
      }

      .cls-29 {
        fill: #374549;
      }

      .cls-30 {
        fill: #fdc400;
      }

      .cls-31 {
        fill: #f5b064;
      }

      .cls-32 {
        fill: #588fc7;
      }

      .cls-33 {
        fill: #406773;
      }

      .cls-34 {
        fill: #6caddf;
      }

      .cls-35 {
        fill: #c75858;
      }

      .cls-36 {
        fill: #d5c8c8;
      }

      .cls-37 {
        fill: #009d96;
      }

      .cls-38 {
        fill: #0d9683;
      }

      .cls-39 {
        fill: #457cab;
      }

      .cls-40 {
        fill: #cbbba0;
      }

      .cls-41 {
        fill: #76b8ef;
      }

      .cls-42 {
        fill: #eca57b;
      }

      .cls-43 {
        fill: #fa87c0;
      }

      .cls-44 {
        fill: #81c59d;
      }

      .cls-45 {
        fill: #d77e68;
      }
    </style>
  </defs>
  <g id="Layer_2-2" data-name="Layer 2">
    <g>
      <g>
        <path class="cls-24" d="m1055.34,628.77s303.52-282.2-63.02-505.99C769.42-13.3,419.9-20.58,256.02,25.65,13.61,94.03-3.92,489.52,245.25,628.77h810.09Z"/>
        <rect class="cls-34" x="219.84" y="631.74" width="906.72" height="4.38"/>
      </g>
      <path class="cls-41" d="m907.18,141.8C721.13,401.83,71.46,289.74,71.46,289.74c0,0,658.62.32,751.82-244.71l-41.04-35.63,176.85,5.25-8.79,161.31-43.11-34.17Z"/>
      <g>
        <g>
          <path class="cls-9" d="m240.61,500.94c-35.81-30.37,9.64-43.96-56.52-64.56-6.66-4.74-4.2-13.36-4.34-20.6,1.28-26.99-35.01-24.64-47.22-40.48.26-33.95-31.41-31.65-58.47-44.64-.81-.39-1.81.32-1.42,1,6.57,11.69-11.3,27.59-3.19,39.07,24.45,15.65,23.92,16.62,15.87,42.11-4.08,27.59,39.3,20.61,33.06,40.33-20.01,49.05,35.92,30.67,38.2,53.75-2.6,16.5,1.12,36.97,26.08,38.67,43.46,10.15,74.7-9.33,57.96-44.65Z"/>
          <path class="cls-5" d="m240.22,557.64c-.46.12-.98-.02-1.21-.36-.14-.21-14.26-20.91-27.98-40.88-1.61-1.34-23.92-20.09-46.89-46.2-12.32-14.01-12.46-21.59-12.58-27.68-.11-5.75-.2-10.29-10.97-18.34-2.95-2.2-5.54-4.09-7.82-5.74-15.2-11.04-17.16-12.46-23.12-34.79-6.63-24.82-25.06-34.68-25.24-34.77-.47-.24-.58-.75-.25-1.13.33-.38.98-.49,1.45-.25.2.1,4.92,2.59,10.52,8.27,5.14,5.21,12.02,14.21,15.56,27.49,5.83,21.83,7.41,22.98,22.52,33.96,2.29,1.66,4.88,3.55,7.84,5.76,11.38,8.5,11.48,13.58,11.59,19.46.11,5.87.26,13.19,12.23,26.8,23.63,26.87,46.56,45.9,46.78,46.09.06.05.11.11.15.17,13.74,20,27.9,40.77,28.04,40.97.27.39.07.89-.43,1.12-.06.03-.13.05-.19.07Z"/>
        </g>
        <g>
          <path class="cls-44" d="m223.72,542.75c17.73-46.67-55.03-29.25-14.52-95.08,10.23-25.59-43.89-21.39-20.41-56.69,5.08-9.17,12.15-18.18,13.26-27.8-1.43-41.76,16.26-5.32,29.89,6.38,10.5,7.56,29.93,10.33,32.71,22.7-3.16,20.62-5.6,26.34,21.38,35.13,37.9,15.04,5.87,49.58,13.46,72.57,14.15,15.49,49.6,25.24,31.26,50.41-8.96,10.4-12.65,20.68-3.34,30.17,9.62,34.34-54.12,58.57-60.59,14.72-26.59-9.37-48.89-27.57-43.11-52.52Z"/>
          <path class="cls-5" d="m219.4,398.45c1.69,2.39,3.57,4.75,5.37,7.04,4.06,5.13,8.27,10.45,10.65,16.29,2.44,6.03,2.97,12.64,3.48,19.03.12,1.67.26,3.39.43,5.09,2.42,24.28,12.29,47.72,28.56,67.79,1.65,2.05,3.42,4.1,5.12,6.1,6.26,7.32,12.72,14.88,15.55,23.52,2.33,7.13,2.15,14.87,1.95,22.34-.09,3.48-.17,7.08-.01,10.59v.08c.57,12.03,4.04,23.54,10.32,34.19.1.16.2.34.31.51,1.14,1.91,2.38,3.8,3.67,5.66.52.76,1.06,1.52,1.59,2.27h2.73c-.74-1.03-1.48-2.06-2.2-3.1-1.41-2.03-2.75-4.09-3.97-6.17-.54-.92-1.06-1.85-1.56-2.79-4.97-9.26-7.83-19.15-8.49-29.43-.04-.48-.06-.96-.09-1.44-.16-3.47-.07-7.04.01-10.5.2-7.59.39-15.44-2.01-22.77-2.91-8.89-9.47-16.57-15.82-23.99-1.69-1.99-3.44-4.04-5.1-6.08-16.09-19.86-25.87-43.06-28.26-67.08-.16-1.67-.3-3.39-.43-5.07-.51-6.5-1.04-13.21-3.57-19.41-2.46-6.02-6.73-11.41-10.85-16.63-1.79-2.27-3.65-4.61-5.32-6.97-6.84-9.64-8.85-17.95-6.12-25.38.17-.47-.19-.91-.8-1-.6-.08-1.25.24-1.42.71-2.89,7.88-.83,16.58,6.28,26.6Z"/>
        </g>
        <g>
          <path class="cls-44" d="m57.73,528.4c3.95-.8,8.39-1.65,11.27.14,8.2,8.45,4.69,23.2,12.96,31.56,14.87,16,44.93,4.23,66.8,6.15,9.63,2.57,10.05,13.5,10.8,22.37,4.31,40.35,34.15,23.67,67.65,23.18,3.32,1.93,6.13,4.43,8.73,7.16h63.86c.09-.29.16-.6.22-.89.56-2.31.91-4.67,1.12-7.04.14-1.38.21-2.76.26-4.13.16-4.61-.09-9.11-.3-13.13-.79-8.88-3.73-13.69-8.2-16.3-.75-.44-1.56-.82-2.39-1.14-7.53-2.91-18.35-1.47-30.33-2.17-9.16-2.89-10.79-12.75-12.59-21.1-.96-8.02-3.58-14.02-7.45-18.46-3.6-4.14-8.31-6.93-13.81-8.71-2.39-.77-4.92-1.37-7.59-1.79h-.01c-.88-.15-1.78-.28-2.68-.39-11.54-1.37-25.15-.13-39.04,1.6-29.29-8.36-14.55-54.27-56.98-40.48h-.01c-7.69,2.49-17.25,6.95-29.31,13.96-20.11,4.61-33.99-13.63-54.73-9.47-12.03,1.68-24.31,8.95-35.73,7.62-3.27,26.81,27.87,40.22,57.49,31.47Z"/>
          <path class="cls-5" d="m19.87,507.89c5.13,2.33,28.98,6.71,35.35,6.48,5.73-.22,11.56-1.06,17.22-1.9l1.06-.15c6.27-.92,11.92-1.68,17.49-1.62,5.73.06,11.03,1.17,15.77,3.28,5.23,2.34,9.63,5.71,12.87,8.38,1.88,1.55,3.73,3.17,5.5,4.72,2.06,1.8,4.18,3.66,6.37,5.43,4.95,4,9.13,6.62,13.56,8.51,5.11,2.17,10.94,3.17,16.56,4.13l.6.1c5.01.86,11.24,1.93,16.07,4.52,3.73,2.01,6.66,5.07,9.28,9.61,1.21,2.11,2.27,4.37,3.31,6.56.88,1.87,1.79,3.82,2.8,5.69,2.69,4.93,5.64,8.26,9.31,10.51,5.27,3.24,12.12,4.31,16.81,4.84,2.94.32,5.95.53,8.86.72,3.2.22,6.5.44,9.68.84,6.75.82,12.71,2.25,17.72,4.26,4.76,1.91,8.71,4.36,11.76,7.29.6.57,1.16,1.15,1.69,1.76,2.68,3.08,4.6,6.71,6.47,10.23.39.76.81,1.53,1.23,2.3.16.3.32.61.48.9.73,1.3,1.48,2.53,2.23,3.66h2.88c-.52-.71-1.01-1.44-1.51-2.22-.51-.8-1-1.65-1.49-2.53-.58-1.04-1.16-2.13-1.72-3.17-1.9-3.6-3.86-7.31-6.65-10.51-1.3-1.48-2.78-2.87-4.44-4.14-1.06-.81-2.2-1.58-3.41-2.29-.01,0-.01-.01-.02-.01h-.01c-1.89-1.14-3.96-2.15-6.21-3.05-1.15-.46-2.36-.9-3.6-1.29h-.01c-4.36-1.42-9.26-2.46-14.65-3.12-3.23-.39-6.58-.62-9.8-.84-2.89-.19-5.87-.39-8.76-.72-7.23-.81-12.16-2.22-15.97-4.56-3.42-2.09-6.2-5.26-8.75-9.94-.99-1.82-1.9-3.75-2.78-5.61-1.04-2.2-2.11-4.5-3.36-6.66-2.75-4.8-5.89-8.04-9.89-10.19-5.11-2.75-11.54-3.85-16.7-4.74l-.6-.1c-5.5-.95-11.21-1.92-16.11-4-4.26-1.8-8.32-4.36-13.14-8.26-2.15-1.75-4.27-3.6-6.31-5.38-1.8-1.58-3.65-3.2-5.54-4.76-3.33-2.75-7.85-6.21-13.27-8.62-5.01-2.24-10.61-3.41-16.66-3.47-5.76-.05-11.53.71-17.92,1.65l-1.06.16c-5.57.81-11.33,1.66-16.91,1.86-6.18.23-12.27-.19-18.08-1.27-5.8-1.06-11.27-2.76-16.24-5.03-.51-.23-1.22-.03-1.6.46-.37.48-.27,1.06.23,1.29Z"/>
        </g>
      </g>
      <g>
        <rect class="cls-5" x="1009.9" y="239.04" width="128.61" height="93.51" rx="34.58" ry="34.58"/>
        <polygon class="cls-5" points="1046.56 327.59 1041.15 348.84 1061.58 326.88 1046.56 327.59"/>
      </g>
      <g>
        <rect class="cls-17" x="211.45" y="247.85" width="686.53" height="369.78" rx="27.36" ry="27.36"/>
        <rect class="cls-5" x="233" y="267.15" width="643.43" height="331.17" rx="3.62" ry="3.62"/>
      </g>
      <g>
        <rect class="cls-5" x="253.47" y="303.36" width="244.32" height="73.49"/>
        <rect class="cls-5" x="253.47" y="388.94" width="244.32" height="73.49"/>
        <rect class="cls-5" x="253.47" y="474.51" width="244.32" height="73.49"/>
      </g>
      <rect class="cls-34" x="250.46" y="300.28" width="244.32" height="73.49"/>
      <rect class="cls-12" x="250.46" y="300.28" width="244.32" height="73.49"/>
      <rect class="cls-21" x="264.34" y="313.43" width="45.99" height="47.19" rx="15.7" ry="15.7"/>
      <rect class="cls-5" x="320.78" y="313.43" width="1.5" height="47.19"/>
      <rect class="cls-32" x="337.39" y="313.43" width="139.19" height="10.32"/>
      <rect class="cls-32" x="337.39" y="328.37" width="139.19" height="10.32"/>
      <rect class="cls-32" x="337.39" y="343.31" width="61.86" height="10.32"/>
      <rect class="cls-34" x="250.46" y="385.86" width="244.32" height="73.49"/>
      <rect class="cls-12" x="250.46" y="385.86" width="244.32" height="73.49"/>
      <rect class="cls-43" x="264.34" y="399" width="45.99" height="47.19" rx="15.7" ry="15.7"/>
      <rect class="cls-5" x="320.78" y="399" width="1.5" height="47.19"/>
      <rect class="cls-32" x="337.39" y="399" width="139.19" height="10.32"/>
      <rect class="cls-32" x="337.39" y="413.95" width="106.11" height="10.32"/>
      <rect class="cls-34" x="250.46" y="471.43" width="244.32" height="73.49"/>
      <rect class="cls-12" x="250.46" y="471.43" width="244.32" height="73.49"/>
      <rect class="cls-41" x="250.46" y="557.61" width="244.32" height="37.33"/>
      <rect class="cls-28" x="264.34" y="484.58" width="45.99" height="47.19" rx="15.7" ry="15.7"/>
      <rect class="cls-5" x="320.78" y="484.58" width="1.5" height="47.2"/>
      <rect class="cls-32" x="337.39" y="484.58" width="139.19" height="10.32"/>
      <rect class="cls-32" x="337.39" y="499.52" width="74.78" height="10.32"/>
      <rect class="cls-32" x="418.83" y="499.52" width="57.75" height="10.32"/>
      <rect class="cls-32" x="337.39" y="514.47" width="14.49" height="10.32"/>
      <polygon class="cls-16" points="287.66 321.63 292.12 330.91 302.1 332.4 294.88 339.62 296.59 349.81 287.66 345 278.74 349.81 280.44 339.62 273.22 332.4 283.2 330.91 287.66 321.63"/>
      <rect class="cls-25" x="515.08" y="303.36" width="1.5" height="291.58"/>
      <ellipse class="cls-22" cx="287.66" cy="422.6" rx="12.11" ry="12.43"/>
      <ellipse class="cls-10" cx="287.66" cy="508.18" rx="12.11" ry="12.43"/>
      <g>
        <rect class="cls-26" x="539.95" y="404.3" width="56.47" height="190.64"/>
        <rect class="cls-28" x="539.95" y="491.48" width="56.47" height="103.46"/>
      </g>
      <g>
        <rect class="cls-26" x="623.57" y="404.3" width="56.47" height="190.64"/>
        <rect class="cls-28" x="623.57" y="449.15" width="56.47" height="145.79"/>
      </g>
      <g>
        <rect class="cls-26" x="707.8" y="404.3" width="56.47" height="190.64"/>
        <rect class="cls-28" x="707.8" y="571.44" width="56.47" height="23.5"/>
      </g>
      <g>
        <rect class="cls-26" x="786.71" y="404.3" width="56.47" height="190.64"/>
        <rect class="cls-28" x="786.71" y="511.26" width="56.47" height="83.69"/>
      </g>
      <g>
        <g>
          <path class="cls-18" d="m681.75,325.39c-5.95-7.81-15.23-12.84-25.64-12.84-17.97,0-32.54,14.95-32.54,33.39s14.57,33.38,32.54,33.38c7.4,0,14.23-2.54,19.7-6.82,7.8-6.09,12.84-15.72,12.84-26.57,0-7.75-2.57-14.89-6.89-20.55Zm-13.6,36.8c-3.34,2.61-7.51,4.17-12.04,4.17-10.99,0-19.9-9.14-19.9-20.42s8.9-20.42,19.9-20.42c6.37,0,12.04,3.08,15.67,7.85,2.65,3.47,4.23,7.83,4.23,12.57,0,6.63-3.08,12.52-7.86,16.25Z"/>
          <path class="cls-35" d="m688.64,345.94c0,10.84-5.03,20.47-12.84,26.57l-7.65-10.32c4.77-3.73,7.86-9.62,7.86-16.25,0-4.74-1.58-9.1-4.23-12.57l9.97-7.99c4.32,5.67,6.89,12.8,6.89,20.55Z"/>
        </g>
        <g>
          <path class="cls-18" d="m762.01,325.39c-4.55-5.96-11.03-10.3-18.48-12.02-2.3-.54-4.7-.82-7.16-.82-17.97,0-32.54,14.95-32.54,33.39s14.57,33.38,32.54,33.38c5.41,0,10.51-1.36,15-3.76,1.66-.88,3.22-1.91,4.7-3.05,7.8-6.09,12.84-15.72,12.84-26.57,0-7.75-2.57-14.89-6.89-20.55Zm-13.6,36.8c-.89.7-1.86,1.33-2.87,1.87-2.74,1.48-5.87,2.3-9.18,2.3-10.99,0-19.9-9.14-19.9-20.42s8.9-20.42,19.9-20.42c1.51,0,2.98.18,4.38.5,4.56,1.05,8.52,3.71,11.29,7.35,2.65,3.47,4.23,7.83,4.23,12.57,0,6.63-3.08,12.52-7.86,16.25Z"/>
          <path class="cls-35" d="m768.91,345.94c0,10.84-5.03,20.47-12.84,26.57-1.48,1.15-3.05,2.18-4.7,3.05l-5.82-11.5c1.01-.53,1.97-1.16,2.87-1.87,4.77-3.73,7.86-9.62,7.86-16.25,0-4.74-1.58-9.1-4.23-12.57-2.77-3.64-6.73-6.3-11.29-7.35l2.78-12.65c7.45,1.71,13.93,6.05,18.48,12.02,4.32,5.67,6.89,12.8,6.89,20.55Z"/>
        </g>
        <g>
          <path class="cls-18" d="m842.28,325.39c-.37-.49-.75-.96-1.14-1.42-5.96-6.99-14.73-11.42-24.5-11.42-1.07,0-2.14.06-3.19.16-16.48,1.64-29.36,15.89-29.36,33.23,0,18.44,14.57,33.38,32.54,33.38,7.4,0,14.23-2.54,19.7-6.82,7.8-6.09,12.84-15.72,12.84-26.57,0-7.75-2.57-14.89-6.89-20.55Zm-13.6,36.8c-3.34,2.61-7.51,4.17-12.04,4.17-10.99,0-19.9-9.14-19.9-20.42,0-10.62,7.9-19.35,18.01-20.32.62-.06,1.25-.1,1.89-.1,5.98,0,11.34,2.71,14.97,6.98.24.29.47.57.7.87,2.65,3.47,4.23,7.83,4.23,12.57,0,6.63-3.08,12.52-7.86,16.25Z"/>
          <path class="cls-35" d="m841.14,323.97l-9.53,8.54c-3.64-4.27-9-6.98-14.97-6.98-.64,0-1.27.03-1.89.1-.41-4.18-.86-8.61-1.3-12.91,1.05-.1,2.11-.16,3.19-.16,9.77,0,18.54,4.43,24.5,11.42Z"/>
        </g>
      </g>
      <polygon points="651.66 449.44 608.78 350.56 540.49 350.56 540.49 349.02 609.76 349.02 609.96 349.48 653.03 448.82 651.66 449.44"/>
      <rect class="cls-20" x="540.49" y="332.97" width="69.09" height="11.23"/>
      <g>
        <g>
          <path class="cls-27" d="m807.28,313.04l-1.92,10.98-4.59,6.45s6.09,11.08,9.73,11.69c3.65.62,17.71.36,17.71.36,0,0-8.81-7.03-10.02-9.02-1.21-1.99-1.91-7.33-1.91-7.33l3.99-11.1-12.99-2.02Z"/>
          <path class="cls-14" d="m834.51,242.52l-13.85,80.41-16.8.45-2.89-87.6c-.34-5.12,1.98-10.14,6.42-13.33,4.76-3.41,9.91-3.44,15.07-1.14,8.7,3.88,13.47,12.54,12.04,21.2Z"/>
        </g>
        <g>
          <path class="cls-6" d="m713.27,72.12c-2.37,5.59-3.5,11.65-5.47,17.4s-4.98,11.46-10,14.73c-5.11,3.33-11.47,3.66-17.37,5.05-7.16,1.68-14.03,5.15-19.15,10.56-5.12,5.41-8.36,12.84-8.1,20.37.37,10.59,7.37,20.61,5.48,31.03-1.15,6.34-5.58,11.71-11.01,14.96-3.74,2.24-7.97,3.5-12.28,3.79-10.25.71-13.79,14.32-5.21,20.1,3.66,2.47,7.74,4.27,12,5.2,14.58,3.19,30.11-2.62,41.24-12.79,7.46-6.81,13.76-15.8,23.3-18.83,8.49-2.69,17.81.06,25.48,4.65,3.25,1.94,6.5,4.27,10.25,4.53,4.29.29,8.38-2.31,11.04-5.78,2.66-3.47,4.11-7.72,5.43-11.92,2.09-6.65,3.96-13.79,1.65-20.51-.42-1.21-.5-2.55-.11-3.77.8-2.56,2.87-2.57,4.72-2.53,6.63.15,14.56-.61,16.52-8.45.5-1.99.46-4.09.02-6.1-2.79-12.57-11.64-23.46-23.08-28.72-2.85-1.31-6.15-2.58-7.35-5.54-.92-2.27-.28-4.85.34-7.22,1.48-5.72,2.72-11.84.98-17.48-1.61-5.23-5.19-6.74-9.38-9.23-3.12-1.85-5.36-4.83-8.76-6.19-9.63-3.85-17.64,4.28-21.21,12.69Z"/>
          <g>
            <path class="cls-19" d="m801.62,240.09c-74.08,19-113.64,15.99-113.64-11.81,0-13.31,6.47-40.17,6.47-40.17l55.12,21.15,52.05,30.82Z"/>
            <path class="cls-7" d="m744.74,111.73s15.44-2.64,22.43,7.53c6.99,10.17,20.46,32.51,23.07,37.59,3.67,7.14-2.56,17.67-14.92,13.32-7.21-2.54-23.09-34.83-23.09-34.83l-7.49-23.61Z"/>
            <g>
              <path class="cls-42" d="m746.91,110.95c-9.95-1.29-10.48-3.14-9.86-11.32l-14.61-2.17c.41,1.05,2.76,9.32-9.31,15.31-1.77.88-3.6,1.53-5.41,2.08,11.31,8.98,27.64,4.6,39.18-3.9Z"/>
              <path class="cls-30" d="m762.84,160.59c4.7-21.91,10.16-47.16-7.71-48.79-3.28-.3-5.98-.56-8.22-.85-11.54,8.5-27.87,12.88-39.18,3.9-10.48,3.17-20.21,2.74-14.23,21.99,7.02,22.57-3.58,62.71-3.58,62.71,0,0,13.13,13.81,38.92,6.92,25.78-6.89,31.02-13.26,31.02-13.26,0,0-1.71-10.7,2.98-32.62Z"/>
            </g>
            <path class="cls-42" d="m742.31,89.61c-2.47,9.94-8.82,17.84-14.44,16.37-5.62-1.47-10.59-12.33-8.12-22.27s11.2-14.28,16.83-12.81c5.62,1.47,8.2,8.77,5.73,18.71Z"/>
            <g>
              <path class="cls-1" d="m748.18,113.19s-9.03-8.17-11.64-7.51c-2.61.66-12.3.67-12.09,2.11.21,1.44.1,2.43,10.44,1.94,0,0-2.15,5.78.23,8.49,2.37,2.71,3.61,2.5,5.98,2.75,2.37.25,5.25.91,5.25.91l5.89,5.23,4.71-4.51-8.78-9.41Z"/>
              <path class="cls-30" d="m756.47,119.94l-10.31,7.97s18.77,53.71,38.18,42.92c20.61-11.46-27.88-50.89-27.88-50.89Z"/>
            </g>
            <path class="cls-42" d="m722.37,98.65l13.04.81-13.04-.81Z"/>
            <path class="cls-30" d="m698.69,117.85s-9.03,2.13-15.65,9.11c-9.54,10.06-28.05,40.44-14.05,59.81,13.92,19.26,62.27-5.5,62.27-5.5l-1.88-13.05s-33.13,4.48-32.86,2.97c.27-1.51,8.66-19.59,7.54-31.99-1.12-12.39-5.37-21.35-5.37-21.35Z"/>
            <g>
              <path class="cls-4" d="m772.17,212.33l-64.23,1.56c-2.29.06-4.19-1.8-4.24-4.15v-.56s72.51-1.76,72.51-1.76v.56c.07,2.35-1.75,4.3-4.04,4.36Z"/>
              <polygon class="cls-4" points="728.93 210.18 709.94 210.64 709.86 206.92 728.84 206.46 728.93 210.18"/>
              <polygon class="cls-4" points="770.04 209.18 751.06 209.64 750.97 205.93 769.96 205.47 770.04 209.18"/>
              <path class="cls-4" d="m771.94,206.96l-64.03,1.55c-2.25.05-4.11-1.77-4.16-4.07l-.9-39.24c-.05-2.3,1.72-4.22,3.97-4.27l64.03-1.55c2.25-.05,4.11,1.77,4.16,4.07l.9,39.24c.05,2.3-1.72,4.22-3.97,4.27Z"/>
              <path class="cls-5" d="m744.14,183.83c.04,1.6-2.07,2.94-4.7,3.01-2.63.06-4.79-1.18-4.83-2.78s2.07-2.94,4.7-3.01c2.63-.06,4.79,1.18,4.83,2.78Z"/>
            </g>
            <g>
              <path class="cls-27" d="m875.1,338.06c-11.41,3.29-30.85-1.53-30.85-1.53l.6-6.1-5.24-11.59,11.98-4.1,3.05,11.2,20.45,12.12Z"/>
              <path class="cls-19" d="m697.6,218.62s81.47-27.79,98.89-13.83,60.88,118.83,60.88,118.83l-16.3,9.02-62.82-91.08c-4.32-6.02-17.79-6.87-18.66-7.2l-61.98-15.76Z"/>
            </g>
          </g>
          <path class="cls-6" d="m744.42,69.78c.21,2.85-1.39,5.58-3.49,7.46s-4.68,3.08-7.16,4.38c-6.33,3.34-12.41,7.73-16.12,13.96-.19-3.92-.37-7.88.22-11.76s2.02-7.73,4.67-10.56c4.51-4.82,11.72-5.86,18.19-5.06l3.7,1.58Z"/>
        </g>
      </g>
      <g>
        <g>
          <polygon class="cls-27" points="917.85 608.99 915.64 620.75 897.61 631.76 927.19 631.76 927.19 620.75 927.3 608.85 917.85 608.99"/>
          <polygon class="cls-27" points="1009.5 608.99 1011.71 620.75 1029.73 631.76 1000.16 631.76 1000.16 620.75 1000.04 608.85 1009.5 608.99"/>
          <path class="cls-29" d="m1014.89,619.18c-7.71-27.32-26.27-145.2-27.71-169.03-1.44-23.83-8.39-33.42-8.39-33.42h-69.27c-.51,1.55-7.69,11.75-7.56,33.42.24,39.94,8.29,109.57,8.44,170.34l18.17.59s18.17-157.47,18.17-153.94,6.8,47.54,51.69,156.02l16.46-3.98Z"/>
        </g>
        <path class="cls-42" d="m862.54,395.42s-9.45-4.12-11.31-3.98c-1.86.14-12.98,4.62-16.19,4.61-3.21,0,.17,4.09,8.61,1.33,0,0,3.32-.43,3.38,1.74.07,2.17-12.05,6.51-11.81,13.92l7.09,2.22s8.37-4.52,10.12-5.43c1.75-.9,5.44-5.25,5.44-5.25l12.35,2.78,1.9-7.82-9.57-4.12Z"/>
        <path class="cls-15" d="m934.65,300.38s-19.74,12.85-23.27,60.75c-2.87,38.9-52.24,32.1-52.24,32.1l-1.37,14.68s37.71,14.6,63.28-8.67c41.04-37.35,25.99-73.17,18.26-84.2s-4.66-14.66-4.66-14.66Z"/>
        <path class="cls-42" d="m978.1,286.39c-4.67,10.86-13.74,18.47-20.36,15.47-6.62-3-10.86-16.64-6.19-27.5s16.06-13.82,22.68-10.82,8.54,11.99,3.87,22.85Z"/>
        <polygon class="cls-42" points="948.52 319.65 964.58 322.56 968.74 294.73 955.72 292.37 948.52 319.65"/>
        <path class="cls-15" d="m953.39,311.52l-.36-9s-16.06-1.27-21.39-1.52c-9.3-.43-28.34,133.34-28.34,133.34,28.1,16.33,49.76,12.31,82.63,3.24,0,0-.21-23.81,2.1-47.34s18.25-62.98,7.35-71.9c-5.63-4.61-28.04-14.31-28.04-14.31,0,0-10.56,8.15-13.96,7.49Z"/>
        <path class="cls-40" d="m922.98,403.68l30.69,12.17c2.71,1.08,5.79-.32,6.84-3.1l16.59-44.05c1.05-2.78-.31-5.94-3.03-7.01l-30.69-12.17c-2.71-1.08-5.79.32-6.84,3.1l-16.59,44.05c-1.05,2.78.31,5.94,3.03,7.01Z"/>
        <path class="cls-42" d="m940.91,381.65s.11-12.4-4.02-14.49c-4.12-2.09-9.16-4.34-9.74-2.74-.58,1.6,6.18,6.64,6.18,6.64,0,0-3.47-1.5-5.53.38-2.07,1.87-4.78,8.04-3.56,10.72,1.22,2.68,12.19,7.33,12.19,7.33l8.79,6.15,4.99-8.73-9.3-5.25Z"/>
        <path class="cls-15" d="m999.28,321.16s18.77,64.08-5.03,81.84c-26.14,19.5-63.27-9.93-63.27-9.93l10.83-12.21s26.64,13.96,34.68,4.54c2.36-2.76-10.39-45.14-9.83-48.78,5.04-33.04,32.62-15.46,32.62-15.46Z"/>
        <polygon class="cls-5" points="967.58 302.52 971.51 305.87 958.63 320.14 953.39 311.52 945.34 313.67 949.58 302.52 953.04 302.52 954.09 309.01 967.58 302.52"/>
        <path class="cls-6" d="m958.63,265.65s-21.1-10.22-4.19-16.27c17.07-6.11,26.23,10.77,26.23,17.79,10.52,1.96-.46,15.02-2.57,19.21,0,0-3.71-6.85-4.76-14.21l-14.71-6.53Z"/>
      </g>
      <g>
        <g class="cls-13">
          <polygon class="cls-37" points="606.2 195.73 484.73 195.73 484.73 103.97 487.84 103.97 487.84 192.53 606.2 192.53 606.2 195.73"/>
        </g>
        <g>
          <path class="cls-8" d="m611.86,102.9h-108.07c-.23,0-.41-.19-.41-.42s.18-.42.41-.42h108.07c.23,0,.41.19.41.42s-.18.42-.41.42Z"/>
          <path class="cls-8" d="m611.86,114.85h-108.07c-.23,0-.41-.19-.41-.42s.18-.42.41-.42h108.07c.23,0,.41.19.41.42s-.18.42-.41.42Z"/>
          <path class="cls-8" d="m611.86,126.8h-108.07c-.23,0-.41-.19-.41-.42s.18-.42.41-.42h108.07c.23,0,.41.19.41.42s-.18.42-.41.42Z"/>
          <path class="cls-8" d="m611.86,138.75h-108.07c-.23,0-.41-.19-.41-.42s.18-.42.41-.42h108.07c.23,0,.41.19.41.42s-.18.42-.41.42Z"/>
          <path class="cls-8" d="m611.86,150.71h-108.07c-.23,0-.41-.19-.41-.42s.18-.42.41-.42h108.07c.23,0,.41.19.41.42s-.18.42-.41.42Z"/>
          <path class="cls-8" d="m611.86,162.66h-108.07c-.23,0-.41-.19-.41-.42s.18-.42.41-.42h108.07c.23,0,.41.19.41.42s-.18.42-.41.42Z"/>
          <path class="cls-8" d="m611.86,174.61h-108.07c-.23,0-.41-.19-.41-.42s.18-.42.41-.42h108.07c.23,0,.41.19.41.42s-.18.42-.41.42Z"/>
        </g>
        <rect class="cls-8" x="513.73" y="94.51" width=".82" height="85.66"/>
        <rect class="cls-8" x="527.32" y="94.51" width=".82" height="85.66"/>
        <rect class="cls-8" x="540.91" y="94.51" width=".82" height="85.66"/>
        <rect class="cls-8" x="554.5" y="94.51" width=".82" height="85.66"/>
        <rect class="cls-8" x="568.09" y="94.51" width=".82" height="85.66"/>
        <rect class="cls-8" x="581.68" y="94.51" width=".82" height="85.66"/>
        <rect class="cls-8" x="595.27" y="94.51" width=".82" height="85.66"/>
        <rect class="cls-8" x="608.86" y="94.51" width=".82" height="85.66"/>
        <polygon class="cls-35" points="545.27 175.1 518.24 161.96 507.84 173.78 504.41 170.6 517.12 156.16 544.11 169.28 609.15 93.62 612.62 96.76 545.27 175.1"/>
      </g>
      <g>
        <g>
          <path class="cls-18" d="m319.2,228.84c19.53-11.74,32.72-33.37,33.03-58.19h-65.23l32.19,58.19Z"/>
          <path class="cls-39" d="m284.4,170.65v-1.01h-.08s.08-.16.08-.16v-.99h.07v-67.2c-36.36.58-65.66,31-65.66,68.44s29.87,68.46,66.72,68.46c11.53,0,22.38-3,31.84-8.28l-32.78-59.26h-.18Z"/>
          <path class="cls-28" d="m313.57,107.6c-8.23-3.92-17.36-6.16-26.99-6.31v63.56l26.99-57.25Z"/>
          <path class="cls-12" d="m352.23,168.48c-.46-26.23-15.29-48.86-36.76-59.94l-28.26,59.94h65.02Z"/>
        </g>
        <polygon class="cls-39" points="300.6 109.37 299.52 108.52 317.83 84.04 398.27 84.04 398.27 85.44 318.51 85.44 300.6 109.37"/>
        <polygon class="cls-39" points="320.9 127.95 319.82 127.1 338.13 102.61 418.57 102.61 418.57 104.02 338.8 104.02 320.9 127.95"/>
        <polygon class="cls-39" points="240.28 145.32 225.5 121.41 159.61 121.41 159.61 120.13 226.18 120.13 226.37 120.43 241.34 144.63 240.28 145.32"/>
        <polygon class="cls-39" points="344.49 186.5 343.41 185.64 361.72 161.16 442.16 161.16 442.16 162.57 362.4 162.57 344.49 186.5"/>
        <rect class="cls-32" x="157.42" y="110.07" width="61.45" height="5.63" rx="2.78" ry="2.78"/>
        <rect class="cls-32" x="339.01" y="74.61" width="61.45" height="5.63" rx="2.78" ry="2.78"/>
        <rect class="cls-32" x="340.66" y="92.62" width="61.45" height="5.63" rx="2.78" ry="2.78"/>
        <rect class="cls-32" x="365.35" y="150.04" width="61.45" height="5.63" rx="2.78" ry="2.78"/>
      </g>
      <g>
        <g>
          <g>
            <path class="cls-45" d="m402.87,217.39s-7.89.52-8.59,2.95c-.69,2.43,3.94,10.08,3.94,10.08l10.34.99-5.7-14.01Z"/>
            <path class="cls-31" d="m420.71,259.56l-8.73-19.52c-8.17-.99-12.37-7.22-12.37-7.22-8.34.71-9.16-1.69-8.37-3.62.78-1.93,12.24-.46,11.78-3.97-.47-3.51-2.28-6.48-2.28-6.48-13.71-14.45-7.94-16.26-7.94-16.26l14.3,14.45,9.36,14.64,12.48,20.98-8.23,7Z"/>
          </g>
          <g>
            <polygon class="cls-27" points="521.31 608.01 518.8 620.06 498.34 631.35 531.9 631.35 531.9 620.06 532.03 607.86 521.31 608.01"/>
            <polygon class="cls-27" points="588.77 606.19 590.74 618.35 587.26 624.56 577.14 631.78 592.01 631.97 606.96 623.93 602.93 613.42 598.7 602.02 588.77 606.19"/>
            <path class="cls-2" d="m603.87,614.06c-6.94-25.77-31.25-93.13-45.77-120.13-14.52-27-29.82-95.42-29.82-95.42l-32.7.81s7.16,60.25,15.46,94.61c8.3,34.36,74.77,122.35,74.77,122.35l18.06-2.21Z"/>
            <path class="cls-33" d="m517.65,619.99s-29.56-166.06-32.49-190.42c-2.93-24.36,3.03-48.68,3.03-48.68,11.17.49,51.19-4.17,52.96,0,1.76,4.17,9.45,32.62,9.96,47.84.51,15.22-10.28,32.01-10.28,32.01l-9.13,158.28-14.04.97Z"/>
            <path class="cls-37" d="m419.97,234.05l-11.68,9.26s12.97,66.89,62.66,82.8c49.69,15.91,50.61,5.47,50.61,5.47l2.87-32.09s-12.81.89-39.14-6.5c-27.13-7.62-59.93-41.94-65.33-58.94Z"/>
            <path class="cls-31" d="m525.08,260.53c2.93,6.03,10.25,37.38,10.25,37.38l-18.62,8.25-1.2-40.65,9.57-4.98Z"/>
            <path class="cls-38" d="m511.38,297.57s-15.6,12.62-20.28,28.37c-4.68,15.75-13.79,97.99-13.79,97.99,0,0,20.32,13.34,43.5,11.98,23.18-1.36,31.3-15.79,31.3-15.79-5.02-26.71,4.71-101.98-15.32-126.11-6.51-7.85-25.41,3.56-25.41,3.56Z"/>
            <path class="cls-31" d="m533.77,268.27c-3.41,11.14-16.16,17.96-22.32,15.98-6.16-1.99-6.01-14.54-5.06-26.18,1.19-14.55,13.19-13.91,19.35-11.92,6.16,1.99,11.45,10.98,8.04,22.12Z"/>
            <polygon class="cls-23" points="533.25 288.55 510.25 292.74 508.99 305.67 536.98 294.43 533.25 288.55"/>
            <g>
              <g>
                <path class="cls-6" d="m505.26,449.32l93.02-11.39-7.19-61.81c-.51-4.41-4.41-7.56-8.71-7.04l-77.45,9.48c-4.3.53-7.37,4.53-6.86,8.94l7.19,61.81Z"/>
                <polygon class="cls-36" points="504.22 444.62 592.83 433.77 585.64 371.9 497.02 382.75 504.22 444.62"/>
                <polygon class="cls-3" points="508.65 445.66 596.68 430.58 586.96 369.08 498.92 384.16 508.65 445.66"/>
                <path class="cls-11" d="m506.79,449.67l93.51-11.45-6.26-53.83c-.48-4.15-4.15-7.11-8.19-6.61l-78.88,9.66c-4.04.49-6.93,4.26-6.44,8.4l6.26,53.83Z"/>
              </g>
              <polygon class="cls-3" points="510.5 428.21 518.14 427.27 515.34 403.24 507.71 404.17 510.5 428.21"/>
            </g>
            <g>
              <path class="cls-31" d="m551.48,422.53l-1.76,10.83s-6.11-.36-6.27,2.92c-.15,3.29-.48,5.52-1.84,7.78-1.36,2.25-.61,5.8,1.93,6.96,2.54,1.16,14.22.54,14.22.54,0,0,3.09-10.71,1.96-13.23s1.52-13.78,1.52-13.78l-9.78-2.02Z"/>
              <path class="cls-37" d="m511.3,317.12s4.44,34.62,20.42,61.23c15.97,26.61,15.92,52.82,15.92,52.82l13.14,3.85s7.98-33.98-3.71-73.44-12.75-53.43-14.52-55.62-28.86-16.98-31.25,11.16Z"/>
            </g>
          </g>
        </g>
        <path class="cls-6" d="m529.08,257.69c-3.92.12-16.56-3.42-21.38-6.35l-2.03-13.58c-.27-2.1,2.14-3.43,3.69-2.03l1.52,1.37,1.98-5.23c.71-1.87,3.26-1.98,4.1-.17.83,1.79,1.66,3.36,1.99,3.28.35-.09,1.39-1.43,2.41-2.84,1.03-1.43,3.18-1.18,3.86.46l1.8,4.31s15.94,5.97,13.69,19.63-9,25.79-9,25.79l-5.81-5.77.56-2.5s6.38-1.54,5.06-7.12c-1.14-4.85-6,0-6,0l3.56-9.24Z"/>
      </g>
    </g>
  </g>
</svg>