<?xml version="1.0" encoding="UTF-8"?>
<svg id="Layer_2" data-name="Layer 2" xmlns="http://www.w3.org/2000/svg" viewBox="0 0 1357.98 838.38">
  <defs>
    <style>
      .cls-1 {
        fill: #f6a9ab;
      }

      .cls-1, .cls-2, .cls-3, .cls-4, .cls-5, .cls-6, .cls-7, .cls-8, .cls-9, .cls-10, .cls-11, .cls-12, .cls-13, .cls-14, .cls-15, .cls-16, .cls-17, .cls-18, .cls-19, .cls-20, .cls-21, .cls-22, .cls-23, .cls-24 {
        fill-rule: evenodd;
      }

      .cls-25, .cls-5 {
        fill: #fff;
      }

      .cls-2, .cls-26 {
        fill: #ea2127;
      }

      .cls-3 {
        fill: #f9a11b;
      }

      .cls-4 {
        fill: #e88c92;
      }

      .cls-6 {
        fill: #ecf4ff;
      }

      .cls-7 {
        fill: #031542;
      }

      .cls-27 {
        fill: #f6fbfd;
      }

      .cls-8 {
        fill: #7ba9e3;
      }

      .cls-9 {
        fill: #3a5aa7;
      }

      .cls-10 {
        fill: #8ea5cf;
      }

      .cls-11 {
        fill: #f9c3c7;
      }

      .cls-12 {
        fill: #fdbe42;
      }

      .cls-13 {
        fill: #243f8e;
      }

      .cls-28 {
        fill: #61ade0;
      }

      .cls-29 {
        fill: #f7ca7c;
      }

      .cls-14 {
        fill: #ffd381;
      }

      .cls-15 {
        fill: #a2caff;
      }

      .cls-16 {
        fill: #f69221;
      }

      .cls-17, .cls-30 {
        fill: #56c4cf;
      }

      .cls-18 {
        fill: #f59fa4;
      }

      .cls-19 {
        fill: #ee4a72;
      }

      .cls-20 {
        fill: #4464ae;
      }

      .cls-21 {
        fill: #c3dcfa;
      }

      .cls-22 {
        fill: #27489d;
      }

      .cls-23 {
        fill: #53a5db;
      }

      .cls-31 {
        fill: #86d2df;
      }

      .cls-24 {
        fill: #97d7f6;
      }
    </style>
  </defs>
  <g id="Layer_1-2" data-name="Layer 1">
    <path class="cls-6" d="m1162.66,45.75c-.43,0-.85-.01-1.27-.04v-.03h-.45c-.45-.03-.89-.08-1.33-.14h0s-.04,0-.04,0c-.28-.04-.56-.08-.84-.13v-.02h-.09c-.83-.15-1.63-.35-2.43-.58h0s-.04-.01-.04-.01c-.29-.09-.57-.18-.85-.27v-.02h-.06c-.13-.04-.26-.09-.38-.14h0s-.03-.01-.03-.01c-.59-.22-1.18-.47-1.75-.74h0s-.01,0-.01,0c-.09-.04-.19-.09-.28-.14h0s-.03-.01-.03-.01c-.09-.04-.18-.09-.27-.14h0s-.03-.01-.03-.01c-.09-.05-.18-.09-.27-.14h0s-.02,0-.02,0c-.35-.18-.69-.37-1.02-.57v-.02h-.03c-.24-.14-.47-.29-.71-.44h0s0,0,0,0c-1.89-1.22-3.58-2.72-5.03-4.44h0s0,0,0,0c-.2-.24-.4-.48-.59-.73h0s-.01-.01-.01-.01c-.15-.19-.29-.39-.43-.58h0s0-.01,0-.01c-.31-.43-.6-.86-.88-1.31v-.02h-.02c-.15-.24-.29-.48-.43-.72v-.02h-.01c-.56-.99-1.05-2.02-1.47-3.09v-.02h0c-.52-1.35-.92-2.76-1.18-4.22v-.07h-.01c-.05-.29-.1-.59-.14-.89h0s0,0,0,0c-.06-.48-.11-.96-.15-1.44v-.34h-.02c-.03-.44-.04-.87-.04-1.31s.01-.91.04-1.35h.02v-.3c.03-.45.08-.89.13-1.33h.02v-.11c.04-.31.09-.62.14-.92h0v-.04c.15-.85.35-1.67.59-2.48h0v-.02c.09-.29.18-.58.28-.87h.02v-.06c.04-.13.09-.26.13-.38h.01v-.04c.18-.49.37-.97.59-1.45h0v-.02c.04-.09.09-.19.13-.28h.02v-.04c.35-.75.73-1.48,1.16-2.18h.03v-.04c.14-.24.29-.47.44-.7h0c.1-.15.2-.3.3-.44h0c.14-.2.28-.4.42-.59h.02v-.03c.14-.19.28-.38.43-.56h.01v-.02c.24-.3.48-.59.73-.87h.01v-.02c.64-.73,1.32-1.42,2.05-2.06h.02v-.02l.15-.13h0c.88-.76,1.81-1.46,2.8-2.08h.01c.24-.16.48-.3.72-.44h.02c.98-.58,2.02-1.07,3.08-1.48h.03c1.36-.54,2.79-.93,4.27-1.19h.03c.32-.06.64-.11.96-.15h.08c.53-.07,1.06-.12,1.6-.15h.48V.01c.23,0,.45-.01.68-.01s.44,0,.65,0v.02h.51c.53.03,1.05.07,1.57.14h0s.11.01.11.01c.31.04.62.09.93.14h0s.06.01.06.01c.48.08.95.18,1.42.29h0s.02,0,.02,0c.19.05.38.09.57.14h0s.01,0,.01,0c.75.2,1.49.44,2.21.72v.02h.06c1.17.45,2.29,1,3.35,1.63h0s0,0,0,0c.15.09.3.18.44.27v.03h.04c.44.28.87.57,1.29.87v.02h.02c.19.14.38.28.57.43v.02h.02c.24.19.49.39.72.59h0s0,0,0,0c.9.76,1.74,1.6,2.51,2.49v.03h.03l.12.14h0s0,0,0,0c.2.24.4.48.59.72v.02h.01c.15.19.29.38.43.58v.02h.01c.31.42.6.86.88,1.3v.04h.02c.15.23.29.47.42.7v.04h.02c.56.97,1.05,1.99,1.46,3.05v.06h.02c.15.39.29.79.42,1.18h0s0,0,0,0c.11.32.2.65.3.98v.05h.01c.05.17.09.34.13.51v.08h.02c.04.18.09.37.13.56v.04h0c.05.23.1.46.14.7v.04h0c.05.28.1.57.14.86v.18h.02c.05.37.09.74.12,1.11v.37h.03c.04.54.06,1.09.06,1.65,0,.59-.02,1.18-.07,1.76h-.02v.26c-.03.36-.07.72-.12,1.08h-.03v.22c-.04.28-.08.55-.13.82h-.02v.08c-.04.22-.08.44-.13.66h-.02v.08c-.04.17-.08.35-.12.52h-.03v.12c-.04.16-.08.32-.12.47h-.02v.09c-.05.17-.09.34-.14.5h0c-.04.16-.09.3-.14.44h-.01v.04c-.04.14-.09.27-.14.41h-.01v.03c-.05.14-.1.27-.15.41h0c-.09.25-.19.5-.29.74h0v.02c-.18.44-.38.88-.59,1.31h0c-.05.11-.09.2-.14.3h0c-.05.11-.1.2-.15.3h0c-.18.35-.37.7-.57,1.04h-.02v.03c-.14.24-.29.48-.44.71h0c-.09.16-.19.3-.29.44h0c-.24.36-.48.7-.74,1.04h0c-.19.26-.38.5-.58.74h0c-.42.52-.87,1.01-1.33,1.48h0s-.14.15-.14.15h0s-.15.15-.15.15h0c-.65.63-1.33,1.23-2.05,1.78h-.02v.02c-.19.15-.38.29-.57.43h-.02c-.28.21-.56.41-.85.59h-.04v.03c-.14.09-.29.18-.43.27h-.01c-.51.32-1.04.62-1.57.89h-.06v.03l-.24.12h-.06v.03c-.08.04-.17.08-.25.12h-.04v.02c-.09.04-.18.09-.28.13h-.02c-.34.16-.69.31-1.03.44h0c-.13.05-.26.1-.38.15h-.06v.02c-.77.28-1.55.52-2.35.72h-.02c-.45.12-.9.21-1.36.3h-.12v.02c-.27.05-.54.09-.81.13h-.07c-.43.07-.86.11-1.3.15h-.33v.02c-.46.03-.93.04-1.39.04M117.7,833.37h0s-.71,0-.71,0c-2.25-.03-4.48-.12-6.7-.28v-.02h-.3c-.55-.04-1.09-.09-1.63-.13h0s-.16-.01-.16-.01c-1.34-.12-2.67-.26-3.99-.42v-.03h-.22c-.32-.04-.64-.08-.96-.12v-.02h-.16c-.34-.05-.68-.1-1.02-.15h0s-.02,0-.02,0c-.34-.05-.68-.09-1.02-.14h0s-.02,0-.02,0c-.29-.04-.58-.09-.86-.14h0s-.05,0-.05,0c-.28-.05-.56-.09-.84-.14h0s-.04,0-.04,0c-.23-.04-.47-.08-.7-.12v-.03h-.18c-.24-.04-.47-.08-.71-.13v-.02h-.12c-.51-.09-1.01-.19-1.52-.3h0s0,0,0,0c-.69-.14-1.38-.28-2.07-.43h0s-.06-.01-.06-.01c-.42-.09-.85-.18-1.27-.28v-.02h-.07c-.17-.04-.35-.08-.52-.12v-.03h-.12c-1.35-.32-2.69-.67-4.03-1.04h0s0,0,0,0c-.34-.09-.69-.19-1.03-.28h0s-.05-.01-.05-.01c-.33-.09-.66-.19-.99-.29h0s-.02,0-.02,0c-.14-.04-.28-.08-.42-.13v-.02h-.07c-.32-.1-.65-.19-.97-.29h0s-.02,0-.02,0c-1.19-.37-2.37-.75-3.54-1.15v-.03h-.09c-.12-.04-.24-.08-.35-.13v-.02h-.06c-.13-.04-.26-.09-.38-.14h0s-.03-.01-.03-.01l-.41-.15h0s0,0,0,0c-.54-.19-1.09-.39-1.63-.59h0s0,0,0,0c-.25-.09-.49-.19-.74-.28h0s-.03-.01-.03-.01c-.24-.09-.47-.18-.71-.27v-.02h-.06c-.13-.05-.26-.1-.38-.15-.1-.04-.2-.07-.3-.11v-.03h-.09c-.12-.05-.24-.1-.36-.15h0s0,0,0,0c-.1-.04-.19-.08-.29-.12v-.03h-.06c-.23-.09-.45-.19-.68-.28v-.02h-.04c-.23-.1-.47-.19-.7-.29h0s-.01,0-.01,0c-.34-.14-.68-.29-1.02-.44h0s-.02,0-.02,0c-.44-.19-.88-.39-1.32-.58h0s-.02,0-.02,0l-.28-.12v-.03h-.06c-.43-.19-.85-.39-1.28-.59h0s0,0,0,0l-.29-.14h0s-.02-.01-.02-.01c-1.49-.7-2.97-1.43-4.42-2.19v-.03h-.06c-.08-.04-.16-.08-.24-.13v-.02h-.04l-.25-.14h0s-.02-.01-.02-.01l-.27-.15h0s0,0,0,0c-.89-.48-1.78-.97-2.66-1.47v-.02h-.03c-.34-.19-.68-.38-1.01-.57v-.02h-.04c-.24-.14-.47-.28-.7-.42v-.03h-.04c-1.13-.67-2.26-1.36-3.37-2.07h0s-.01,0-.01,0c-.14-.09-.29-.18-.43-.27v-.02h-.04c-.14-.09-.27-.17-.41-.26v-.04h-.06c-1.03-.67-2.05-1.36-3.06-2.06h0s-.02-.01-.02-.01c-.34-.24-.68-.47-1.02-.71v-.03h-.04c-.13-.1-.27-.19-.41-.28h0s-.02-.01-.02-.01c-.19-.14-.38-.28-.58-.42v-.02h-.03c-.99-.72-1.97-1.46-2.93-2.21v-.02h-.02c-.19-.15-.38-.29-.57-.44h0s0,0,0,0l-.15-.11v-.03h-.05l-.55-.43h0s-.01-.01-.01-.01c-.24-.2-.49-.4-.73-.59h0s0,0,0,0c-.95-.77-1.89-1.56-2.82-2.35v-.02h-.02c-.34-.29-.68-.59-1.02-.89h0s0,0,0,0l-.15-.13v-.02h-.02c-1.2-1.06-2.38-2.15-3.54-3.26h0s0,0,0,0l-.14-.14h0s0,0,0,0l-.14-.14h0s0,0,0,0c-.05-.04-.09-.09-.14-.14h0s-.01-.01-.01-.01l-.14-.13h0s-.01-.01-.01-.01l-.13-.13v-.02h-.02l-.13-.13v-.02h-.02l-.13-.13v-.02h-.02c-.59-.58-1.18-1.17-1.76-1.77h0s-.01-.01-.01-.01l-.14-.14h0s0,0,0,0l-.14-.15h0s0,0,0,0c-.75-.78-1.49-1.56-2.22-2.36v-.02h-.01l-.13-.15h0s0,0,0,0c-.4-.44-.79-.87-1.18-1.32v-.02h-.02c-.34-.39-.68-.77-1.02-1.16v-.03h-.02l-.13-.14h0s0,0,0,0c-.25-.29-.49-.58-.74-.88h0s-.01-.01-.01-.01c-.5-.59-.99-1.18-1.47-1.77h0s0,0,0,0c-.2-.24-.39-.49-.59-.73h0s0,0,0,0c-.2-.24-.39-.49-.59-.73h0s0,0,0,0c-.15-.19-.29-.37-.44-.56v-.03h-.02c-.34-.44-.68-.89-1.01-1.33h0s0,0,0,0c-.55-.73-1.09-1.47-1.63-2.21h0s0-.01,0-.01c-.1-.13-.19-.26-.29-.4v-.05h-.03c-.14-.19-.27-.38-.41-.58h0s-.01-.01-.01-.01c-.1-.14-.19-.28-.29-.42v-.03h-.02c-.34-.49-.68-.98-1.02-1.48h0s0,0,0,0l-.29-.44h0s0,0,0,0c-.45-.67-.89-1.35-1.33-2.03v-.04h-.03c-.09-.14-.18-.29-.27-.43v-.02h-.01c-.25-.39-.49-.78-.73-1.18h0s0,0,0,0c-.45-.73-.89-1.47-1.33-2.21h0s0-.01,0-.01c-.19-.33-.39-.66-.59-1v-.04h-.02c-.19-.34-.38-.68-.57-1.01v-.02h-.01c-.66-1.17-1.3-2.36-1.91-3.55h0s0,0,0,0c-.05-.09-.1-.18-.15-.28v-.02h-.01c-.05-.09-.09-.17-.14-.26v-.03h-.02c-.04-.09-.09-.17-.13-.26v-.03h-.02c-.04-.09-.09-.18-.13-.27v-.03h-.02l-.13-.27v-.03h-.01l-.13-.27v-.02h-.01l-.14-.27v-.02h-.01l-.14-.28v-.02h0l-.14-.28h0s0-.01,0-.01c-.35-.72-.69-1.45-1.03-2.18v-.04h-.02l-.13-.28v-.02h0c-.2-.43-.39-.86-.58-1.3v-.04h-.02c-.19-.44-.39-.88-.58-1.32h0s0,0,0,0c-.15-.35-.3-.69-.44-1.04h0s0,0,0,0c-.1-.24-.2-.49-.3-.73h0s0-.01,0-.01c-.1-.24-.2-.48-.29-.72v-.03h-.01c-.09-.23-.19-.47-.29-.7v-.04h-.02c-.1-.24-.19-.49-.28-.73h0s0,0,0,0c-.05-.13-.1-.26-.15-.39v-.06h-.02c-.09-.24-.18-.48-.27-.72v-.02h0c-.15-.39-.3-.78-.44-1.18h0s0,0,0,0c-.05-.14-.1-.28-.15-.41v-.03h-.01c-.75-2.09-1.43-4.2-2.06-6.34v-.04h-.01c-.09-.32-.19-.64-.28-.96v-.07h-.02c-.09-.33-.18-.66-.27-.99v-.04h-.01c-.25-.92-.5-1.85-.73-2.78v-.04h0c-.05-.19-.09-.38-.14-.57v-.02h0c-.05-.2-.1-.39-.14-.59h0s0,0,0,0c-.05-.2-.1-.4-.15-.6v-.14h-.03c-.04-.17-.08-.34-.11-.51v-.09h-.02c-.1-.42-.19-.85-.28-1.28v-.05h-.01c-.1-.44-.19-.89-.28-1.33h0c-.1-.52-.2-1.03-.3-1.55v-.08h-.02c-.04-.23-.09-.46-.13-.69v-.05h0c-.05-.26-.09-.52-.14-.79v-.1h-.02c-.05-.26-.09-.53-.13-.8v-.09h-.02c-.15-.93-.3-1.86-.43-2.79v-.02h0c-.05-.35-.1-.69-.15-1.04v-.15h-.02c-.04-.33-.09-.67-.13-1v-.18h-.02c-.04-.37-.09-.74-.13-1.12v-.07h0c-.11-.97-.2-1.95-.29-2.93v-.18h-.02c-.05-.56-.09-1.12-.13-1.68v-.4h-.03c-.17-2.45-.26-4.92-.27-7.41v-.3h0c0-.13,0-.27,0-.4,0-.11,0-.23,0-.34h0v-.36c.01-2.52.11-5.02.28-7.49h.02v-.31c.04-.54.08-1.08.13-1.62h.02v-.24c.12-1.36.25-2.71.42-4.06h.03v-.24c.04-.32.08-.63.12-.94h.03v-.21c.04-.33.09-.65.14-.98h.01v-.09c.14-.96.28-1.92.44-2.88h0c.04-.25.08-.5.12-.74h.03v-.16c.04-.24.08-.49.13-.73h.02v-.11c.09-.51.19-1.02.29-1.52h0v-.03c.1-.49.19-.97.29-1.46h0v-.02c.09-.44.19-.87.28-1.31h.01v-.06c.04-.18.08-.36.12-.54h.03v-.15c.05-.2.09-.4.14-.6h.01v-.05c.04-.18.09-.36.13-.54h.02v-.07c.23-.97.48-1.94.73-2.9h.01v-.04c.14-.53.28-1.06.43-1.59h.02v-.06c.09-.33.19-.65.28-.98h.01v-.04c.1-.33.2-.67.3-1h0c.24-.8.49-1.59.74-2.37h0s.14-.44.14-.44h0v-.02c.05-.14.09-.28.14-.42h.01v-.03c.05-.14.09-.28.13-.41h.02v-.05c.04-.13.09-.27.14-.4h.01v-.03c.05-.14.1-.28.15-.42h0c.38-1.1.77-2.18,1.18-3.26h0v-.02c.09-.24.18-.48.27-.72h.02v-.06c.05-.13.1-.25.14-.38h0c.1-.25.19-.5.29-.74h0c.1-.26.2-.5.3-.74h0c.38-.95.78-1.88,1.18-2.82h0s.13-.3.13-.3h.02v-.05c.14-.33.28-.66.43-.99h.01v-.03c.04-.09.08-.18.12-.27h.02v-.05c.24-.53.49-1.05.73-1.58h0v-.02c.66-1.39,1.34-2.77,2.05-4.13h.03v-.05l.13-.25h.02v-.03l.14-.26h.01v-.02l.14-.28h0c.29-.55.58-1.09.88-1.63h.01v-.02c.19-.34.38-.68.57-1.02h.03v-.05c.05-.08.09-.16.14-.25h.01v-.02c.14-.24.27-.48.41-.72h.03v-.05l.14-.24h0c.14-.25.29-.5.43-.74h.02v-.02c.44-.74.88-1.47,1.33-2.2h0s.27-.44.27-.44h.02v-.04c.15-.23.29-.47.43-.7h0v-.02c.09-.14.19-.29.28-.43h.02v-.03c.09-.14.18-.28.27-.42h.02v-.04c.67-1.04,1.36-2.06,2.06-3.08h.01v-.02c.1-.14.2-.29.29-.43h0c.14-.2.27-.4.41-.59h.03v-.05c.09-.13.19-.27.29-.4h0c.53-.75,1.07-1.49,1.62-2.22h0c.15-.21.29-.4.44-.59h0c.19-.25.37-.5.56-.74h.03v-.04c.14-.18.28-.37.43-.55h.02v-.02c.19-.24.38-.48.57-.72h.02v-.02c.63-.79,1.27-1.57,1.92-2.35h.01c.25-.3.49-.6.74-.89h0s.12-.15.12-.15h.03v-.03c.29-.34.59-.67.88-1h.01c.92-1.06,1.85-2.1,2.81-3.11h0c.04-.05.09-.1.13-.15h.02v-.02l.12-.13h.03v-.03l.12-.12h.03v-.03l.11-.12h.04v-.04c1.34-1.4,2.71-2.78,4.12-4.11h.03v-.03l.13-.12h.02v-.02l.13-.13h.01s.14-.15.14-.15h0c.64-.6,1.28-1.19,1.93-1.78h0c.38-.35.77-.7,1.16-1.04h.03v-.02l.14-.12h.01c.34-.31.69-.6,1.03-.89h0c1.06-.91,2.13-1.8,3.22-2.67h.05v-.04l.14-.11h.01c.19-.16.38-.3.56-.44h.03v-.02c.24-.19.49-.38.74-.57h0c.58-.45,1.17-.9,1.76-1.33h.02c.19-.16.39-.3.58-.44h0c.34-.25.67-.5,1.01-.74h.03v-.02c.34-.24.68-.48,1.03-.72h.01c1.15-.81,2.31-1.61,3.49-2.37h.06v-.04c.13-.09.27-.17.41-.26h.04v-.02c.14-.09.29-.18.43-.27h.01c1.11-.71,2.24-1.41,3.38-2.08h.03v-.02c.24-.14.48-.28.72-.42h.02c.08-.06.16-.1.24-.15h.05v-.03c.24-.14.49-.28.73-.41h.01c1.07-.61,2.15-1.2,3.25-1.78h.01c.09-.05.18-.1.26-.15h.03v-.02c.08-.04.16-.09.25-.13h.05v-.02c.08-.04.16-.08.24-.12h.05v-.03l.24-.12h.05v-.03c.98-.5,1.96-.98,2.96-1.46h0c.52-.25,1.04-.5,1.56-.74h.07v-.03c.09-.04.18-.08.26-.12h.03c.43-.21.87-.4,1.31-.59h.03c.68-.31,1.37-.6,2.05-.89h.02c.23-.11.46-.2.69-.3h.05v-.02c.22-.09.45-.19.67-.28h.07v-.03c.23-.09.46-.18.69-.27h.05v-.02c.24-.09.48-.18.72-.28h.02c.78-.31,1.57-.6,2.37-.89h0s.41-.15.41-.15h.04s.38-.15.38-.15h.06v-.02c.12-.04.23-.08.35-.13h.09v-.03c1.65-.57,3.31-1.1,4.99-1.6h.05v-.02c.15-.04.29-.09.44-.13h0c.17-.05.33-.1.5-.15h.1v-.03c.15-.04.3-.08.44-.12h0c.18-.05.36-.1.54-.15h.06v-.02c.34-.09.68-.19,1.03-.28h.01c.57-.16,1.15-.3,1.73-.44h.05s.54-.15.54-.15h.05c.18-.06.37-.1.55-.15h.04c.19-.06.38-.1.57-.15h.02c.22-.05.44-.1.65-.15h.09v-.02c.19-.04.39-.09.58-.13h.01c1.2-.27,2.4-.51,3.61-.74h.09v-.02c.23-.04.46-.09.69-.13h.05c.27-.06.55-.1.83-.15h.06c.27-.06.55-.1.82-.15h.07c.95-.17,1.91-.31,2.87-.44h.1c.32-.06.63-.11.95-.15h.24v-.03c.34-.04.69-.08,1.04-.12h.15v-.02c.88-.1,1.77-.2,2.66-.28h.16c.49-.06.99-.11,1.48-.15h.44v-.03c.59-.04,1.18-.08,1.76-.11h.16c.99-.07,1.99-.11,2.99-.15h1.01v-.04c.97-.03,1.95-.04,2.93-.04h98.81c34.18,0,62.14-28.21,62.14-62.69s-27.97-62.69-62.14-62.69h-7.4c-1.82,0-3.62-.08-5.4-.23h0s-.16-.01-.16-.01c-.49-.04-.98-.09-1.47-.14h0s-.03,0-.03,0c-.38-.04-.77-.08-1.15-.13h0s-.1-.01-.1-.01c-.66-.09-1.32-.19-1.98-.29h0s-.01,0-.01,0c-.29-.05-.58-.1-.88-.15h0s0,0,0,0c-.25-.04-.49-.09-.74-.14h0s-.05-.01-.05-.01c-.93-.18-1.85-.37-2.76-.59h0s-.02,0-.02,0c-.19-.05-.38-.1-.58-.14h0s-.02,0-.02,0c-.74-.18-1.47-.38-2.2-.58h0s-.03,0-.03,0c-.94-.27-1.87-.56-2.79-.87v-.02h-.05c-.13-.04-.26-.09-.39-.13h0s-.04-.01-.04-.01c-.14-.05-.27-.1-.41-.14h0s0,0,0,0c-.79-.28-1.58-.57-2.36-.89h0s0,0,0,0c-1.15-.46-2.28-.96-3.4-1.48h0s0,0,0,0c-.8-.37-1.59-.76-2.37-1.17v-.02h-.04c-.09-.05-.17-.09-.26-.14h0s-.02-.01-.02-.01l-.28-.15c-.45-.24-.89-.48-1.33-.73h0s-.02,0-.02,0c-.34-.19-.68-.39-1.02-.59h0s-.01,0-.01,0c-.65-.38-1.28-.77-1.92-1.18h0s-.02-.01-.02-.01c-1.1-.7-2.19-1.44-3.24-2.21v-.02h-.02c-.59-.43-1.18-.87-1.75-1.32h0s-.02-.01-.02-.01c-.8-.62-1.59-1.27-2.36-1.93h0s0,0,0,0c-2.55-2.18-4.93-4.55-7.11-7.1h0s-.01-.01-.01-.01c-1.3-1.52-2.53-3.1-3.7-4.73h0s0-.01,0-.01c-.72-1.01-1.41-2.04-2.07-3.09v-.02h-.01c-.45-.72-.9-1.45-1.32-2.2v-.03h-.02c-.2-.34-.39-.69-.58-1.03h0s0,0,0,0c-.79-1.44-1.53-2.92-2.22-4.42v-.02h-.01c-.64-1.4-1.23-2.83-1.77-4.29h0s0-.01,0-.01c-.49-1.31-.93-2.63-1.33-3.98v-.02h0c-.1-.33-.2-.66-.29-.98v-.05h-.01c-.21-.74-.4-1.48-.58-2.22h0c-.1-.42-.2-.85-.3-1.27v-.06h-.01c-.22-.97-.41-1.96-.58-2.95v-.02h0c-.05-.29-.1-.58-.14-.88h0s0-.01,0-.01c-.05-.33-.1-.66-.15-.98v-.05h0c-.05-.34-.1-.68-.14-1.03h0s0-.01,0-.01c-.12-.96-.22-1.92-.3-2.89v-.22h-.02c-.06-.73-.1-1.47-.13-2.21v-.16h0c-.04-.89-.06-1.78-.06-2.67s.02-1.78.06-2.66h0v-.17c.03-.79.08-1.57.14-2.35h0v-.08c.08-.97.17-1.93.29-2.88h0v-.02c.04-.34.09-.68.14-1.02h0v-.06c.05-.33.09-.65.14-.97h0v-.02c.05-.29.09-.58.14-.87h0v-.03c.25-1.44.55-2.86.89-4.27h0c.1-.4.19-.8.3-1.19h0c.09-.35.18-.69.28-1.04h.02v-.06c.59-2.1,1.28-4.16,2.07-6.16h0c.37-.95.77-1.89,1.18-2.82h0s.13-.3.13-.3h.02v-.03c1.73-3.8,3.81-7.41,6.21-10.79h.02v-.02c.39-.54.78-1.08,1.18-1.61h0c.34-.45.68-.9,1.03-1.33h0c.2-.25.39-.5.59-.74h0c.29-.35.58-.69.87-1.04h.02v-.02c1.84-2.15,3.82-4.17,5.92-6.05h0c.39-.36.78-.7,1.17-1.04h.01c.58-.51,1.17-1,1.77-1.48h0c.96-.77,1.95-1.51,2.96-2.22h0c1.01-.72,2.05-1.41,3.11-2.08h0c.48-.3.97-.6,1.46-.89h.03v-.02c.77-.46,1.56-.89,2.35-1.32h.02c.97-.52,1.95-1.02,2.94-1.48h.02c.1-.06.19-.1.29-.15h0c.78-.36,1.57-.71,2.36-1.04h0c.24-.1.47-.2.71-.3h.03c.24-.11.49-.2.74-.3h0c.39-.15.78-.3,1.18-.44h0c.14-.05.27-.1.41-.15h.03c.88-.32,1.76-.62,2.66-.89h0c.32-.1.65-.2.97-.3h.06v-.02c.34-.1.68-.19,1.02-.28h.02c.57-.16,1.15-.31,1.73-.44h.05c.2-.06.39-.1.59-.15h0c.96-.22,1.93-.42,2.9-.59h.06c.58-.11,1.17-.21,1.76-.3h.02c.34-.05.68-.1,1.02-.15h.01c.9-.12,1.8-.22,2.7-.3h.11c.63-.07,1.27-.11,1.9-.15h.02c1.2-.07,2.41-.11,3.62-.11h143.63s1.46-.05,4.08-.19h0c1.33-.07,2.97-.17,4.88-.3h.01c11.45-.76,32.62-2.64,56.03-6.97h0c.79-.15,1.58-.29,2.37-.44h0c5.26-1.01,10.63-2.14,16.01-3.41h0c9.96-2.35,19.96-5.19,29.5-8.6h0c10.98-3.93,21.33-8.62,30.24-14.23h0c1.9-1.19,3.73-2.43,5.48-3.71h0c5.91-4.29,11.01-9.07,14.97-14.38h0c3.04-4.08,5.42-8.47,7-13.21.53-1.6,1.06-3.17,1.59-4.72h0c.49-1.45.99-2.89,1.48-4.3h0c.3-.85.59-1.69.89-2.52h0c.59-1.66,1.18-3.29,1.78-4.89h0c.39-1.05.78-2.09,1.18-3.11h0v-.02c1.2-3.11,2.42-6.12,3.69-9.02h.02v-.04c.68-1.55,1.37-3.07,2.07-4.56h0c.05-.1.1-.2.14-.3h0s.14-.3.14-.3h.01v-.02c.62-1.3,1.26-2.58,1.9-3.83h.02v-.04c.04-.09.09-.17.14-.26h.01v-.02l.14-.27h0c.58-1.11,1.17-2.19,1.77-3.26h0c.19-.36.39-.7.59-1.04h0c.43-.75.87-1.49,1.32-2.22h.01v-.02c.24-.39.48-.78.72-1.17h.02v-.03c.76-1.2,1.54-2.37,2.35-3.52h.02v-.04c.09-.14.19-.27.28-.41h.01v-.02c.24-.34.49-.68.74-1.02h0c.44-.6.88-1.19,1.33-1.78h0c.19-.25.37-.5.57-.74h.03v-.03c.19-.24.38-.47.57-.71h.02v-.03c.44-.54.88-1.08,1.33-1.6h0c.34-.4.67-.8,1.02-1.19h.02v-.02l.11-.13h.04v-.04c1.55-1.73,3.17-3.4,4.89-5h0c.38-.35.76-.69,1.15-1.04h.04v-.04l.12-.11h.03v-.02s.09-.08.14-.12h.01c.34-.31.68-.6,1.02-.89h.01c.76-.66,1.54-1.3,2.34-1.93h.03v-.02c.18-.14.36-.28.54-.42h.06v-.04s.1-.07.14-.11h0c.19-.15.39-.3.59-.44h0c.53-.4,1.08-.8,1.63-1.19h0c.14-.1.28-.2.42-.3h.02v-.02c.13-.09.27-.19.4-.28h.04v-.03c.13-.09.25-.18.38-.27h.06v-.04c1.18-.8,2.41-1.57,3.66-2.33h.04v-.03c.15-.09.29-.18.44-.27h0s.25-.15.25-.15h.05v-.03c.24-.14.49-.28.73-.42h0c.34-.2.69-.4,1.04-.59h0c.72-.4,1.46-.8,2.21-1.19h.01c.09-.05.18-.1.27-.15h.03s.26-.15.26-.15h.03v-.02c.09-.04.18-.09.27-.13h.03c.09-.06.18-.1.27-.15h.02s.28-.15.28-.15h.02s.28-.15.28-.15h.02s.28-.15.28-.15h.01c.1-.05.19-.1.29-.15h0c.1-.05.19-.1.29-.15h0c.53-.25,1.07-.5,1.6-.74h.03s.3-.15.3-.15c.33-.15.66-.3.99-.44h.05v-.02c.33-.14.67-.28,1-.43h.04v-.02c.82-.35,1.65-.69,2.5-1.02h.02c.24-.1.48-.2.73-.3h.01c.12-.05.24-.1.36-.15h.08v-.03c.24-.09.48-.18.72-.26h.03c.12-.06.25-.1.38-.15h.07v-.02c1.5-.55,3.04-1.09,4.63-1.61h.11v-.03c.12-.04.24-.08.37-.11h.08v-.02c.13-.04.26-.08.4-.12h.05v-.02l.43-.13h.02c1.14-.36,2.3-.7,3.48-1.04h.07v-.02c.15-.04.29-.09.44-.13h0c.18-.05.35-.1.53-.15h.07v-.02c.16-.04.33-.09.5-.13h.1v-.03c.34-.09.69-.18,1.03-.27h0c.77-.2,1.55-.4,2.33-.59h.04s.58-.15.58-.15h.02c.4-.1.8-.2,1.21-.3h.12v-.03l.52-.12h.07v-.02c.42-.1.85-.19,1.27-.28h.06c1.14-.26,2.29-.51,3.47-.74h.09v-.02c.22-.04.43-.09.65-.13h.09v-.02c.22-.04.43-.09.65-.13h.09v-.02c.23-.04.48-.09.71-.13h.03c.53-.1,1.07-.2,1.6-.3h.03c1.13-.21,2.29-.4,3.45-.59h.1v-.02c.27-.04.53-.09.8-.13h.09s.85-.15.85-.15h.03c.32-.05.65-.1.97-.15h.06c1.73-.27,3.49-.51,5.29-.74h.05c.37-.05.74-.1,1.11-.15h.23v-.03c.35-.04.7-.08,1.05-.12h.14v-.02c.38-.04.75-.09,1.13-.13h.05c1.35-.16,2.73-.31,4.13-.44h.17v-.02c.44-.04.87-.09,1.32-.13h.17c.5-.06,1-.1,1.5-.15h.13c1.11-.11,2.24-.21,3.38-.3h.03c.64-.05,1.28-.1,1.92-.15h.16c.64-.06,1.28-.1,1.93-.15h.3v-.02c.67-.04,1.34-.09,2.01-.13h.06c.81-.05,1.63-.1,2.46-.15h.06c.91-.05,1.83-.1,2.75-.15h.36v-.02c.99-.05,2-.09,3-.13h.11c1.28-.06,2.57-.1,3.88-.15h.27c1.68-.06,3.39-.11,5.12-.15h.36c4.15-.1,8.43-.15,12.86-.15h42.76c23.58,0,42.87-19.46,42.87-43.25s-19.3-43.25-42.87-43.25h-28.41c-.48,0-.95-.01-1.42-.04v-.03h-.57c-.5-.03-1-.08-1.5-.14h0s-.06,0-.06,0c-.28-.03-.55-.07-.83-.11v-.04h-.23c-.27-.04-.54-.09-.81-.14h0s-.04,0-.04,0c-.24-.04-.47-.09-.7-.14h0s-.02,0-.02,0c-.19-.04-.38-.08-.57-.13v-.02h-.08c-.17-.04-.34-.08-.51-.13v-.02h-.08c-.17-.05-.34-.09-.51-.14h0s-.03,0-.03,0c-.74-.21-1.48-.45-2.2-.72v-.02h-.06c-.13-.05-.26-.1-.38-.15h0s0,0,0,0c-1.39-.54-2.72-1.18-4-1.92h0s0,0,0,0c-.25-.14-.49-.29-.73-.44h0s-.01,0-.01,0c-.15-.09-.29-.18-.43-.27v-.02h-.04c-.44-.28-.87-.58-1.3-.88h0s0,0,0,0c-.2-.14-.39-.29-.58-.43h0s-.02-.01-.02-.01c-.55-.42-1.09-.86-1.61-1.32v-.02h-.02l-.13-.12v-.03h-.04c-.88-.78-1.7-1.61-2.48-2.49v-.03h-.03l-.12-.13h0s-.01-.01-.01-.01c-.46-.53-.9-1.07-1.32-1.62h0s0,0,0,0c-.25-.33-.5-.67-.74-1.01v-.02h-.02c-.2-.28-.39-.57-.58-.86v-.03h-.02c-.09-.15-.19-.3-.28-.44h0c-.05-.08-.1-.16-.15-.24v-.06h-.03c-.14-.23-.28-.47-.41-.71v-.04h-.02c-.48-.85-.92-1.73-1.31-2.63v-.04h-.02c-.15-.34-.29-.68-.43-1.02v-.02h0c-.05-.12-.1-.25-.14-.37v-.07h-.03c-.15-.39-.29-.79-.42-1.19h0c-.22-.67-.42-1.36-.59-2.05v-.02h0c-.05-.2-.1-.39-.14-.59h0s0,0,0,0c-.11-.49-.21-.98-.3-1.47v-.16h-.03c-.04-.26-.08-.52-.12-.78v-.11h-.02c-.17-1.2-.26-2.42-.28-3.66v-.34h0v-.13s0,0,0,0v-.16h0v-.31c.02-1.25.12-2.48.29-3.69h.01v-.08c.04-.27.08-.54.13-.81h.02v-.13c.15-.86.34-1.71.56-2.54h.03v-.11c.04-.16.09-.32.13-.48h.01v-.05c.17-.58.36-1.16.56-1.73h.03v-.09c.04-.12.09-.24.13-.35h.02v-.04c.18-.49.38-.97.59-1.44h0c.04-.1.08-.2.13-.3h.02v-.04c.04-.08.08-.17.12-.25h.03v-.07c.32-.68.67-1.35,1.04-2.01h0c.14-.25.28-.5.43-.74h.02v-.03c.46-.76.95-1.49,1.47-2.2h.02v-.02c.14-.19.28-.38.43-.57h.02v-.02c.43-.55.87-1.09,1.33-1.61h0s.13-.15.13-.15h.02v-.02l.12-.13h.03v-.03c.55-.6,1.13-1.19,1.73-1.74h.05v-.04l.11-.1h.04v-.03l.13-.12h.02v-.02l.15-.13h0c.52-.46,1.06-.91,1.61-1.33h.02c.19-.16.38-.3.57-.44h.02c.56-.43,1.14-.82,1.73-1.19h.05v-.03c.14-.09.29-.18.43-.26h.01c.61-.37,1.23-.72,1.86-1.04h.06v-.03l.23-.12h.07v-.03c.08-.04.16-.08.24-.12h.05v-.03l.26-.12h.04v-.02l.29-.13h0c.34-.16.69-.3,1.03-.44h0c.12-.05.25-.1.37-.15h.07v-.03c.24-.09.48-.18.73-.27h.01c.14-.05.28-.1.42-.15h.03c.47-.17.94-.31,1.42-.44h.07v-.02c.16-.04.32-.09.48-.13h.11v-.03c.16-.04.32-.08.48-.12h.11v-.03c.43-.1.86-.19,1.3-.27h.03c.28-.06.56-.1.85-.15h.19v-.03c.89-.13,1.79-.22,2.7-.27h.71v-.03c.27,0,.55-.01.83-.01h163.38c53.99,0,71.33-18.08,87.63-28.57h0c1.14-.73,2.27-1.43,3.41-2.08h0c1.02-.58,2.05-1.13,3.09-1.63h.02s.29-.15.29-.15h0c.43-.21.86-.4,1.3-.59h.03c.87-.39,1.76-.73,2.67-1.04h0c.15-.05.29-.1.44-.15h0c.48-.16.97-.31,1.46-.44h.02c.18-.06.36-.1.55-.15h.05c.62-.17,1.25-.32,1.89-.44h.03c.99-.2,2-.34,3.05-.44h.06c.66-.07,1.33-.12,2.01-.15h.51c.31-.02.63-.03.95-.03h135.6c.24,0,.48,0,.71.01v.02h.45c.55.03,1.09.08,1.63.14h0s.04,0,.04,0c.29.04.57.08.85.13v.02h.13c.45.08.91.17,1.35.27v.02h.09c.17.04.34.08.5.13v.02h.08c.17.05.35.1.52.15h0s0,0,0,0c.3.09.59.18.88.28v.02h.05c.13.05.27.09.4.14h0s.02,0,.02,0c.6.22,1.19.46,1.76.73h0s.02,0,.02,0c.09.04.18.09.28.13v.02h.04c.09.04.17.09.26.13v.02h.04c.09.04.17.09.26.13v.02h.03c.09.05.18.09.26.14h0s.01,0,.01,0c.35.19.69.38,1.02.59h0s0,0,0,0c.15.09.29.18.44.27v.02h.04c.29.19.57.38.85.58v.02h.02c.19.14.38.28.57.42v.02h.03c.19.14.38.29.56.44h0s0,0,0,0c.41.33.8.67,1.18,1.03h0s0,0,0,0l.14.13v.02h.02l.13.12v.02h.02c.19.19.38.38.57.57v.02h.02l.13.13v.02h.01l.13.14h0s0,0,0,0c.52.56,1.02,1.15,1.48,1.77h0s0,.01,0,.01c.36.48.7.97,1.03,1.48h0s0,0,0,0c.15.24.3.48.44.72v.02h.01c.63,1.07,1.17,2.19,1.62,3.36v.05h.02c.28.72.52,1.46.72,2.22h0s0,0,0,0c.05.19.1.38.15.58v.02h0c.11.46.21.94.29,1.41v.07h.01c.05.3.1.6.14.9v.14h.02c.06.47.1.95.13,1.43v.65h.03c0,.25.01.5.01.76h0c0,.29,0,.58-.02.87h-.03v.53c-.03.47-.07.93-.13,1.39h-.02v.17c-.04.29-.08.58-.13.86h-.02v.11c-.08.46-.18.92-.28,1.37h-.01v.05c-.04.18-.09.36-.14.54h-.01v.04c-.09.34-.19.67-.29,1h0c-.05.16-.09.3-.14.44h0v.02c-.13.39-.28.78-.44,1.17h0v.02c-.14.34-.29.68-.44,1.02h0c-.04.1-.09.2-.14.3h-.01v.02c-.04.09-.09.18-.14.27h-.01v.03c-.05.09-.09.18-.14.27h-.01v.02c-.05.09-.1.18-.15.28h0c-.19.36-.38.7-.59,1.04h0c-.09.16-.18.3-.27.44h-.03v.04c-.18.29-.37.57-.57.85h-.02v.03c-.5.71-1.04,1.39-1.62,2.04h0s-.12.15-.12.15h-.02v.03l-.11.12h-.04v.04c-.42.45-.85.88-1.3,1.3h-.04v.03l-.13.11h-.02v.02l-.15.13h0c-.29.26-.58.5-.88.74h-.01c-.18.16-.37.3-.56.44h-.03v.02c-.19.14-.39.28-.58.42h0c-.14.1-.28.2-.43.3h-.02c-.15.11-.29.2-.44.3h0c-.24.15-.48.3-.73.44h-.02c-.98.57-2,1.07-3.05,1.48h-.06v.02c-.39.15-.78.29-1.18.42h0c-.32.11-.65.21-.98.3h-.06v.02c-.17.05-.34.09-.51.13h-.08v.02c-.43.1-.85.2-1.29.28h-.04c-.29.06-.59.11-.89.15h-.15v.02c-.4.05-.81.1-1.22.13h-.41v.03c-.43.03-.87.04-1.3.04h-21.77c-18.07,0-32.86,14.91-32.86,33.14s14.79,33.14,32.86,33.14h130.83c.75,0,1.49.01,2.24.03v.02h.63c.93.03,1.86.08,2.78.14h0s.1,0,.1,0c.56.04,1.12.08,1.68.13v.02h.17c.49.04.98.09,1.46.14h0s.04,0,.04,0c.38.04.77.09,1.15.13h0s.13.01.13.01c.35.04.71.09,1.06.14h0s.04,0,.04,0c.93.13,1.85.27,2.77.43h0s.08.01.08.01c.27.05.54.09.81.14h0s.02,0,.02,0c.24.04.48.09.72.14h0s.05,0,.05,0c.48.09.96.19,1.44.29h0s.03,0,.03,0c.44.09.87.19,1.31.29h0s.03,0,.03,0l.56.13v.02h.07c.77.18,1.54.38,2.3.59h0s.02,0,.02,0c.34.09.68.18,1.02.28v.02h.06c.33.09.65.19.98.29h0s.03,0,.03,0c.49.14.97.29,1.45.44h0s0,0,0,0c.15.05.29.1.44.15h0s0,0,0,0c.15.05.29.1.44.14h0s.01,0,.01,0c.14.05.29.09.43.14h0s.02,0,.02,0c.14.05.28.09.43.14h0s.02,0,.02,0c2.42.83,4.78,1.77,7.09,2.81h0s.01,0,.01,0c.09.04.19.08.29.13v.02h.05c.93.42,1.85.87,2.77,1.32h0s.02,0,.02,0l.28.14h0s.02,0,.02,0l.28.14h0s.01,0,.01,0c.09.05.19.09.28.14h0s.01,0,.01,0l.28.15h0s0,0,0,0c1,.52,1.98,1.06,2.96,1.62h0s.02.01.02.01c.34.19.68.39,1.02.59h0s0,0,0,0c.25.15.49.29.74.44h0s0,0,0,0c.8.48,1.59.97,2.37,1.48h0s0,0,0,0c.15.1.3.2.44.3h0s0,0,0,0c.15.1.3.2.44.3h0s0,0,0,0c.15.1.3.19.44.29h0s0,0,0,0c.5.34.99.68,1.48,1.03h0s.01,0,.01,0c.34.24.68.49,1.02.74h0s0,0,0,0c.85.62,1.69,1.26,2.52,1.91h0s.02.01.02.01c.24.19.48.39.72.58h0s.01,0,.01,0c.6.48,1.18.97,1.77,1.47h0s.01.01.01.01c.34.29.69.59,1.02.89h0s0,0,0,0l.15.13v.02h.02c.49.44.98.88,1.46,1.33h0s0,0,0,0c1.48,1.38,2.91,2.81,4.29,4.28h0s.01.01.01.01l.14.15h0s0,0,0,0c.81.87,1.6,1.75,2.37,2.66h0s0,.01,0,.01c.5.58.99,1.18,1.47,1.77h0s0,0,0,0c.2.24.39.49.59.74h0s0,0,0,0c.92,1.16,1.81,2.34,2.67,3.55h0s0,0,0,0c.1.14.2.28.29.42v.03h.02c.81,1.16,1.6,2.34,2.35,3.54h0s0,.01,0,.01c.61.97,1.2,1.95,1.77,2.94v.02h.01c.2.34.39.69.58,1.04h0s0,0,0,0c.35.64.7,1.28,1.04,1.93h0s0,0,0,0l.15.28v.02h0c.05.09.09.18.14.27v.03h.02l.13.26v.04h.02c.61,1.21,1.2,2.44,1.76,3.68v.02h0c1.04,2.32,1.97,4.69,2.81,7.11h0s0,0,0,0c.05.14.1.28.15.42v.03h0c.05.14.09.28.14.43v.02h0c.05.15.09.29.14.44h0s0,0,0,0c.8,2.46,1.5,4.97,2.07,7.52v.04h0c.55,2.42.99,4.88,1.32,7.37v.04h0c.05.37.1.74.14,1.12v.07h0c.11.93.21,1.87.29,2.81h0s0,0,0,0c.15,1.71.25,3.43.3,5.17v.76h.01c0,.49.02.98.02,1.48s-.01.99-.02,1.49h-.01v.75c-.03,1.04-.08,2.07-.14,3.1h0v.09c-.1,1.61-.25,3.21-.44,4.8h0v.06c-.05.38-.09.75-.14,1.13h0v.03c-.17,1.23-.35,2.46-.57,3.68h-.02v.1c-.22,1.21-.46,2.41-.73,3.6h0v.03c-.27,1.18-.56,2.36-.88,3.53h0v.03c-.41,1.49-.85,2.96-1.33,4.42h0c-.05.15-.09.3-.14.44h0v.02c-.37,1.09-.76,2.17-1.18,3.24h-.01v.03c-.55,1.44-1.14,2.87-1.77,4.27h0c-.47,1.06-.96,2.09-1.47,3.11h-.01v.02c-.04.09-.09.18-.14.27h-.01v.03c-.05.09-.09.18-.13.27h-.01v.03l-.14.27h-.01v.02c-.05.09-.1.18-.14.27h0c-.57,1.11-1.16,2.19-1.77,3.26h0v.02c-.57,1-1.17,1.98-1.78,2.95h0c-.09.15-.18.3-.27.44h-.02v.04c-.66,1.04-1.35,2.07-2.06,3.08h-.01v.02c-.81,1.15-1.64,2.28-2.5,3.39h-.02v.03c-.81,1.05-1.65,2.08-2.52,3.09h0c-.34.4-.69.79-1.03,1.19h0c-.49.55-.98,1.1-1.48,1.63h0s-.13.15-.13.15h-.02v.02c-1.29,1.37-2.62,2.7-4,3.98h0c-.53.51-1.07,1-1.62,1.48h-.01c-.39.36-.78.7-1.18,1.04h0c-.58.5-1.18,1-1.78,1.48h0c-.24.2-.49.4-.73.59h0c-.63.51-1.28,1-1.93,1.48h0c-.33.25-.67.5-1,.74h-.03v.03c-.2.14-.39.28-.59.42h0c-1.3.93-2.64,1.82-3.99,2.67h0c-.72.46-1.45.9-2.19,1.33h-.04v.02c-.24.14-.49.28-.73.42h0c-1.17.67-2.35,1.31-3.56,1.93h0s-.29.15-.29.15h0s-.29.15-.29.15h0s-.29.15-.29.15h0c-.82.41-1.65.81-2.49,1.19h-.03c-.78.37-1.57.71-2.36,1.04h-.02c-.23.1-.47.2-.7.3h-.04v.02c-.23.09-.46.19-.69.28h-.05v.02c-.24.09-.48.19-.72.28h-.02c-.93.37-1.87.71-2.81,1.04h0c-1.07.37-2.16.71-3.25,1.04h0c-.33.1-.67.2-1,.3h-.03c-.92.27-1.84.51-2.77.74h-.04c-.18.06-.37.1-.55.15h-.04c-.2.06-.39.1-.59.15h0c-.68.16-1.36.3-2.05.44h-.03c-.24.06-.49.1-.73.15h0c-.25.05-.5.1-.75.15h-.13v.03c-.24.04-.47.08-.71.12h-.03c-.28.05-.56.1-.85.15h-.04c-.64.11-1.29.21-1.93.3h-.14v.02c-.32.04-.65.09-.97.13h-.06c-.91.12-1.82.21-2.73.3h-.09c-.6.06-1.19.11-1.79.15h-.13c-.94.07-1.88.12-2.83.15h-.73v.02c-.65.02-1.29.02-1.94.02h-45.91c-44.65,0-81.18,36.84-81.18,81.88s40.39,81.89,85.04,81.89c1.68,0,3.34.02,5.01.07v.06h1.53c1.87.06,3.73.16,5.58.27v.02h.34c.53.03,1.06.06,1.59.1v.05h.69c.41.03.82.08,1.23.11v.04h.41c.51.04,1.01.09,1.52.14h0s.12.01.12.01c.95.09,1.9.19,2.84.29h0s.05,0,.05,0c.38.04.76.09,1.14.13v.02h.14c.3.03.6.07.9.1v.04h.38c.27.03.54.06.81.09v.05h.4c.26.03.53.08.79.11v.04h.25c.31.04.62.09.93.13v.02h.11c.31.04.62.09.93.13v.02h.11c.65.1,1.31.19,1.96.3h0s0,0,0,0c.54.09,1.08.18,1.62.27v.02h.14c.25.04.5.08.75.13v.02h.13c.2.04.41.07.61.1v.04h.27c.21.04.42.07.62.11v.04h.22c.17.03.35.07.52.1v.05h.24c.22.04.43.09.65.13v.02h.11c.21.04.42.08.63.12v.03h.13c.25.05.51.1.76.15h0s0,0,0,0c.25.05.49.09.74.14h0s.02,0,.02,0c.69.14,1.37.29,2.05.44h0s.03,0,.03,0c.19.04.37.08.56.12v.02h.11l.63.14h0s.04,0,.04,0c.18.04.37.08.55.12v.03h.12c.16.04.32.07.47.1v.04h.2c.13.03.27.06.4.09v.06h.26c.16.04.32.08.48.12v.03h.11c.16.04.32.08.48.12v.03h.12c.16.04.32.08.47.12v.03h.12c1.35.33,2.69.67,4.03,1.03h0s.01,0,.01,0c.34.09.68.19,1.02.28v.02h.06l.54.15h0s0,0,0,0c.15.04.29.08.44.12v.03h.1c.16.05.33.09.5.14h0s.04.01.04.01c.13.04.27.07.4.11v.04h.14c.1.03.2.06.31.09v.06h.18c.14.04.27.08.41.12v.02h.08c.12.04.24.07.36.11v.04h.13l.47.14h0s.03,0,.03,0l.42.13v.02h.07c.32.1.64.19.97.29h0s.02,0,.02,0c1.24.38,2.46.78,3.69,1.19h0s0,0,0,0c.15.05.3.1.44.15h0s0,0,0,0c.15.05.29.1.44.14h0s.01,0,.01,0c.14.05.29.09.43.14h0s.02,0,.02,0c.09.03.19.06.28.09v.06h.17c.09.03.18.07.27.1v.05h.14c.1.03.2.07.3.11v.04h.11c.11.04.22.08.33.12v.03h.08c.12.04.24.09.36.13v.02h.05l.39.14h0s.02,0,.02,0c1.08.39,2.16.78,3.24,1.18h0s.02,0,.02,0c.24.09.48.19.73.28v.02h.04c.23.09.46.18.7.27v.03h.07l.37.14h0s.01,0,.01,0l.28.11v.04h.1c.11.04.23.09.34.13v.02h.04l.26.1v.05h.13c.1.04.21.08.32.12v.03h.07l.23.09v.06h.13c.1.04.21.09.31.13v.02h.05l.25.1v.05h.11l.34.14h0s.02,0,.02,0l.27.11v.03h.08l.66.27v.02h.06c.23.09.46.19.68.28h0s.03.01.03.01c.24.1.47.19.71.29h0s0,0,0,0c.34.15.69.3,1.03.44h0s0,0,0,0c.45.19.89.39,1.33.59h0s0,0,0,0l.29.13v.02h.04c.33.15.66.29.99.44h0s.01,0,.01,0c.09.04.19.08.29.13v.02h.05c.08.04.17.07.25.11v.04h.09c.07.03.14.06.21.09v.06h.12c.21.09.41.2.62.29h0s.01,0,.01,0c.1.04.19.09.29.14h0s.03.01.03.01l.27.13v.02h.04l.25.12v.03h.06c.62.29,1.25.58,1.87.88h0s.02,0,.02,0c.89.43,1.77.87,2.65,1.31v.02h.05l.25.13v.02h.04l.25.13v.02h.04l.25.13v.02h.04l.26.13v.02h.04l.26.13v.02h.04c.09.04.17.09.26.13v.02h.03c.09.04.18.09.26.13v.02h.03l.26.13h0s.02.01.02.01c.09.05.18.1.27.15h0s0,0,0,0c.45.23.89.47,1.33.71v.03h.06l.24.13v.02h.04l.26.14h0s.02.01.02.01l.27.15h0s0,0,0,0c.99.53,1.98,1.08,2.96,1.63h0s0,0,0,0c.25.14.49.28.74.42v.03h.05l.25.14h0s.01,0,.01,0c.24.14.49.27.73.41v.03h.06l.24.13h0s.03.01.03.01c.14.08.28.16.42.24v.06h.1c.06.04.13.08.19.12v.03h.05c.08.05.16.1.24.14h0s0,0,0,0c.15.09.29.18.44.26v.03h.06l.24.14h0s0,0,0,0l.44.26v.04h.06l.24.14h0s.01,0,.01,0c.24.15.49.29.73.44h0s.01,0,.01,0c1.04.63,2.07,1.27,3.1,1.92h0s.02.01.02.01l.43.27v.03h.04l.4.25v.04h.07c.08.05.15.1.23.14h0s0,0,0,0c.15.09.29.18.44.28v.02h.03c.14.09.28.17.41.26v.03h.05c.13.09.26.18.39.26v.03h.05c.13.09.26.17.39.26v.04h.05c.13.09.26.17.39.26v.04h.05c1.18.78,2.35,1.57,3.5,2.37h0s0,0,0,0c.35.24.69.48,1.03.72v.02h.02l.42.29h0s0,0,0,0c.2.14.39.27.59.41v.03h.04c.13.09.27.19.4.28v.02h.02l.13.09v.06h.09c.12.09.24.18.36.26v.03h.04c.13.1.27.2.4.3h0s0,0,0,0l.15.11v.04h.05c.13.1.26.19.39.29h0s.01,0,.01,0c.19.14.39.29.58.43v.02h.02c.99.73,1.97,1.47,2.94,2.21h0s.01,0,.01,0c.24.19.49.38.73.56v.03h.04c.19.14.37.29.56.43h0s.02.01.02.01l.13.1v.05h.06c.18.14.36.27.53.41v.03h.04c.18.15.37.29.55.44h0s.01,0,.01,0c.05.04.09.07.14.11v.04h.05c.23.19.46.38.7.57v.03h.03c.24.19.47.38.71.58v.02h.02c.24.2.48.39.72.59h0s0,0,0,0c.59.49,1.18.98,1.77,1.47h0s.01.01.01.01c.34.29.68.58,1.03.87h0s.02.01.02.01l.13.11v.04h.04c.28.24.57.48.85.72v.02h.02l.13.11v.04h.05l.1.09v.06h.07c.22.19.45.39.67.59h0s0,0,0,0l.14.13v.02h.02l.12.11v.04h.04c.38.34.76.68,1.14,1.03h0s.01.01.01.01c1.19,1.07,2.38,2.16,3.54,3.26h0s0,0,0,0l.15.14h0s.01.01.01.01l.14.13v.02h.02l.13.12v.03h.03l.12.11v.04h.04l.11.1v.05h.05l.1.09v.05h.06c2.15,2.06,4.26,4.17,6.32,6.32v.05h.05l.1.1v.05h.05l.1.11v.04h.04l.11.11v.04h.04l.11.12v.03h.03l.12.12v.03h.02l.13.14h0s.01.01.01.01l.14.15h0s0,0,0,0c.5.53.99,1.07,1.48,1.61v.03h.02l.12.14h0s.01.01.01.01l.14.15h0s0,0,0,0c.5.54.99,1.08,1.48,1.63h0s0,0,0,0c.3.33.59.67.89,1.01v.03h.02l.12.14h0s0,0,0,0c.25.28.49.56.73.83v.05h.05l.1.11v.03h.03l.12.13h0s.01.01.01.01c.24.28.49.56.73.84v.05h.04l.11.13v.02h.02c.24.29.48.58.72.86v.03h.02c.29.34.58.69.87,1.03h0s0,0,0,0c.85,1.02,1.69,2.05,2.52,3.09v.02h.02c.19.24.38.48.57.72v.02h.02c.14.18.29.36.43.53v.06h.05l.1.13v.02h.02c.14.18.29.37.43.55v.04h.03c.14.18.27.36.41.54v.05h.04l.11.15h0s0,0,0,0c.15.19.29.39.44.58h0s0,.01,0,.01c.14.19.29.38.44.57v.02h.02c.59.78,1.18,1.57,1.76,2.36h0s0,0,0,0c.25.34.49.68.74,1.02v.02h.02c.24.33.49.67.73,1v.04h.03c.09.13.18.25.27.37v.07h.05l.1.13h0s.01.01.01.01c.1.14.19.27.29.41v.03h.02c.09.13.18.27.27.4v.05h.03c.24.34.47.69.71,1.03h0s0,0,0,0l.29.42v.02h.02c.8,1.16,1.58,2.34,2.36,3.52v.04h.02l.27.42v.03h.02c.09.14.19.28.28.42v.02h.01c.09.14.19.29.28.43h0s0,.01,0,.01c.05.07.09.14.14.21v.08h.05l.09.14h0s0,0,0,0l.15.23v.07h.04c.09.14.17.27.25.41v.03h.02c.09.15.18.3.28.44h0s0,0,0,0l.15.24v.06h.04l.26.42v.03h.02c.85,1.37,1.69,2.75,2.5,4.14h0s0,0,0,0c.2.33.39.66.59,1v.04h.02c.14.24.28.48.42.72v.02h.01c.04.08.09.15.13.23v.07h.04c.14.24.27.49.41.73h0s0,0,0,0c.05.08.09.17.14.26v.04h.02c.19.34.38.69.57,1.03h0s0,.01,0,.01c.65,1.17,1.29,2.36,1.92,3.54h0s0,.01,0,.01l.14.27v.03h.01l.13.26v.04h.02l.13.24v.06h.03l.12.23v.07h.04c1.17,2.25,2.29,4.52,3.37,6.81h0s0,0,0,0c.2.42.39.85.59,1.27v.06h.03l.12.26v.04h.02l.13.28v.02h0c.14.31.29.62.44.94v.1h.05l.1.23v.06h.03c.04.09.08.18.12.28v.02h0c.1.22.19.44.29.66v.08h.03l.11.26v.04h.02c.19.44.39.88.58,1.32h0s0,0,0,0c.4.93.8,1.87,1.18,2.81h0s0,0,0,0c.1.24.19.48.29.72v.02h0c.1.24.19.47.29.71v.03h.01c.09.23.19.46.28.69v.05h.02c.04.11.09.21.13.32v.13h.05c.03.08.07.16.1.24v.06h.02c.04.11.08.22.12.33v.12h.04c.04.09.07.18.1.28v.02h0c.05.12.09.25.14.37v.07h.03c.09.24.18.47.27.71v.03h.01c.24.64.49,1.28.73,1.93h0s0,0,0,0c.25.69.5,1.38.74,2.07h0s0,0,0,0l.14.41v.03h.01l.14.39v.05h.02l.13.37v.08h.03l.12.35v.1h.03c.04.11.08.22.11.33v.12h.04c.03.1.07.2.11.3v.14h.05c.03.09.07.19.1.28v.16h.05c.03.1.06.2.1.3h0s0,0,0,0c.62,1.86,1.21,3.74,1.78,5.63h0s0,0,0,0c.1.33.2.66.3,1v.04h.01c.09.32.19.64.28.96v.08h.02c.04.14.08.28.12.42v.02h0c.05.16.1.32.14.48v.12h.03c.04.14.08.29.12.43v.16h.04c.04.13.07.26.11.39v.05h.01c.05.16.09.33.13.49v.1h.03c.09.33.18.67.27,1v.04h.01c.25.93.5,1.87.73,2.81h0s0,0,0,0c.15.6.3,1.21.44,1.82v.11h.03c.04.17.08.33.12.5v.09h.02c.04.17.09.34.13.52v.08h.02c.04.18.09.35.13.53v.21h.05c.04.16.07.32.1.47v.12h.03c.04.19.08.38.12.56v.03h0c.05.22.09.44.14.65v.09h.02c.36,1.65.7,3.31,1.02,4.98v.06h.01c.05.24.09.48.14.71v.18h.03c.04.2.08.4.11.6v.14h.03c.04.21.08.42.12.64v.25h.04c.04.21.07.43.11.64v.1h.02c.05.26.09.53.13.8v.09h.01c.05.27.09.54.13.81v.08h.01c.21,1.26.4,2.52.58,3.78v.07h.01c.05.33.09.66.14.99v.2h.03c.04.29.08.57.12.86v.33h.05c.03.26.07.51.1.77v.41h.05c.04.29.07.59.1.88v.15h.02c.05.38.09.76.13,1.14v.04h0c.16,1.46.31,2.92.44,4.38v.21h.02c.04.48.09.97.13,1.46v.47h.04c.04.51.07,1.02.11,1.53v.4h.03c.04.65.08,1.3.12,1.94v.13h0c.05.94.1,1.88.14,2.82v.44h.02c.06,1.47.1,2.95.13,4.44v1.49h.02c.01.67.03,1.35.03,2.02,0,.71-.02,1.42-.03,2.13h-.02v1.39c-.03,1.47-.07,2.93-.13,4.4h-.02v.48c-.04.98-.09,1.95-.15,2.92h0v.02c-.04.63-.08,1.27-.12,1.9h-.03v.44c-.03.5-.06.99-.1,1.49h-.05v.51c-.04.47-.08.94-.13,1.41h-.02v.26c-.05.56-.09,1.12-.15,1.67h0c-.09.89-.19,1.78-.29,2.67h0v.08c-.04.37-.08.73-.13,1.1h-.02v.2c-.04.33-.07.66-.11.99h-.04v.31c-.04.29-.08.58-.12.88h-.03v.22c-.04.32-.09.64-.14.97h-.01v.09c-.04.31-.09.63-.13.94h-.02v.12c-.22,1.55-.46,3.09-.72,4.63h-.02v.13c-.04.25-.08.5-.12.75h-.02v.14c-.03.2-.06.4-.1.6h-.05v.3c-.04.2-.08.39-.11.59h-.04v.18c-.04.24-.09.47-.13.7h-.01v.07c-.04.22-.09.45-.13.67h-.02v.1c-.1.51-.19,1.02-.29,1.53h0v.02c-.19.93-.38,1.86-.58,2.79h0v.04c-.09.43-.19.86-.28,1.29h-.02v.07c-.04.17-.07.35-.11.52h-.04v.16c-.04.19-.08.39-.13.58h-.02v.1c-.04.16-.08.33-.12.49h-.03v.12c-.04.16-.08.31-.11.47h-.03v.14c-.05.2-.1.4-.15.6h0s-.14.59-.14.59h0v.02l-.14.57h0v.04c-.33,1.33-.67,2.65-1.03,3.97h-.01v.04c-.09.33-.18.67-.27,1h-.03v.1c-.05.16-.09.33-.13.5h-.01v.05c-.04.13-.07.26-.11.39h-.04v.16c-.04.15-.09.29-.13.43h-.02v.07c-.04.13-.08.25-.11.38h-.04v.12c-.05.16-.09.31-.14.47h0v.03l-.12.41h-.03v.09c-.09.32-.19.64-.28.95h-.01v.05c-.43,1.42-.87,2.84-1.33,4.25h0s-.14.44-.14.44h0v.02c-.05.14-.09.28-.14.43h-.01v.03c-.05.14-.09.28-.13.41h-.01v.04c-.04.13-.08.27-.13.4h-.02v.06c-.04.13-.09.26-.14.39h-.01v.04c-.05.14-.1.27-.14.41h0c-.34,1-.68,1.99-1.04,2.96h0c-.29.8-.58,1.59-.88,2.37h-.01v.03c-.14.38-.29.77-.44,1.15h0v.02c-.09.24-.18.48-.27.72h-.02v.06c-.05.13-.09.25-.14.38h0c-.04.11-.07.2-.11.3h-.04v.1c-.04.11-.09.23-.14.34h0v.02c-.04.09-.07.18-.11.27h-.04v.09c-.05.12-.1.23-.14.35h0s-.12.3-.12.3h-.03v.08c-.53,1.31-1.07,2.62-1.63,3.92h0c-.19.45-.38.89-.58,1.33h-.02v.04c-.15.33-.29.67-.44,1h0v.02l-.12.28h-.03v.06c-.03.08-.07.15-.1.23h-.05v.11c-.09.21-.19.42-.29.63h0v.02c-.04.09-.09.19-.13.28h-.02v.04c-.04.09-.08.17-.12.26h-.03v.06c-.19.43-.39.85-.59,1.27h0s-.14.3-.14.3h-.01v.03c-.39.83-.78,1.67-1.19,2.49h0c-.05.1-.1.2-.15.3h0s-.14.3-.14.3h0s-.14.3-.14.3h0s-.14.3-.14.3h0s-.14.3-.14.3h0v.02l-.14.28h-.01v.02l-.14.28h-.01v.02l-.14.27h-.01v.03c-.04.09-.09.18-.13.27h-.01v.03c-.04.09-.09.18-.13.27h-.02v.03c-.04.09-.09.18-.13.26h-.02v.04c-.04.09-.09.17-.14.26h-.01v.02c-.05.09-.1.18-.14.28h0c-.53,1.05-1.08,2.08-1.63,3.11h0c-.48.9-.97,1.78-1.47,2.67h-.01v.03c-.19.34-.37.68-.56,1.01h-.03v.05c-.05.08-.09.16-.14.24h-.01v.02c-.14.24-.27.48-.4.72h-.04v.07c-.04.08-.09.15-.13.23h-.01v.02c-.14.24-.28.48-.42.72h-.02v.04c-.19.33-.39.67-.59,1h0c-.58,1-1.18,1.99-1.78,2.96h0c-.24.4-.49.79-.73,1.19h0s-.27.44-.27.44h-.03v.05c-.08.13-.16.27-.25.4h-.05v.08l-.13.22h-.01v.02c-.09.14-.18.28-.27.42h-.03v.05c-.08.13-.17.26-.26.4h-.04v.06c-.08.13-.17.26-.25.39h-.04v.07c-.15.23-.29.45-.44.68h0s-.29.44-.29.44h0s-.28.44-.28.44h-.01v.02c-.49.74-.98,1.47-1.47,2.2h-.01v.02c-.1.14-.2.29-.3.43h0c-.24.35-.47.69-.71,1.04h-.03v.04c-.09.13-.18.27-.28.4h-.02v.03c-.1.14-.19.28-.29.42h0s-.09.15-.09.15h-.05v.08c-.09.12-.17.24-.25.37h-.04v.06c-.09.13-.19.26-.28.39h-.02v.02c-.14.19-.28.38-.41.57h-.03v.04c-.1.13-.19.27-.29.4h0s-.42.59-.42.59h-.02v.03c-.68.93-1.37,1.86-2.06,2.79h-.01v.02c-.15.19-.29.38-.44.57h0c-.15.2-.3.4-.44.59h0s-.11.15-.11.15h-.04v.05c-.14.18-.28.37-.42.55h-.03v.04c-.14.18-.28.37-.42.55h-.02v.03s-.06.08-.1.12h-.05v.07c-.14.18-.28.35-.42.53h-.02v.03c-.19.24-.38.47-.57.71h-.02v.03c-1.07,1.34-2.15,2.66-3.25,3.97h-.01s-.11.15-.11.15h-.04v.04c-.2.23-.39.47-.59.7h0s-.12.15-.12.15h-.03v.04l-.09.11h-.05v.06c-.19.23-.38.45-.58.68h-.02v.02l-.11.13h-.03v.04l-.1.11h-.05v.06c-.24.28-.49.55-.73.83h-.01s-.12.15-.12.15h-.03v.03c-.29.34-.59.67-.89,1.01h0c-.44.5-.88.99-1.33,1.48h0c-.59.65-1.18,1.29-1.77,1.93h0s-.13.15-.13.15h-.02v.02l-.12.13h-.03v.03l-.11.12h-.04v.04l-.1.1h-.05v.06l-.08.09h-.06v.07c-.78.83-1.58,1.64-2.37,2.45h0s-.14.15-.14.15h0c-.58.6-1.17,1.19-1.76,1.78h-.02v.02l-.13.13h-.02v.02l-.14.13h-.01s-.14.15-.14.15h-.01s-.14.15-.14.15h0s-.14.15-.14.15h0s-.14.15-.14.15h0s-.15.15-.15.15h0c-.97.95-1.95,1.89-2.94,2.82h-.03v.03l-.13.12h-.02v.02l-.14.13h-.01s-.15.15-.15.15h0c-.64.6-1.28,1.19-1.93,1.78h0c-.38.35-.77.69-1.16,1.04h-.03v.03l-.14.12h-.01c-.33.3-.65.6-.98.89h-.06v.05l-.11.1h-.04v.03s-.08.08-.13.11h-.02v.02l-.15.13h0c-.23.2-.46.39-.69.59h-.05v.04l-.13.11h-.02v.02c-.34.29-.68.58-1.02.87h-.02c-1.11.96-2.24,1.89-3.37,2.82h-.04v.03l-.14.11h0c-.18.15-.36.3-.54.44h-.05v.04l-.13.1h-.02v.02c-.18.14-.35.29-.53.43h-.07v.05l-.12.09h-.03v.03c-.18.14-.36.28-.54.42h-.06v.04l-.14.11h-.01c-.19.16-.38.3-.56.44h-.03v.02c-.24.19-.49.38-.73.57h0c-.44.35-.88.7-1.33,1.04h0c-.73.55-1.46,1.09-2.19,1.63h-.03v.02c-.19.14-.38.28-.57.42h-.02c-.13.11-.26.2-.38.3h-.06v.04l-.14.1h0c-.13.1-.26.2-.39.3h-.05v.04l-.36.26h-.09v.06l-.13.09h-.02v.02c-.13.09-.27.19-.4.28h-.04v.03c-.2.14-.39.28-.59.41h0s-.42.3-.42.3h-.02v.02c-.34.24-.69.48-1.03.72h0c-1.01.7-2.04,1.39-3.07,2.08h-.05v.03c-.13.09-.27.18-.4.27h-.05v.03c-.13.09-.27.18-.4.27h-.04v.03c-.13.09-.27.18-.4.27h-.04v.03c-.14.09-.27.18-.41.27h-.04v.02c-.14.09-.29.18-.43.27h-.01c-.07.06-.15.1-.22.15h-.07v.05c-.13.08-.26.17-.4.25h-.05v.03l-.42.27h-.02v.02c-1.26.8-2.54,1.58-3.82,2.36h-.03v.02l-.71.42h-.03v.02c-.24.14-.47.29-.71.43h-.03v.02l-.22.13h-.08v.05c-.14.08-.28.17-.42.25h-.03v.02l-.23.13h-.07v.04c-.24.14-.48.27-.72.41h-.02c-.08.06-.16.1-.24.15h-.06v.03c-.24.14-.49.27-.73.41h-.01s-.25.15-.25.15h-.05v.03c-.25.14-.49.28-.74.42h0c-1.17.66-2.36,1.3-3.55,1.93h-.01s-.27.15-.27.15h-.03v.02l-.25.13h-.05v.03c-.08.04-.15.08-.23.12h-.07v.04c-.07.04-.14.08-.21.11h-.09v.05c-.06.03-.13.07-.19.1h-.11v.06c-2.04,1.06-4.11,2.07-6.19,3.06h-.04v.02l-.27.13h-.02s-.29.15-.29.15h0c-.31.15-.62.3-.94.44h-.1v.05c-.07.03-.14.07-.21.1h-.09v.04c-.08.04-.15.07-.23.11h-.07v.03c-.09.04-.17.08-.26.12h-.04v.02c-.32.15-.65.28-.97.43h-.07v.03l-.26.12h-.03c-.43.21-.87.4-1.31.59h-.03c-1.03.46-2.06.9-3.1,1.33h-.01s-.7.3-.7.3h-.04v.02c-.23.09-.45.19-.68.28h-.06v.03c-.1.04-.2.08-.29.12h0c-.12.05-.24.1-.35.15h-.09v.04c-.09.04-.18.07-.27.11h-.03c-.12.06-.24.1-.35.15h-.09v.04c-.1.04-.2.07-.29.11h0c-.13.05-.25.1-.38.15h-.06v.02c-.23.09-.47.18-.71.27h-.04s-.73.3-.73.3h0c-1.46.56-2.94,1.11-4.42,1.63h-.03s-.39.15-.39.15h-.06v.02c-.12.04-.24.09-.36.13h-.09v.03c-.11.04-.22.08-.33.12h-.12v.04c-.1.03-.2.07-.3.11h-.15v.05c-.1.03-.2.06-.3.1h-.15v.05c-.1.03-.2.07-.3.1h-.14v.05c-1.47.5-2.95.97-4.44,1.44h-.01c-.32.1-.65.2-.97.3h-.07v.02l-.42.13h-.02s-.47.15-.47.15h-.12v.04l-.37.11h-.07v.02c-.14.04-.28.09-.42.13h-.18v.05c-.1.03-.21.06-.31.09h-.13v.04c-.13.04-.26.07-.39.11h-.05c-.16.06-.33.1-.49.15h-.11v.03c-.14.04-.29.08-.43.12h-.01c-.18.05-.35.1-.53.15h-.06v.02c-.34.09-.68.19-1.02.28h-.02c-.73.2-1.47.4-2.21.59h-.02c-.19.05-.39.1-.58.15h-.01c-.2.05-.39.1-.59.15h0s-.59.15-.59.15h0s-.6.15-.6.15h-.14v.04c-.15.04-.3.08-.45.11h-.14v.03c-.15.04-.31.08-.46.11h-.13v.03c-.17.04-.33.08-.5.12h-.24v.05c-.14.03-.29.06-.43.09h-.16v.04c-.17.04-.34.07-.51.11h-.09v.02l-.58.13h0c-.22.05-.44.1-.66.15h-.08v.02c-.2.04-.39.09-.59.13h0c-.71.15-1.43.3-2.15.44h-.07c-.23.06-.46.1-.69.15h-.05s-.71.15-.71.15h-.18v.04c-.19.04-.39.08-.58.11h-.16v.03c-.2.04-.4.08-.6.12h-.29v.06c-.17.03-.34.06-.51.09h-.23v.04c-.22.04-.44.07-.65.11h-.23v.04c-.22.04-.43.07-.65.11h-.09v.02l-.79.13h-.1v.02c-1.24.2-2.49.39-3.74.58h-.11v.02c-.31.04-.62.09-.93.13h-.26v.04c-.26.04-.52.08-.79.11h-.4v.06c-.25.03-.49.06-.74.09h-.3v.03c-.32.04-.65.07-.97.11h-.21v.02c-.35.04-.71.08-1.06.12h-.12c-.39.06-.77.11-1.15.15h-.03c-.49.06-.99.1-1.48.15h-.15c-.5.06-.99.1-1.49.15h-.44v.04c-.4.04-.8.08-1.2.11h-.72v.06c-.46.03-.91.06-1.37.09h-.56v.04c-.58.04-1.16.08-1.74.11h-.04c-1.04.06-2.09.1-3.14.15h-1.01v.04c-1.68.06-3.38.09-5.07.11h-.71c-.29.01-.57.02-.86.02H118.56c-.29,0-.57,0-.86-.01Z"/>
    <path class="cls-22" d="m726.04,547.05c48.61,46.66,77.31,198.63,139.08,218.09,0,0,5.74,14.46,2.77,27.43-2.98,12.97-8.72,17.86-8.72,17.86,0,0-51.98,4.73-95.64-4.41-24.55-5.14-28.18-37.48-37.49-41.23-25.86-10.42-39.57-115.04-39.57-115.04l39.57-102.71Z"/>
    <path class="cls-13" d="m868.74,784.22c.02,2.75.95.48-.85,8.35-1.81,7.87-8.72,17.86-8.72,17.86,0,0-51.98,4.73-95.64-4.41-24.55-5.14-35.94-24.9-45.25-28.65-11.24-4.52-5.39-93.25-13.77-102.88l-1.22-5.47,17.87-56.47s26.61,136.19,79.65,152.61c53.03,16.41,55.56,16.23,67.92,19.06"/>
    <polygon class="cls-3" points="482.09 441.61 482.09 613.7 192.78 613.7 192.78 441.61 340.54 292.59 482.09 441.61"/>
    <rect class="cls-27" x="234.54" y="361.17" width="202.02" height="231.32"/>
    <polygon class="cls-12" points="192.78 441.61 335.25 568.46 482.09 441.61 482.09 613.7 192.78 613.7 192.78 441.61"/>
    <polygon class="cls-14" points="192.78 613.7 338.68 511.44 482.09 613.7 192.78 613.7"/>
    <path class="cls-30" d="m449.94,833.53s35.94-16.35,30.6-41.67c-5.33-25.32-34.55-22.66-30.6-42.65,3.95-19.99,23.14-51.11,4.48-73.78-18.66-22.65-49.69-9.07-53.58-44.21-3.14-28.31-16.22-48.36-41.57-42.48-23.46,5.44-40.96,23.61-41.4,66.82-.47,46.01-32.87,33.08-33.27,66.98-.4,34.13,26.79,34.13,37.41,57.03,5.02,10.82-8.06,48.84,30.6,53.96h97.33Z"/>
    <path class="cls-25" d="m363.21,607.15s-.09.77-.23,2.28c-.41,4.53-1.23,15.57-1.23,30.95-.01,45,7.09,127.19,51.88,192.8.61.89.38,2.12-.52,2.73-.9.62-2.12.38-2.73-.51-45.51-66.75-52.54-149.63-52.56-195.02,0-20.7,1.48-33.61,1.48-33.68.12-1.08,1.09-1.85,2.17-1.73,1.07.12,1.85,1.1,1.73,2.17"/>
    <path class="cls-31" d="m406.75,833.53s5.66-31.25-15.55-43.97c-21.2-12.72-42.87-22.62-40.51-43.12,2.35-20.5-3.43-44.69-37.41-45.15-21-.27-13.12-22.42-34.46-26.84-12.97-2.68-21.53,10.86-23.18,24.16-1.89,15.14,6.68,30.04-3.15,42.37-12.76,15.98-17.94,45.79,9.48,54.26,27.43,8.49,2.98,34.45,40.33,38.29h104.46Z"/>
    <path class="cls-25" d="m280.23,689.3c.72,19.9,9.55,48.24,24.65,75.27,15.09,27.05,36.45,52.84,61.96,68.03.93.55,1.24,1.76.68,2.69-.56.93-1.76,1.24-2.69.68-26.35-15.71-48.03-42-63.38-69.49-15.34-27.5-24.36-56.18-25.15-77.04-.04-1.08.81-1.99,1.89-2.03,1.08-.04,1.99.81,2.03,1.88"/>
    <path class="cls-22" d="m668.8,524.38h-120.18c-47.12,0-86.58,34.74-94.37,80.04-.82,0-4.36,29.89-4.61,32.5-5.3,55.92-5.71,137.61,10.03,196.44h265.3l1.09-138.75v-147.57c-16.67-14.13-33.89-22.67-57.25-22.67"/>
    <path class="cls-22" d="m589.3,524.38s-1.4,22.15,5.19,27.46c6.59,5.32,23.39,8.4,30.19,6.27,6.8-2.13,16.05-11.05,18.6-15.52,2.55-4.46.7-18.21.7-18.21h11.32l9.14,99.32-2.75,176.16-46.57,27.94-35.79-21.78-4.97-281.63h14.94Z"/>
    <path class="cls-22" d="m686.36,415.76c-2.84,19.11,3.46,67.93,31.23,91.16,0,0-66.76,12.31-77.89,10.29-11.13-2.02-20.76-22.9-20.76-24.69s14.55-77.66,14.55-77.66l52.87.9Z"/>
    <path class="cls-11" d="m678.01,422.76c-.44,10.1,1.11,19.16,3.5,26,7.5,21.5-8.92,58.49-37.63,56.03l.19,36.96-17.16,15.47-11.27,3.63-26.34-13.79v-61.05c-1.42-.44-2.94-1.05-4.36-1.92-4.36-2.66-6.06-9.14-4.89-15.84,1.17-6.7,10.47-2.17,10.47-2.17-8.07-19.85-18.39-36.97,2.4-48,20.79-11.03,62.72-10.2,62.72-10.2l21.7,6.51.68,8.37Z"/>
    <path class="cls-18" d="m643.88,504.84l.1,19.35c-4.22-.62-11.14-2.21-19.87-6.25-14.83-6.85-19.02-20.35-19.02-20.35,11.6,4.43,22.32,6.94,34.79,7.16l4,.1Z"/>
    <path class="cls-22" d="m614.41,419.78s53.79,9.03,74.83-3.72c20.26-12.28,24.58-24.85,23.37-36.85-2.34-23.09-33.89-42.28-72.62-40.88-82.5,3-139.28,72.68-119.11,163.19,3.72,16.69,75.81,21.28,94.74,16.08-10.44-6.15-21.28-18.28-23.97-30.73,0,0-11.47-5.54-10.94-14.36.53-8.82,3.88-5.95,4.89-5.74,1.01.21,5.63,1.22,5.63,1.22,2.05-11.46,7.54-46.94,23.17-48.21"/>
    <path class="cls-20" d="m589.3,524.38c1.6,23.7,14.21,32.34,26.65,32.24,14.43-.11,29.1-12.34,27.58-32.24h21.92c5.02,84.9-104.02,73.73-101.68,0h25.53Z"/>
    <path class="cls-1" d="m782.82,724.3s29.68-.29,39.28,3.35c9.6,3.64,13.07,8.65,13.07,8.65l9.81,2.45s1.85,7.36,0,7.36-53.95,4.9-53.95,4.9l-11.1-1.43s3.64-16.62,2.47-19.85c-1.17-3.24-6.75-6.88-6.75-6.88l7.17,1.45Z"/>
    <path class="cls-20" d="m545.84,582.25c-10.21-22.68-40.63-34.99-58.22-17.4h0c-13.16,13.16-15.93,14.98-16.25,32.46-.96,54.05,21.13,206.29,81.59,215.39,33.16,4.99,87.26,10.29,122.87,9.06,14.38-.5,25.98.07,31.62-4.16,19.61-14.71-8.4-37.1-8.4-37.1,0,0-107.2-38.48-119.74-42.3-20.77-6.34-26.32-140.05-33.48-155.95"/>
    <path class="cls-9" d="m475.97,578.83c-32.94,48.1,19.23,224.46,71.14,232.28,33.16,4.99,93.11,11.86,128.73,10.64,14.38-.5,25.97.07,31.62-4.16,0,0-105.88-13.56-156.15-28.06-45.37-13.09-76.86-157.69-75.33-210.7"/>
    <path class="cls-4" d="m729.69,765.42s-6.06,8.4-7.44,19.66c-1.38,11.27,1.18,17.14,1.18,17.14,29.72,2.38,89.41.15,89.3.13-2-.31,2.78-4.59-3.62-7.87-4.6-2.37-19.75-3.13-25.07-6.67-23.64-15.71-39.54-12.63-54.35-22.39"/>
    <path class="cls-8" d="m741.64,662.47h213.33c8.23,0,16.77,6.93,14.96,14.96l-31.88,140.99c-1.81,8.02-6.73,14.96-14.96,14.96h-213.33c-8.23,0-16.77-6.93-14.96-14.96l31.88-140.99c1.81-8.02,6.73-14.96,14.96-14.96"/>
    <path class="cls-21" d="m751.2,662.47h213.33c8.23,0,16.77,6.93,14.96,14.96l-31.88,140.99c-1.81,8.02-6.73,14.96-14.96,14.96h-213.33c-8.23,0-16.77-6.93-14.96-14.96l31.88-140.99c1.81-8.02,6.73-14.96,14.96-14.96"/>
    <path class="cls-8" d="m846.43,733.92c6.45,2.07,9.66,10.02,7.17,17.76-2.49,7.74-9.73,12.32-16.18,10.26-6.44-2.07-9.65-10.03-7.17-17.76,2.49-7.74,9.73-12.33,16.18-10.26"/>
    <path class="cls-8" d="m573.7,819.42h128.21l7.1,13.97h-142.29v-6.98c0-3.84,3.14-6.98,6.98-6.98"/>
    <path class="cls-2" d="m566.32,431.72c-11.46,6.96-15.11,24.88-8.15,40.01,6.96,15.14,21.9,21.77,33.37,14.81,11.46-6.96,15.11-24.87,8.15-40.01-6.96-15.14-21.9-21.77-33.37-14.81"/>
    <path class="cls-19" d="m562.21,433.82c-11.46,6.96-15.11,24.88-8.15,40.01,6.96,15.14,21.9,21.77,33.37,14.81,11.46-6.96,15.11-24.88,8.15-40.01-4.58-9.96-12.62-16.24-20.85-17.38h0l2.68-2.24c-8.57-27.67,4.45-76.64,34.81-86.77l4.66-1.2c-16.93-11.25-65.61,28.16-50.56,90.69l.9-.05c-1.72.45-3.4,1.16-5.01,2.14"/>
    <path class="cls-26" d="m625.19,494.44l-30.06-11.21,1.62-4.35,30.26,11.29c.81-.63,1.82-1,2.93-1,2.64,0,4.78,2.14,4.78,4.77s-2.14,4.77-4.78,4.77c-2.47,0-4.5-1.87-4.75-4.27"/>
    <path class="cls-5" d="m665.54,475.18c2.7,4.33-4.47,10.72-8.42,11.73-9.2,2.37-19.42-.92-20.52-10.71,4.65-1.22,12.15,1.64,19.91.48,5.95-.88,9.03-1.51,9.03-1.51"/>
    <path class="cls-16" d="m849.08,312.88h99.36c24.08,0,43.6,19.52,43.6,43.6v29.04c0,24.08-19.52,43.59-43.6,43.59h-76.12l-23.24,21.39v-21.39c-24.08,0-43.6-19.51-43.6-43.59v-29.04c0-24.08,19.52-43.6,43.6-43.6"/>
    <path class="cls-25" d="m888.48,370.99c0,6.43,5.21,11.64,11.64,11.64s11.65-5.21,11.65-11.64-5.21-11.64-11.65-11.64-11.64,5.22-11.64,11.64m51.71-11.64c6.43,0,11.64,5.22,11.64,11.64s-5.21,11.64-11.64,11.64-11.64-5.21-11.64-11.64,5.21-11.64,11.64-11.64Zm-71.2,11.64c0,6.43-5.21,11.64-11.65,11.64s-11.64-5.21-11.64-11.64,5.21-11.64,11.64-11.64,11.65,5.22,11.65,11.64Z"/>
    <path class="cls-10" d="m1045.91,769c0,35.45-4.83,64.44-10.73,64.44h-36.73c-5.9,0-10.73-29-10.73-64.44h58.19Z"/>
    <path class="cls-17" d="m1001.78,769c2.19-27.45,16.97-84.61,40.68-85.9,20.64,15.05-2.38,67.41-9.14,85.9h-31.54Z"/>
    <rect class="cls-25" x="989.86" y="732.43" width="74.63" height="1.03" transform="translate(54.06 1536.28) rotate(-75.05)"/>
    <polygon class="cls-25" points="1010.66 754.02 1019.52 759.62 1023.33 745.36 1033.56 739.78 1034.05 740.69 1024.21 746.05 1020.15 761.24 1010.11 754.89 1010.66 754.02"/>
    <polygon class="cls-25" points="1017.01 730.35 1025.86 735.95 1029.67 721.69 1039.9 716.11 1040.39 717.02 1030.55 722.38 1026.5 737.56 1016.46 731.22 1017.01 730.35"/>
    <polygon class="cls-25" points="1020.95 715.63 1029.81 721.23 1033.61 706.98 1043.84 701.39 1044.34 702.3 1034.5 707.66 1030.44 722.85 1020.4 716.5 1020.95 715.63"/>
    <path class="cls-17" d="m1017.02,769c-1.42-17.86-10.99-55.07-26.32-55.9-13.35,9.79,1.54,43.86,5.91,55.9h20.41Z"/>
    <rect class="cls-25" x="1000.26" y="721.21" width=".66" height="48.27" transform="translate(-158.4 283.33) rotate(-14.95)"/>
    <polygon class="cls-25" points="1011.27 758.98 1005.54 762.59 1003.08 753.37 996.46 749.77 996.14 750.35 1002.51 753.82 1005.13 763.64 1011.63 759.54 1011.27 758.98"/>
    <polygon class="cls-25" points="1007.17 743.66 1001.43 747.28 998.97 738.06 992.36 734.46 992.04 735.04 998.4 738.51 1001.03 748.33 1007.52 744.22 1007.17 743.66"/>
    <polygon class="cls-25" points="1004.62 734.14 998.88 737.76 996.42 728.54 989.81 724.93 989.49 725.52 995.85 728.99 998.48 738.81 1004.97 734.7 1004.62 734.14"/>
    <path class="cls-15" d="m1064,476.08h99.36c24.07,0,43.6,19.52,43.6,43.6v29.04c0,24.08-19.52,43.6-43.6,43.6h-76.12l-23.24,21.39v-21.39c-24.08,0-43.6-19.51-43.6-43.6v-29.04c0-24.08,19.52-43.6,43.6-43.6"/>
    <path class="cls-5" d="m1057.32,508.48h118.35c2.04,0,3.7,1.66,3.7,3.7s-1.66,3.7-3.7,3.7h-118.35c-2.04,0-3.7-1.66-3.7-3.7s1.66-3.7,3.7-3.7"/>
    <path class="cls-5" d="m1057.32,529.85h118.35c2.04,0,3.7,1.66,3.7,3.7s-1.66,3.7-3.7,3.7h-118.35c-2.04,0-3.7-1.66-3.7-3.7s1.66-3.7,3.7-3.7"/>
    <path class="cls-5" d="m1057.32,551.22h87.11c2.04,0,3.7,1.66,3.7,3.7s-1.66,3.7-3.7,3.7h-87.11c-2.04,0-3.7-1.66-3.7-3.7s1.66-3.7,3.7-3.7"/>
    <rect class="cls-25" x="327.36" y="758.59" width="126.78" height="25.69"/>
    <path class="cls-28" d="m340.71,751.26h117.12v9.32h-117.12c-3.06,0-5.85,1.26-7.88,3.29-2.02,2.02-3.28,4.81-3.28,7.88s1.26,5.85,3.28,7.88c2.02,2.02,4.82,3.28,7.88,3.28h117.12v9.32h-117.12c-5.64,0-10.76-2.3-14.47-6.01-3.71-3.7-6.01-8.83-6.01-14.46s2.3-10.76,6.01-14.47c3.71-3.71,8.83-6.01,14.47-6.01"/>
    <path class="cls-5" d="m337.5,799.28h150.2v25.68h-150.2c5.51-5.21,4.99-16.83,0-25.68"/>
    <path class="cls-29" d="m474.34,791.95h-140.54v9.31h140.54c3.06,0,5.86,1.26,7.88,3.29,2.02,2.02,3.28,4.81,3.28,7.88s-1.26,5.85-3.28,7.88c-2.02,2.02-4.82,3.29-7.88,3.29h-140.54v9.32h140.54c5.64,0,10.76-2.3,14.47-6.01,3.71-3.71,6.01-8.83,6.01-14.47s-2.3-10.76-6.01-14.47c-3.71-3.7-8.83-6.01-14.47-6.01"/>
    <path class="cls-24" d="m270.46,388.31h50.2c3.37,0,6.12,2.76,6.12,6.12h0c0,3.37-2.76,6.12-6.12,6.12h-50.2c-3.37,0-6.12-2.75-6.12-6.12h0c0-3.37,2.76-6.12,6.12-6.12"/>
    <path class="cls-24" d="m270.46,416.45h129.8c3.37,0,6.12,2.75,6.12,6.12h0c0,3.37-2.75,6.12-6.12,6.12h-129.8c-3.37,0-6.12-2.76-6.12-6.12h0c0-3.37,2.76-6.12,6.12-6.12"/>
    <path class="cls-24" d="m270.46,444.4h129.8c3.37,0,6.12,2.75,6.12,6.12h0c0,3.37-2.75,6.12-6.12,6.12h-129.8c-3.37,0-6.12-2.75-6.12-6.12h0c0-3.37,2.76-6.12,6.12-6.12"/>
    <path class="cls-24" d="m270.46,472.34h129.8c3.37,0,6.12,2.76,6.12,6.12s-2.75,6.12-6.12,6.12h-129.8c-3.37,0-6.12-2.75-6.12-6.12s2.76-6.12,6.12-6.12"/>
    <path class="cls-15" d="m907.32,476.08h29.26c24.08,0,43.6,19.52,43.6,43.6v29.04c0,24.08-19.52,43.6-43.6,43.6h-6.02l-23.24,21.39v-21.39c-24.08,0-43.6-19.51-43.6-43.6v-29.04c0-24.08,19.52-43.6,43.6-43.6"/>
    <path class="cls-25" d="m917.25,562.7v-10.81h9.86v10.81h-9.86Zm9.86-14.52h-9.86c-.02-1.42-.04-2.27-.04-2.59,0-3.18.53-5.8,1.59-7.86,1.05-2.05,3.15-4.37,6.32-6.94,3.17-2.57,5.06-4.25,5.68-5.05.96-1.26,1.43-2.66,1.43-4.17,0-2.09-.84-3.89-2.54-5.38-1.68-1.5-3.96-2.25-6.82-2.25s-5.07.79-6.93,2.35c-1.85,1.58-3.13,3.97-3.82,7.19l-9.94-1.26c.28-4.61,2.25-8.52,5.89-11.74,3.65-3.22,8.43-4.82,14.35-4.82,6.24,0,11.19,1.63,14.88,4.88,3.68,3.25,5.52,7.02,5.52,11.35,0,2.38-.67,4.66-2.02,6.79-1.36,2.13-4.24,5.03-8.66,8.72-2.29,1.9-3.71,3.43-4.26,4.59-.55,1.16-.8,3.22-.75,6.21Z"/>
    <polygon class="cls-23" points="436.66 334.35 444.35 343.32 502.03 304.23 483.44 282.44 436.66 334.35"/>
    <polygon class="cls-23" points="450.07 352.45 451.29 361.73 506.49 360.75 503.59 338.25 450.07 352.45"/>
    <polygon class="cls-23" points="421.83 328.56 431.08 330.01 445.69 276.77 423.28 273.22 421.83 328.56"/>
    <path class="cls-8" d="m663.79,248.35h118.35c2.04,0,3.7,1.66,3.7,3.7h0c0,2.03-1.66,3.7-3.7,3.7h-118.35c-2.03,0-3.7-1.66-3.7-3.7h0c0-2.04,1.66-3.7,3.7-3.7"/>
    <path class="cls-8" d="m663.79,269.72h118.35c2.04,0,3.7,1.66,3.7,3.7h0c0,2.03-1.66,3.7-3.7,3.7h-118.35c-2.03,0-3.7-1.66-3.7-3.7h0c0-2.03,1.66-3.7,3.7-3.7"/>
    <path class="cls-8" d="m663.79,291.09h87.12c2.03,0,3.7,1.66,3.7,3.7h0c0,2.04-1.67,3.7-3.7,3.7h-87.12c-2.03,0-3.7-1.66-3.7-3.7h0c0-2.04,1.66-3.7,3.7-3.7"/>
    <path class="cls-8" d="m663.79,226.62h39.86c2.03,0,3.7,1.66,3.7,3.7s-1.66,3.7-3.7,3.7h-39.86c-2.03,0-3.7-1.66-3.7-3.7s1.66-3.7,3.7-3.7"/>
    <path class="cls-7" d="m12.29,833.38h1304.46c1.84,0,3.36,1.12,3.36,2.49h0c0,1.37-1.52,2.5-3.36,2.5H12.29c-1.85,0-3.36-1.12-3.36-2.49h0c0-1.37,1.51-2.5,3.36-2.5"/>
  </g>
</svg>