<?xml version="1.0" encoding="UTF-8"?>
<svg id="Layer_2" data-name="Layer 2" xmlns="http://www.w3.org/2000/svg" xmlns:xlink="http://www.w3.org/1999/xlink" viewBox="0 0 1344.69 796.21">
  <defs>
    <style>
      .cls-1 {
        fill: url(#linear-gradient-2);
      }

      .cls-2, .cls-3 {
        fill: #fff;
      }

      .cls-4 {
        fill: #2d7abe;
      }

      .cls-4, .cls-5, .cls-6, .cls-3, .cls-7, .cls-8, .cls-9, .cls-10, .cls-11, .cls-12, .cls-13, .cls-14, .cls-15, .cls-16, .cls-17, .cls-18, .cls-19, .cls-20, .cls-21, .cls-22, .cls-23, .cls-24, .cls-25, .cls-26, .cls-27, .cls-28, .cls-29, .cls-30, .cls-31, .cls-32, .cls-33, .cls-34 {
        fill-rule: evenodd;
      }

      .cls-5 {
        fill: #f9a11b;
      }

      .cls-6 {
        fill: #2e2f80;
      }

      .cls-7 {
        fill: #ecf4ff;
      }

      .cls-8 {
        fill: #ed9a9b;
      }

      .cls-9 {
        fill: #ffdc97;
      }

      .cls-35 {
        fill: url(#linear-gradient-6);
      }

      .cls-36 {
        clip-path: url(#clippath-2);
      }

      .cls-37, .cls-25 {
        fill: #1e459a;
      }

      .cls-10 {
        fill: #a2dbf6;
      }

      .cls-38 {
        fill: #80c2ea;
      }

      .cls-11 {
        fill: #031542;
      }

      .cls-12, .cls-39 {
        fill: #b1dcf5;
      }

      .cls-13 {
        fill: #7ba9e3;
      }

      .cls-14 {
        fill: #e66259;
      }

      .cls-15 {
        fill: #fdbe42;
      }

      .cls-16 {
        fill: #f9a719;
      }

      .cls-40 {
        clip-path: url(#clippath-1);
      }

      .cls-41 {
        clip-path: url(#clippath-4);
      }

      .cls-17 {
        fill: #7fb6e2;
      }

      .cls-18 {
        fill: #fff1d9;
      }

      .cls-19 {
        fill: #d8e5f4;
      }

      .cls-20 {
        fill: #e99292;
      }

      .cls-21 {
        fill: #4895d0;
      }

      .cls-22 {
        fill: #5b99d2;
      }

      .cls-23 {
        fill: #79b1df;
      }

      .cls-24 {
        fill: #4d99d3;
      }

      .cls-42 {
        fill: url(#linear-gradient-5);
      }

      .cls-43 {
        clip-path: url(#clippath);
      }

      .cls-26 {
        fill: #f4b1b0;
      }

      .cls-44 {
        clip-rule: evenodd;
      }

      .cls-44, .cls-45 {
        fill: none;
      }

      .cls-46 {
        clip-path: url(#clippath-3);
      }

      .cls-27 {
        fill: #3155a5;
      }

      .cls-28, .cls-47 {
        fill: #b1d2fc;
      }

      .cls-48 {
        fill: url(#linear-gradient-3);
      }

      .cls-49 {
        clip-path: url(#clippath-5);
      }

      .cls-50 {
        fill: url(#linear-gradient);
      }

      .cls-29 {
        fill: #253e8f;
      }

      .cls-30 {
        fill: #73acdd;
      }

      .cls-31 {
        fill: #bae7e2;
      }

      .cls-51 {
        fill: #56c4cf;
      }

      .cls-52 {
        fill: url(#linear-gradient-4);
      }

      .cls-32 {
        fill: #f6c2c2;
      }

      .cls-33 {
        fill: #e57925;
      }

      .cls-34 {
        fill: #3c81c3;
      }
    </style>
    <clipPath id="clippath">
      <rect class="cls-45" x="758.48" y="325.27" width="256.67" height="443.69"/>
    </clipPath>
    <linearGradient id="linear-gradient" x1="886.81" y1="633.29" x2="886.82" y2="202.34" gradientUnits="userSpaceOnUse">
      <stop offset="0" stop-color="#98daf8"/>
      <stop offset="1" stop-color="#fff"/>
    </linearGradient>
    <clipPath id="clippath-1">
      <path class="cls-44" d="m791.64,365.76h43.45c6.14,0,11.17,5.03,11.17,11.17v43.46c0,6.15-5.03,11.17-11.17,11.17h-43.45c-6.14,0-11.17-5.03-11.17-11.17v-43.46c0-6.15,5.03-11.17,11.17-11.17"/>
    </clipPath>
    <linearGradient id="linear-gradient-2" x1="813.36" y1="633.29" x2="813.37" y2="202.34" xlink:href="#linear-gradient"/>
    <clipPath id="clippath-2">
      <rect class="cls-45" x="410.05" y="325.27" width="256.67" height="443.69"/>
    </clipPath>
    <linearGradient id="linear-gradient-3" x1="538.37" y1="633.29" x2="538.4" y2="202.34" xlink:href="#linear-gradient"/>
    <clipPath id="clippath-3">
      <path class="cls-44" d="m443.21,365.76h43.45c6.15,0,11.18,5.03,11.18,11.17v43.46c0,6.15-5.03,11.17-11.18,11.17h-43.45c-6.15,0-11.17-5.03-11.17-11.17v-43.46c0-6.15,5.03-11.17,11.17-11.17"/>
    </clipPath>
    <linearGradient id="linear-gradient-4" x1="464.92" y1="633.29" x2="464.95" y2="202.34" xlink:href="#linear-gradient"/>
    <clipPath id="clippath-4">
      <path class="cls-44" d="m349.34,790.35h0s-.29-.01-.29-.01c-.39-.02-.78-.06-1.16-.12h0s-.08-.01-.08-.01c-.24-.04-.48-.08-.71-.13h0s0,0,0,0c-.17-.04-.35-.08-.52-.12h0s-.05-.01-.05-.01c-.16-.04-.32-.08-.48-.13h0s0,0,0,0c-.13-.04-.26-.08-.39-.12h0s-.03-.01-.03-.01c-.12-.04-.24-.08-.36-.12h0s-.02,0-.02,0c-1.11-.4-2.17-.93-3.14-1.58h0s0,0,0,0c-.36-.24-.72-.5-1.05-.78h0s-.02-.01-.02-.01c-1.81-1.48-3.16-3.39-3.68-5.52v-.02h0c-.05-.21-.09-.42-.13-.63v-.03h0c-.13-.81-.13-1.65,0-2.51h0v-.03c.03-.18.06-.35.1-.53l9-39.79h0s3.43-15.17,3.43-15.17h0s3.43-15.17,3.43-15.17h0s3.43-15.17,3.43-15.17h0s7.26-32.12,7.26-32.12c.03-.15.07-.31.11-.46h.02v-.06c.04-.16.08-.31.12-.47h.01v-.04c.03-.12.06-.24.1-.35h.03v-.12c.04-.14.08-.27.12-.41h0v-.03c.08-.26.16-.51.25-.77h.01v-.03c.07-.21.15-.42.23-.63h.03v-.08c.04-.11.08-.21.13-.32h0s.11-.26.11-.26h.03v-.06c.13-.29.26-.58.4-.86h0c.04-.09.09-.18.13-.26h0c.11-.22.23-.44.35-.66h.05v-.08l.1-.18h.03v-.05c.04-.07.09-.15.13-.22h0c.16-.27.33-.54.51-.79h.02v-.03c.09-.12.17-.25.26-.37h0s.09-.13.09-.13h.04v-.05c.12-.16.25-.32.38-.48h.02v-.02c.47-.57.98-1.09,1.53-1.56h.06v-.05l.1-.08h.03v-.03s.09-.07.13-.1h0c.17-.14.34-.27.52-.4h0c.06-.05.12-.09.18-.13h.08v-.05l.12-.08h.01c.06-.05.13-.09.19-.13h.07v-.04c.13-.08.25-.15.38-.22h.01c.08-.05.16-.09.23-.13h.03v-.02c.17-.09.34-.17.52-.25h.01c.1-.05.2-.09.3-.13h.1v-.04c.08-.03.16-.06.24-.09h.15v-.05c.08-.03.15-.05.23-.08h.16v-.05c.09-.03.18-.05.27-.08h.12v-.03c.37-.1.74-.17,1.13-.23h.46v-.06c.41-.04.83-.07,1.25-.07h177.64c1.04,0,2.08.13,3.1.38h0s.04,0,.04,0c.16.04.33.08.49.13h0s0,0,0,0c.27.08.53.16.79.25h0s.04.01.04.01c.12.04.24.09.35.13h0s0,0,0,0c.31.12.62.25.92.39h0s.01,0,.01,0c.26.12.52.25.78.39h0s.01,0,.01,0c.95.52,1.84,1.14,2.63,1.84h0s0,0,0,0c.59.52,1.12,1.1,1.57,1.71h0s0,0,0,0c.19.25.36.5.52.76v.03h.02c.45.73.8,1.51,1.04,2.32v.06h.02c.11.4.2.82.25,1.23v.08h0c.07.6.07,1.22,0,1.85h0c-.03.29-.08.57-.14.85l-26.54,117.41-.07.3h-.01v.06c-.04.16-.08.31-.12.47h-.01v.05c-.04.16-.09.32-.13.48h0c-.04.14-.08.27-.12.4h-.02v.06c-.12.38-.24.76-.38,1.13h-.02v.05c-.04.12-.09.23-.13.35h0c-.03.09-.07.18-.1.26h-.03v.07c-.08.2-.16.39-.25.59h-.02v.03c-.19.44-.4.87-.63,1.28h-.03v.06c-.04.07-.07.14-.11.2h-.02v.04l-.13.23h0c-.32.56-.67,1.09-1.04,1.58h-.02v.02l-.08.11h-.05v.06c-.12.16-.25.31-.37.46h-.02v.02c-.39.46-.81.9-1.25,1.29h-.06v.06l-.09.07h-.05v.04l-.11.09h-.02v.02c-.21.18-.43.35-.66.51h0c-.06.05-.12.09-.19.13h-.08v.05l-.12.08h-.01c-.06.05-.13.09-.19.13h-.07v.04c-.12.08-.25.15-.38.22h-.02c-.07.05-.15.09-.22.13h-.04v.02c-.16.09-.33.17-.5.24h-.03c-.09.05-.18.09-.28.13h-.12v.05c-.07.03-.14.06-.21.08h-.18v.07c-.06.02-.13.04-.19.07h-.07v.02c-.12.04-.24.07-.35.11h-.04c-.37.12-.74.2-1.13.26h-.45v.07c-.24.03-.48.05-.73.07h-.46v.02c-.08,0-.16,0-.24,0h-177.63c-.14,0-.28,0-.43,0"/>
    </clipPath>
    <linearGradient id="linear-gradient-5" x1="451.84" y1="772.19" x2="451.85" y2="648.04" gradientUnits="userSpaceOnUse">
      <stop offset="0" stop-color="#c0e7fa"/>
      <stop offset="1" stop-color="#fff"/>
    </linearGradient>
    <clipPath id="clippath-5">
      <path class="cls-44" d="m1175.18,196.88h0s-.2,0-.2,0h.2Zm-203.11,15.7h0v-.03c.03-.3.07-.6.12-.89h.02v-.1c.07-.41.15-.82.25-1.22h0v-.04c.04-.16.09-.33.13-.49h0c.04-.13.08-.26.12-.4h.01v-.04c.08-.25.17-.5.26-.75h0c.08-.23.17-.44.26-.66h0c.23-.54.49-1.07.78-1.58h.01v-.03c.35-.63.75-1.24,1.19-1.82h0c.17-.22.34-.44.52-.66h.01c.7-.86,1.49-1.65,2.35-2.37h.02v-.02c.38-.31.77-.62,1.17-.9h.01c.12-.1.24-.18.37-.26h.03v-.02c.12-.08.25-.16.38-.25h.02c.95-.61,1.96-1.14,3.02-1.58h.01c.22-.1.43-.18.65-.26h0c.12-.05.23-.09.35-.13h.04c.11-.05.23-.09.34-.13h.05v-.02c.12-.04.24-.08.36-.11h.04c.3-.1.59-.19.9-.26h.03c.17-.05.34-.09.51-.13h.01c.44-.1.89-.19,1.34-.26h.11v-.02c.28-.04.56-.08.85-.11h.08c.61-.08,1.22-.12,1.85-.13h.26c.09,0,.17,0,.26,0h183.79c-10.6,0-19.2,7.73-19.2,17.26v25.83h.07v185.64h-183.85v-211.46c0-.53.03-1.04.08-1.56Z"/>
    </clipPath>
    <linearGradient id="linear-gradient-6" x1="1073.58" y1="355.67" x2="1073.58" y2="133.51" xlink:href="#linear-gradient"/>
  </defs>
  <g id="Layer_1-2" data-name="Layer 1">
    <path class="cls-7" d="m632.64,28.01c-68.11,23.14-132.86,72.7-183.86,118.9-106.21,96.21-122.05,116.43-253.08,197.2-76.36,47.07-136.57,86.89-166.23,140.13-83.33,149.57,15.92,311.12,223.9,311.12h845.43s99.45,2.05,172.02-77.89C1516.77,446.51,1108.82-133.79,632.64,28.01"/>
    <path class="cls-11" d="m43.28,789.77h1258.13c1.78,0,3.24,1.45,3.24,3.22h0c0,1.77-1.46,3.22-3.24,3.22H43.28c-1.78,0-3.24-1.45-3.24-3.22h0c0-1.77,1.46-3.22,3.24-3.22"/>
    <path class="cls-51" d="m1029.88,790.35s-25.74-11.71-21.91-29.83c3.82-18.13,24.74-16.22,21.91-30.54-2.84-14.31-16.57-36.6-3.2-52.82,13.36-16.22,35.57-6.5,38.35-31.65,2.25-20.27,11.62-34.62,29.76-30.42,16.8,3.9,29.33,16.9,29.63,47.84.34,32.94,23.54,23.69,23.82,47.95.29,24.44-19.17,24.44-26.78,40.84-3.59,7.75,5.79,34.96-21.89,38.63h-69.68Z"/>
    <path class="cls-2" d="m1091.99,628.27s.05.55.15,1.63c.3,3.24.9,11.15.9,22.16.01,32.22-5.08,91.06-37.15,138.03-.05.08-.09.17-.13.25h3.35c31.78-47.56,36.73-106.09,36.74-138.29,0-14.82-1.05-24.06-1.07-24.11-.08-.77-.78-1.32-1.56-1.24-.76.09-1.32.79-1.23,1.56"/>
    <path class="cls-31" d="m1049.78,790.35s6.98-22.37,22.16-31.48c15.18-9.11,30.69-16.2,29-30.87-1.69-14.68,2.45-32,26.78-32.32,15.05-.2,9.4-16.05,24.67-19.21,9.3-1.92,15.42,7.77,16.6,17.29,1.35,10.84-4.79,21.5,2.26,30.33,9.13,11.44,12.84,32.78-6.79,38.86-19.64,6.07-2.14,24.65-28.88,27.41h-85.8Z"/>
    <path class="cls-2" d="m1151.38,687.08c-.51,14.25-6.83,34.53-17.66,53.89-10.8,19.37-26.1,37.83-44.36,48.71-.26.16-.46.39-.57.66h4.83c17.59-11.39,32.13-29.31,42.56-48,10.99-19.69,17.45-40.22,18.01-55.16.03-.77-.58-1.43-1.36-1.45-.76-.03-1.42.58-1.45,1.35"/>
    <rect class="cls-37" x="722.85" y="303.89" width="316.29" height="486.46"/>
    <g class="cls-43">
      <rect class="cls-50" x="758.48" y="325.27" width="256.67" height="443.69"/>
    </g>
    <g class="cls-40">
      <rect class="cls-1" x="780.46" y="365.76" width="65.8" height="65.8"/>
    </g>
    <path class="cls-13" d="m813.28,376.52c5.98-.01,10.85,4.83,10.87,10.81,0,5.99-4.83,10.85-10.82,10.86-5.98.01-10.84-4.83-10.86-10.81,0-5.98,4.83-10.85,10.81-10.86"/>
    <path class="cls-13" d="m800.93,402.3l24.83-.06c5.09-.01,9.26,4.14,9.28,9.23,0,5.09-4.15,9.26-9.23,9.27l-24.84.06c-5.08.01-9.25-4.14-9.27-9.23,0-5.09,4.14-9.26,9.23-9.27"/>
    <path class="cls-24" d="m867.24,384.02h123.73c2.36,0,4.29,1.93,4.29,4.28h0c0,2.36-1.93,4.29-4.29,4.29h-123.73c-2.36,0-4.29-1.93-4.29-4.28h0c0-2.36,1.93-4.29,4.29-4.29"/>
    <path class="cls-24" d="m867.24,404.73h123.73c2.36,0,4.29,1.93,4.29,4.28h0c0,2.36-1.93,4.28-4.29,4.28h-123.73c-2.36,0-4.29-1.93-4.29-4.28h0c0-2.36,1.93-4.29,4.29-4.29"/>
    <path class="cls-25" d="m791.64,463.61h43.45c6.14,0,11.17,5.03,11.17,11.17v43.45c0,6.15-5.03,11.17-11.17,11.17h-43.45c-6.14,0-11.17-5.03-11.17-11.17v-43.45c0-6.15,5.03-11.17,11.17-11.17"/>
    <path class="cls-25" d="m791.64,561.46h43.45c6.14,0,11.17,5.03,11.17,11.18v43.45c0,6.15-5.03,11.17-11.17,11.17h-43.45c-6.14,0-11.17-5.03-11.17-11.17v-43.45c0-6.15,5.03-11.18,11.17-11.18"/>
    <path class="cls-25" d="m791.64,659.31h43.45c6.14,0,11.17,5.03,11.17,11.17v43.45c0,6.15-5.03,11.17-11.17,11.17h-43.45c-6.14,0-11.17-5.03-11.17-11.17v-43.45c0-6.15,5.03-11.17,11.17-11.17"/>
    <path class="cls-3" d="m813.28,474.37c5.98-.01,10.85,4.82,10.87,10.81,0,5.98-4.83,10.85-10.82,10.86-5.98.02-10.84-4.82-10.86-10.81,0-5.98,4.83-10.85,10.81-10.86"/>
    <path class="cls-3" d="m800.93,500.15l24.83-.06c5.09-.01,9.26,4.14,9.28,9.23,0,5.09-4.15,9.26-9.23,9.27l-24.84.06c-5.08.01-9.25-4.14-9.27-9.23,0-5.09,4.14-9.26,9.23-9.27"/>
    <path class="cls-3" d="m813.28,572.22c5.98-.01,10.85,4.83,10.87,10.81,0,5.98-4.83,10.85-10.82,10.86-5.98.01-10.84-4.83-10.86-10.81,0-5.98,4.83-10.85,10.81-10.86"/>
    <path class="cls-3" d="m800.93,598l24.83-.06c5.09-.01,9.26,4.14,9.28,9.23,0,5.09-4.15,9.26-9.23,9.27l-24.84.06c-5.08.01-9.25-4.14-9.27-9.23,0-5.09,4.14-9.26,9.23-9.27"/>
    <path class="cls-3" d="m813.28,670.06c5.98-.01,10.85,4.83,10.87,10.81,0,5.98-4.83,10.85-10.82,10.86-5.98.01-10.84-4.83-10.86-10.81,0-5.98,4.83-10.85,10.81-10.86"/>
    <path class="cls-3" d="m800.93,695.85l24.83-.06c5.09-.01,9.26,4.14,9.28,9.23h0c0,5.09-4.15,9.26-9.23,9.27l-24.84.06c-5.08.01-9.25-4.14-9.27-9.23,0-5.09,4.14-9.26,9.23-9.27"/>
    <path class="cls-24" d="m867.24,481.87h123.73c2.36,0,4.29,1.93,4.29,4.29h0c0,2.36-1.93,4.28-4.29,4.28h-123.73c-2.36,0-4.29-1.93-4.29-4.28h0c0-2.36,1.93-4.29,4.29-4.29"/>
    <path class="cls-24" d="m867.24,502.58h123.73c2.36,0,4.29,1.93,4.29,4.28s-1.93,4.29-4.29,4.29h-123.73c-2.36,0-4.29-1.93-4.29-4.29s1.93-4.28,4.29-4.28"/>
    <path class="cls-24" d="m867.24,579.71h123.73c2.36,0,4.29,1.93,4.29,4.28h0c0,2.36-1.93,4.29-4.29,4.29h-123.73c-2.36,0-4.29-1.93-4.29-4.28h0c0-2.36,1.93-4.29,4.29-4.29"/>
    <path class="cls-24" d="m867.24,600.43h123.73c2.36,0,4.29,1.93,4.29,4.29s-1.93,4.28-4.29,4.28h-123.73c-2.36,0-4.29-1.93-4.29-4.28s1.93-4.29,4.29-4.29"/>
    <path class="cls-24" d="m867.24,677.56h123.73c2.36,0,4.29,1.93,4.29,4.28h0c0,2.36-1.93,4.29-4.29,4.29h-123.73c-2.36,0-4.29-1.93-4.29-4.28h0c0-2.36,1.93-4.29,4.29-4.29"/>
    <path class="cls-24" d="m867.24,698.28h123.73c2.36,0,4.29,1.93,4.29,4.28h0c0,2.36-1.93,4.29-4.29,4.29h-123.73c-2.36,0-4.29-1.93-4.29-4.28h0c0-2.36,1.93-4.29,4.29-4.29"/>
    <rect class="cls-37" x="383.36" y="303.89" width="320.79" height="486.46"/>
    <g class="cls-36">
      <rect class="cls-48" x="410.05" y="325.27" width="256.67" height="443.69"/>
    </g>
    <g class="cls-46">
      <rect class="cls-52" x="432.03" y="365.76" width="65.8" height="65.8"/>
    </g>
    <path class="cls-13" d="m464.86,376.52c5.98-.01,10.84,4.83,10.86,10.81.01,5.99-4.83,10.85-10.81,10.86-5.98.01-10.85-4.83-10.86-10.81-.01-5.98,4.83-10.85,10.81-10.86"/>
    <path class="cls-13" d="m452.49,402.3l24.84-.06c5.09-.01,9.26,4.14,9.27,9.23,0,5.09-4.14,9.26-9.23,9.27l-24.84.06c-5.09.01-9.26-4.14-9.27-9.23-.01-5.09,4.14-9.26,9.23-9.27"/>
    <path class="cls-24" d="m518.81,384.02h123.73c2.36,0,4.29,1.93,4.29,4.28h0c0,2.36-1.93,4.29-4.29,4.29h-123.73c-2.36,0-4.29-1.93-4.29-4.28h0c0-2.36,1.93-4.29,4.29-4.29"/>
    <path class="cls-24" d="m518.81,404.73h123.73c2.36,0,4.29,1.93,4.29,4.28h0c0,2.36-1.93,4.28-4.29,4.28h-123.73c-2.36,0-4.29-1.93-4.29-4.28h0c0-2.36,1.93-4.29,4.29-4.29"/>
    <path class="cls-25" d="m443.21,463.61h43.45c6.15,0,11.18,5.03,11.18,11.17v43.45c0,6.15-5.03,11.17-11.18,11.17h-43.45c-6.15,0-11.17-5.03-11.17-11.17v-43.45c0-6.15,5.03-11.17,11.17-11.17"/>
    <path class="cls-25" d="m443.21,561.46h43.45c6.15,0,11.18,5.03,11.18,11.18v43.45c0,6.15-5.03,11.17-11.18,11.17h-43.45c-6.15,0-11.17-5.03-11.17-11.17v-43.45c0-6.15,5.03-11.18,11.17-11.18"/>
    <path class="cls-25" d="m443.21,659.31h43.45c6.15,0,11.18,5.03,11.18,11.17v43.45c0,6.15-5.03,11.17-11.18,11.17h-43.45c-6.15,0-11.17-5.03-11.17-11.17v-43.45c0-6.15,5.03-11.17,11.17-11.17"/>
    <path class="cls-3" d="m464.86,474.37c5.98-.01,10.84,4.82,10.86,10.81.01,5.98-4.83,10.85-10.81,10.86-5.98.02-10.85-4.82-10.86-10.81-.01-5.98,4.83-10.85,10.81-10.86"/>
    <path class="cls-3" d="m452.49,500.15l24.84-.06c5.09-.01,9.26,4.14,9.27,9.23,0,5.09-4.14,9.26-9.23,9.27l-24.84.06c-5.09.01-9.26-4.14-9.27-9.23-.01-5.09,4.14-9.26,9.23-9.27"/>
    <path class="cls-3" d="m464.86,572.22c5.98-.01,10.84,4.83,10.86,10.81.01,5.98-4.83,10.85-10.81,10.86-5.98.01-10.85-4.83-10.86-10.81-.01-5.98,4.83-10.85,10.81-10.86"/>
    <path class="cls-3" d="m452.49,598l24.84-.06c5.09-.01,9.26,4.14,9.27,9.23,0,5.09-4.14,9.26-9.23,9.27l-24.84.06c-5.09.01-9.26-4.14-9.27-9.23-.01-5.09,4.14-9.26,9.23-9.27"/>
    <path class="cls-3" d="m464.86,670.06c5.98-.01,10.84,4.83,10.86,10.81.01,5.98-4.83,10.85-10.81,10.86-5.98.01-10.85-4.83-10.86-10.81-.01-5.98,4.83-10.85,10.81-10.86"/>
    <path class="cls-3" d="m452.49,695.85l24.84-.06c5.09-.01,9.26,4.14,9.27,9.23h0c0,5.09-4.14,9.26-9.23,9.27l-24.84.06c-5.09.01-9.26-4.14-9.27-9.23-.01-5.09,4.14-9.26,9.23-9.27"/>
    <path class="cls-24" d="m518.81,481.87h123.73c2.36,0,4.29,1.93,4.29,4.29h0c0,2.36-1.93,4.28-4.29,4.28h-123.73c-2.36,0-4.29-1.93-4.29-4.28h0c0-2.36,1.93-4.29,4.29-4.29"/>
    <path class="cls-24" d="m518.81,502.58h123.73c2.36,0,4.29,1.93,4.29,4.28s-1.93,4.29-4.29,4.29h-123.73c-2.36,0-4.29-1.93-4.29-4.29s1.93-4.28,4.29-4.28"/>
    <path class="cls-24" d="m518.81,579.71h123.73c2.36,0,4.29,1.93,4.29,4.28h0c0,2.36-1.93,4.29-4.29,4.29h-123.73c-2.36,0-4.29-1.93-4.29-4.28h0c0-2.36,1.93-4.29,4.29-4.29"/>
    <path class="cls-24" d="m518.81,600.43h123.73c2.36,0,4.29,1.93,4.29,4.29s-1.93,4.28-4.29,4.28h-123.73c-2.36,0-4.29-1.93-4.29-4.28s1.93-4.29,4.29-4.29"/>
    <path class="cls-24" d="m518.81,677.56h123.73c2.36,0,4.29,1.93,4.29,4.28h0c0,2.36-1.93,4.29-4.29,4.29h-123.73c-2.36,0-4.29-1.93-4.29-4.28h0c0-2.36,1.93-4.29,4.29-4.29"/>
    <path class="cls-24" d="m518.81,698.28h123.73c2.36,0,4.29,1.93,4.29,4.28h0c0,2.36-1.93,4.29-4.29,4.29h-123.73c-2.36,0-4.29-1.93-4.29-4.28h0c0-2.36,1.93-4.29,4.29-4.29"/>
    <path class="cls-24" d="m686.46,352.86h51.83c5.4,0,9.82,4.42,9.82,9.82h0c0,5.4-4.42,9.82-9.82,9.82h-51.83c-5.4,0-9.82-4.42-9.82-9.82h0c0-5.4,4.42-9.82,9.82-9.82"/>
    <path class="cls-10" d="m687.07,356.73h50.63c.94,0,1.69.76,1.69,1.69s-.76,1.69-1.69,1.69h-50.63c-.93,0-1.69-.76-1.69-1.69s.76-1.69,1.69-1.69"/>
    <path class="cls-24" d="m686.46,393.85h51.83c5.4,0,9.82,4.42,9.82,9.82h0c0,5.4-4.42,9.82-9.82,9.82h-51.83c-5.4,0-9.82-4.42-9.82-9.82h0c0-5.4,4.42-9.82,9.82-9.82"/>
    <path class="cls-24" d="m686.46,434.83h51.83c5.4,0,9.82,4.42,9.82,9.82s-4.42,9.82-9.82,9.82h-51.83c-5.4,0-9.82-4.42-9.82-9.82s4.42-9.82,9.82-9.82"/>
    <path class="cls-24" d="m686.46,475.82h51.83c5.4,0,9.82,4.42,9.82,9.82h0c0,5.4-4.42,9.82-9.82,9.82h-51.83c-5.4,0-9.82-4.42-9.82-9.82h0c0-5.4,4.42-9.82,9.82-9.82"/>
    <path class="cls-24" d="m686.46,516.8h51.83c5.4,0,9.82,4.42,9.82,9.82h0c0,5.4-4.42,9.82-9.82,9.82h-51.83c-5.4,0-9.82-4.42-9.82-9.82h0c0-5.4,4.42-9.82,9.82-9.82"/>
    <path class="cls-24" d="m686.46,557.79h51.83c5.4,0,9.82,4.42,9.82,9.82h0c0,5.4-4.42,9.82-9.82,9.82h-51.83c-5.4,0-9.82-4.42-9.82-9.82h0c0-5.4,4.42-9.82,9.82-9.82"/>
    <path class="cls-24" d="m686.46,598.77h51.83c5.4,0,9.82,4.42,9.82,9.82h0c0,5.4-4.42,9.82-9.82,9.82h-51.83c-5.4,0-9.82-4.42-9.82-9.82h0c0-5.4,4.42-9.82,9.82-9.82"/>
    <path class="cls-24" d="m686.46,639.76h51.83c5.4,0,9.82,4.42,9.82,9.82h0c0,5.4-4.42,9.82-9.82,9.82h-51.83c-5.4,0-9.82-4.42-9.82-9.82h0c0-5.4,4.42-9.82,9.82-9.82"/>
    <path class="cls-24" d="m686.46,680.74h51.83c5.4,0,9.82,4.42,9.82,9.82h0c0,5.4-4.42,9.83-9.82,9.83h-51.83c-5.4,0-9.82-4.42-9.82-9.82h0c0-5.4,4.42-9.82,9.82-9.82"/>
    <path class="cls-24" d="m686.46,721.73h51.83c5.4,0,9.82,4.42,9.82,9.82h0c0,5.4-4.42,9.82-9.82,9.82h-51.83c-5.4,0-9.82-4.42-9.82-9.82h0c0-5.4,4.42-9.82,9.82-9.82"/>
    <path class="cls-10" d="m687.07,397.71h50.63c.94,0,1.69.76,1.69,1.69s-.76,1.69-1.69,1.69h-50.63c-.93,0-1.69-.76-1.69-1.69s.76-1.69,1.69-1.69"/>
    <path class="cls-10" d="m687.07,438.69h50.63c.94,0,1.69.76,1.69,1.69s-.76,1.69-1.69,1.69h-50.63c-.93,0-1.69-.76-1.69-1.69s.76-1.69,1.69-1.69"/>
    <path class="cls-10" d="m687.07,479.68h50.63c.94,0,1.69.76,1.69,1.69s-.76,1.69-1.69,1.69h-50.63c-.93,0-1.69-.76-1.69-1.69s.76-1.69,1.69-1.69"/>
    <path class="cls-10" d="m687.07,520.67h50.63c.94,0,1.69.76,1.69,1.69s-.76,1.69-1.69,1.69h-50.63c-.93,0-1.69-.76-1.69-1.69s.76-1.69,1.69-1.69"/>
    <path class="cls-10" d="m687.07,561.65h50.63c.94,0,1.69.76,1.69,1.69s-.76,1.69-1.69,1.69h-50.63c-.93,0-1.69-.76-1.69-1.69s.76-1.69,1.69-1.69"/>
    <path class="cls-10" d="m687.07,602.64h50.63c.94,0,1.69.76,1.69,1.69s-.76,1.69-1.69,1.69h-50.63c-.93,0-1.69-.76-1.69-1.69s.76-1.69,1.69-1.69"/>
    <path class="cls-10" d="m687.07,643.62h50.63c.94,0,1.69.76,1.69,1.69s-.76,1.69-1.69,1.69h-50.63c-.93,0-1.69-.76-1.69-1.69s.76-1.69,1.69-1.69"/>
    <path class="cls-10" d="m687.07,684.6h50.63c.94,0,1.69.76,1.69,1.69s-.76,1.69-1.69,1.69h-50.63c-.93,0-1.69-.76-1.69-1.69s.76-1.69,1.69-1.69"/>
    <path class="cls-10" d="m687.07,725.59h50.63c.94,0,1.69.76,1.69,1.69s-.76,1.69-1.69,1.69h-50.63c-.93,0-1.69-.76-1.69-1.69s.76-1.69,1.69-1.69"/>
    <path class="cls-30" d="m355.36,551.94c40.47,38.85,32.41,168.95,83.85,185.15,0,0,36.74,8.49,34.27,19.28-2.48,10.8-7.26,14.87-7.26,14.87,0,0-43.28,3.94-79.63-3.68-20.45-4.28-23.47-31.2-31.22-34.33-21.54-8.67-32.95-95.79-32.95-95.79l32.95-85.52Z"/>
    <path class="cls-22" d="m307.69,533.06h-89.42c-39.24,0-72.09,28.93-78.58,66.65-.68,0-3.63,24.89-3.84,27.06-4.41,46.56-4.75,114.58,8.35,163.57h210.25l.9-115.53v-122.88c-13.88-11.76-28.22-18.88-47.67-18.88"/>
    <path class="cls-32" d="m315.36,448.45c-.37,8.41.93,15.95,2.91,21.65,6.24,17.9-7.42,48.7-31.33,46.66l.09,16.31h-.37c10.59,12.43-2.47,41.94-14.49,42.03-10.36.08-29.34-22.29-30.67-42.03v-33.44c-1.18-.36-1.23-.13-3.63-1.6-2.4-1.47-14.49-13.41-13.52-18.99.97-5.58,12.1-6.22,12.1-6.22l2.57-2.26c-6.72-16.53-11.83-16.83,5.48-26.01,17.31-9.19,52.22-8.5,52.22-8.5l18.07,5.42.56,6.97Z"/>
    <path class="cls-8" d="m286.94,516.79l.09,16.11c-3.51-.52-9.28-1.84-16.54-5.2-12.35-5.71-15.84-16.95-15.84-16.95,9.66,3.69,18.59,5.78,28.97,5.96l3.33.08Z"/>
    <path class="cls-26" d="m402.63,699.53s24.71-.23,32.71,2.79c8,3.03,10.88,7.2,10.88,7.2l8.17,2.04s1.54,6.13,0,6.13-44.92,4.08-44.92,4.08l-9.24-1.19s3.03-13.84,2.05-16.53c-.98-2.69-5.62-5.73-5.62-5.73l5.97,1.2Z"/>
    <path class="cls-32" d="m208.66,589.02c-8.5-18.88-28.36-40.79-37.62-22.26h0c-10.96,10.96-13.26,12.47-13.53,27.02-.8,45.01,16.28,158.34,65.57,171.06,26.43,6.83,71.47,12.67,101.13,11.65,11.98-.41,25.18,4.25,29.88.73,16.33-12.25-2-26.09-2-26.09,0,0-102.55-30.48-112.99-33.66-17.29-5.27-24.48-115.21-30.44-128.44"/>
    <path class="cls-20" d="m358.39,733.77s-5.04,6.99-6.19,16.37c-1.15,9.39.99,14.27.99,14.27,24.75,1.99,74.45.12,74.36.11-1.67-.26,2.32-3.82-3.01-6.56-3.83-1.97-16.45-2.61-20.88-5.56-19.68-13.08-32.93-10.51-45.26-18.64"/>
    <path class="cls-4" d="m368.35,648.05h177.64c6.85,0,13.96,5.77,12.45,12.45l-26.54,117.41c-1.51,6.68-5.6,12.45-12.46,12.45h-177.63c-6.85,0-13.97-5.77-12.46-12.45l26.55-117.41c1.51-6.68,5.6-12.45,12.45-12.45"/>
    <g class="cls-41">
      <rect class="cls-42" x="337.07" y="648.05" width="229.55" height="142.31"/>
    </g>
    <path class="cls-24" d="m462.06,707.54c5.37,1.72,8.04,8.35,5.97,14.79-2.07,6.44-8.1,10.26-13.47,8.54-5.37-1.73-8.04-8.35-5.97-14.79,2.07-6.44,8.1-10.27,13.47-8.54"/>
    <path class="cls-4" d="m226.44,776.49h104.78l9.95,13.88h-121.67v-6.93c0-3.82,3.12-6.94,6.94-6.94"/>
    <path class="cls-29" d="m252.17,449.25c-5.09,9.58-2.87,26.59-.45,31.64,3.46,7.23.91,10.13-2.11,9.1-6.7-2.29-8.71-5.22-13.73-7.62-1.18-.56-3.59-1-4.41-.11-3.34,3.68,3.99,14.05,8.46,16.82-21.89,2.58-50.61-34.61-32.57-57.48-10.28-71.32,85.37-70.35,120.84-29.95,6.12,6.97,6.98,21.35,3.28,26.97-16.82,25.56-59.76-.89-75.22,6.68-1.73.85-3.12,2.12-4.09,3.94"/>
    <path class="cls-17" d="m217.88,577.54c-7.97-17.68-30.09-28.1-45.57-18.94-5.27,3.12-11.92,9.97-14.19,18.36-10.99,40.54,14.45,137.8,24.28,162.16,25.5-22.71,50.22-27.4,55.96-28.75-9.92-34.46-15.67-122.15-20.48-132.83"/>
    <path class="cls-23" d="m159.04,574.81c-17.9,39.5,10.28,131.87,23.36,164.31,4.73-4.22,9.53-7.9,14.24-11.12-19.08-41.83-36.33-119.36-37.6-153.19"/>
    <path class="cls-21" d="m169.01,710.37s-.37,2.43-1.4,3.28c-1.04.85-1.6,1.26-1.6,1.26l-1.69-3.44,4.69-1.1Z"/>
    <path class="cls-3" d="m274.38,613.52c-1.86,0-3.37,1.68-3.37,3.76s1.51,3.76,3.37,3.76,3.37-1.68,3.37-3.76-1.51-3.76-3.37-3.76m0-21.82c-1.86,0-3.37,1.68-3.37,3.76s1.51,3.76,3.37,3.76,3.37-1.69,3.37-3.76-1.51-3.76-3.37-3.76Zm12.65-56.61c6.76,19.16-4.43,33.5-14.86,40-16.18-11.73-30.72-23.17-30.72-45.23,0,0-5.58-.11-9.2,9.78-5.98,16.03,4.04,52.02,4.04,52.02,0,0,11.24-16.24,20.58-17.12,9.34-.87,15.4,2.28,15.4,2.28,11.95-9.79,20.1,2.9,28.09,12.21,2.52-23.74,2.53-40.4-13.36-58.77,0,1.12-.19,4.23.02,4.84Z"/>
    <rect class="cls-38" x="309.85" y="637.3" width="35.96" height="8.73"/>
    <path class="cls-33" d="m98.94,731.74v34.88c-1.32.3-2.7.46-4.11.46-9.96,0-18.04-8.02-18.04-17.91s8.08-17.91,18.04-17.91c1.41,0,2.79.16,4.11.47m62.7-21.08h-62.7v12.91c-1.34-.21-2.71-.32-4.11-.32-14.4,0-26.07,11.61-26.07,25.94s11.67,25.93,26.07,25.93c1.62,0,3.21-.15,4.75-.43,2.3,8.98,10.48,15.66,20.15,15.66h21.48c11.23,0,20.42-9.19,20.42-20.42v-59.27Z"/>
    <path class="cls-16" d="m161.63,710.65h-49.74v58.9c0,11.44,9.36,20.79,20.8,20.79h8.52c11.23,0,20.42-9.19,20.42-20.42v-59.27Z"/>
    <path class="cls-18" d="m151.49,720.5h0c-2.6,0-4.72,2.12-4.72,4.72v38.53c0,2.59,2.12,4.71,4.72,4.71s4.72-2.12,4.72-4.71v-38.53c0-2.6-2.12-4.72-4.72-4.72"/>
    <path class="cls-19" d="m144.47,667.9c-5.54,0-9.43.1-14.97.1,8.98,10.16-5.2,20.33-1.65,34.44h16.62c-4.02-15.74,9.22-23.21,0-34.53"/>
    <path class="cls-19" d="m121.7,686.05c-3.21,0-5.46.04-8.67.04,5.2,4.82-3.01,9.65-.96,16.34h9.63c-2.33-7.47,5.34-11.02,0-16.39"/>
    <path class="cls-34" d="m1174.98,196.88c10.6,0,19.19,8.41,19.19,17.26s-6.3,15.01-14.77,16.8h-23.62v-16.8c0-9.53,8.6-17.26,19.2-17.26"/>
    <polygon class="cls-5" points="1197.28 288.28 1197.28 444.9 933.98 444.9 933.98 288.28 1068.46 215.08 1197.28 288.28"/>
    <g class="cls-49">
      <rect class="cls-35" x="971.99" y="196.88" width="203.19" height="228.72"/>
    </g>
    <polygon class="cls-15" points="933.98 288.28 1063.65 403.73 1197.28 288.28 1197.28 444.9 933.98 444.9 933.98 288.28"/>
    <polygon class="cls-9" points="933.98 444.9 1066.76 351.83 1197.28 444.9 933.98 444.9"/>
    <path class="cls-24" d="m1003.9,305.23h119.7c3.1,0,5.64,2.39,5.64,5.31s-2.55,5.31-5.64,5.31h-119.7c-3.11,0-5.65-2.39-5.65-5.31s2.54-5.31,5.65-5.31m0-48.62h46.29c3.1,0,5.64,2.39,5.64,5.31s-2.55,5.31-5.64,5.31h-46.29c-3.11,0-5.65-2.39-5.65-5.31s2.54-5.31,5.65-5.31Zm0,24.4h119.7c3.1,0,5.64,2.39,5.64,5.31s-2.55,5.31-5.64,5.31h-119.7c-3.11,0-5.65-2.39-5.65-5.31s2.54-5.31,5.65-5.31Zm0,48.45h119.7c3.1,0,5.64,2.39,5.64,5.31s-2.55,5.31-5.64,5.31h-119.7c-3.11,0-5.65-2.39-5.65-5.31s2.54-5.31,5.65-5.31Z"/>
    <path class="cls-24" d="m1018.01,207.5c10.32,0,18.69,8.37,18.69,18.7s-8.37,18.7-18.69,18.7-18.7-8.37-18.7-18.7,8.37-18.7,18.7-18.7"/>
    <path class="cls-3" d="m1017.98,214.6c3.21,0,5.81,2.6,5.81,5.81s-2.6,5.81-5.81,5.81-5.81-2.6-5.81-5.81,2.6-5.81,5.81-5.81"/>
    <path class="cls-3" d="m1011.32,228.41h13.33c2.73,0,4.96,2.23,4.96,4.96s-2.23,4.96-4.96,4.96h-13.33c-2.72,0-4.96-2.23-4.96-4.96s2.24-4.96,4.96-4.96"/>
    <path class="cls-16" d="m313.47,244.24h-98.01c-22.2,0-40.2,18-40.2,40.2v26.77c0,22.2,18,40.2,40.2,40.2h76.58l21.43,19.72v-19.72c22.2,0,40.2-17.99,40.2-40.2v-26.77c0-22.2-18-40.2-40.2-40.2"/>
    <polygon class="cls-2" points="248.62 311.27 222.8 300.04 222.8 293.83 248.62 282.65 248.62 289.97 230.61 296.86 248.62 304 248.62 311.27"/>
    <polygon class="cls-2" points="256.88 316.21 266.21 277.25 271.63 277.25 262.2 316.21 256.88 316.21"/>
    <polygon class="cls-2" points="279.89 311.3 279.89 304.03 297.92 296.94 279.89 289.92 279.89 282.7 305.74 293.88 305.74 300.04 279.89 311.3"/>
    <rect class="cls-39" x="1123.61" y="550.31" width="151.86" height="20.84" transform="translate(-66.83 947.53) rotate(-42.04)"/>
    <polygon class="cls-12" points="1268.97 524.32 1275.94 532.06 1163.17 633.77 1156.18 626.04 1268.97 524.32"/>
    <path class="cls-27" d="m1262.06,535.25c16.77,31.9,4.51,71.37-27.38,88.14-31.91,16.78-71.37,4.52-88.15-27.38-16.79-31.9-4.52-71.37,27.38-88.14,31.9-16.78,71.37-4.52,88.15,27.38m18.86-9.92c22.25,42.32,5.99,94.66-36.33,116.92-42.31,22.25-94.65,5.99-116.91-36.32-22.26-42.32-6-94.66,36.32-116.92,42.32-22.25,94.66-5.99,116.92,36.32Z"/>
    <polygon class="cls-14" points="1214.34 659.17 1191.36 659.11 1187.87 789.62 1216.88 789.62 1214.34 659.17"/>
    <path class="cls-6" d="m1215.05,647.86l-25.36-.07c-3.11,0-5.67,2.53-5.67,5.64-.01,3.11,2.52,5.66,5.63,5.67l25.37.06c3.11,0,5.66-2.53,5.67-5.64.01-3.11-2.53-5.66-5.64-5.67"/>
    <path class="cls-47" d="m513.49,183.84c-1.28-1.81-3.24-3.14-5.6-3.55-2.36-.41-4.66.17-6.46,1.44h-.01c-1.8,1.28-3.13,3.25-3.54,5.61-.41,2.35.18,4.65,1.45,6.46h0c1.27,1.81,3.24,3.13,5.6,3.54,2.36.41,4.65-.18,6.46-1.45,1.81-1.28,3.14-3.24,3.55-5.6.41-2.36-.17-4.66-1.44-6.46h0Zm-4.77-8.3c3.67.64,6.73,2.7,8.72,5.52h0c1.99,2.83,2.9,6.41,2.27,10.07-.64,3.67-2.7,6.73-5.52,8.72-2.82,1.99-6.4,2.89-10.07,2.26-3.66-.64-6.72-2.7-8.71-5.53h0c-1.99-2.82-2.9-6.4-2.26-10.06.64-3.66,2.7-6.72,5.52-8.71h0s0,0,0,0c2.83-1.99,6.4-2.9,10.06-2.26Z"/>
    <path class="cls-28" d="m624.42,146.14h0c1.35.23,2.26,1.53,2.03,2.88l-1.43,8.27,8.26,1.43c1.35.23,2.26,1.53,2.03,2.88-.23,1.35-1.52,2.26-2.88,2.03l-8.27-1.44-1.43,8.27c-.23,1.35-1.53,2.26-2.88,2.03-1.35-.23-2.26-1.53-2.03-2.88l1.43-8.27-8.26-1.44c-1.35-.24-2.26-1.53-2.03-2.88h0c.23-1.35,1.53-2.26,2.88-2.03l8.27,1.43,1.43-8.27c.23-1.35,1.53-2.26,2.88-2.03"/>
    <path class="cls-28" d="m905.64,182.59h0c1.35.23,2.27,1.53,2.03,2.88l-1.43,8.27,8.27,1.44c1.35.23,2.27,1.53,2.03,2.88h0c-.23,1.35-1.52,2.26-2.88,2.03l-8.27-1.44-1.44,8.27c-.23,1.35-1.53,2.26-2.88,2.03-1.35-.24-2.26-1.53-2.03-2.88l1.44-8.27-8.27-1.43c-1.35-.23-2.26-1.53-2.03-2.88h0c.23-1.35,1.53-2.26,2.88-2.03l8.27,1.44,1.43-8.27c.24-1.35,1.53-2.26,2.88-2.03"/>
    <path class="cls-47" d="m783.67,171.14c-.91-1.28-2.29-2.21-3.96-2.5-1.66-.29-3.29.12-4.56,1.02h0c-1.28.9-2.21,2.29-2.5,3.96-.29,1.66.12,3.28,1.03,4.56h0c.89,1.28,2.28,2.21,3.95,2.5,1.66.29,3.29-.12,4.57-1.02,1.28-.9,2.21-2.29,2.5-3.95.29-1.67-.12-3.29-1.02-4.56Zm-3.37-5.86c2.58.45,4.74,1.91,6.15,3.9h0c1.41,2,2.05,4.52,1.6,7.1-.45,2.59-1.91,4.75-3.9,6.15-1.99,1.4-4.52,2.04-7.1,1.59-2.58-.45-4.74-1.91-6.15-3.9h0c-1.4-1.99-2.04-4.52-1.6-7.11.45-2.58,1.91-4.74,3.9-6.15h0c2-1.41,4.52-2.05,7.1-1.6Z"/>
    <path class="cls-28" d="m962.99,122.87h0c1.11.19,1.86,1.26,1.67,2.37l-1.18,6.81,6.82,1.18c1.11.19,1.86,1.26,1.66,2.37h0c-.19,1.11-1.26,1.86-2.37,1.67l-6.82-1.18-1.18,6.81c-.19,1.11-1.25,1.86-2.37,1.67-1.11-.19-1.86-1.26-1.67-2.37l1.18-6.81-6.81-1.18c-1.11-.19-1.86-1.26-1.67-2.37.19-1.11,1.26-1.86,2.38-1.67l6.81,1.18,1.18-6.81c.19-1.11,1.25-1.86,2.37-1.67"/>
  </g>
</svg>