<?xml version="1.0" encoding="UTF-8"?>
<svg xmlns="http://www.w3.org/2000/svg" viewBox="0 0 3524.98 2397.86">
  <defs>
    <style>
      .cls-1 {
        fill: #7a8db0;
      }

      .cls-2 {
        fill: #f18a8b;
      }

      .cls-3 {
        fill: #fff;
      }

      .cls-4 {
        fill: #1d2f59;
      }

      .cls-5 {
        fill: #99b1da;
      }

      .cls-6 {
        fill: #a5a5a5;
      }

      .cls-7, .cls-8 {
        opacity: .5;
      }

      .cls-9 {
        opacity: .6;
      }

      .cls-10 {
        fill: #4a4a4a;
      }

      .cls-11 {
        opacity: .52;
      }

      .cls-12 {
        isolation: isolate;
      }

      .cls-13 {
        fill: #d1dbed;
      }

      .cls-14 {
        opacity: .44;
      }

      .cls-15 {
        opacity: .54;
      }

      .cls-16 {
        fill: #3d5891;
      }

      .cls-17 {
        fill: #969696;
      }

      .cls-18 {
        opacity: .34;
      }

      .cls-19 {
        opacity: .4;
      }

      .cls-20 {
        fill: #f19a6d;
      }

      .cls-8 {
        mix-blend-mode: multiply;
      }

      .cls-21 {
        opacity: .16;
      }

      .cls-22 {
        opacity: .55;
      }

      .cls-23 {
        fill: #6fc183;
      }

      .cls-24 {
        fill: #2e6857;
      }

      .cls-25 {
        fill: #f5b0a6;
      }

      .cls-26 {
        fill: #243354;
      }

      .cls-27 {
        fill: #5681bf;
      }

      .cls-28 {
        fill: #2c4da2;
      }

      .cls-29 {
        fill: #8e3728;
      }

      .cls-30 {
        fill: #2d2d2d;
      }

      .cls-31 {
        fill: #b5cae8;
      }

      .cls-32 {
        opacity: .36;
      }

      .cls-33 {
        fill: #ef7c59;
      }

      .cls-34 {
        fill: #2f4171;
      }

      .cls-35 {
        fill: #40947e;
      }

      .cls-36 {
        opacity: .46;
      }

      .cls-37 {
        fill: #f5f5f7;
      }

      .cls-38 {
        fill: #f3ce90;
      }

      .cls-39 {
        fill: #b74c34;
      }

      .cls-40 {
        fill: #3c3c3c;
      }
    </style>
  </defs>
  <g class="cls-12">
    <g id="Layer_2" data-name="Layer 2">
      <g id="_10" data-name="10">
        <g>
          <g>
            <path class="cls-37" d="m2454.2,2.02c-397.27-23.38-699.5,166.94-1564.64,38.54C332.7-42.09,141.53,364.71,229.43,760.69c201.42,907.34-74.34,801.44-20.44,1220.77,29.69,230.96,158.16,478.58,834.53,340.87,439.75-89.53,811.98-72.78,1137.9-15.81,567.79,99.25,811.99,21.52,986.88-157.43,212.72-217.67-28.97-626.5-90.37-928.82C3016.53,917.94,3597.25,69.27,2454.2,2.02Z"/>
            <g>
              <g>
                <g>
                  <path class="cls-35" d="m883.34,1427.62c-120.77-19.74-240.67,75.44-310.64,191.52-5,8.3-9.4,18.31-13.23,29.74-44.33,132.17-14.6,454.33-7.58,523.13.04.31.06.62.1.92.2-.29.42-.6.64-.91l73.56.54c5.95-30.66,22.28-88.96,45.11-155.66,42.92-125.48,108.85-280.76,171.97-338.01,105.74-95.94,160.83-231.52,40.06-251.26Z"/>
                  <path class="cls-23" d="m893.78,1456.31c-2.39-1.61-5.98-1.4-8.03.46-.21.2-21.84,19.74-55.49,33.66-18.77,7.76-34,23.02-53.29,42.34-18.04,18.07-40.48,40.55-72.68,63.21-49.11,34.56-53.29,75.34-56.98,111.33-1.44,14.09-2.81,27.41-6.61,39.86-6.35,20.79-12.31,31.58-18.62,43-7.47,13.52-15.2,27.51-24.14,58.53-16.49,57.21-1.92,140.24-1.3,143.74.4,2.22,2.82,3.84,5.6,3.86.27,0,.55-.01.83-.04,3.11-.33,5.28-2.59,4.84-5.03-.15-.84-14.9-84.92,1.13-140.53,8.71-30.2,16.22-43.8,23.48-56.95,6.51-11.79,12.67-22.93,19.25-44.47,4.01-13.13,5.41-26.77,6.89-41.22,3.69-36,7.5-73.23,53.25-105.42,32.94-23.17,55.72-46,74.03-64.34,18.45-18.48,33.03-33.08,49.65-39.96,35.53-14.7,57.86-34.88,58.8-35.73,2.05-1.87,1.77-4.69-.62-6.3Z"/>
                </g>
                <g>
                  <path class="cls-24" d="m819.69,1885c-39.89,13.13-96.75,70.77-148.37,131.89-42.9,50.79-82.18,103.96-105.12,136-5.52,7.72-10.11,14.2-13.55,19.13l92.09.67c82.3-52.19,221.35-127.24,293.72-129.13,102.06-2.69,195.14-50.47,138.89-117.49-56.24-67.02-165.61-71.35-257.66-41.08Z"/>
                  <path class="cls-35" d="m1038.61,1955.18c-.23.02-23.36,2.21-51.49-4.93-15.69-3.98-32.69-1.49-54.21,1.66-20.13,2.95-45.18,6.62-76.54,5.75-47.84-1.32-69.94,22.74-89.44,43.98-7.64,8.32-14.85,16.17-23.21,22.31-13.96,10.25-22.91,14.31-32.38,18.6-11.22,5.08-22.81,10.33-43.3,25.89-37.79,28.69-68.04,88.67-69.31,91.21-.81,1.61-.03,3.8,1.74,5.13.17.13.36.25.55.37,2.15,1.27,4.61.86,5.49-.91.31-.61,30.94-61.35,67.67-89.24,19.95-15.15,31.23-20.25,42.13-25.19,9.78-4.43,19.01-8.61,33.48-19.24,8.81-6.47,16.21-14.53,24.04-23.05,19.51-21.24,39.68-43.21,84.24-41.97,32.08.89,57.51-2.84,77.95-5.83,20.59-3.02,36.86-5.4,50.76-1.87,29.7,7.54,53.58,5.28,54.58,5.18,2.2-.22,3.36-2.15,2.61-4.32-.76-2.17-3.15-3.75-5.35-3.53Z"/>
                </g>
                <g>
                  <path class="cls-23" d="m485.09,1459.94c-153.57-198.01-411.43-266.25-473.58-179.41-62.15,86.85,146.23,191.82,177.31,315.08,31.09,123.26,119.83,101.76,161.24,158.66,24.83,34.1,57.7,182.87,80.04,296.54,5.6,28.52,10.55,54.83,14.53,76.57,3.37,18.38,6.06,33.5,7.89,43.9l99.38.73c.04.31.06.62.1.92.2-.29.42-.6.64-.91l11.42.08c.66-5.76,1.38-12.18,2.13-19.21,10.7-100.49,27.88-324.51-6.72-504.01-14.43-74.74-37.81-141.77-74.39-188.94Z"/>
                  <path class="cls-35" d="m516.59,1852.81c-13.41-59.76-28.6-127.48-35.48-188.37-8.8-77.96-31.27-95.28-68.48-123.97-20.49-15.8-45.99-35.45-76.9-71.53-86.66-101.15-246.56-165.7-248.17-166.34-2.92-1.17-6.23.26-7.4,3.18-1.17,2.92.26,6.23,3.18,7.4,1.58.63,158.89,64.13,243.74,163.17,31.68,36.97,57.69,57.03,78.59,73.14,36.02,27.77,55.86,43.06,64.12,116.24,6.95,61.5,22.21,129.55,35.68,189.59,12.28,54.72,22.88,101.98,23.2,127.44.67,52.67-25.27,161.18-25.53,162.27-.74,3.06,1.15,6.13,4.2,6.87.43.1.87.16,1.29.16,2.59.02,4.94-1.74,5.57-4.36,1.08-4.51,26.53-110.98,25.84-165.07-.34-26.64-11.06-74.44-23.48-129.78Z"/>
                </g>
                <path class="cls-24" d="m335.17,1881.62c-69.03-58.21-205.35-100.69-220.51-51.59-15.16,49.08,64.21,92.93,64.21,92.93,0,0,39.78,10.54,65.9,18.7,26.13,8.16,7.74,31.21,26.95,52.21,19.2,21.01,50.98,34.9,66.79,52.09,15.82,17.21,45.33,28.8,63.39,50.57,11.65,14.05,21.51,47.59,27.03,69.59.44,1.74,1.04,3.42,1.78,5l41.9.31c-7.41-23.54-22.79-70.56-42.53-120.62-26.68-67.65-61.3-140.84-94.92-169.19Z"/>
              </g>
              <g>
                <g>
                  <path class="cls-35" d="m3330.11,1496.71c-125.47-26.51-255.6,67.32-334.46,185.45-5.64,8.45-10.73,18.72-15.29,30.5-52.81,136.22-37.29,474.91-33.27,547.27.03.33.04.65.06.96.23-.3.47-.61.71-.92l76.98,4.13c7.71-31.81,27.63-92.05,54.76-160.77,51.01-129.28,127.54-288.64,196.39-345.52,115.34-95.31,179.58-234.58,54.11-261.09Z"/>
                  <path class="cls-23" d="m3339.65,1527.25c-2.42-1.81-6.2-1.76-8.43.1-.23.19-23.82,19.61-59.72,32.55-20.02,7.22-36.71,22.46-57.83,41.75-19.76,18.04-44.34,40.49-79.14,62.65-53.09,33.8-59.44,76.29-65.04,113.78-2.19,14.68-4.27,28.55-8.85,41.41-7.65,21.45-14.42,32.46-21.58,44.12-8.48,13.8-17.24,28.06-28.1,60.1-20.03,59.1-8.81,146.71-8.32,150.41.31,2.35,2.76,4.16,5.67,4.31.29.02.58.01.87,0,3.28-.2,5.66-2.45,5.32-5.03-.12-.89-11.49-89.62,7.99-147.06,10.58-31.2,19.1-45.07,27.34-58.48,7.39-12.03,14.37-23.39,22.3-45.62,4.83-13.55,6.96-27.77,9.21-42.82,5.6-37.51,11.4-76.29,60.85-107.78,35.6-22.66,60.56-45.46,80.62-63.77,20.21-18.46,36.18-33.03,53.91-39.43,37.91-13.67,62.26-33.71,63.28-34.56,2.23-1.86,2.08-4.82-.34-6.62Z"/>
                </g>
                <g>
                  <path class="cls-24" d="m3241.32,1972.43c-42.39,11.82-104.71,69.4-161.71,130.89-47.37,51.09-91.07,104.85-116.63,137.27-6.16,7.81-11.27,14.38-15.11,19.37l96.37,5.17c88.68-50.64,237.88-122.48,313.73-120.96,106.97,2.13,206.72-43.38,151.09-116.26-55.63-72.88-169.92-82.71-267.74-55.48Z"/>
                  <path class="cls-35" d="m3467.1,2056.5c-.24.01-24.56,1.18-53.66-7.65-16.23-4.93-34.15-3.14-56.83-.88-21.22,2.11-47.62,4.74-80.41,2.32-50.01-3.7-74.32,20.42-95.76,41.7-8.4,8.33-16.33,16.21-25.38,22.23-15.11,10.06-24.67,13.87-34.8,17.9-11.99,4.78-24.38,9.71-46.58,25-40.95,28.21-75.52,89.53-76.97,92.12-.92,1.65-.21,3.97,1.57,5.46.18.15.36.28.56.41,2.19,1.43,4.78,1.13,5.79-.68.35-.62,35.36-62.73,75.16-90.14,21.62-14.89,33.67-19.69,45.32-24.33,10.45-4.16,20.32-8.1,35.98-18.52,9.54-6.35,17.67-14.42,26.28-22.97,21.45-21.29,43.63-43.31,90.22-39.86,33.54,2.48,60.34-.19,81.88-2.33,21.7-2.16,38.85-3.87,53.23.5,30.73,9.33,55.84,8.13,56.89,8.07,2.31-.12,3.63-2.09,2.94-4.39-.69-2.31-3.12-4.08-5.43-3.95Z"/>
                </g>
                <g>
                  <path class="cls-23" d="m2911.63,1511.26c-151.18-214.72-417.81-298.64-487.08-210.75-69.27,87.91,143.79,207.89,170.35,338.43,26.58,130.54,120.52,112.33,161.11,173.9,24.34,36.9,51.54,194.23,69.43,314.31,4.48,30.13,8.38,57.91,11.51,80.86,2.63,19.4,4.72,35.36,6.14,46.34l104,5.58c.03.33.04.65.06.96.23-.3.47-.61.71-.92l11.95.64c.97-6,2.04-12.68,3.16-20.01,16.07-104.68,44.91-338.36,17.38-527.94-11.48-78.94-32.72-150.24-68.73-201.4Z"/>
                  <path class="cls-35" d="m2897.57,1725.13c-5.44-82.04-28.12-101.26-65.68-133.1-20.68-17.53-46.42-39.34-77.03-78.61-85.82-110.08-250.09-185.4-251.74-186.15-3-1.36-6.54-.03-7.9,2.97-1.36,3-.03,6.54,2.97,7.9,1.62.74,163.22,74.83,247.26,182.62,31.37,40.24,57.63,62.49,78.73,80.37,36.36,30.81,56.39,47.79,61.49,124.79,4.29,64.72,16.98,136.69,28.17,200.2,10.2,57.88,19.01,107.87,18.12,134.53-1.85,55.17-34.26,167.51-34.58,168.63-.92,3.16.9,6.47,4.07,7.39.45.13.9.2,1.35.23,2.71.14,5.26-1.58,6.05-4.3,1.35-4.67,33.15-114.9,35.05-171.56.94-27.91-7.97-78.46-18.29-137-11.14-63.2-23.77-134.84-28.01-198.92Z"/>
                </g>
                <path class="cls-24" d="m2734.27,1945.43c-69.45-64.28-210.1-115.35-228.34-64.69-18.25,50.65,62.72,100.4,62.72,100.4,0,0,41.14,12.96,68.08,22.77,26.96,9.81,6.59,33.04,25.69,55.96,19.08,22.93,51.68,39.01,67.39,57.77,15.73,18.78,46.06,32.34,63.91,56.01,11.52,15.27,20.21,50.86,24.92,74.16.38,1.84.92,3.62,1.62,5.32l43.85,2.35c-6.62-25-20.44-74.97-38.68-128.33-24.65-72.11-57.36-150.4-91.18-181.71Z"/>
              </g>
            </g>
            <g>
              <g class="cls-15">
                <path class="cls-13" d="m3095.63,48.42c-9.96-3.44-20.66-5.31-31.79-5.31h-1834.46c-53.87,0-97.52,43.65-97.52,97.51v1265.83c0,50.21,37.94,91.57,86.73,96.93,3.54.39,7.14.59,10.78.59h1834.46c53.87,0,97.52-43.67,97.52-97.53V140.62c0-42.73-27.47-79.03-65.72-92.2Z"/>
              </g>
              <g>
                <path class="cls-16" d="m3063.85,43.11h-1834.49c-53.86,0-97.5,43.64-97.5,97.5v100.88h2029.49v-100.88c0-53.86-43.64-97.5-97.5-97.5Z"/>
                <g>
                  <path class="cls-3" d="m1463.24,109.14c-18.31,0-33.16,14.85-33.16,33.16s14.85,33.16,33.16,33.16,33.16-14.85,33.16-33.16-14.85-33.16-33.16-33.16Z"/>
                  <path class="cls-31" d="m1376.75,109.14c-18.31,0-33.16,14.85-33.16,33.16s14.85,33.16,33.16,33.16,33.16-14.85,33.16-33.16-14.85-33.16-33.16-33.16Z"/>
                  <path class="cls-27" d="m1288.04,109.14c-18.32,0-33.16,14.85-33.16,33.16s14.85,33.16,33.16,33.16,33.16-14.85,33.16-33.16-14.85-33.16-33.16-33.16Z"/>
                </g>
              </g>
            </g>
            <ellipse class="cls-1" cx="833.09" cy="2283.53" rx="592.45" ry="114.33"/>
            <ellipse class="cls-1" cx="2140.6" cy="2283.53" rx="976.84" ry="114.33"/>
            <g>
              <g>
                <g>
                  <g class="cls-22">
                    <path class="cls-27" d="m3072.72,924.08l-27.34-88.79,64.84-67.77c-17.18-31.66-38.23-61.37-62.37-88.5l-85.66,38.3-74.39-55.63,12.57-92.92c-15.42-7.27-31.31-13.85-47.79-19.65-18.1-6.24-36.29-11.16-54.37-15.06l-46.82,81.22-92.86-1.24-44.5-82.4c-35.7,6.63-70.27,17.46-103.09,31.99l9.93,93.2-75.86,53.75-84.57-40.62c-24.54,25.91-46.25,54.92-64.62,86.61l63.05,69.57-29.66,88.08-92.33,16.89c-4.59,35.2-4.95,70.38-1.57,104.79l91.71,19.81,27.08,88.87-65.04,67.54c17.12,31.63,37.83,61.34,61.97,88.4l85.7-37.85,74.2,55.87-12.81,92.81c15.81,7.65,32.24,14.55,49.22,20.36,17.44,6.09,35.13,10.94,52.86,14.91l46.98-81.24,93.01,1.63,44.13,82.69c35.63-6.51,70.22-17.27,103.23-31.75l-9.68-93.21,76.09-53.42,84.44,40.86c24.6-25.87,46.46-54.77,64.98-86.39l-62.89-69.69,30.03-87.96,92.45-16.6c4.82-36.26,5.11-72.48,1.58-108.01l-91.84-19.44Zm-263.61,244.85c-98.55,60.36-227.53,29.48-287.85-69.53-60.28-98.56-29.13-227.42,69.66-287.4,98.48-60.46,227.09-29.33,287.63,69.15,60.51,98.92,29.02,227.59-69.44,287.78Z"/>
                  </g>
                  <path class="cls-17" d="m2540.19,728.85c-144.29,88.26-189.71,277.06-101.49,421.34,88.14,144.28,276.76,189.86,421.05,101.6,144.23-88.14,189.77-276.77,101.59-421.01-88.31-144.61-276.79-190.01-421.14-101.92Zm303.89,497.31c-130.14,79.61-300.28,38.5-379.78-91.64-79.57-130.14-38.6-300.44,91.55-380.04,130.21-79.46,300.21-38.5,379.87,91.94,79.54,130.11,38.47,300.25-91.63,379.75Z"/>
                  <path class="cls-17" d="m2844.08,1226.16c-27.09,16.57-55.93,27.84-85.31,34.23-18.39,12.6-37.49,24.75-57.33,36.38,54.09-.2,108.8-14.71,158.3-44.99,84.91-51.89,135.57-138.62,144.92-230.6-12.97,17.48-26.73,34.98-41.33,52.39-19.35,61.42-60.05,116.4-119.26,152.59Z"/>
                </g>
                <g>
                  <path class="cls-31" d="m3101.9,899.93l-27.34-88.79,64.84-67.77c-17.18-31.66-38.23-61.37-62.37-88.5l-85.66,38.3-74.38-55.63,12.57-92.92c-15.42-7.27-31.31-13.85-47.79-19.65-18.1-6.24-36.29-11.16-54.37-15.06l-46.82,81.22-92.86-1.24-44.5-82.4c-35.7,6.63-70.27,17.46-103.09,31.99l9.93,93.2-75.86,53.75-84.57-40.62c-24.54,25.91-46.25,54.92-64.62,86.61l63.05,69.57-29.66,88.08-92.33,16.89c-4.59,35.2-4.95,70.38-1.57,104.79l91.71,19.81,27.08,88.87-65.04,67.54c17.12,31.63,37.83,61.34,61.97,88.4l85.7-37.85,74.2,55.87-12.81,92.81c15.81,7.65,32.24,14.55,49.22,20.36,17.44,6.09,35.13,10.94,52.86,14.91l46.98-81.24,93.01,1.63,44.13,82.69c35.63-6.51,70.22-17.27,103.23-31.75l-9.68-93.21,76.09-53.42,84.44,40.86c24.6-25.88,46.46-54.77,64.98-86.39l-62.89-69.69,30.03-87.96,92.45-16.6c4.82-36.26,5.11-72.48,1.58-108.01l-91.84-19.44Zm-263.61,244.85c-98.56,60.36-227.53,29.48-287.85-69.53-60.28-98.56-29.13-227.42,69.66-287.4,98.48-60.46,227.09-29.33,287.63,69.16,60.51,98.92,29.02,227.59-69.44,287.78Z"/>
                  <path class="cls-5" d="m2569.38,704.69c-144.29,88.26-189.71,277.06-101.49,421.34,88.14,144.28,276.76,189.86,421.05,101.6,144.23-88.14,189.77-276.77,101.59-421.01-88.31-144.61-276.78-190.01-421.14-101.93Zm303.89,497.31c-130.14,79.61-300.28,38.5-379.78-91.64-79.57-130.14-38.6-300.44,91.55-380.04,130.21-79.46,300.21-38.5,379.87,91.94,79.54,130.11,38.47,300.25-91.63,379.75Z"/>
                </g>
              </g>
              <g>
                <g>
                  <g class="cls-11">
                    <path class="cls-26" d="m2193.39,1311.35l-16.63-54,39.43-41.22c-10.45-19.25-23.25-37.32-37.93-53.82l-52.1,23.29-45.24-33.83,7.64-56.51c-9.38-4.42-19.04-8.42-29.06-11.95-11.01-3.79-22.07-6.79-33.06-9.16l-28.47,49.4-56.47-.75-27.06-50.12c-21.71,4.03-42.73,10.62-62.7,19.45l6.04,56.68-46.14,32.69-51.43-24.7c-14.93,15.76-28.13,33.4-39.3,52.67l38.35,42.31-18.04,53.57-56.16,10.27c-2.79,21.41-3.01,42.8-.96,63.73l55.77,12.05,16.47,54.05-39.56,41.07c10.41,19.23,23.01,37.31,37.69,53.76l52.12-23.02,45.13,33.98-7.79,56.44c9.61,4.65,19.61,8.85,29.94,12.38,10.61,3.7,21.37,6.66,32.15,9.07l28.57-49.41,56.57.99,26.84,50.29c21.67-3.96,42.71-10.5,62.78-19.31l-5.89-56.69,46.28-32.49,51.35,24.85c14.96-15.74,28.26-33.31,39.52-52.54l-38.25-42.38,18.26-53.49,56.23-10.09c2.93-22.05,3.11-44.08.96-65.69l-55.86-11.83Zm-160.32,148.91c-59.94,36.71-138.38,17.93-175.07-42.29-36.66-59.94-17.71-138.31,42.37-174.79,59.89-36.77,138.11-17.84,174.93,42.06,36.8,60.16,17.65,138.41-42.23,175.02Z"/>
                  </g>
                  <path class="cls-17" d="m1869.52,1192.61c-87.75,53.68-115.38,168.5-61.73,256.25,53.6,87.75,168.32,115.47,256.07,61.79,87.72-53.61,115.42-168.32,61.78-256.05-53.71-87.95-168.33-115.56-256.13-61.99Zm184.82,302.45c-79.15,48.42-182.62,23.41-230.97-55.73-48.39-79.15-23.47-182.72,55.68-231.13,79.19-48.32,182.58-23.42,231.03,55.91,48.38,79.13,23.39,182.6-55.73,230.96Z"/>
                  <path class="cls-17" d="m2054.34,1495.07c-16.48,10.08-34.01,16.93-51.88,20.82-11.18,7.66-22.8,15.05-34.87,22.12,32.89-.12,66.17-8.95,96.27-27.36,51.64-31.56,82.45-84.3,88.14-140.25-7.89,10.63-16.26,21.28-25.13,31.86-11.77,37.35-36.52,70.79-72.53,92.8Z"/>
                </g>
                <g>
                  <path class="cls-27" d="m2211.14,1296.66l-16.63-54,39.43-41.22c-10.45-19.26-23.25-37.33-37.93-53.82l-52.1,23.29-45.24-33.83,7.64-56.51c-9.38-4.42-19.04-8.42-29.06-11.95-11.01-3.79-22.07-6.79-33.06-9.16l-28.47,49.39-56.47-.75-27.06-50.12c-21.71,4.03-42.73,10.62-62.7,19.45l6.04,56.68-46.14,32.69-51.43-24.7c-14.93,15.76-28.13,33.4-39.3,52.67l38.35,42.31-18.04,53.57-56.15,10.27c-2.79,21.41-3.01,42.8-.96,63.73l55.77,12.05,16.47,54.05-39.56,41.07c10.41,19.23,23.01,37.31,37.69,53.77l52.12-23.02,45.13,33.98-7.79,56.44c9.61,4.65,19.61,8.85,29.94,12.38,10.61,3.7,21.37,6.65,32.15,9.07l28.57-49.41,56.57.99,26.84,50.29c21.67-3.96,42.71-10.5,62.78-19.31l-5.89-56.69,46.28-32.49,51.35,24.85c14.96-15.74,28.26-33.31,39.52-52.54l-38.25-42.38,18.26-53.49,56.23-10.1c2.93-22.05,3.11-44.08.96-65.69l-55.86-11.83Zm-160.32,148.91c-59.94,36.71-138.38,17.93-175.07-42.29-36.66-59.94-17.71-138.31,42.37-174.79,59.89-36.77,138.11-17.84,174.93,42.06,36.8,60.16,17.65,138.41-42.23,175.02Z"/>
                  <g class="cls-9">
                    <path class="cls-16" d="m1887.27,1177.92c-87.75,53.68-115.38,168.5-61.73,256.25,53.6,87.75,168.32,115.47,256.07,61.79,87.72-53.61,115.42-168.32,61.78-256.05-53.71-87.95-168.33-115.56-256.13-61.99Zm184.82,302.46c-79.15,48.42-182.62,23.41-230.97-55.73-48.39-79.15-23.47-182.72,55.68-231.13,79.19-48.32,182.58-23.42,231.03,55.91,48.38,79.13,23.39,182.6-55.73,230.96Z"/>
                  </g>
                </g>
              </g>
              <g>
                <g>
                  <g class="cls-22">
                    <path class="cls-16" d="m2209.52,672.97l31.48-12.01c-.53-22.9-3.3-45.77-8.3-68.36l-33.32-4.22c-37.85-4.79-55.69-49.32-31.62-78.93l21.19-26.06c-11.98-19.79-25.77-38.24-41.2-55.18l-31.07,13.05c-35.18,14.77-72.89-14.87-66.85-52.54l5.31-33.12c-10.04-5.47-20.38-10.51-31.03-15.06-10.64-4.55-21.43-8.56-32.32-12.05l-20.29,26.71c-23.08,30.38-70.56,23.57-84.16-12.08l-12.01-31.48c-22.9.53-45.77,3.3-68.36,8.3l-4.22,33.32c-4.79,37.85-49.32,55.69-78.93,31.62l-26.06-21.19c-19.79,11.98-38.24,25.77-55.18,41.19l13.05,31.07c14.77,35.18-14.87,72.89-52.54,66.85l-33.12-5.31c-5.47,10.04-10.51,20.38-15.06,31.03-4.56,10.64-8.56,21.43-12.05,32.32l26.71,20.29c30.38,23.08,23.57,70.56-12.08,84.16l-31.48,12.01c.53,22.9,3.3,45.77,8.3,68.36l33.32,4.22c37.85,4.79,55.69,49.32,31.62,78.93l-21.19,26.06c11.98,19.79,25.77,38.24,41.2,55.18l31.07-13.05c35.18-14.77,72.89,14.87,66.85,52.54l-5.31,33.12c10.04,5.47,20.38,10.51,31.03,15.06,10.65,4.56,21.43,8.56,32.32,12.05l20.29-26.71c23.08-30.38,70.56-23.57,84.16,12.08l12.01,31.48c22.9-.53,45.77-3.3,68.36-8.3l4.22-33.32c4.79-37.85,49.32-55.69,78.93-31.62l26.06,21.19c19.79-11.98,38.24-25.77,55.18-41.19l-13.05-31.07c-14.77-35.18,14.87-72.89,52.54-66.85l33.12,5.31c5.47-10.04,10.51-20.38,15.06-31.03,4.56-10.64,8.56-21.43,12.05-32.32l-26.71-20.29c-30.38-23.08-23.57-70.56,12.08-84.16Zm-302.99-163.76c.46-12.94,12.82-22.26,25.32-18.86,8.25,2.24,16.44,5.08,24.52,8.54,37.03,15.85,66.24,42.34,85.59,74.37,7,11.6,1.07,26.66-12.02,30.15l-115.06,30.7c-3.7-3.31-7.91-6.03-12.48-8.04l4.14-116.86Zm-170.67,48.1c26.72-35.34,64.93-59.32,106.89-68.82,12.9-2.92,25.05,7.27,24.58,20.48l-4.17,117.77c-4.13,1.98-7.89,4.54-11.22,7.56l-107.9-46.17c-12.09-5.17-16.11-20.33-8.18-30.82Zm1.96,226.17c-31.47-40.17-45.54-92.4-37.14-143.99,2.11-12.96,15.86-20.49,27.94-15.33l107.9,46.17c.04,1.45.14,2.92.31,4.39.25,2.1.65,4.14,1.16,6.13l-100.17,102.63Zm186.98,66.18c-36.88,8.47-76.68,5.75-114.13-10.28-8.96-3.83-17.45-8.29-25.46-13.3-10.92-6.83-12.69-22.04-3.69-31.26l81.43-83.42c6.02,2.94,12.71,4.61,19.7,4.74l55.31,104.37c6.19,11.68-.27,26.19-13.15,29.15Zm128.97-107.68c-11.51,26.89-28.63,49.65-49.41,67.51-9.82,8.44-24.96,5.53-31.03-5.91l-54.69-103.2c7.18-8.08,11.57-18.58,11.88-29.89l112.51-30.02c12.39-3.31,24.71,5.6,25.43,18.41,1.55,27.6-3.08,55.97-14.69,83.1Z"/>
                  </g>
                  <g class="cls-21">
                    <path class="cls-30" d="m2035.65,488.1c-99.82-83.89-249.28-70.93-333.17,28.9-83.89,99.82-70.93,249.28,28.9,333.17,99.82,83.89,249.28,70.93,333.17-28.9,83.89-99.82,70.93-249.28-28.9-333.17Zm-6.83,303.15c-67.33,80.12-187.29,90.53-267.42,23.19-80.12-67.33-90.53-187.29-23.19-267.42,67.33-80.12,187.29-90.53,267.42-23.19,80.12,67.33,90.53,187.29,23.19,267.42Z"/>
                  </g>
                </g>
                <g>
                  <path class="cls-5" d="m2225.6,642.05l31.48-12.01c-.54-22.9-3.3-45.77-8.3-68.36l-33.32-4.22c-37.85-4.79-55.69-49.32-31.62-78.93l21.19-26.06c-11.98-19.79-25.77-38.24-41.2-55.18l-31.07,13.05c-35.18,14.77-72.89-14.87-66.85-52.54l5.31-33.12c-10.04-5.47-20.38-10.51-31.03-15.06-10.64-4.55-21.43-8.56-32.32-12.05l-20.29,26.71c-23.08,30.39-70.56,23.57-84.16-12.08l-12.01-31.48c-22.9.53-45.77,3.3-68.36,8.3l-4.22,33.32c-4.79,37.85-49.32,55.69-78.93,31.62l-26.06-21.19c-19.79,11.98-38.24,25.77-55.18,41.19l13.05,31.07c14.77,35.18-14.87,72.89-52.54,66.85l-33.12-5.31c-5.47,10.04-10.51,20.38-15.06,31.03-4.56,10.64-8.56,21.43-12.05,32.32l26.71,20.29c30.38,23.08,23.57,70.56-12.08,84.16l-31.48,12.01c.53,22.9,3.3,45.77,8.3,68.36l33.32,4.22c37.85,4.79,55.69,49.32,31.62,78.93l-21.19,26.06c11.98,19.79,25.77,38.24,41.2,55.18l31.07-13.05c35.18-14.77,72.89,14.87,66.85,52.54l-5.31,33.12c10.04,5.47,20.38,10.51,31.03,15.06,10.65,4.55,21.43,8.56,32.32,12.05l20.29-26.71c23.08-30.38,70.56-23.57,84.16,12.08l12.01,31.48c22.9-.53,45.77-3.3,68.36-8.3l4.22-33.32c4.79-37.85,49.32-55.69,78.93-31.62l26.06,21.19c19.79-11.98,38.24-25.77,55.18-41.2l-13.05-31.07c-14.77-35.18,14.87-72.89,52.54-66.85l33.12,5.31c5.47-10.04,10.51-20.38,15.06-31.03,4.56-10.65,8.56-21.43,12.05-32.32l-26.71-20.29c-30.38-23.08-23.57-70.56,12.08-84.16Zm-302.99-163.76c.46-12.94,12.82-22.26,25.32-18.86,8.25,2.24,16.44,5.08,24.52,8.54,37.03,15.85,66.24,42.34,85.59,74.37,7,11.6,1.07,26.66-12.02,30.15l-115.06,30.7c-3.7-3.31-7.91-6.03-12.48-8.04l4.14-116.86Zm-4.82,138.28c11.96,10.05,13.5,27.88,3.46,39.84-10.05,11.96-27.88,13.5-39.84,3.46-11.95-10.05-13.5-27.88-3.46-39.84,10.05-11.96,27.88-13.5,39.84-3.46Zm-165.85-90.17c26.72-35.34,64.93-59.32,106.89-68.82,12.9-2.92,25.05,7.27,24.58,20.48l-4.17,117.78c-4.13,1.98-7.89,4.54-11.22,7.56l-107.9-46.17c-12.09-5.17-16.11-20.33-8.18-30.82Zm1.96,226.17c-31.47-40.17-45.54-92.4-37.14-143.99,2.11-12.96,15.86-20.49,27.94-15.33l107.89,46.17c.04,1.45.14,2.92.31,4.39.25,2.1.65,4.14,1.16,6.13l-100.17,102.63Zm186.98,66.18c-36.88,8.47-76.68,5.75-114.13-10.28-8.96-3.83-17.45-8.29-25.46-13.3-10.92-6.83-12.69-22.04-3.69-31.26l81.43-83.42c6.02,2.94,12.71,4.61,19.7,4.74l55.31,104.37c6.19,11.68-.27,26.19-13.15,29.15Zm128.97-107.68c-11.51,26.89-28.63,49.65-49.41,67.52-9.82,8.44-24.96,5.53-31.03-5.91l-54.69-103.2c7.18-8.08,11.57-18.58,11.88-29.89l112.51-30.02c12.39-3.31,24.71,5.6,25.43,18.41,1.55,27.6-3.08,55.97-14.69,83.1Z"/>
                  <g class="cls-11">
                    <path class="cls-27" d="m2051.74,457.18c-99.82-83.89-249.28-70.93-333.17,28.9s-70.93,249.28,28.9,333.17c99.82,83.89,249.28,70.93,333.17-28.9,83.89-99.82,70.93-249.28-28.9-333.17Zm-6.83,303.15c-67.33,80.12-187.29,90.53-267.41,23.19-80.12-67.33-90.53-187.29-23.19-267.42,67.33-80.12,187.29-90.53,267.42-23.19,80.12,67.33,90.53,187.29,23.19,267.42Z"/>
                  </g>
                </g>
              </g>
            </g>
            <g>
              <g>
                <path class="cls-20" d="m2527.31,1637.21c-175.79,59.07-270.42,249.48-211.35,425.28,59.08,175.8,249.48,270.42,425.28,211.35,175.8-59.08,270.43-249.47,211.35-425.28-59.07-175.79-249.47-270.43-425.28-211.35Zm356.43,440.12c-32.77,65.95-89.25,115.18-159.05,138.63-69.8,23.46-144.55,18.32-210.5-14.45-65.94-32.77-115.16-89.25-138.61-159.05-23.46-69.8-18.33-144.55,14.44-210.48,32.78-65.94,89.26-115.17,159.06-138.63,69.8-23.46,144.55-18.32,210.49,14.45,65.94,32.77,115.17,89.25,138.62,159.05,23.46,69.8,18.32,144.55-14.45,210.49Z"/>
                <g>
                  <path class="cls-39" d="m2209.8,2058.56l24.79,73.79,99.39-33.4c-9.15-24.41-17.37-49.24-21.06-75.04l-103.13,34.66Z"/>
                  <path class="cls-29" d="m2312.93,2023.91l-.44.15c-3.99,19.14-5.91,46.4.45,81.96l21.04-7.07c5.65-1.59-15.41-76.63-21.06-75.04Z"/>
                </g>
                <path class="cls-33" d="m2275.07,2094.25c-.15-.6-.32-1.19-.49-1.79-8.83-32.81-26.94-69.09-39.55-64.86l-12.53,4.22-13.98,4.7-21.61,7.27-5.29,1.78-5.61,1.87-3.11,1.06-60.9,20.44-5.84,1.97-55.19,18.53-5.89,1.98-88.1,29.61-5.83,1.96-81.88,27.49-5.63,1.89-47.47,15.95-5.62,1.91-109.08,36.64c-6.76,2.26-10.86,9.05-9.84,16.09,2.43,16.95,7.25,37.37,16.4,59.62.54,1.31,1.1,2.64,1.67,3.99.49,1.16,1.01,2.33,1.54,3.51.62,1.38,1.24,2.78,1.9,4.17.94,2,1.9,4,2.91,6.02.06.14.14.29.22.42.31.65.63,1.28.98,1.92.9,1.81,1.85,3.6,2.84,5.42.47.88.94,1.75,1.43,2.61.49.91,1.01,1.83,1.54,2.75h.02c3.16,5.55,9.48,8.37,15.6,7.16.6-.12,1.2-.27,1.81-.47l7.21-2.44.03-.02,162.86-54.43,5.74-1.91,194.03-64.86v-.02s8.92-2.97,8.92-2.97l83.26-27.85,7.8-2.62.62-.19,14.08-4.74,21.54-7.22,14.08-4.74,12.8-4.32c8.25-2.76,7.91-20.78,3.1-41.72-.44-1.91-.91-3.84-1.43-5.8Z"/>
                <path class="cls-38" d="m2551.05,1630.69c-175.79,59.07-270.42,249.48-211.35,425.28,59.08,175.8,249.48,270.42,425.28,211.35,175.8-59.08,270.43-249.47,211.35-425.28-59.07-175.79-249.47-270.43-425.28-211.35Zm356.43,440.12c-32.77,65.95-89.25,115.18-159.05,138.63-69.8,23.46-144.55,18.32-210.5-14.45-65.94-32.77-115.16-89.25-138.61-159.06-23.46-69.8-18.34-144.54,14.43-210.48,32.78-65.94,89.26-115.17,159.06-138.63,69.8-23.46,144.55-18.32,210.49,14.45,65.94,32.77,115.17,89.25,138.62,159.05,23.46,69.8,18.32,144.55-14.45,210.49Z"/>
                <g class="cls-19">
                  <path class="cls-3" d="m2880.97,1783.15c-15.25-20.31-33.28-38.4-53.69-53.81-13.64-10.31-28.34-19.41-43.98-27.19-14.59-7.25-29.62-13.15-44.93-17.69-12.74-3.78-25.66-6.61-38.71-8.48-38.67-5.58-78.31-2.79-116.67,8.5-3.41.99-6.79,2.07-10.17,3.2-37.13,12.48-70.5,32.26-98.52,57.95-24.67,22.62-45.21,49.82-60.54,80.69-30.93,62.26-37.24,132.36-18.09,198.75,1.13,3.92,2.35,7.84,3.66,11.73,7.29,21.71,17.08,42.13,29.09,60.96,17.41,27.27,39.47,51.18,65.38,70.78,13.68,10.36,28.44,19.51,44.15,27.32,26.7,13.26,54.81,22,83.46,26.14,35.26,5.1,71.31,3.25,106.47-5.64,6.89-1.75,13.74-3.76,20.56-6.06,34.38-11.55,65.51-29.34,92.19-52.31,27.5-23.66,50.24-52.84,66.86-86.31,32.78-65.93,37.91-140.68,14.45-210.5-9.57-28.47-23.41-54.71-40.95-78.04Z"/>
                </g>
                <path class="cls-20" d="m2783.3,1701.27c-1.03-.51-2.07-1.02-3.1-1.52-2.07-.99-4.15-1.96-6.23-2.9-3.13-1.42-6.27-2.77-9.44-4.06-2.11-.87-4.23-1.7-6.36-2.51-5.3-2.02-10.65-3.87-16.04-5.55-10.77-3.36-21.69-6.04-32.7-8.04-2.2-.4-4.41-.77-6.62-1.12-37.56-5.86-76.1-3.81-113.55,6.29-1.1.29-2.21.6-3.31.91-3.3.91-6.59,1.91-9.88,2.98-.02,0-.03,0-.05.02.03,0,.05-.01.06-.02h.02c61.76-14.09,125.96-6.53,183.46,22.05,65.95,32.77,115.17,89.24,138.63,159.05,23.46,69.81,18.32,144.55-14.46,210.49-32.76,65.95-89.23,115.18-159.04,138.64-1.07.36-2.14.72-3.22,1.05.19-.03.38-.08.56-.12,3.32-.77,6.65-1.6,9.95-2.49,5.51-1.49,10.99-3.15,16.43-4.97,5.06-1.7,10.05-3.53,14.97-5.5,3.93-1.58,7.81-3.23,11.65-4.97,0,0,0,0,0,0,9.58-4.35,18.87-9.22,27.81-14.58.9-.54,1.78-1.08,2.68-1.63,3.54-2.18,7.04-4.44,10.48-6.78.86-.59,1.71-1.17,2.57-1.77,2.55-1.78,5.08-3.61,7.57-5.47.83-.62,1.66-1.26,2.49-1.88,3.29-2.52,6.52-5.13,9.7-7.79,1.58-1.33,3.16-2.69,4.71-4.05,1.55-1.37,3.1-2.77,4.62-4.17.76-.7,1.52-1.42,2.28-2.12,4.52-4.28,8.89-8.71,13.12-13.28,2.11-2.3,4.18-4.63,6.22-6.98,1.36-1.57,2.7-3.17,4.02-4.77,1.32-1.61,2.62-3.25,3.92-4.89,1.29-1.64,2.56-3.3,3.81-4.96,10-13.38,18.86-27.75,26.45-43.03,32.77-65.93,37.91-140.68,14.45-210.49-23.45-69.8-72.68-126.28-138.63-159.05Z"/>
                <g class="cls-18">
                  <path class="cls-39" d="m2275.07,2094.25c-.15-.6-.32-1.19-.49-1.79-72.32,24.98-365.42,125.92-566.58,190.12.54,1.31,1.1,2.64,1.67,3.99.49,1.16,1.01,2.33,1.54,3.51.62,1.38,1.24,2.78,1.9,4.17.94,2,1.9,4,2.91,6.02.06.14.14.29.22.42.31.65.63,1.28.98,1.92.9,1.81,1.85,3.6,2.84,5.42.47.88.94,1.75,1.43,2.61.49.91,1.01,1.83,1.54,2.75h.02c3.16,5.55,9.48,8.37,15.6,7.16.6-.12,1.2-.27,1.81-.47l7.21-2.44.03-.02,162.86-54.43,5.74-1.91,194.03-64.86v-.02s8.92-2.97,8.92-2.97l83.26-27.85,7.8-2.62.62-.19,14.08-4.74,21.54-7.22,14.08-4.74,12.8-4.32c8.25-2.76,7.91-20.78,3.1-41.72-.44-1.91-.91-3.84-1.43-5.8Z"/>
                </g>
              </g>
              <g class="cls-36">
                <path class="cls-3" d="m2827.28,1729.33c-13.64-10.31-28.34-19.41-43.98-27.19-14.59-7.25-29.62-13.15-44.93-17.69-97.21,97.4-249.15,248-342.71,340.62,1.13,3.92,2.35,7.84,3.66,11.73,7.29,21.71,17.08,42.13,29.09,60.96,17.41,27.27,39.47,51.18,65.38,70.78,99.71-99.89,276.54-275.57,387.19-385.41-15.25-20.31-33.28-38.4-53.69-53.81Z"/>
              </g>
            </g>
            <g>
              <g>
                <g>
                  <g>
                    <path d="m740.22,2269.11c-16.73-1.76-40.75-2.18-60.6,2.2-.51,8.14-.71,16.36-.29,24.74,46.83,7.03,93.68-9.37,138.17,4.68,45.67,14.05,92.51,19.91,139.35,10.54,14.05-2.33,24.59-4.68,25.76-18.73.3-2.33-.22-5.69-1.26-9.52-77.03,20.76-163.98-5.32-241.14-13.9Z"/>
                    <path class="cls-34" d="m890.11,2229.3c-28.1-10.54-77.29-43.32-81.97-76.12l-118.27,21.08c-7.03,12.88-4.69,37.48-5.86,53.87-1.5,14.29-3.47,28.57-4.39,43.17,19.85-4.38,43.86-3.95,60.6-2.2,77.16,8.58,164.11,34.66,241.14,13.9-3.12-11.53-11.03-27.35-16.31-32.63-16.39-17.56-52.69-11.71-74.94-21.08Z"/>
                  </g>
                  <g>
                    <g>
                      <path d="m514.21,2289.85c-.16,2.76-.36,5.51-.55,8.28.31-2.54.51-5.25.55-8.28Z"/>
                      <path d="m514.26,2289.01c18.71-1.16,31.58,0,37.43-17.56.55-2,.98-4.19,1.38-6.42-12.38,4.72-26.03,6.42-38.85,6.42.5,6.01.36,11.8.04,17.56Z"/>
                      <path d="m514.21,2289.85c.02-.28.03-.56.05-.84-.01,0-.02,0-.04,0,0,.29-.01.55-.01.83Z"/>
                    </g>
                    <g>
                      <path class="cls-34" d="m554.03,2178.95l-66.75-43.34c-9.37,3.51-21.08,1.18-29.27,5.86-10.54,5.86-17.57,22.24-22.25,32.78-12.88,24.59-18.74,57.39-45.67,65.58-28.39,7.95-40.23,17.07-44.13,47.52,51.83,21.78,112.45,30.75,167.19,13.79.18-.99.37-1.95.5-3.02.6-8.82,1.32-17.5.56-26.68,12.82,0,26.46-1.7,38.85-6.42,2.14-12.2,2.32-27.38,3.31-39.25,1.17-12.88,8.19-37.48-2.35-46.83Z"/>
                      <path d="m345.97,2287.36c-.12.95-.26,1.84-.36,2.83-2.35,31.62,12.88,29.28,40.98,33.96,24.59,3.51,55.03,5.86,79.62,3.51,25.39-2.03,42.76-3.32,46.95-26.51-54.75,16.96-115.37,7.99-167.19-13.79Z"/>
                    </g>
                  </g>
                  <path class="cls-28" d="m864.93,1068.88c-38.64,0-49.32-15.05-87.95-18.57-40.4-3.51-49.54-196.56-89.94-196.56-75.05,0-227.03,231.67-304.93,237.04-2.32.16-4.57.12-6.76-.13-3.51,47.43-4.82,138.66-1.3,186.07,1.75,40.4,36.93,565.56,36.93,653.39,0,42.16-6.81,94.25-1.55,136.4,1.76,15.82,12.29,36.89,12.29,52.7,0,19.32-10.53,29.86-7.03,52.69,1.76,10.54,1.76,21.08,8.79,31.61,22.83-45.66,107.95-43.54,136.06-3.14,0-17.57,1.53-37.26,1.53-53.07,0-24.58,13.47-29.86,18.74-54.45,5.27-15.81-3.51-36.89-1.75-54.44,0-19.33,1.75-38.65,5.27-57.97,12.3-82.55,26.48-672.88,44.8-664.26,7.58,70.36,7.89,255,11.41,341.06,5.28,82.56,7.03,165.11,10.54,247.66,1.76,57.97,7.03,112.42,15.81,168.63,1.75,14.05,0,24.59,0,36.89,0,5.28-3.51,12.3-3.51,19.32,0,5.28,10.54,10.54,10.54,17.57,0,12.3-10.54,22.83-8.79,38.65,1.76,14.04,10.54,24.58,19.32,35.12,2.32,1.03,16.3-8.34,18.35-9.37,23.13-11.67,46.51-22.75,70.82-31.96,4.34-1.64,8.77-3.04,13.2-4.38,4.86-1.48,10.23-3.19,15.2-3.36,3-.11,15.24,4.58,15.93,3.4,16.98-29.27,7.02-42.16-3.51-59.72,35.12-24.59,1.75-61.48,1.75-98.37,0-43.91,3.51-87.83,7.03-131.74,8.78-93.09,5.27-187.94,10.54-281.04,5.27-75.52,39.04-354.35,38.07-426.89-.26-18.92-3.32-93.18-5.87-108.8Z"/>
                </g>
                <g>
                  <g>
                    <path class="cls-4" d="m792.91,2134.35s0,0,0,0c0,0,0,0,0,0h0Z"/>
                    <path class="cls-4" d="m792.92,2134.36s0,0,0,0c-.02,0,.02,0,0,0Z"/>
                    <path class="cls-4" d="m798.97,2130.87c-.49-.85-1.08-1.61-1.67-2.15-.6-.63-1.2-1.03-1.81-1.5-.6-.38-1.21-.79-1.82-1.1-2.43-1.27-4.85-2.05-7.26-2.7-2.41-.64-4.82-1.05-7.23-1.38-4.81-.62-9.64-.8-14.37-.65-4.69.1-9.38.35-14.07.78-9.37.82-18.74,2.33-27.78,5.16-4.49,1.48-8.93,3.24-13.02,5.63-4.09,2.36-7.87,5.37-10.7,9.09,1.7-1.59,3.54-3,5.5-4.2,1.94-1.22,3.97-2.28,6.08-3.16,4.2-1.79,8.58-3.09,13.04-4.04,4.45-.98,8.97-1.66,13.52-2.11,4.55-.45,9.11-.78,13.69-.91,4.58-.13,9.17-.13,13.76-.06,4.55.08,9.01.35,13.4,1.05,2.18.37,4.35.76,6.41,1.36,2.06.58,4.06,1.3,5.73,2.22.42.22.78.47,1.16.7.3.25.68.49.86.72.27.23.37.44.47.57,0,.05.05.1.06.12,0,0,0,0,0,0h0s0,0,0,0c0,0,0,0,0,0,0,0,0,0,0,0,.01,0-.02,0,0,0,0,0,0,0,0,0-.03.02,0,.03-.03.09-.06.07-.1.14-.13.23-.08.1-.2.21-.28.32-.07.11-.23.24-.37.36-.15.12-.27.26-.44.38-.38.24-.69.51-1.12.75-1.62.99-3.59,1.84-5.64,2.54-1,.38-2.08.66-3.13,1l-3.23.86c-2.18.53-4.36,1.01-6.59,1.42-2.26.36-4.49.76-6.77,1.1-9.09,1.42-18.34,2.5-27.57,4.28-9.22,1.77-18.51,4.21-27.05,8.43-8.49,4.28-16.11,10.24-21.86,17.57,6.9-6.27,14.76-11.19,23.24-14.43,1.03-.46,2.14-.75,3.21-1.14,1.08-.35,2.13-.77,3.23-1.05,2.2-.57,4.36-1.24,6.61-1.66,4.43-1.01,8.95-1.71,13.48-2.34,9.1-1.15,21.72-5.3,31.01-6.47,2.32-.26,1.29,2.73,3.62,2.4,2.35-.39,4.72-.86,7.05-1.39,2.34-.56,4.68-1.18,7.02-1.99,2.34-.79,4.68-1.73,7.04-3.15.59-.33,1.18-.8,1.76-1.2.29-.22.59-.5.87-.76.29-.26.58-.51.86-.86.28-.34.56-.65.82-1.02.26-.42.5-.85.73-1.29.21-.47.37-1.03.51-1.56.13-.54.13-1.16.14-1.74-.01-.58-.17-1.14-.3-1.7-.15-.54-.4-.98-.63-1.46Z"/>
                  </g>
                  <path class="cls-4" d="m522.27,2138.87c-4.65-1.95-9.41-3.64-14.23-5.12-9.66-2.92-19.61-5.06-29.8-5.93-5.09-.42-10.25-.53-15.43-.09-5.17.45-10.4,1.39-15.37,3.42-2.48,1.02-4.89,2.31-7.05,3.97-2.18,1.64-4.08,3.7-5.49,6.02-1.41,2.32-2.36,4.88-2.76,7.46-.41,2.58-.39,5.16,0,7.65.39-2.49.97-4.91,1.87-7.14.91-2.22,2.14-4.24,3.67-5.95,3.02-3.45,7.19-5.54,11.61-6.83,4.44-1.28,9.17-1.81,13.94-1.97,4.77-.16,9.6.03,14.44.46,9.68.83,19.37,2.42,29.05,4.29,4.84.94,9.68,1.96,14.52,3.05,4.85,1.09,9.68,2.22,14.54,3.55-2.11-1.38-4.35-2.57-6.6-3.7-2.25-1.14-4.56-2.16-6.88-3.14Z"/>
                  <g>
                    <path class="cls-4" d="m775.83,2042.91c-1.55-10.34-2.37-14.73-3.35-20.3-1.13-6.72-2.31-13.47-2.91-20.05-.16-1.66-.21-3.21-.22-4.8l.06-5.11c.05-3.41.05-6.82.17-10.22l.28-10.23.39-10.23c.49-13.64,1.22-27.29,1.96-40.94.65-13.66,1.53-27.33,2.07-41.02,1.25-27.36,1.9-54.84.48-82.23-1.51,27.38-3.69,54.61-5.96,81.89l-.86,10.23-.8,10.24-1.57,20.49c-.95,13.67-1.73,27.37-2.34,41.08l-.32,10.29-.2,10.3c-.09,3.43-.06,6.87-.09,10.31l-.02,5.15c.01,1.84.15,3.7.35,5.45.82,7.05,2.18,13.76,3.48,20.51l4,20.11c1.29,6.69,2.43,13.39,3.28,20.09.41,3.35.73,6.7.82,10.02.08,3.31-.05,6.64-.8,9.67-.73,2.86-2.8,5.34-5.38,7.25-2.59,1.92-5.68,3.27-8.85,4.38-6.38,2.19-13.18,3.31-19.89,4.65,6.82-.58,13.68-1.09,20.45-2.8,3.37-.85,6.73-2.06,9.81-4,.74-.53,1.55-.97,2.22-1.62l1.05-.91c.35-.31.63-.69.95-1.03.3-.36.64-.69.91-1.09l.79-1.22.39-.62c.12-.21.19-.44.29-.67.18-.45.39-.91.53-1.35,1.13-3.57,1.41-7.14,1.53-10.66.1-3.52-.04-7.01-.28-10.47-.47-6.93-1.45-13.77-2.45-20.57Z"/>
                    <path class="cls-4" d="m779.17,1401.21l-.6,12.78-.53,12.78,2.24,22.18-5.5,54.51-1.74,51.16c-.42,17.06-.92,34.12-1.1,51.19-.47,34.13-.37,68.3,1.09,102.42l4.37-102.26c.41-8.52.81-17.04,1.14-25.55l1.14-25.56,2.13-51.12,1.75-51.16c.42-17.06.92-34.12,1.1-51.19.47-34.13.36-68.3-1.1-102.42l-4.38,102.26Z"/>
                    <g>
                      <path class="cls-4" d="m481.63,2110.8c-.55-.06-1.1-.12-1.66-.17.02.52.03,1.05.05,1.57l1.61-1.4Z"/>
                      <path class="cls-4" d="m485.94,1889.62l-1.53,20.19c-.45,6.74-.96,13.47-1.37,20.21l-1.12,20.22-.98,20.23-.73,20.24-.59,20.24-.33,20.25c-.36,26.48-.14,52.96.68,79.43.55.05,1.11.11,1.66.17l-1.61,1.4c-.02-.52-.03-1.05-.05-1.57-5.4-.53-10.84-.71-16.25-.33-5.96.39-11.89,1.53-17.42,3.65,5.71-1.6,11.62-2.11,17.47-2.08,5.86.07,11.7.72,17.46,1.72l1.56.27,3.44-5.05,2.68-80.84-1.84-37.02,1.74-40.38,1.95-40.38,2.12-40.38c1.43-26.92,3.04-53.84,4.36-80.82-3.96,26.72-6.98,53.55-9.5,80.44l-1.79,20.17Z"/>
                    </g>
                    <path class="cls-4" d="m504.14,1293.81c-1.46,30.89-2.55,61.75-3.56,92.62l-.4,11.57-.33,11.58-.69,23.15-1.16,46.31-.78,46.33c-.12,15.45-.33,30.9-.26,46.35.02,30.9.46,61.81,1.91,92.7,1.45-30.89,2.54-61.75,3.55-92.62.28-7.72.54-15.43.74-23.15l.69-23.15,1.17-46.31.79-46.33c.11-15.45.33-30.9.26-46.35-.02-30.9-.46-61.82-1.92-92.7Z"/>
                  </g>
                  <path class="cls-4" d="m662.17,1024.66l-.27-14.57c-.04-2.43-.07-4.86-.06-7.28,0-2.43-.02-4.85.25-7.27-.67,2.35-.95,4.79-1.3,7.2-.31,2.42-.57,4.84-.82,7.27-.5,4.85-.85,9.71-1.23,14.56-.66,9.71-1.21,19.42-1.61,29.14-.88,19.42-1.31,38.85-1.65,58.26l-.45,29.09c-.08,4.83-.18,9.69-.4,14.44-.28,4.87-.46,9.64-.92,14.39-.44,4.75-1.16,9.46-2.12,14.11-.94,4.65-2.26,9.22-4.05,13.59-.88,2.19-1.93,4.3-3.1,6.34-1.21,2.02-2.61,3.9-4.16,5.68-1.59,1.73-3.4,3.27-5.39,4.58-2.01,1.29-4.23,2.23-6.56,2.98,2.41-.35,4.8-1.02,7.07-2.05,2.23-1.09,4.33-2.49,6.24-4.12,1.88-1.66,3.55-3.56,5.06-5.57,1.46-2.04,2.8-4.17,3.96-6.39,4.55-8.95,6.99-18.72,8.48-28.48.38-2.44.69-4.9.96-7.34l.7-7.29c.44-4.94.65-9.8.88-14.67.42-9.74.64-19.46.82-29.18.31-19.44.33-38.87.09-58.29-.08-9.71-.28-19.42-.42-29.13Z"/>
                  <path class="cls-4" d="m629.21,1072.65c-.2-26.72-.5-53.43-1.21-80.19-2.2,26.67-3.42,53.4-4.25,80.12-.47,13.36-.67,26.73-.97,40.09l-.47,40.09-.1,40.08.07,20.04.02,10.02.09,10.02c.18,26.72.45,53.43,1.12,80.19,2.25-26.67,3.51-53.39,4.36-80.12.49-13.36.69-26.73.99-40.09l.47-40.09.08-40.08-.08-20.04c0-6.68-.06-13.36-.13-20.04Z"/>
                  <path class="cls-4" d="m645.31,1300.53c-9.79,3.92-19.45,8.18-28.93,12.86-9.43,4.73-18.82,9.76-27.4,16.05,9.94-3.7,19.78-7.27,29.6-10.99,9.82-3.71,19.59-7.5,29.33-11.41,9.74-3.89,19.44-7.88,29.1-11.98,9.67-4.11,19.26-8.33,28.95-12.64-10.52,1.53-20.76,4.37-30.85,7.48-10.08,3.16-20.01,6.73-29.81,10.63Z"/>
                </g>
              </g>
              <g>
                <g>
                  <path class="cls-3" d="m706.25,393.57l-5.38-2.35-41.76-1.24h-69.09l-1.93.83-177.04,78.89,1.45,11.04c6.21,49.28,16.18,569.35,16.18,569.35,0,0,168.27-63.75,258.76-66.73,62.43-2.06,154.67,56.22,154.67,36.48,0-43.9,19.79-195.03,19.1-221.26-1.04-38.38,18.64-328.89,18.64-328.89l-173.59-76.13Z"/>
                  <path class="cls-25" d="m1047.19,706.87l-66.48-95.3-83.74-120.01c-19.09-27.4-48.14-39.08-73.68-32.75-9.71,2.4-18.95,7.42-26.94,15.21-29,28.16-31.11,82.13-4.75,119.9l114.3,163.77,31.45,45.12,4.47,6.41c3.46,5.02,7.28,9.48,11.4,13.38.25.35.59.6.95.93,1.17,1.15,2.38,2.21,3.64,3.27,24.04,20.09,55.12,22.72,78.4,5.27.77-.46,1.51-1.06,2.18-1.7,1.39-1.1,2.75-2.32,4.04-3.6,1.29-1.28,2.53-2.54,3.74-3.93.18-.18.34-.43.57-.62.76-.94,1.49-1.8,2.15-2.72.07-.15.16-.24.25-.34,3.69-4.81,6.71-10.07,9.13-15.72l.04-.08c6.14-14.16,8.45-30.59,6.81-47.07-1.61-17.24-7.57-34.62-17.94-49.42Z"/>
                  <path class="cls-23" d="m706.31,392.46l-.07,1.1-12.15,217.01s-30.46,351.73,8.41,498.15c1.79-.41,32.45,18.58,66.03-2.93,56.82-36.39,101.59-7.54,101.59-7.54,0,0-8.24-273.44-8.93-299.66-1.04-38.38,15.72-343.11,15.72-343.11l-170.61-63.02Z"/>
                  <path class="cls-23" d="m588.08,390.81l-1.31-2.69-173.98,75.84-.3,16.8c2.76,22.01-1.31,131.76-6.9,250.69-3.11,67.91-6.7,138.87-9.73,198.16-3.52,69.22-45.63,147.01-45.63,147.01,0,0,0,.02.02.06.73,1.73,17.76,41.35,64.18,57.6.69.24,1.4.48,2.11.72,75.68,25.01,223.63-2.58,243.18-7.17,61.63-226.6,34.38-517.25,34.38-517.25l-106.02-219.77Z"/>
                  <path class="cls-35" d="m405.59,731.44c-3.11,67.91-6.7,138.87-9.73,198.16-3.52,69.22-45.63,147.01-45.63,147.01,0,0,0,.02.02.06.73,1.73,17.76,41.35,64.18,57.6.69.24,1.4.48,2.11.72-8.29-103.68,67.18-267.26,97.11-292.9,39.07-33.55-28.82-174.3-28.82-174.3l-79.24,63.64Z"/>
                  <path class="cls-25" d="m1304.13,717.42c-71.66-3.51-265.06-1.68-265.06-1.67-41.79-3.41-78.45,16.68-84.61,58.75-6.42,43.81,21.94,73.21,65.75,79.63,10.74,1.58,21.3.92,31.21-1.59,27.45-4.99,180.92-39.8,252.71-53.39,1.28-33.09-1.59-52.49,0-81.73Z"/>
                  <path class="cls-10" d="m688.43,975.29c25.45-145.23,5.67-364.72,5.67-364.72l-5.67,364.72Z"/>
                  <path class="cls-3" d="m721.08,668.65c-13.22,0-13.24,20.54,0,20.54s13.24-20.54,0-20.54Z"/>
                  <path class="cls-3" d="m726.24,745.51c-13.22,0-13.24,20.54,0,20.54s13.24-20.54,0-20.54Z"/>
                  <path class="cls-35" d="m512.54,522.92l75.15,268.14,81.98-23.91s-17.08-54.65-40.99-123.82c-23.91-69.17-113.58-118.7-116.14-120.41Z"/>
                </g>
                <g>
                  <path class="cls-25" d="m604.43,285.31l-17.66,102.81s13.27,13.24,19.85,19.89c27.73,27.97,65.57,42.22,83.92,29.64,9.74-6.68,15.71-44.54,15.71-44.54l-2.46-103.93-99.37-3.86Z"/>
                  <path class="cls-2" d="m633.29,344.83s13.06,24.4,72.16,27.56v-13.51s-53.48,1.58-72.16-14.04Z"/>
                  <g>
                    <path d="m682.59,87.85c-72.33-8.68-111.13,75.62-111.13,75.62,0,0-11.3-2.48-27.12,11.16-10.95,9.44-5.35,37.35-.87,53.63,2.08,7.57,12.85,33.75,24.68,39.85l7.03,2.53c1.94-1.78,29.46-4.8,34.21,13.29.92,3.49,86.59-84.86,97.89-85.47l15.61,63.36c33.52-27.92,20.76-67.61,15.22-80.73,14.6-22.49,14.24-84.87-55.53-93.25Z"/>
                    <g>
                      <g>
                        <g class="cls-32">
                          <path class="cls-40" d="m722.82,130.84c-34.39,11.52-81.41-9.26-81.41-9.26,4.61,6.86,26.29,18.12,26.29,18.12l-12.31,4.75c46.29,26.66,64.58,11.62,64.58,11.62-15.69,2.8-31.65-9-31.65-9,26.6-1.32,34.5-16.23,34.5-16.23Z"/>
                        </g>
                        <path class="cls-25" d="m723.7,195.4c-2.16-6.35-3.57-10.05-3.57-10.05,0,0-40.69,23.31-103.99,8.89l13.35,28.52c.19.39.37.81.55,1.27.49,1.25.91,2.51,1.27,3.78.12.41.23.82.33,1.24h0c.1.42.2.84.29,1.24.09.4.2.78.26,1.17.22,1.08.39,2.19.52,3.27,0,.1.02.2.03.29.14,1.18.23,2.38.26,3.56.4,11.48-3.71,22.65-11.04,31.24-3.51,4.14-7.76,7.67-12.61,10.38-.02.02-.06.03-.1.06.01-.14.01-.29,0-.43.04-4.26-.92-8.32-2.66-11.88-3.17-6.51-8.98-11.32-16.22-12.52-12.55-2.09-24.59,7.42-26.9,21.26-2.3,13.84,6,26.75,18.54,28.84.7.12,1.4.19,2.1.23,0,0,15.7,6.05,30.29-7.65,11.11-10.44,46.99,33.77,61.84,61.8,18.58,6.95,39.55,7.98,55.15-10.62,12.85-15.35,15.96-41.08,13.29-67.83-3.36-33.88-15.3-69.28-20.99-86.05Z"/>
                        <path class="cls-2" d="m580.02,269.46c-.89,1.06-.76,2.64.3,3.53l10.74,9.07-8.48-1.41c-1.36-.23-2.65.69-2.88,2.06s.69,2.65,2.06,2.88l26.46,4.41-24.68-20.83c-1.06-.89-2.64-.76-3.53.3Z"/>
                        <path class="cls-2" d="m712.32,222.99c.4-1.32-.34-2.72-1.66-3.12-1.32-.4-2.72.34-3.13,1.66-.17.56-4.14,13.95,5.56,25.63,4.33,5.21,13.34,16.06,10.91,21.38-1.06,2.31-5.05,5.1-18.07,5.33-1.38.02-2.48,1.16-2.46,2.55.02,1.37,1.14,2.46,2.5,2.46h.05c12.9-.23,20.06-2.85,22.54-8.25,3.46-7.55-4.18-17.72-11.61-26.66-7.92-9.53-4.77-20.47-4.63-20.97Z"/>
                        <path d="m720.4,229.21c-2.13.57-3.25,3.26-2.52,6.02.74,2.76,3.06,4.53,5.18,3.96,2.13-.57,3.25-3.26,2.52-6.02-.74-2.76-3.06-4.53-5.18-3.96Z"/>
                        <path d="m687.9,234.91c-2.13.57-3.25,3.26-2.52,6.02.74,2.76,3.06,4.53,5.18,3.96,2.13-.57,3.25-3.26,2.52-6.02-.74-2.76-3.06-4.53-5.18-3.96Z"/>
                        <path d="m695.81,216.38c-6.02-2.69-19.41-4.3-27.02,8.8-.99,1.71-.41,3.91,1.3,4.9.57.33,1.19.49,1.8.49,1.24,0,2.44-.64,3.11-1.79,6.13-10.57,16.7-6.37,17.9-5.85,1.81.8,3.92-.02,4.72-1.82.81-1.81,0-3.93-1.81-4.74Z"/>
                        <path d="m729.14,207.18c-12.41-1.85-16.98,6.24-17.17,6.59-.95,1.74-.33,3.95,1.41,4.9.55.3,1.15.45,1.74.45,1.25,0,2.46-.66,3.11-1.84.25-.42,2.69-4.06,9.85-2.99,1.96.29,3.79-1.06,4.08-3.02.29-1.96-1.06-3.79-3.02-4.08Z"/>
                      </g>
                      <path class="cls-2" d="m663.12,256.79c-9.64,0-17.46,3.62-17.47,8.1,0,4.48,7.81,8.13,17.45,8.14,9.64,0,17.46-3.62,17.47-8.1,0-4.48-7.81-8.13-17.45-8.14Z"/>
                      <path d="m744.54,279.24c-.22.85-.54,1.52-.94,2.04-1.52,2-4.11,1.85-6.1,1.82-13.53-.17-23.53-2.52-33.74.75-19.62,6.29-26.23,13.65-36.73,19.54-2.98,1.68-10.56,6.89-25.66-.72-11.83-5.97-17.44-21.09-19.72-33.69-3.51,4.13-7.45,8.52-12.3,11.22,5.45,21.45,16.84,51.15,44.36,70.39,6.48,4.53,12.88,7.97,19.03,10.55.31.13.62.26.93.39,45.21,18.39,91.33-24.85,75.63-71.06-2.36-6.94-4.78-11.22-4.78-11.22Z"/>
                      <path class="cls-3" d="m708.11,322.24c13.41-1.21,14.67-15.72,14.67-15.72l-28.78.18s.7,16.75,14.12,15.54Z"/>
                    </g>
                  </g>
                </g>
                <path class="cls-23" d="m876.92,455.48c-13.21,33.47-19.83,71.48-22.59,108.36-6.54,86.92,8.25,167.56,8.25,167.56,0,0,53.14,61.53,53.14,67.58,0,2.6,21.78-23.08,46.57-53.17,32.76-39.74,70.79-87.18,70.79-87.18-111.31-188.74-156.16-203.14-156.16-203.14Z"/>
                <path class="cls-35" d="m885.93,681.05c-8.56-22.64-22.62-79.39-31.6-117.21-6.54,86.92,8.25,167.56,8.25,167.56,0,0,53.14,61.53,53.14,67.58,0,2.6,21.78-23.08,46.57-53.17-21.4-11.46-66.28-38.11-76.36-64.75Z"/>
              </g>
              <g>
                <g>
                  <path class="cls-16" d="m585.57,142.76c-17.25,30.1-16.08,55.92-15.65,70.39.43,14.47,26.42.75,26.42.75,0,0-2.32-74.18,36.57-97.85,0,0-30.1-3.38-47.35,26.72Z"/>
                  <path class="cls-16" d="m584.48,211.06c-30.55,0-41.98,23.47-41.98,41.05,0,15.78,5.06,41.05,41.98,41.05,18.46,0,30.96-18.38,30.96-41.05s-12.5-41.05-30.96-41.05Z"/>
                  <path class="cls-34" d="m571.28,215.66c-16.39,0-28.77,16.32-28.77,36.45s12.38,36.44,28.77,36.44,29.68-16.32,29.68-36.44-13.29-36.45-29.68-36.45Z"/>
                  <path class="cls-27" d="m567.36,227.31c-11.15,0-20.19,11.1-20.19,24.8s9.04,24.8,20.19,24.8,20.19-11.1,20.19-24.8-9.04-24.8-20.19-24.8Z"/>
                </g>
                <g>
                  <path class="cls-16" d="m693.66,306.76c-33.96,1.46-68.91-7.03-98.41-23.9-1.79-1.02-4.07-.4-5.09,1.39-1.02,1.79-.4,4.07,1.39,5.09,30.71,17.56,67.09,26.4,102.43,24.88.35-.01.69-.08,1-.18,1.55-.51,2.64-2,2.57-3.71-.09-2.06-1.83-3.66-3.89-3.57Z"/>
                  <path class="cls-26" d="m691.43,300.89h.35c2.21,0,4,1.79,4,4v11.87c0,2.21-1.79,4-4,4h-.35c-2.21,0-4.01-1.8-4.01-4.01v-11.86c0-2.21,1.79-4,4-4Z" transform="translate(375.1 999.85) rotate(-89.53)"/>
                </g>
              </g>
              <g>
                <g>
                  <path class="cls-20" d="m1367.78,474.57c-103.78-58.16-235.14-21.17-293.33,82.66-23.71,42.31-31.61,89.17-25.64,133.79,7.79,60.28,3.22,65.01-16.46,97.52-.75,1.29-1.56,2.59-2.31,3.93-16.59,29.6-20.66,62.8-13.98,93.5l174.4,97.74c29.05-10.15,54.75-30.23,71.36-58.86,19.19-32.91,21.17-39.14,78.39-61.32,45.15-17.51,84.7-50.13,110.18-95.59,58.19-103.84,21.2-235.18-82.61-293.36Z"/>
                  <path class="cls-38" d="m1315.35,456.62c-106.9-26.92-213.2,29.17-237.46,125.27-13.88,55.2-5.84,94.92,16.82,145.16,8.84,19.49-15.1,30.8-25.9,50.08-26.22,46.94-5.15,108.72,47.11,137.91,52.26,29.2,115.9,14.85,142.17-32.15,12.48-22.36,9.77-42.78,34.73-44.82,73.64-6.01,150.87-73.73,172.27-158.58,24.27-96.16-42.77-195.94-149.73-222.88Z"/>
                  <g class="cls-7">
                    <path class="cls-3" d="m1401.34,568.86c9.82-36.77-27.79-77.59-83.62-92.36-55.84-14.7-108.71,2.24-118.15,37.85-9.41,35.63,28.22,76.51,84.06,91.24,39.04,10.3,76.58,5.05,98.88-11.12-1.18,8.26-.55,17.85,2.39,27.58,7.42,24.51,26.09,40.56,41.74,35.84,15.65-4.71,22.33-28.46,14.93-52.97-7.17-23.73-24.88-39.35-40.23-36.07Z"/>
                  </g>
                </g>
                <g>
                  <path class="cls-33" d="m1239.96,643.34c-21.44-14.52-48.46-14.41-68.83.28-22.3,16.08-33.6,47.13-28.13,77.27,4,22,17.59,45.36,37.68,65.07l-76.44,137.98c-2.73,4.92-.95,11.12,3.97,13.85,1.56.87,3.26,1.28,4.93,1.28,3.58,0,7.06-1.9,8.92-5.25l84.24-152.06-6.09-5.42c-20.03-17.82-33.58-39.36-37.16-59.09-4.1-22.58,3.94-45.52,20-57.1,16.21-11.69,34.13-7.63,45.49.07,11.11,7.53,21.3,22.35,16.55,41.4-2.11,8.48-8.44,17.85-13.53,20.05-1.28.55-2.1.52-3.26-.13-4.91-2.75-11.12-1-13.87,3.91-2.75,4.91-1,11.12,3.91,13.87,6.67,3.74,14.23,4.11,21.3,1.06,12.92-5.58,22.13-21.45,25.22-33.83,6.01-24.09-3.76-48.9-24.89-63.2Z"/>
                  <path class="cls-33" d="m1289.08,670.87c-23.23-10.55-49.49-5.94-66.9,11.76-3.24,3.3-19.3,20.65-16.77,38.47,1.11,7.8,5.58,14.09,12.91,18.2,4.91,2.75,11.12,1,13.87-3.91,2.75-4.91,1-11.12-3.91-13.87-2.24-1.26-2.57-2.36-2.7-3.3-.69-4.82,4.3-14.38,11.12-21.31,13.77-13.99,31.73-13.05,43.95-7.5,12.5,5.68,25.31,18.84,23.8,38.77-1.49,19.74-16.87,38.58-38.27,46.86-18.7,7.24-44.14,6.93-69.8-.86-5.38-1.63-11.07,1.41-12.71,6.79-1.63,5.38,1.41,11.07,6.79,12.71,15.17,4.6,30.43,6.91,44.77,6.91s27.03-2.18,38.3-6.55c28.57-11.06,49.15-36.91,51.23-64.33,1.89-25.04-12.12-48.14-35.69-58.86Z"/>
                </g>
                <g>
                  <path class="cls-33" d="m1153.21,1041.38l-156.52-89.07c-11.25-6.4-25.22-3.25-31.06,7-5.83,10.25-1.4,23.88,9.84,30.28l156.53,89.07c11.25,6.4,25.23,3.25,31.06-7,5.83-10.25,1.4-23.87-9.85-30.28Z"/>
                  <g class="cls-22">
                    <path class="cls-39" d="m965.63,959.31c-5.83,10.25-1.4,23.88,9.84,30.28l59.13,33.65c-4.7-7.78-5.4-17.33-.92-25.2,4.48-7.87,13.05-12.14,22.14-12.08l-59.13-33.65c-11.25-6.4-25.22-3.25-31.06,7Z"/>
                  </g>
                  <g class="cls-22">
                    <path class="cls-39" d="m1153.22,1041.38l-156.55-89.08c-8.03-4.57-17.45-4.25-24.29.03l193.22,109.95c.08-2.4-.29-4.87-1.05-7.21-1.82-5.49-5.73-10.5-11.33-13.69Z"/>
                  </g>
                  <path class="cls-33" d="m1172.5,1007.5l-156.55-89.08c-8.03-4.57-17.45-4.25-24.29.03-2.75,1.71-5.1,4.05-6.76,6.97-2.9,5.1-3.24,11.08-1.49,16.58,1.78,5.46,5.69,10.48,11.33,13.69l156.55,89.08c11.24,6.39,25.22,3.24,31.05-7,1.66-2.92,2.47-6.13,2.54-9.37.08-2.4-.29-4.86-1.05-7.21-1.82-5.49-5.73-10.5-11.33-13.69Z"/>
                  <g class="cls-8">
                    <path class="cls-6" d="m984.92,925.42c-5.83,10.25-1.4,23.88,9.84,30.28l59.13,33.65c-4.7-7.78-5.4-17.33-.92-25.2,4.48-7.87,13.05-12.14,22.14-12.08l-59.13-33.65c-11.25-6.4-25.22-3.25-31.06,7Z"/>
                  </g>
                  <g class="cls-22">
                    <path class="cls-39" d="m1172.5,1007.5l-156.55-89.08c-8.03-4.57-17.45-4.25-24.29.03l193.22,109.95c.08-2.4-.29-4.86-1.05-7.21-1.82-5.49-5.73-10.5-11.33-13.69Z"/>
                  </g>
                  <path class="cls-33" d="m1191.83,978.12l-156.52-89.07c-11.25-6.4-25.22-3.25-31.06,7-5.83,10.25-1.4,23.88,9.84,30.28l156.52,89.07c11.25,6.4,25.23,3.25,31.06-7,5.83-10.25,1.4-23.87-9.85-30.28Z"/>
                  <g class="cls-22">
                    <path class="cls-39" d="m1004.2,891.53c-5.83,10.25-1.4,23.88,9.84,30.28l59.13,33.65c-4.7-7.78-5.4-17.33-.92-25.2h0c4.48-7.87,13.05-12.14,22.14-12.08l-59.13-33.65c-11.25-6.4-25.22-3.25-31.06,7Z"/>
                  </g>
                </g>
              </g>
              <g>
                <path class="cls-25" d="m636.04,792.66l-46.76-92.72s-107.1,10.79-163.57,38.19l59.66,108.55,32.51,59.16s44,50.11,106.27,57.02c28.68,3.19,214.8-7.4,271.79-6.67,6.85-31.58.61-56.2,6.41-81.76-66.08-25.84-251.84-53.07-251.84-53.07l-14.47-28.7Z"/>
                <path class="cls-2" d="m425.71,738.13l59.66,108.55c40.56-14.42,113.82-40.52,150.67-54.01l-46.76-92.72s-107.1,10.79-163.57,38.19Z"/>
                <g>
                  <path class="cls-25" d="m1006.77,878.79l-.19-4.39,21.42-10.3,18.86-1.08c15.87-1.32,16.93-15.44,16.93-15.44l-30.04-7.83c-3.27-.85-6.72-.81-9.97.12l-38.84,11.11-71.26,20.93-11.33,2.52-40.77,71.91s80.69,22.39,86.43,24.96c5.73,2.56,63.38,20.67,74.99,22.04,11.62,1.37,21.27-6.55,21.27-6.55,20.69,1.6,16.47-16.34,16.47-16.34,17.37-2.94,17.74-15.77,17.74-15.77,0,0,4.18,2.63,7.29,2.49,3.12-.14,11.7-3.95,9.1-13.52-2.6-9.57-88.1-64.87-88.1-64.87Z"/>
                  <path class="cls-2" d="m1055.98,942.99c-13.42-7.22-24.48-13-24.94-12.16-.38.7,9.89,7.66,23.47,14.96,13.66,7.25,25.76,10.76,26.02,9.98.32-.87-11.11-5.65-24.55-12.78Z"/>
                  <path class="cls-2" d="m1054.75,966.81c-3.9-1.79-9.47-3.76-15.48-6.01-5.98-2.21-11.22-4.84-15.33-6.23-4.04-1.49-6.83-1.78-6.91-1.31-.07.41,2.28,1.38,6.02,3.37,3.75,1.86,8.89,4.83,15.09,7.13,6.14,2.31,11.77,3.92,15.82,5.15,4.06,1.2,6.58,1.94,6.77,1.53.18-.39-2.07-1.87-5.99-3.63Z"/>
                  <path class="cls-2" d="m1021.09,976.47c-7.01-2.62-13.96-4.66-19.21-4.2-5.28.32-7.96,2.56-7.74,2.81.22.49,3.03-.86,7.76-.58,4.75.13,11.05,2.3,18.13,4.94,14.2,5.1,25.96,8.57,26.26,7.74.3-.82-10.98-5.62-25.19-10.72Z"/>
                </g>
                <path class="cls-23" d="m412.79,463.95s-66.98,23.44-60.79,95.06c6.19,71.62,55.7,252.88,55.7,252.88l219.28-63.66s-37.58-131.67-59.24-171.54c-62.54-115.11-154.96-112.74-154.96-112.74Z"/>
              </g>
            </g>
            <path class="cls-25" d="m1481.44,642.86c-14.91,4.77-38.47,9.1-51.78,16.78-12.4,7.15-13.44,18.37-8.72,22.19-23.53,8.44-25.56,27.14-19.52,31.54,4.26,1.75,12.92-.45,16.66-1.65-18.03,8.89-15.42,29.64-7.32,30.78,3.79.53,20.65-1.44,25.35-2.66-.5.31-12.19,5.18-16.16,10.54-8.37,11.33-.9,15.88,9.91,15.96,20.8.17,36.48-7.46,36.48-7.46,13.13-9.49,19.37-77.73,19.6-86.5,9.64-11.62,2.48-31.76-4.5-29.53Z"/>
            <g>
              <g>
                <rect class="cls-27" x="841.89" y="220.65" width="201.96" height="130.79" rx="25.8" ry="25.8"/>
                <polygon class="cls-27" points="902.04 392.38 954.97 340.71 902.04 338.8 902.04 392.38"/>
              </g>
              <g>
                <circle class="cls-3" cx="990.76" cy="282.53" r="11.36"/>
                <circle class="cls-3" cx="942.87" cy="282.53" r="11.36" transform="translate(-39.69 224.18) rotate(-13.28)"/>
                <path class="cls-3" d="m894.98,271.17c-6.27,0-11.36,5.09-11.36,11.36s5.09,11.36,11.36,11.36,11.36-5.09,11.36-11.36-5.09-11.36-11.36-11.36Z"/>
              </g>
            </g>
            <g>
              <path class="cls-33" d="m1131.18,354.09c-2.84-4.38-8.85-5.7-13.43-2.95-4.58,2.75-5.98,8.52-3.14,12.9l39.51,60.88c2.51,3.87,7.49,5.35,11.78,3.74.56-.21,1.12-.48,1.65-.79,4.58-2.75,5.98-8.52,3.14-12.9l-39.51-60.88Z"/>
              <path class="cls-33" d="m1440.91,363.13c-4.31-3.08-10.42-2.21-13.65,1.94l-44.95,57.75c-3.23,4.15-2.36,10.01,1.95,13.09,2.79,1.99,6.33,2.33,9.36,1.2,1.65-.62,3.15-1.67,4.29-3.14l44.95-57.75c3.23-4.15,2.36-10.01-1.95-13.09Z"/>
              <path class="cls-33" d="m1284.99,324.75c-5.38-.2-9.93,3.82-10.17,8.99l-3.16,68.82c-.24,5.16,3.93,9.51,9.31,9.71,1.38.05,2.71-.18,3.93-.63,3.51-1.31,6.07-4.52,6.24-8.35l3.16-68.82c.24-5.16-3.93-9.51-9.31-9.71Z"/>
            </g>
            <g>
              <path class="cls-13" d="m2123.7,1717.68h-929.72c-43.44,0-78.65,35.21-78.65,78.65s35.21,78.65,78.65,78.65h929.72c43.44,0,78.65-35.21,78.65-78.65s-35.21-78.65-78.65-78.65Z"/>
              <path class="cls-16" d="m1852.58,1736.37h-658.15c-33.11,0-59.95,26.84-59.95,59.95s26.84,59.95,59.95,59.95h658.15c33.11,0,59.95-26.84,59.95-59.95s-26.84-59.95-59.95-59.95Z"/>
              <g class="cls-14">
                <polygon class="cls-3" points="1211.77 1856.28 1293.12 1856.28 1366.1 1736.37 1286.27 1736.37 1211.77 1856.28"/>
              </g>
              <g class="cls-14">
                <polygon class="cls-3" points="1371.83 1856.28 1453.18 1856.28 1526.16 1736.37 1446.33 1736.37 1371.83 1856.28"/>
              </g>
              <g class="cls-14">
                <polygon class="cls-3" points="1543.65 1856.28 1625 1856.28 1697.98 1736.37 1618.15 1736.37 1543.65 1856.28"/>
              </g>
              <g class="cls-14">
                <polygon class="cls-3" points="1715.07 1856.28 1796.41 1856.28 1869.4 1736.37 1789.57 1736.37 1715.07 1856.28"/>
              </g>
              <g>
                <path class="cls-26" d="m1519.01,1652.68h-17.67v40.82h9.45v-11.25h8.22c10.9,0,17.73-5.66,17.73-14.75s-6.82-14.81-17.73-14.81Zm-.53,21.87h-7.69v-14.17h7.69c5.78,0,8.69,2.62,8.69,7.12s-2.91,7.05-8.69,7.05Z"/>
                <path class="cls-26" d="m1578.83,1667.49c0-9.15-6.82-14.81-17.73-14.81h-17.67v40.82h9.45v-11.37h8.69l7.87,11.37h10.15l-9.16-13.12c5.31-2.27,8.4-6.76,8.4-12.89Zm-18.25,7.11h-7.69v-14.23h7.69c5.78,0,8.69,2.62,8.69,7.12s-2.91,7.11-8.69,7.11Z"/>
                <path class="cls-26" d="m1606.05,1651.98c-12.88,0-22.33,8.98-22.33,21.11s9.45,21.11,22.33,21.11,22.33-8.92,22.33-21.11-9.5-21.11-22.33-21.11Zm0,34.17c-7.29,0-12.77-5.31-12.77-13.06s5.48-13.06,12.77-13.06,12.77,5.3,12.77,13.06-5.48,13.06-12.77,13.06Z"/>
                <path class="cls-26" d="m1655.55,1660.03c4.08,0,7.52,1.63,10.26,4.78l6.06-5.6c-3.85-4.66-9.74-7.23-16.8-7.23-12.71,0-22.16,8.81-22.16,21.11s9.45,21.11,22.1,21.11c7.12,0,13.01-2.57,16.85-7.29l-6.06-5.6c-2.74,3.21-6.18,4.84-10.26,4.84-7.64,0-13.06-5.37-13.06-13.06s5.42-13.06,13.06-13.06Z"/>
                <polygon class="cls-26" points="1687.61 1676.47 1706.56 1676.47 1706.56 1669.12 1687.61 1669.12 1687.61 1660.26 1709.06 1660.26 1709.06 1652.68 1678.22 1652.68 1678.22 1693.5 1709.83 1693.5 1709.83 1685.92 1687.61 1685.92 1687.61 1676.47"/>
                <path class="cls-26" d="m1724.33,1664.22c0-2.57,2.16-4.66,7.76-4.66,3.62,0,7.52,1.05,11.31,3.21l2.92-7.17c-3.79-2.39-9.04-3.62-14.17-3.62-11.6,0-17.2,5.77-17.2,12.71,0,15.16,23.73,9.91,23.73,17.55,0,2.51-2.27,4.37-7.87,4.37-4.9,0-10.03-1.75-13.47-4.26l-3.2,7.11c3.61,2.8,10.15,4.72,16.62,4.72,11.66,0,17.32-5.83,17.32-12.65,0-14.99-23.73-9.8-23.73-17.32Z"/>
                <path class="cls-26" d="m1761.53,1664.22c0-2.57,2.16-4.66,7.76-4.66,3.61,0,7.52,1.05,11.31,3.21l2.92-7.17c-3.79-2.39-9.04-3.62-14.17-3.62-11.6,0-17.2,5.77-17.2,12.71,0,15.16,23.73,9.91,23.73,17.55,0,2.51-2.27,4.37-7.87,4.37-4.9,0-10.03-1.75-13.47-4.26l-3.21,7.11c3.61,2.8,10.15,4.72,16.62,4.72,11.66,0,17.32-5.83,17.32-12.65,0-14.99-23.73-9.8-23.73-17.32Z"/>
              </g>
            </g>
            <g>
              <path class="cls-3" d="m2681.58,333.45c-29.13-13.86-60.31-20.89-92.66-20.89-55.28,0-107.86,20.6-148.07,58.01-2.03,1.89-2.19,4.16-2.11,5.35.08,1.18.56,3.4,2.83,4.99,1.39.97,2.8,1.18,3.74,1.18,1.71,0,3.36-.65,4.63-1.84,37.75-35.1,87.08-54.42,138.92-54.42,30.29,0,59.48,6.56,86.78,19.5.95.45,1.96.68,2.99.68,2.21,0,4.19-1.02,5.43-2.8l.03-.04c1.52-2.2,1.25-4.39.95-5.51-.29-1.09-1.12-3.09-3.46-4.2Z"/>
              <path class="cls-3" d="m2634.75,399.04c-14.76-5.24-30.22-7.89-45.95-7.89-28.69,0-57.31,9.13-80.58,25.71-2.3,1.64-2.64,3.97-2.63,5.21,0,1.05.3,3.7,2.87,5.5l.03.02c1.35.93,2.73,1.13,3.65,1.13,1.49,0,2.95-.48,4.23-1.38,21.23-14.99,46.24-22.92,72.32-22.92,14.37,0,28.49,2.45,41.96,7.28.63.23,1.3.34,1.97.34,2.09,0,4.16-1.11,5.42-2.92,1.63-2.33,1.25-4.63.87-5.79-.38-1.19-1.43-3.32-4.18-4.29Z"/>
            </g>
            <g>
              <path class="cls-3" d="m1575.83,1214.63c-1.86-1.91-4.07-2.08-5.22-2.01-1.13.07-3.25.5-4.79,2.58-19.27,25.87-32.24,55.08-38.54,86.82-10.77,54.22-.8,109.81,28.06,156.54,1.46,2.36,3.66,2.96,4.84,3.11,1.18.15,3.45.11,5.44-1.81,1.23-1.18,1.7-2.52,1.88-3.44.33-1.68.01-3.42-.9-4.9-27.07-43.86-36.42-96.02-26.33-146.86,5.9-29.71,18.02-57.07,36.03-81.32.63-.85,1.05-1.79,1.25-2.8.43-2.17-.18-4.31-1.69-5.87l-.04-.04Z"/>
              <path class="cls-3" d="m1626.06,1270.64c-1.24.14-3.53.75-5.03,3.26-8.01,13.46-13.62,28.1-16.69,43.53-5.59,28.14-2.21,57.99,9.52,84.04,1.16,2.58,3.38,3.36,4.6,3.6,1.03.2,3.69.43,5.95-1.75l.03-.03c1.18-1.14,1.64-2.46,1.82-3.36.29-1.46.11-2.99-.53-4.42-10.57-23.75-13.47-49.82-8.39-75.4,2.8-14.09,7.95-27.46,15.31-39.74.35-.58.59-1.21.72-1.87.41-2.05-.28-4.29-1.81-5.88-1.97-2.05-4.3-2.12-5.51-1.99Z"/>
            </g>
          </g>
          <g>
            <path class="cls-38" d="m3073.99,283.94h244.26c15.55,0,28.17,12.62,28.17,28.17v198.28c0,15.55-12.62,28.17-28.17,28.17h-244.26c-15.55,0-28.17-12.62-28.17-28.17v-198.28c0-15.55,12.62-28.17,28.17-28.17Z"/>
            <polygon class="cls-38" points="3201.44 610.13 3240.28 538.56 3160.33 538.56 3201.44 610.13"/>
          </g>
          <polygon class="cls-3" points="3163.44 416.39 3141.52 370.44 3102.6 386.57 3152.26 480.53 3298 344.74 3288.24 338.62 3163.44 416.39"/>
        </g>
      </g>
    </g>
  </g>
</svg>