<?xml version="1.0" encoding="UTF-8"?>
<svg id="Layer_2" data-name="Layer 2" xmlns="http://www.w3.org/2000/svg" viewBox="0 0 2137.63 1498.66">
  <defs>
    <style>
      .cls-1 {
        fill: #b86b76;
      }

      .cls-2, .cls-3, .cls-4 {
        fill: #fff;
      }

      .cls-5 {
        fill: #fff1f0;
      }

      .cls-6 {
        fill: #0775ef;
      }

      .cls-7, .cls-8, .cls-9, .cls-10, .cls-11, .cls-12, .cls-13, .cls-14, .cls-15, .cls-16, .cls-17, .cls-18, .cls-19, .cls-20, .cls-21, .cls-22, .cls-23, .cls-24, .cls-25, .cls-26, .cls-27, .cls-28, .cls-29, .cls-30, .cls-31, .cls-32, .cls-33, .cls-34, .cls-35 {
        fill: none;
      }

      .cls-7, .cls-8, .cls-10, .cls-11, .cls-13, .cls-15, .cls-16, .cls-19, .cls-21, .cls-22, .cls-23, .cls-27, .cls-28, .cls-30, .cls-31, .cls-33, .cls-35 {
        stroke-miterlimit: 10;
      }

      .cls-7, .cls-11 {
        stroke-width: 5.17px;
      }

      .cls-7, .cls-27 {
        stroke: #40a87b;
      }

      .cls-8 {
        stroke-width: .63px;
      }

      .cls-8, .cls-29 {
        stroke: #e89780;
      }

      .cls-9, .cls-12, .cls-14, .cls-17, .cls-18, .cls-20, .cls-3, .cls-4, .cls-24, .cls-25, .cls-26, .cls-29, .cls-32, .cls-34 {
        stroke-linecap: round;
        stroke-linejoin: round;
      }

      .cls-9, .cls-26 {
        stroke-width: .61px;
      }

      .cls-9, .cls-28 {
        stroke: #322a28;
      }

      .cls-10 {
        stroke-width: 2.34px;
      }

      .cls-10, .cls-13, .cls-15, .cls-20, .cls-23, .cls-25, .cls-32, .cls-34 {
        stroke: #bbdbf3;
      }

      .cls-36 {
        fill: #89a5c7;
      }

      .cls-11, .cls-30 {
        stroke: #6adb6a;
      }

      .cls-37 {
        fill: #332b27;
      }

      .cls-12, .cls-3 {
        stroke: #2ec6fc;
      }

      .cls-12, .cls-3, .cls-4, .cls-24, .cls-34 {
        stroke-width: 4.29px;
      }

      .cls-13 {
        stroke-width: 2.04px;
      }

      .cls-14 {
        stroke-width: .42px;
      }

      .cls-14, .cls-16, .cls-19, .cls-26, .cls-31 {
        stroke: #fff;
      }

      .cls-15 {
        stroke-width: 4.45px;
      }

      .cls-38 {
        fill: #2ec6fc;
      }

      .cls-16 {
        stroke-width: 1.35px;
      }

      .cls-17 {
        stroke: #ea9d85;
        stroke-width: 1.18px;
      }

      .cls-39 {
        fill: #2d628c;
      }

      .cls-40 {
        fill: #f9e181;
      }

      .cls-41 {
        fill: #2c3447;
      }

      .cls-18 {
        stroke: #fff1f0;
        stroke-width: .94px;
      }

      .cls-42 {
        fill: #f74242;
      }

      .cls-19 {
        stroke-width: 1.02px;
      }

      .cls-20 {
        stroke-dasharray: 0 10.1;
        stroke-width: 1.69px;
      }

      .cls-21 {
        stroke: #332b27;
        stroke-width: .76px;
      }

      .cls-22 {
        stroke-width: .79px;
      }

      .cls-22, .cls-35 {
        stroke: #2c3447;
      }

      .cls-43 {
        fill: #e7888b;
      }

      .cls-23 {
        stroke-width: 2.69px;
      }

      .cls-44 {
        fill: #e5f0f8;
      }

      .cls-4, .cls-24 {
        stroke: #f74242;
      }

      .cls-45 {
        fill: #40a87b;
      }

      .cls-46 {
        fill: #93acbf;
      }

      .cls-47 {
        fill: #6adb6a;
      }

      .cls-25 {
        stroke-width: 3.38px;
      }

      .cls-48 {
        fill: #e89780;
      }

      .cls-49 {
        fill: #bbdbf3;
      }

      .cls-27, .cls-30 {
        stroke-width: 4.22px;
      }

      .cls-28 {
        stroke-width: .92px;
      }

      .cls-50 {
        fill: #403534;
      }

      .cls-29 {
        stroke-width: .53px;
      }

      .cls-31 {
        stroke-width: .69px;
      }

      .cls-51 {
        fill: #586773;
      }

      .cls-52 {
        fill: #a5bbd6;
      }

      .cls-53 {
        fill: #d6eaff;
      }

      .cls-32 {
        stroke-dasharray: 0 12.83;
        stroke-width: 2.15px;
      }

      .cls-54 {
        fill: #088cfc;
      }

      .cls-33 {
        stroke: #088cfc;
        stroke-width: 38.28px;
      }

      .cls-55 {
        fill: #ea9d85;
      }

      .cls-56 {
        fill: #fdae97;
      }

      .cls-57 {
        fill: #f9ecb8;
      }

      .cls-58 {
        fill: #322a28;
      }

      .cls-35 {
        stroke-width: .79px;
      }

      .cls-59 {
        fill: #98eb98;
      }
    </style>
  </defs>
  <g id="_Ñëîé_1" data-name="Ñëîé 1">
    <g>
      <path class="cls-44" d="m226.88,1460.72S-403.19-100.55,753.06,5.13c495.23,45.26,402.78,319.87,621.5,576.81,141.77,166.54,414.44,30.3,516.62,175.83s-17.9,560.5-60.02,702.95H226.88Z"/>
      <g>
        <path class="cls-45" d="m1765.61,1455.11s46.06-183.73,160.87-240.43c114.81-56.7,237.35,20.93,206.24,102.56-26.83,70.39-137.16-16.16-223,17.87-85.84,34.03-99.37,120-99.37,120h-44.73Z"/>
        <path class="cls-11" d="m2110.53,1268.28s-123.22-70.22-214.65-5.3c-91.42,64.92-120.36,192.12-120.36,192.12"/>
        <line class="cls-11" x1="2090.65" y1="1235.44" x2="2061.99" y2="1247.94"/>
        <line class="cls-11" x1="2049.25" y1="1208.66" x2="1992.15" y2="1235.44"/>
        <line class="cls-11" x1="1963.46" y1="1208.66" x2="1933.75" y2="1243.75"/>
        <line class="cls-11" x1="1907.14" y1="1232.18" x2="1893.79" y2="1264.49"/>
        <line class="cls-11" x1="2076.32" y1="1313" x2="2032.31" y2="1240.19"/>
        <line class="cls-11" x1="1998.57" y1="1302.57" x2="1958.2" y2="1237.74"/>
        <line class="cls-11" x1="1930" y1="1292.63" x2="1869.31" y2="1285.09"/>
        <line class="cls-11" x1="1859.35" y1="1329.4" x2="1824.57" y2="1340.82"/>
      </g>
      <g>
        <path class="cls-47" d="m1726.11,1455.64s-32.5-615.84,261.65-536.48c294.15,79.36-229.45,411.27-229.01,536.48h-32.64Z"/>
        <path class="cls-7" d="m1738,1455.64s10.27-321.76,219.95-480.86"/>
        <line class="cls-7" x1="1865.98" y1="1068.08" x2="1871.22" y2="957.13"/>
        <line class="cls-7" x1="2030.49" y1="1022.11" x2="1888.77" y2="1040.58"/>
        <line class="cls-7" x1="1975.37" y1="1116.8" x2="1825.53" y2="1134.26"/>
        <line class="cls-7" x1="1900.45" y1="1210.64" x2="1784.71" y2="1227"/>
        <line class="cls-7" x1="1773.61" y1="1122.96" x2="1800.14" y2="1187.41"/>
        <line class="cls-7" x1="1817.2" y1="1018.36" x2="1839.81" y2="1109.1"/>
        <line class="cls-7" x1="1748.84" y1="1230.56" x2="1769.98" y2="1272.68"/>
        <line class="cls-7" x1="1839.81" y1="1297.64" x2="1756.88" y2="1323.78"/>
      </g>
      <g>
        <path class="cls-45" d="m303.23,1455.2s-37.54-149.75-131.13-195.97c-93.58-46.22-193.46,17.06-168.1,83.59,21.87,57.37,111.8-13.17,181.77,14.57,69.97,27.74,81,97.81,81,97.81h36.46Z"/>
        <path class="cls-30" d="m22.09,1302.93s100.44-57.24,174.96-4.32c74.52,52.92,98.1,156.6,98.1,156.6"/>
        <line class="cls-30" x1="38.29" y1="1276.16" x2="61.66" y2="1286.34"/>
        <line class="cls-30" x1="72.04" y1="1254.33" x2="118.58" y2="1276.16"/>
        <line class="cls-30" x1="141.97" y1="1254.33" x2="166.18" y2="1282.93"/>
        <line class="cls-30" x1="187.87" y1="1273.5" x2="198.75" y2="1299.84"/>
        <line class="cls-30" x1="49.97" y1="1339.38" x2="85.85" y2="1280.03"/>
        <line class="cls-30" x1="113.35" y1="1330.87" x2="146.25" y2="1278.03"/>
        <line class="cls-30" x1="169.24" y1="1322.77" x2="218.7" y2="1316.62"/>
        <line class="cls-30" x1="226.82" y1="1352.74" x2="255.18" y2="1362.05"/>
      </g>
      <g>
        <path class="cls-47" d="m335.43,1455.64s26.49-501.97-213.27-437.28c-239.76,64.69,187.02,335.22,186.66,437.28h26.61Z"/>
        <path class="cls-27" d="m325.74,1455.64s-8.37-262.26-179.28-391.94"/>
        <line class="cls-27" x1="221.42" y1="1139.74" x2="217.15" y2="1049.31"/>
        <line class="cls-27" x1="87.33" y1="1102.27" x2="202.85" y2="1117.33"/>
        <line class="cls-27" x1="132.25" y1="1179.46" x2="254.39" y2="1193.69"/>
        <line class="cls-27" x1="193.32" y1="1255.95" x2="287.66" y2="1269.28"/>
        <line class="cls-27" x1="296.71" y1="1184.48" x2="275.09" y2="1237.01"/>
        <line class="cls-27" x1="261.18" y1="1099.21" x2="242.75" y2="1173.18"/>
        <line class="cls-27" x1="316.9" y1="1272.18" x2="299.67" y2="1306.51"/>
        <line class="cls-27" x1="242.75" y1="1326.85" x2="310.35" y2="1348.17"/>
      </g>
      <g>
        <path class="cls-44" d="m1633.66,106.24h236.11c3.47,0,6.36-2.69,6.55-6.16.72-13.05-.75-42.3-28.25-42.32-30.46-.02-40.34,12.99-40.34,12.99,0,0,2.66-52.97-49.48-52.89-48,.07-65.46,49.22-65.46,49.22,0,0-45.95-21.63-65.27,30.24-1.6,4.31,1.54,8.91,6.13,8.91Z"/>
        <polygon class="cls-2" points="1751.77 37.25 1733.88 61.87 1742.53 61.87 1742.53 86.86 1761.02 86.86 1761.02 61.87 1769.66 61.87 1751.77 37.25"/>
      </g>
      <rect class="cls-6" x="169.24" y="1450.31" width="1701.98" height="48.34" rx="20.44" ry="20.44"/>
      <g>
        <rect class="cls-44" x="1658.18" y="319.54" width="19.97" height="54.54"/>
        <rect class="cls-44" x="1689.81" y="291.49" width="19.97" height="82.59"/>
        <rect class="cls-44" x="1721.44" y="249.72" width="19.97" height="124.36"/>
        <rect class="cls-44" x="1753.08" y="275.49" width="19.97" height="98.6"/>
        <rect class="cls-44" x="1784.71" y="286.36" width="19.97" height="87.73"/>
        <rect class="cls-44" x="1816.34" y="265" width="19.97" height="109.08"/>
        <rect class="cls-44" x="1847.97" y="240.73" width="19.97" height="133.36"/>
      </g>
      <g>
        <path class="cls-49" d="m1949.69,431.58h-436.48c-5.17,0-9.36,4.91-9.36,10.96v251.07h455.19v-251.07c0-6.05-4.19-10.96-9.36-10.96Z"/>
        <rect class="cls-2" x="1508.94" y="461.78" width="445.02" height="225.42"/>
        <g>
          <path class="cls-57" d="m1540.31,580.04s16.55-35.72,48.07-29.04c31.52,6.67,9.66,73.28,44.74,79.89,35.08,6.61,54.4-96.36,133.72-80.72,79.32,15.64,152.59-34.19,152.59-34.19v156.91h-379.12v-92.84Z"/>
          <path class="cls-43" d="m1540.31,642.07c23.66-2.03,26.71-66.45,64.85-70.6,38.13-4.14,33.05,54.33,54.91,61.95,21.86,7.63,30.46-18.81,71.66-16.78,41.21,2.03,45.28,32.97,69.17,32.97s67.23-21.79,118.52-17.72v40.98h-379.12v-30.81Z"/>
          <line class="cls-20" x1="1539.75" y1="649.62" x2="1919.43" y2="649.62"/>
          <line class="cls-20" x1="1539.75" y1="600.31" x2="1919.43" y2="600.31"/>
          <line class="cls-20" x1="1539.75" y1="575.65" x2="1919.43" y2="575.65"/>
          <line class="cls-20" x1="1919.43" y1="624.97" x2="1539.75" y2="624.97"/>
          <line class="cls-20" x1="1539.75" y1="551" x2="1919.43" y2="551"/>
          <line class="cls-20" x1="1539.75" y1="526.34" x2="1919.43" y2="526.34"/>
          <line class="cls-20" x1="1539.75" y1="501.69" x2="1919.43" y2="501.69"/>
          <polyline class="cls-25" points="1540.31 476.1 1540.31 672.88 1923.15 672.88"/>
        </g>
      </g>
      <polygon class="cls-54" points="1771.59 434.63 1598.32 534.66 1771.59 634.7 1771.59 434.63"/>
      <g>
        <g>
          <polygon class="cls-51" points="1594.82 1182.44 1633.7 1165.16 1564.34 1167.36 1565.16 1185.21 1594.82 1182.44"/>
          <polygon class="cls-51" points="367.43 301.85 330.19 324.74 342.93 423.09 367.43 301.85"/>
          <path class="cls-51" d="m1583.07,1185.21H445.99c-15.2,0-28.93-12.17-30.7-27.16l-84.99-719.57-.14-1.09-7.38-62.28-1.67-14.14-.75-6.43c-1.77-14.92,4.35-32.84,19.48-32.84l1135.62-23.22c15.16,0,28.9,12.1,30.7,27.03l101.07,832.54c1.84,14.99-9.01,27.16-24.17,27.16Z"/>
          <path class="cls-46" d="m486,1167.36h1137.04c15.18,0,26-11.92,24.16-26.62l-101.76-815.77c-1.83-14.63-15.58-26.49-30.72-26.49H380.4c-15.14,0-25.98,11.86-24.2,26.49l99.09,815.77c1.79,14.7,15.54,26.62,30.72,26.62Z"/>
          <polygon class="cls-49" points="391.84 332.11 394.06 350.28 489.29 1133.58 1611.43 1133.58 1511.54 332.11 391.84 332.11"/>
          <polygon class="cls-44" points="394.06 350.28 489.29 1133.58 1596.04 1133.58 1498.41 350.28 394.06 350.28"/>
          <g>
            <polygon class="cls-49" points="1384.73 408.88 1479.2 408.88 1477.36 394.18 1382.9 394.18 1384.73 408.88"/>
            <polygon class="cls-49" points="1137.96 431.49 1266.77 431.49 1508.54 431.49 1514.81 481.51 409.99 481.51 403.95 431.49 1137.96 431.49"/>
            <polygon class="cls-49" points="1268.53 408.88 1363 408.88 1361.16 394.18 1266.7 394.18 1268.53 408.88"/>
            <polygon class="cls-49" points="1152.33 408.88 1246.79 408.88 1244.97 394.18 1150.51 394.18 1152.33 408.88"/>
            <polygon class="cls-49" points="1036.13 408.88 1130.59 408.88 1128.78 394.18 1034.32 394.18 1036.13 408.88"/>
            <polygon class="cls-2" points="1365.96 461.27 1485.75 461.27 1484.51 451.34 1364.72 451.34 1365.96 461.27"/>
            <polygon class="cls-2" points="1218.6 461.27 1338.39 461.27 1337.16 451.34 1217.37 451.34 1218.6 461.27"/>
            <polygon class="cls-2" points="1071.24 461.27 1191.04 461.27 1189.81 451.34 1070.02 451.34 1071.24 461.27"/>
            <polygon class="cls-2" points="923.89 461.27 1043.68 461.27 1042.45 451.34 922.67 451.34 923.89 461.27"/>
            <polygon class="cls-49" points="919.93 408.88 1014.39 408.88 1012.58 394.18 918.12 394.18 919.93 408.88"/>
            <polygon class="cls-49" points="803.72 408.88 898.19 408.88 896.39 394.18 801.93 394.18 803.72 408.88"/>
            <polygon class="cls-15" points="592.6 422.06 729.9 422.06 724.41 377.11 587.13 377.11 592.6 422.06"/>
            <polygon class="cls-49" points="436.23 422.06 573.54 422.06 568.08 377.11 430.8 377.11 436.23 422.06"/>
            <g>
              <g>
                <polygon class="cls-49" points="993.43 646.83 1510.59 646.83 1515.59 686.81 998.35 686.81 993.43 646.83"/>
                <polygon class="cls-2" points="1515.59 686.81 1533.45 829.59 1015.92 829.59 998.35 686.81 1515.59 686.81"/>
                <polygon class="cls-2" points="1327.37 671.2 1495.17 671.2 1494.06 662.3 1326.27 662.3 1327.37 671.2"/>
                <polygon class="cls-2" points="1203.52 671.2 1317.15 671.2 1316.04 662.3 1202.42 662.3 1203.52 671.2"/>
                <polygon class="cls-10" points="1032.72 815.35 1513.12 815.35 1498.82 701.04 1018.65 701.04 1032.72 815.35"/>
                <polygon class="cls-10" points="1471.43 815.35 1513.12 815.35 1498.82 701.04 1457.16 701.04 1471.43 815.35"/>
                <polygon class="cls-10" points="1230.49 815.35 1471.43 815.35 1457.16 701.04 1216.32 701.04 1230.49 815.35"/>
                <polygon class="cls-10" points="1032.72 815.35 1070.74 815.35 1056.65 701.04 1018.65 701.04 1032.72 815.35"/>
                <polygon class="cls-10" points="1070.74 815.35 1108.76 815.35 1094.66 701.04 1056.65 701.04 1070.74 815.35"/>
                <polygon class="cls-10" points="1108.76 815.35 1156.27 815.35 1142.14 701.04 1094.66 701.04 1108.76 815.35"/>
                <polygon class="cls-10" points="1156.27 815.35 1230.49 815.35 1216.32 701.04 1142.14 701.04 1156.27 815.35"/>
                <polygon class="cls-10" points="1026.13 761.86 1506.43 761.86 1503.08 735.12 1022.84 735.12 1026.13 761.86"/>
                <polygon class="cls-10" points="1029.43 788.6 1509.77 788.6 1506.43 761.86 1026.13 761.86 1029.43 788.6"/>
                <polygon class="cls-10" points="1032.72 815.35 1513.12 815.35 1509.77 788.6 1029.43 788.6 1032.72 815.35"/>
              </g>
              <g>
                <polygon class="cls-49" points="456.27 646.83 973.42 646.83 978.34 686.81 461.1 686.81 456.27 646.83"/>
                <polygon class="cls-2" points="978.34 686.81 995.9 829.59 478.36 829.59 461.1 686.81 978.34 686.81"/>
                <polygon class="cls-2" points="790.16 671.2 957.96 671.2 956.87 662.3 789.07 662.3 790.16 671.2"/>
                <polygon class="cls-2" points="666.31 671.2 779.93 671.2 778.85 662.3 665.22 662.3 666.31 671.2"/>
                <polygon class="cls-10" points="495.19 815.35 975.59 815.35 961.54 701.04 481.37 701.04 495.19 815.35"/>
                <polygon class="cls-10" points="933.91 815.35 975.59 815.35 961.54 701.04 919.88 701.04 933.91 815.35"/>
                <polygon class="cls-10" points="692.96 815.35 933.91 815.35 919.88 701.04 679.04 701.04 692.96 815.35"/>
                <polygon class="cls-10" points="495.19 815.35 533.22 815.35 519.37 701.04 481.37 701.04 495.19 815.35"/>
                <polygon class="cls-10" points="533.22 815.35 571.24 815.35 557.38 701.04 519.37 701.04 533.22 815.35"/>
                <polygon class="cls-10" points="571.24 815.35 618.74 815.35 604.86 701.04 557.38 701.04 571.24 815.35"/>
                <polygon class="cls-10" points="618.74 815.35 692.96 815.35 679.04 701.04 604.86 701.04 618.74 815.35"/>
                <polygon class="cls-10" points="488.72 761.86 969.02 761.86 965.73 735.12 485.49 735.12 488.72 761.86"/>
                <polygon class="cls-10" points="491.96 788.6 972.3 788.6 969.02 761.86 488.72 761.86 491.96 788.6"/>
                <polygon class="cls-10" points="495.19 815.35 975.59 815.35 972.3 788.6 491.96 788.6 495.19 815.35"/>
              </g>
            </g>
            <g>
              <g>
                <polygon class="cls-49" points="972.76 495.07 1489.66 495.07 1493.84 525.65 976.89 525.65 972.76 495.07"/>
                <polygon class="cls-2" points="1493.84 525.65 1508.75 634.81 991.64 634.81 976.89 525.65 1493.84 525.65"/>
                <polygon class="cls-2" points="1306.05 513.71 1473.76 513.71 1472.83 506.9 1305.12 506.9 1306.05 513.71"/>
                <polygon class="cls-2" points="1182.26 513.71 1295.82 513.71 1294.9 506.9 1181.33 506.9 1182.26 513.71"/>
                <polygon class="cls-13" points="1008.71 623.93 1488.72 623.93 1476.79 536.53 996.89 536.53 1008.71 623.93"/>
                <polygon class="cls-13" points="1447.07 623.93 1488.72 623.93 1476.79 536.53 1435.15 536.53 1447.07 623.93"/>
                <polygon class="cls-13" points="1206.32 623.93 1447.07 623.93 1435.15 536.53 1194.45 536.53 1206.32 623.93"/>
                <polygon class="cls-13" points="1008.71 623.93 1046.7 623.93 1034.88 536.53 996.89 536.53 1008.71 623.93"/>
                <polygon class="cls-13" points="1046.7 623.93 1084.69 623.93 1072.86 536.53 1034.88 536.53 1046.7 623.93"/>
                <polygon class="cls-13" points="1084.69 623.93 1132.16 623.93 1120.32 536.53 1072.86 536.53 1084.69 623.93"/>
                <polygon class="cls-13" points="1132.16 623.93 1206.32 623.93 1194.45 536.53 1120.32 536.53 1132.16 623.93"/>
                <polygon class="cls-13" points="1003.18 583.03 1483.14 583.03 1480.35 562.59 1000.42 562.59 1003.18 583.03"/>
                <polygon class="cls-13" points="1005.94 603.48 1485.93 603.48 1483.14 583.03 1003.18 583.03 1005.94 603.48"/>
                <polygon class="cls-13" points="1008.71 623.93 1488.72 623.93 1485.93 603.48 1005.94 603.48 1008.71 623.93"/>
              </g>
              <g>
                <polygon class="cls-49" points="435.86 495.07 952.76 495.07 956.89 525.65 439.94 525.65 435.86 495.07"/>
                <polygon class="cls-2" points="956.89 525.65 971.63 634.81 454.52 634.81 439.94 525.65 956.89 525.65"/>
                <polygon class="cls-2" points="769.12 513.71 936.83 513.71 935.91 506.9 768.2 506.9 769.12 513.71"/>
                <polygon class="cls-2" points="645.33 513.71 758.9 513.71 757.98 506.9 644.42 506.9 645.33 513.71"/>
                <polygon class="cls-13" points="471.61 623.93 951.62 623.93 939.83 536.53 459.93 536.53 471.61 623.93"/>
                <polygon class="cls-13" points="909.97 623.93 951.62 623.93 939.83 536.53 898.19 536.53 909.97 623.93"/>
                <polygon class="cls-13" points="669.22 623.93 909.97 623.93 898.19 536.53 657.49 536.53 669.22 623.93"/>
                <polygon class="cls-13" points="471.61 623.93 509.6 623.93 497.91 536.53 459.93 536.53 471.61 623.93"/>
                <polygon class="cls-13" points="509.6 623.93 547.59 623.93 535.9 536.53 497.91 536.53 509.6 623.93"/>
                <polygon class="cls-13" points="547.59 623.93 595.06 623.93 583.35 536.53 535.9 536.53 547.59 623.93"/>
                <polygon class="cls-13" points="595.06 623.93 669.22 623.93 657.49 536.53 583.35 536.53 595.06 623.93"/>
                <polygon class="cls-13" points="466.14 583.03 946.1 583.03 943.34 562.59 463.41 562.59 466.14 583.03"/>
                <polygon class="cls-13" points="468.88 603.48 948.86 603.48 946.1 583.03 466.14 583.03 468.88 603.48"/>
                <polygon class="cls-13" points="471.61 623.93 951.62 623.93 948.86 603.48 468.88 603.48 471.61 623.93"/>
              </g>
            </g>
            <g>
              <g>
                <path class="cls-49" d="m786.53,988.37c7.55,61.88,63.75,112.01,125.47,112.01s105.64-50.13,98.03-112.01h-21.92c6.1,49.64-29.25,90.03-78.8,90.03s-94.8-40.39-100.86-90.03c-6.05-49.56,29.3-89.91,78.82-89.91l-2.69-21.94c-61.66,0-105.59,50.06-98.05,111.85Z"/>
                <path class="cls-40" d="m884.58,876.52l2.69,21.94c49.52,0,94.75,40.35,100.84,89.91h21.92c-7.6-61.79-63.79-111.85-125.45-111.85Z"/>
                <path class="cls-57" d="m887.27,898.46l3,24.51c35.98,0,68.88,29.35,73.3,65.4h24.54c-6.09-49.56-51.32-89.91-100.84-89.91Z"/>
                <path class="cls-2" d="m808.45,988.37c6.06,49.64,51.3,90.03,100.86,90.03s84.9-40.39,78.8-90.03h-24.54c4.43,36.06-21.28,65.43-57.28,65.43s-68.9-29.37-73.31-65.43c-4.41-36.05,21.3-65.4,57.28-65.4l-3-24.51c-49.52,0-84.87,40.35-78.82,89.91Z"/>
              </g>
              <g>
                <path class="cls-49" d="m513.56,988.37c7.48,61.88,63.63,112.01,125.35,112.01s105.69-50.13,98.16-112.01c-4.51-37.04-26.47-69.88-56.67-90.2l-10.81,17.7c24.26,16.42,41.95,42.8,45.56,72.5,6.04,49.64-29.35,90.03-78.9,90.03s-94.75-40.39-100.76-90.03c-6-49.56,29.4-89.91,78.92-89.91l-2.66-21.94c-61.66,0-105.65,50.06-98.18,111.85Z"/>
                <path class="cls-2" d="m535.48,988.37c6.01,49.64,51.2,90.03,100.76,90.03s84.95-40.39,78.9-90.03c-3.62-29.71-21.3-56.08-45.56-72.5l-12.07,19.74c17.61,11.94,30.47,31.16,33.1,52.77,4.39,36.06-21.35,65.43-57.35,65.43s-68.87-29.37-73.24-65.43c-4.37-36.05,21.38-65.4,57.36-65.4l-2.97-24.51c-49.52,0-84.92,40.35-78.92,89.91Z"/>
                <path class="cls-40" d="m611.74,876.52l2.66,21.94c19.82,0,38.97,6.46,55.18,17.41l10.81-17.7c-20.14-13.62-43.95-21.65-68.65-21.65Z"/>
                <path class="cls-57" d="m614.4,898.46l2.97,24.51c14.42,0,28.36,4.72,40.13,12.64l12.07-19.74c-16.21-10.94-35.36-17.41-55.18-17.41Z"/>
              </g>
              <polygon class="cls-2" points="807.9 858.53 956.86 858.53 955.8 849.85 806.84 849.85 807.9 858.53"/>
              <polygon class="cls-2" points="535.07 858.53 684.04 858.53 682.98 849.85 534.02 849.85 535.07 858.53"/>
              <g>
                <path class="cls-49" d="m1313.81,988.37c7.68,61.88,63.99,112.01,125.71,112.01s105.53-50.13,97.79-112.01h-21.92c6.2,49.64-29.06,90.03-78.61,90.03s-94.88-40.39-101.05-90.03c-6.16-49.56,29.11-89.91,78.63-89.91l-2.73-21.94c-61.66,0-105.49,50.06-97.81,111.85Z"/>
                <path class="cls-40" d="m1411.62,876.52l2.73,21.94c49.52,0,94.84,40.35,101.03,89.91h21.92c-7.73-61.79-64.03-111.85-125.69-111.85Z"/>
                <path class="cls-57" d="m1414.35,898.46l3.05,24.51c35.98,0,68.94,29.35,73.44,65.4h24.54c-6.19-49.56-51.51-89.91-101.03-89.91Z"/>
                <path class="cls-2" d="m1335.73,988.37c6.17,49.64,51.49,90.03,101.05,90.03s84.82-40.39,78.61-90.03h-24.54c4.5,36.06-21.14,65.43-57.14,65.43s-68.96-29.37-73.45-65.43c-4.48-36.05,21.16-65.4,57.15-65.4l-3.05-24.51c-49.52,0-84.79,40.35-78.63,89.91Z"/>
              </g>
              <g>
                <path class="cls-49" d="m1040.84,988.37c7.61,61.88,63.87,112.01,125.59,112.01s105.59-50.13,97.92-112.01c-4.59-37.04-26.62-69.88-56.86-90.2l-10.77,17.7c24.29,16.42,42.04,42.8,45.72,72.5,6.15,49.64-29.16,90.03-78.71,90.03s-94.84-40.39-100.95-90.03c-6.1-49.56,29.21-89.91,78.73-89.91l-2.71-21.94c-61.66,0-105.54,50.06-97.94,111.85Z"/>
                <path class="cls-2" d="m1062.76,988.37c6.11,49.64,51.4,90.03,100.95,90.03s84.86-40.39,78.71-90.03c-3.68-29.71-21.42-56.08-45.72-72.5l-12.03,19.74c17.64,11.94,30.54,31.16,33.21,52.77,4.46,36.06-21.21,65.43-57.21,65.43s-68.93-29.37-73.38-65.43c-4.44-36.05,21.24-65.4,57.22-65.4l-3.03-24.51c-49.52,0-84.83,40.35-78.73,89.91Z"/>
                <path class="cls-40" d="m1138.77,876.52l2.71,21.94c19.82,0,38.98,6.46,55.22,17.41l10.77-17.7c-20.17-13.62-44-21.65-68.7-21.65Z"/>
                <path class="cls-57" d="m1141.48,898.46l3.03,24.51c14.42,0,28.37,4.72,40.16,12.64l12.03-19.74c-16.23-10.94-35.4-17.41-55.22-17.41Z"/>
              </g>
              <polygon class="cls-2" points="1334.89 858.53 1483.86 858.53 1482.78 849.85 1333.82 849.85 1334.89 858.53"/>
              <polygon class="cls-2" points="1062.07 858.53 1211.04 858.53 1209.96 849.85 1061 849.85 1062.07 858.53"/>
            </g>
          </g>
          <path class="cls-46" d="m1447.46,508.12l-3.11-23.46c-.74-5.59-5.87-10.13-11.47-10.13h-472.3c-5.59,0-9.57,4.53-8.89,10.13l2.85,23.46,25.51,209.83h495.18l-27.78-209.83Z"/>
          <g>
            <path class="cls-6" d="m1448.12,456.28h-472.3c-5.59,0-9.57,4.53-8.89,10.13l2.85,23.46,25.51,209.83h495.18l-27.78-209.83-3.11-23.46c-.74-5.59-5.87-10.13-11.47-10.13Z"/>
            <polygon class="cls-2" points="974.6 484.2 1000.1 693.71 1484.15 693.71 1456.44 484.2 974.6 484.2"/>
            <g>
              <polygon class="cls-44" points="1437.23 642.9 1034.12 642.9 1020.85 534.66 1423.01 534.66 1437.23 642.9"/>
              <polygon class="cls-47" points="1410.08 579.98 1415.84 623.96 1050.68 623.96 1045.27 579.98 1410.08 579.98"/>
              <polygon class="cls-59" points="1080.11 579.98 1067.96 623.96 1050.68 623.96 1050.66 623.81 1062.69 579.98 1080.11 579.98"/>
              <polygon class="cls-59" points="1110.46 579.98 1098.34 623.96 1081.06 623.96 1093.11 579.98 1110.46 579.98"/>
              <polygon class="cls-59" points="1140.88 579.98 1128.8 623.96 1111.44 623.96 1123.46 579.98 1140.88 579.98"/>
              <polygon class="cls-59" points="1171.23 579.98 1159.18 623.96 1141.82 623.96 1153.81 579.98 1171.23 579.98"/>
              <polygon class="cls-59" points="1201.58 579.98 1189.63 623.96 1172.27 623.96 1184.24 579.98 1201.58 579.98"/>
              <polygon class="cls-59" points="1232.01 579.98 1220.01 623.96 1202.65 623.96 1214.59 579.98 1232.01 579.98"/>
              <polygon class="cls-59" points="1262.36 579.98 1250.46 623.96 1233.11 623.96 1245.02 579.98 1262.36 579.98"/>
              <polygon class="cls-2" points="1261.57 623.94 1415.85 623.94 1410.09 579.97 1255.96 579.97 1261.57 623.94"/>
              <polygon class="cls-2" points="1300.07 562.12 1150.74 562.12 1149.51 552.26 1298.8 552.26 1300.07 562.12"/>
            </g>
          </g>
          <path class="cls-42" d="m330.61,438.31l-.31.17-.14-1.09c.14.31.27.58.41.88l.03.03Z"/>
        </g>
        <polygon class="cls-51" points="960.7 1394.79 1164.4 1394.79 1138.76 1185.15 935.05 1185.15 960.7 1394.79"/>
        <polygon class="cls-46" points="986.34 1394.79 1190.05 1394.79 1164.4 1185.15 960.7 1185.15 986.34 1394.79"/>
        <path class="cls-51" d="m737.24,1394.79h541.4v38.76c0,9.25-7.51,16.76-16.76,16.76h-524.64v-55.52h0Z" transform="translate(2015.88 2845.1) rotate(180)"/>
        <path class="cls-46" d="m879.6,1394.79h458.82v41.42c0,7.78-6.32,14.1-14.1,14.1h-430.62c-7.78,0-14.1-6.32-14.1-14.1v-41.42h0Z" transform="translate(2218.01 2845.1) rotate(180)"/>
      </g>
      <g>
        <path class="cls-54" d="m1427.81,83.58l-56.33,61.36-20.41,22.23v-17.82c-4.48,1.33-8.86,2.9-13.12,4.72-43.48,18.28-75.26,59.04-80.72,107.65l-53.24-48.88-52.1,47.87c7.07-106.63,84.37-194.03,186.06-216.45,4.32-.96,8.71-1.79,13.12-2.5V.02l35.54,38.69,41.2,44.87Z"/>
        <path class="cls-40" d="m1627.55,276.9c-.06,113.77-79.89,208.88-186.61,232.41-4.32.96-8.71,1.79-13.12,2.5v26.28l-21.83-23.78-54.91-59.79,41.04-44.72,35.7-38.88v33.26c4.48-1.36,8.86-2.93,13.12-4.72,47.77-20.13,81.43-67.35,81.56-122.32l52.41,48.11,52.65-48.36Z"/>
        <path class="cls-42" d="m1658.49,230.7l-31.56,28.94v.03l-52.03,47.74-53.73-49.32-29.83-27.39h22.91c-1.64-4.51-3.55-8.89-5.68-13.16-21.68-43.45-66.46-73.47-118.15-73.84l55.22-60.13-40.76-44.41c104.19,6.67,190.17,80.35,215.24,178.37,1.14,4.32,2.13,8.74,2.96,13.16h35.42Z"/>
        <path class="cls-47" d="m1388.68,514.9c-116.21-.37-212.83-83.97-233.34-194.33-.8-4.35-1.48-8.74-2.07-13.16h-32.89l30.97-28.41,52.62-48.3,52.41,48.08v.03l31.16,28.6h-27.61c1.02,4.48,2.32,8.86,3.83,13.16,16.61,47.59,59.54,82.92,111.23,88.51l-41.75,45.46,55.43,60.37Z"/>
      </g>
      <polyline class="cls-33" points="468.88 943.42 853.93 1090.17 1385.18 1205.11 1721.22 525.65"/>
      <g>
        <path class="cls-42" d="m666.18,1064.35h-379.1c-6.55,0-11.85,5.32-11.85,11.87v74.19h402.81v-74.19c0-6.55-5.32-11.87-11.87-11.87Zm-289.44,60.82c-10.69,0-19.38-8.66-19.38-19.38s8.69-19.38,19.38-19.38,19.38,8.69,19.38,19.38-8.69,19.38-19.38,19.38Zm199.78,0c-10.69,0-19.38-8.66-19.38-19.38s8.69-19.38,19.38-19.38,19.38,8.69,19.38,19.38-8.69,19.38-19.38,19.38Z"/>
        <path class="cls-2" d="m275.23,1150.4v288.13c0,6.55,5.31,11.86,11.87,11.86h379.08c6.55,0,11.86-5.31,11.86-11.86v-288.13h-402.81Z"/>
        <g>
          <rect class="cls-44" x="305.34" y="1178.56" width="63.06" height="63.06"/>
          <rect class="cls-44" x="305.34" y="1268.87" width="63.06" height="63.06"/>
          <rect class="cls-44" x="305.34" y="1359.19" width="63.06" height="63.06"/>
        </g>
        <g>
          <rect class="cls-44" x="398.52" y="1178.56" width="63.06" height="63.06"/>
          <rect class="cls-49" x="398.52" y="1268.87" width="63.06" height="63.06"/>
          <rect class="cls-44" x="398.52" y="1359.19" width="63.06" height="63.06"/>
        </g>
        <g>
          <rect class="cls-44" x="491.69" y="1178.56" width="63.06" height="63.06"/>
          <rect class="cls-44" x="491.69" y="1268.87" width="63.06" height="63.06"/>
          <rect class="cls-44" x="491.69" y="1359.19" width="63.06" height="63.06"/>
        </g>
        <g>
          <rect class="cls-44" x="584.87" y="1178.56" width="63.06" height="63.06"/>
          <rect class="cls-44" x="584.87" y="1268.87" width="63.06" height="63.06"/>
          <rect class="cls-44" x="584.87" y="1359.19" width="63.06" height="63.06"/>
        </g>
        <path class="cls-51" d="m576.53,1033.65v83.71c6.27,0,11.4-3.86,11.4-8.58v-66.55c0-4.72-5.13-8.58-11.4-8.58Z"/>
        <path class="cls-46" d="m565.13,1042.23v66.55c0,4.72,5.13,8.58,11.4,8.58v-83.71c-6.27,0-11.4,3.86-11.4,8.58Z"/>
        <path class="cls-46" d="m365.34,1042.23v66.55c0,4.72,5.13,8.58,11.4,8.58v-83.71c-6.27,0-11.4,3.86-11.4,8.58Z"/>
        <path class="cls-51" d="m376.74,1033.65h0v83.71s0,0,0,0c6.27,0,11.4-3.86,11.4-8.58v-66.55c0-4.72-5.13-8.58-11.4-8.58Z"/>
      </g>
      <g>
        <path class="cls-38" d="m399.56,942.12c-.18,10.48-8.26,19.02-18.45,19.97,1.99,9.55,5.54,18.82,10.71,27.43,8.14-6.27,19.84-5.59,27.17,2.02,1.93,1.97,3.35,4.27,4.32,6.69,2.65,6.77,1.51,14.69-3.29,20.51,5.44,3.54,11.17,6.41,17.1,8.67,2.69,1.01,5.43,1.89,8.19,2.63.54.17,1.11.3,1.65.44,1.36-10.19,10.15-17.92,20.63-17.75,5.3.12,10.06,2.19,13.6,5.55,3.53,3.29,5.86,7.84,6.36,12.89,9.52-1.98,18.78-5.53,27.36-10.7-6.2-8.15-5.48-19.82,2.06-27.14,7.58-7.29,19.27-7.56,27.2-1.03,5.46-8.38,9.37-17.54,11.69-26.97-10.16-1.37-17.88-10.12-17.67-20.61.18-10.48,8.26-19.02,18.45-19.97-1.98-9.52-5.54-18.82-10.71-27.39-7.25,5.62-17.45,5.62-24.75.06-.82-.57-1.63-1.28-2.38-2.08-7.33-7.61-7.6-19.3-1.03-27.2-5.11-3.34-10.5-6.12-16.09-8.31-2.69-1.01-5.4-1.93-8.17-2.71-.92-.26-1.84-.52-2.76-.74-1.33,10.18-10.12,17.92-20.6,17.7-1.91-.03-3.76-.32-5.48-.82-7.85-2.35-13.67-9.25-14.48-17.59-9.52,1.98-18.78,5.53-27.36,10.7,6.2,8.15,5.48,19.82-2.06,27.14-7.58,7.29-19.27,7.56-27.2,1.03-5.46,8.38-9.37,17.54-11.73,26.98,10.18,1.33,17.88,10.12,17.7,20.6Zm39.17-29.95c4.8-4.65,10.41-7.95,16.37-9.92,7.7-2.57,15.97-2.93,23.82-1.05,2.78.63,5.53,1.58,8.15,2.82,4.78,2.18,9.23,5.29,13.1,9.3,4.82,5,8.21,10.88,10.14,17.07,4.78,15.2.95,32.49-11.3,44.29-1.46,1.41-3.02,2.71-4.64,3.85-10.12,7.43-22.69,9.86-34.41,7.38-2.81-.58-5.55-1.47-8.23-2.62-5.15-2.19-9.95-5.43-14.08-9.73-1.62-1.69-3.08-3.47-4.4-5.36-11.99-17.18-10.08-41.03,5.49-56.03Z"/>
        <g>
          <path class="cls-57" d="m445.14,975.02c14.99,11.25,35.39,10.25,49.16-1.32,2.26-1.92,4.33-4.09,6.19-6.58,1.84-2.45,3.37-5.08,4.56-7.75,7.26-16.45,2.55-36.3-12.48-47.57-14.99-11.25-35.36-10.22-49.13,1.35-2.23,1.88-4.33,4.09-6.17,6.54-1.87,2.49-3.37,5.08-4.58,7.78-7.26,16.45-2.55,36.3,12.44,47.55Z"/>
          <path class="cls-40" d="m432.7,927.47l61.61,46.23c2.26-1.92,4.33-4.09,6.19-6.58,1.84-2.45,3.37-5.08,4.56-7.75l-61.61-46.23c-2.23,1.88-4.33,4.09-6.17,6.54-1.87,2.49-3.37,5.08-4.58,7.78Z"/>
        </g>
      </g>
      <g>
        <path class="cls-54" d="m637.65,44.79H112.09c-6.22,0-11.27,5.91-11.27,13.19v302.31h548.09V57.98c0-7.29-5.04-13.19-11.27-13.19Z"/>
        <rect class="cls-2" x="106.95" y="81.16" width="535.84" height="271.42"/>
        <g>
          <line class="cls-32" x1="131.46" y1="312.26" x2="613.55" y2="312.26"/>
          <line class="cls-32" x1="131.46" y1="280.95" x2="613.55" y2="280.95"/>
          <line class="cls-32" x1="613.55" y1="249.65" x2="131.46" y2="249.65"/>
          <line class="cls-32" x1="131.46" y1="218.34" x2="613.55" y2="218.34"/>
          <line class="cls-32" x1="131.46" y1="187.03" x2="613.55" y2="187.03"/>
          <line class="cls-32" x1="131.46" y1="155.73" x2="613.55" y2="155.73"/>
          <line class="cls-32" x1="131.46" y1="124.42" x2="613.55" y2="124.42"/>
          <path class="cls-12" d="m132.17,170.42s22.95-11.26,40.64,2.68c17.69,13.94,38.59,47.7,110.41,44.95,71.82-2.74,109.62,19.47,155.43,43.23,57.35,29.73,100.76-14.12,118.45-53.03,17.69-38.91,56.44-37.3,56.44-37.3"/>
          <path class="cls-24" d="m132.17,300.26s24.03-39.92,82.45-29.61c58.42,10.31,120.59,10.31,165.62-21,27.64-19.22,64.32-65.61,130.78-25.63,66.46,39.98,88.77,38.59,102.54,36.98"/>
          <circle class="cls-4" cx="202.59" cy="270.36" r="12.83" transform="translate(-95.58 429.2) rotate(-81.2)"/>
          <circle class="cls-4" cx="318.42" cy="274.11" r="12.83"/>
          <circle class="cls-4" cx="459.02" cy="208.25" r="12.83"/>
          <circle class="cls-3" cx="261.78" cy="216.87" r="12.83"/>
          <circle class="cls-3" cx="475.1" cy="271.07" r="12.83"/>
          <circle class="cls-3" cx="585.51" cy="176.74" r="12.83" transform="translate(316.9 726.2) rotate(-80.75)"/>
          <circle class="cls-4" cx="579.61" cy="257.53" r="12.83"/>
          <polyline class="cls-34" points="132.17 91.93 132.17 341.8 618.28 341.8"/>
        </g>
      </g>
      <g>
        <path class="cls-38" d="m819.37,1148.65c8.85,5.62,11.92,16.96,7.42,26.15,9.19,3.29,18.95,5.08,28.99,5.16-1.11-10.22,5.57-19.84,15.88-22.13,2.68-.62,5.4-.63,7.96-.2,7.16,1.27,13.32,6.37,15.79,13.5,5.86-2.79,11.3-6.19,16.31-10.08,2.26-1.77,4.45-3.65,6.51-5.62.43-.37.84-.79,1.23-1.18-7.99-6.47-10-18.01-4.39-26.86,2.86-4.46,7.11-7.45,11.83-8.71,4.65-1.29,9.74-.91,14.32,1.29,3.27-9.15,5.07-18.91,5.13-28.92-10.19,1.04-19.77-5.66-22.08-15.9-2.27-10.26,3.6-20.38,13.3-23.75-4.3-9.03-10.09-17.14-16.92-24.04-6.46,7.95-17.96,9.98-26.8,4.33-8.85-5.62-11.93-16.96-7.42-26.15-9.15-3.27-18.95-5.08-28.96-5.14,1.01,9.12-4.3,17.82-12.85,21.15-.91.41-1.95.72-3.02.95-10.31,2.29-20.43-3.58-23.75-13.3-5.51,2.62-10.69,5.77-15.48,9.4-2.26,1.77-4.47,3.6-6.57,5.56-.7.65-1.4,1.3-2.07,1.97,8,6.44,10.02,17.97,4.37,26.81-1.02,1.62-2.23,3.04-3.56,4.25-6.1,5.47-15.02,6.85-22.56,3.18-3.27,9.15-5.07,18.91-5.13,28.92,10.19-1.04,19.77,5.66,22.08,15.9,2.27,10.26-3.6,20.38-13.3,23.75,4.3,9.03,10.09,17.14,16.9,24.07,6.44-8,17.96-9.98,26.81-4.37Zm-5.14-49.04c-1.46-6.52-1.36-13.03.07-19.14,1.82-7.91,5.83-15.15,11.52-20.87,1.98-2.04,4.24-3.89,6.65-5.48,4.35-2.94,9.33-5.12,14.76-6.33,6.78-1.51,13.56-1.33,19.85.24,15.46,3.84,28.22,16.13,31.9,32.74.44,1.98.74,3.99.87,5.96,1.06,12.51-3.42,24.5-11.64,33.21-1.96,2.09-4.15,3.97-6.53,5.65-4.56,3.25-9.83,5.66-15.65,6.94-2.29.51-4.57.82-6.87.97-20.91,1.28-40.26-12.79-44.95-33.89Z"/>
        <g>
          <path class="cls-57" d="m871.21,1126.9c17.41-6.93,27.2-24.86,24.51-42.64-.46-2.93-1.23-5.82-2.38-8.71-1.13-2.85-2.58-5.53-4.24-7.93-10.26-14.77-29.65-21.1-47.1-14.16-17.41,6.93-27.16,24.85-24.47,42.62.44,2.89,1.23,5.82,2.37,8.67,1.15,2.89,2.58,5.53,4.25,7.97,10.26,14.77,29.65,21.1,47.06,14.17Z"/>
          <path class="cls-40" d="m824.15,1112.73l71.57-28.47c-.46-2.93-1.23-5.82-2.38-8.71-1.13-2.85-2.58-5.53-4.24-7.93l-71.57,28.47c.44,2.89,1.23,5.82,2.37,8.67,1.15,2.89,2.58,5.53,4.25,7.97Z"/>
        </g>
      </g>
      <g>
        <path class="cls-38" d="m1323.57,1236.9c4.82,9.31,1.77,20.66-6.74,26.34,6.29,7.46,13.82,13.93,22.46,19.04,4.18-9.39,14.8-14.35,24.86-11.13,2.63.82,4.98,2.17,6.98,3.83,5.55,4.7,8.31,12.21,6.85,19.61,6.47.53,12.88.34,19.17-.5,2.84-.39,5.68-.92,8.46-1.58.56-.11,1.12-.26,1.66-.4-3.64-9.61.42-20.6,9.72-25.42,4.72-2.42,9.9-2.86,14.61-1.58,4.67,1.22,8.88,4.11,11.73,8.32,7.43-6.26,13.9-13.79,18.99-22.42-9.33-4.23-14.24-14.84-11.08-24.85,3.21-10.01,13.37-15.8,23.44-13.83.82-9.97-.09-19.89-2.53-29.29-9.58,3.62-20.54-.41-25.34-9.74-4.82-9.31-1.77-20.66,6.75-26.34-6.26-7.43-13.82-13.93-22.44-19.01-3.71,8.39-12.69,13.23-21.75,11.81-.99-.11-2.05-.35-3.08-.7-10.06-3.21-15.86-13.37-13.83-23.44-6.08-.51-12.15-.39-18.11.33-2.84.39-5.67.87-8.47,1.5-.93.21-1.87.42-2.78.66,3.67,9.59-.39,20.57-9.72,25.37-1.7.88-3.46,1.5-5.22,1.88-8.03,1.66-16.42-1.64-21.1-8.6-7.43,6.26-13.9,13.8-18.99,22.42,9.33,4.23,14.24,14.84,11.08,24.85-3.21,10.01-13.37,15.8-23.44,13.83-.82,9.97.09,19.89,2.5,29.31,9.59-3.67,20.54.41,25.37,9.72Zm20.23-44.97c2.02-6.37,5.38-11.94,9.69-16.51,5.55-5.92,12.66-10.16,20.46-12.24,2.74-.77,5.62-1.23,8.51-1.39,5.24-.35,10.64.27,15.94,1.96,6.62,2.1,12.39,5.67,17.03,10.2,11.43,11.1,16.28,28.14,11.1,44.34-.62,1.93-1.37,3.82-2.25,5.59-5.38,11.35-15.28,19.45-26.77,22.84-2.75.82-5.58,1.34-8.49,1.6-5.57.52-11.34-.05-17.01-1.87-2.23-.71-4.36-1.59-6.42-2.62-18.71-9.42-28.36-31.31-21.79-51.91Z"/>
        <g>
          <path class="cls-57" d="m1379.31,1244.19c18.53,2.78,36.01-7.8,42.63-24.52,1.08-2.76,1.86-5.65,2.33-8.73.45-3.03.55-6.07.33-8.98-1.43-17.92-15-33.15-33.58-35.93-18.53-2.78-35.97,7.81-42.59,24.53-1.07,2.72-1.86,5.65-2.32,8.68-.46,3.07-.55,6.07-.33,9.03,1.43,17.92,15,33.15,33.54,35.93Z"/>
          <path class="cls-40" d="m1345.78,1208.27l76.17,11.41c1.08-2.76,1.86-5.65,2.33-8.73.45-3.03.55-6.07.33-8.98l-76.17-11.41c-1.07,2.72-1.86,5.65-2.32,8.68-.46,3.07-.55,6.07-.33,9.03Z"/>
        </g>
      </g>
      <g>
        <path class="cls-38" d="m1504.01,826.82c-.18,10.48-8.26,19.02-18.45,19.97,1.99,9.55,5.54,18.82,10.71,27.43,8.14-6.27,19.84-5.59,27.17,2.02,1.93,1.97,3.35,4.27,4.32,6.69,2.65,6.77,1.51,14.69-3.29,20.51,5.44,3.54,11.17,6.41,17.1,8.67,2.69,1.01,5.43,1.89,8.19,2.63.54.17,1.11.3,1.65.44,1.36-10.19,10.15-17.92,20.63-17.75,5.3.12,10.06,2.19,13.6,5.55,3.53,3.29,5.86,7.84,6.36,12.89,9.52-1.98,18.78-5.53,27.36-10.7-6.2-8.15-5.48-19.82,2.06-27.14,7.58-7.29,19.27-7.56,27.2-1.03,5.46-8.38,9.37-17.54,11.69-26.97-10.16-1.37-17.88-10.12-17.67-20.61.18-10.48,8.26-19.02,18.45-19.97-1.98-9.52-5.54-18.82-10.71-27.39-7.25,5.62-17.45,5.62-24.75.06-.82-.57-1.63-1.28-2.38-2.08-7.33-7.61-7.6-19.3-1.03-27.2-5.11-3.34-10.5-6.12-16.09-8.31-2.69-1.01-5.4-1.93-8.17-2.71-.92-.26-1.84-.52-2.76-.74-1.33,10.19-10.12,17.92-20.6,17.7-1.91-.03-3.76-.32-5.48-.82-7.85-2.35-13.67-9.25-14.48-17.59-9.52,1.98-18.78,5.53-27.36,10.7,6.2,8.15,5.48,19.82-2.06,27.14-7.58,7.29-19.27,7.56-27.2,1.03-5.46,8.38-9.37,17.54-11.73,26.98,10.18,1.33,17.88,10.12,17.7,20.6Zm39.17-29.95c4.8-4.65,10.41-7.95,16.37-9.92,7.7-2.57,15.97-2.93,23.82-1.05,2.78.63,5.53,1.58,8.15,2.82,4.78,2.18,9.23,5.29,13.1,9.3,4.82,5,8.21,10.88,10.14,17.07,4.78,15.2.95,32.49-11.3,44.29-1.46,1.41-3.02,2.71-4.64,3.85-10.12,7.43-22.69,9.86-34.41,7.38-2.81-.58-5.55-1.47-8.23-2.62-5.15-2.19-9.95-5.43-14.08-9.73-1.62-1.69-3.08-3.47-4.4-5.36-11.99-17.18-10.08-41.03,5.49-56.03Z"/>
        <g>
          <path class="cls-57" d="m1549.6,859.72c14.99,11.25,35.39,10.25,49.16-1.32,2.26-1.92,4.33-4.09,6.19-6.58,1.84-2.45,3.37-5.08,4.56-7.75,7.26-16.45,2.55-36.3-12.48-47.57-14.99-11.25-35.36-10.22-49.13,1.35-2.23,1.88-4.33,4.09-6.17,6.54-1.87,2.49-3.37,5.08-4.58,7.78-7.26,16.45-2.55,36.3,12.44,47.55Z"/>
          <path class="cls-40" d="m1537.16,812.18l61.61,46.23c2.26-1.92,4.33-4.09,6.19-6.58,1.84-2.45,3.37-5.08,4.56-7.75l-61.61-46.23c-2.23,1.88-4.33,4.09-6.17,6.54-1.87,2.49-3.37,5.08-4.58,7.78Z"/>
        </g>
      </g>
      <g>
        <polygon class="cls-56" points="1586.31 939.8 1631.59 939.03 1629.22 891.49 1628.08 868.76 1628.02 867.62 1592.59 852.73 1591.44 868.8 1590.59 880.51 1586.31 939.8"/>
        <path class="cls-54" d="m1674.85,1086.96l19.04,157.6c.6,3.98.58,8.13-.23,12.31-3.83,19.68-22.88,32.53-42.56,28.71-19.68-3.83-27.21-19.02-30.74-41.62-6.78-43.38-30.48-173.52-30.48-173.52l84.98,16.52Z"/>
        <polygon class="cls-54" points="1551.4 1079.02 1621.34 1083.71 1620.99 1161.2 1612.69 1173.47 1605 1248.17 1534.2 1242.51 1551.4 1079.02"/>
        <path class="cls-42" d="m1732.39,1043.83l-.24.16c-10.43,6.94-24.65,4.09-31.59-6.35l-56.57-85.01c-6.94-10.43-4.09-24.65,6.35-31.59l.24-.16c10.43-6.94,24.65-4.09,31.59,6.35l56.57,85.01c6.94,10.43,4.09,24.65-6.35,31.59Z"/>
        <polygon class="cls-48" points="1425.6 937.08 1449.62 960.59 1473.89 945.81 1458.28 921.5 1426.64 922.53 1425.6 937.08"/>
        <path class="cls-42" d="m1518.87,1048.48c-11.3,6.57-25.37,3.78-31.14-6.22l-28.57-52.21-10.08-18.51-10.55-19.26,17.54-12.12,12.45-8.6,1.2-.85,12.8,18.99,11.75,17.39,34.59,51.22c5.77,9.99,1.31,23.58-9.99,30.16Z"/>
        <path class="cls-56" d="m1608.36,919.92c-16.61.37-23.69-7.89-25.82-11.14l6.21-2.81,41.08-2.07,4.94,1.58c-2.08,3.88-9.44,14.06-26.41,14.43Z"/>
        <path class="cls-42" d="m1549.41,1023.27l-.98,67.94h127.88l-1.52-171.27-43.88-15.86c-.49.9-1.02,1.84-1.68,2.83l-.16.2c-2.38,3.03-6.92,5.9-19.67,6.19-10.61.25-15.82-1.23-18.77-3.16l-.04-.04c-1.6-1.07-2.54-2.34-3.28-3.48l-41.43,9.14,2.79,86.46.74,21.06Z"/>
        <path class="cls-54" d="m1707.15,1404.53l-65.78-.05-19.83-153.09c-2.07-19.95,12.39-37.81,32.32-39.91,19.95-2.07,37.79,12.39,39.89,32.31.19,1.73.21,3.42.15,5.14l11.45,134.37,1.81,21.23h0Z"/>
        <path class="cls-42" d="m1495.95,1049.48h0c11.34,5.78,25.34,1.23,31.12-10.11l46.45-91.12c5.78-11.34,1.23-25.34-10.11-31.12h0c-11.34-5.78-25.34-1.23-31.12,10.11l-46.45,91.12c-5.78,11.34-1.23,25.34,10.11,31.12Z"/>
        <path class="cls-53" d="m1590.63,910.14l18.77,29.67,19.67-32.7c-2.38,3.03-6.92,5.9-19.67,6.19-10.61.25-15.82-1.23-18.77-3.16Z"/>
        <g>
          <path class="cls-46" d="m1808.13,1247.03c-9.74-5.6-32.59-15.75-44.8-21.74-17.7-8.68-28.34-42.09,1.32-68.32,24.08-21.3,61.5,8.11,75.24,18.11,2.16,1.57,5.12-.23,4.76-2.88-1.05-7.58-5.52-22.03-19.13-36.34-24.95-26.23-47.74-31.11-65.5-28.94-3.77.46-7.65.42-11.45.06-14.84-1.41-28.8-7.71-40.24-17.26l-270.76-226.03c-36.26-33.59-16.56-66.49-46.77-96.7-22.42-22.42-64.68-20.81-82.44-19.13-2.71.26-3.5,3.82-1.15,5.17,9.74,5.6,26.6,11.47,38.81,17.46,17.7,8.68,25.8,46.62-3.86,72.86-24.08,21.3-56.38-4.53-70.12-14.53-2.16-1.57-5.12.23-4.76,2.88,1.05,7.58,5.26,20.43,18.87,34.74,24.95,26.23,51.41,28.87,69.17,26.7,7.53-.92,15.64.86,22.67,3.33,9.44,3.32,18.1,8.52,25.78,14.93l279.28,233.13c5.9,4.93,10.64,11.15,13.66,18.22,10.4,24.36,1.76,47.52,24.01,69.76,22.42,22.42,68.52,21.35,86.28,19.67,2.71-.26,3.5-3.82,1.15-5.17Z"/>
          <path class="cls-51" d="m1702.17,1133.36l-301.52-251.7c-4.31-3.6-4.9-10.07-1.3-14.39h0c3.6-4.31,10.07-4.9,14.39-1.3l301.52,251.7c4.31,3.6,4.9,10.07,1.3,14.39h0c-3.6,4.31-10.07,4.9-14.39,1.3Z"/>
        </g>
        <path class="cls-56" d="m1573.15,1054.87c.27,1.99,12.19,4.55,21.04,3.61,7.5-.79,24.6-4.47,29.63-5.59l-1.89-23.92c-3.02-.15-6.35-.42-9.18-1.01-6.97-1.4-26.34-3.03-26.55-.22-.23,2.78,12.83,6.58,11.78,7.68-1.06,1.1-11.28.54-15.61-.04-4.35-.57-13.45-3.31-15.22-1.48-1.8,1.85.16,5.07.16,5.07,0,0-3.36-1.45-3.88.81-.52,2.26,4.14,5.83,4.14,5.83,0,0-1.76-1.01-1.71,1.62.06,2.66,8.8,5.57,8.8,5.57,0,0-1.84.07-1.52,2.07Z"/>
        <path class="cls-54" d="m1605.25,1245.42l-16.89,159.11h-64.63l10.36-159.98c-.08-1.69.39-3.57.53-5.31,1.77-19.98,17.65-34.91,37.63-33.16,19.95,1.77,34.74,19.36,32.99,39.35Z"/>
        <path class="cls-42" d="m1617.98,1021.27l22.88-4.61,20.71-4.14,55.26-11.11c11.44-1.52,22.23,7.81,23.99,20.78,1.73,12.96-6.22,24.84-17.66,26.39l-57.69,4.26-20.96,1.57-21.66,1.6-4.87-34.74Z"/>
        <polygon class="cls-55" points="1589.34 897.83 1614.79 879.28 1590.59 880.51 1589.34 897.83"/>
        <path class="cls-56" d="m1593.12,826.37s-4.03,14.67-6.89,25.08l-2.36,8.6c-1.87,6.8-2.73,17.4,4.28,21.84,6.98,4.43,18.37,4.13,27.87-1.81,9.51-5.96,35.64-37.41,16.69-56.89-18.97-19.48-38.09-.19-39.58,3.18Z"/>
        <path class="cls-58" d="m1628.55,878.13s-12.29-18.9-5.59-29.66c6.7-10.76,0-13.46-4.7-12.64-4.7.82-12.88.59-16.19-.71,0,0,9.96.23,14.19-2.23,0,0-19.64,1.61-23.92-3.66l-1.05,3.83s-7.08-16.67,3.57-20.55c10.64-3.88,15.07.51,15.07.51,0,0-3.39-6.82,1.48-8.11s9.33,8.58,9.33,8.58c0,0,6.82-8.46,13.87-.12s4.11,15.98,4.11,15.98c0,0,8.23,6.82,4.23,17.51-4,10.69-13.49,20.8-14.38,31.26Z"/>
        <path class="cls-56" d="m1622.78,864.42c-3.8,3.43-5.31,6.16-2.62,9.14,2.69,2.98,8.3,3.81,12.09.39,3.8-3.43,4.69-8.62,2-11.6-2.69-2.98-7.68-1.35-11.47,2.08Z"/>
        <path class="cls-37" d="m1608.19,851.04c-.43,1.58-1.61,2.63-2.63,2.35-1.02-.28-1.5-1.79-1.06-3.36.43-1.58,1.61-2.63,2.63-2.35,1.02.28,1.5,1.79,1.06,3.36Z"/>
        <path class="cls-37" d="m1589.12,845.8c-.43,1.58.04,3.08,1.06,3.36,1.02.28,2.2-.77,2.63-2.35.43-1.58-.04-3.08-1.06-3.36-1.02-.28-2.2.77-2.63,2.35Z"/>
        <path class="cls-48" d="m1602.39,860.64c.09,1.58,2.71,2.72,5.85,2.55,3.14-.17,5.62-1.6,5.54-3.18-.09-1.58-2.71-2.72-5.85-2.55s-5.62,1.6-5.54,3.18Z"/>
        <path class="cls-48" d="m1586.23,851.45l-1.54,5.59c2.28.92,4.39.8,5.06-.34.75-1.36-.82-3.7-3.52-5.26Z"/>
        <path class="cls-17" d="m1629.38,869.98c-2.44-1.19-4.69-1.29-4.69-1.29,3.47-3.66,6.69-2.24,6.69-2.24"/>
        <path class="cls-21" d="m1602.08,868.62s-4.21,4.59-10.8,1.43"/>
        <path class="cls-21" d="m1600.05,849.97l-6.25,9.11c-.63.92-.56,2.16.19,3l1.15,1.3,1.18,1.33"/>
        <path class="cls-21" d="m1611.39,848.47s-2.46-4.26-6.7-4.27"/>
        <path class="cls-21" d="m1588.75,840.43s3.4-1.82,6.63.92"/>
        <polygon class="cls-2" points="1588.85 904.52 1609.39 913.31 1598.6 926.42 1586.31 907.05 1588.85 904.52"/>
        <polygon class="cls-2" points="1629.77 902.58 1609.39 913.31 1619.11 925.87 1631.59 904.35 1629.77 902.58"/>
        <polygon class="cls-56" points="1579.03 1429.4 1580.76 1404.53 1532.34 1404.53 1530.45 1429.4 1579.03 1429.4"/>
        <polygon class="cls-55" points="1531.49 1415.79 1580.76 1404.53 1532.34 1404.53 1531.49 1415.79"/>
        <polygon class="cls-56" points="1650.9 1429.4 1649.05 1404.49 1698.64 1404.53 1699.48 1429.4 1650.9 1429.4"/>
        <path class="cls-56" d="m1426.98,918.23l7.04.17c1.89.05,3.53,1.36,4.11,3.3l4.42,14.8c.93,3.1-1.2,6.34-4.23,6.44l-7.64.26c-2.06.07-3.88-1.38-4.42-3.52l-3.82-15.23c-.79-3.16,1.5-6.3,4.54-6.22Z"/>
        <polygon class="cls-55" points="1650.08 1418.38 1698.64 1404.53 1649.05 1404.49 1650.08 1418.38"/>
        <path class="cls-58" d="m1637.18,828.66s5.76-3.06,11.52,1.76c0,0-9.87-2.82-11.52.94s0-2.7,0-2.7Z"/>
        <polyline class="cls-26" points="1633.99 909.36 1609.39 948.93 1585.12 911.92"/>
        <line class="cls-9" x1="1681.11" y1="1008.41" x2="1690.48" y2="1006.7"/>
        <line class="cls-9" x1="1675.5" y1="999.99" x2="1669.77" y2="991.38"/>
        <path class="cls-58" d="m1506.59,1450.31h71.5l.12-2.91.88-19.27h-48.65c-6.02,0-11.6,3.54-15.86,7.22-3.52,3.16-6.15,7.29-7.38,12.05-.29.94-.49,1.93-.61,2.91Z"/>
        <path class="cls-5" d="m1506.59,1450.31h71.5l.12-2.91h-71.01c-.29.94-.49,1.93-.61,2.91Z"/>
        <g>
          <path class="cls-18" d="m1528.97,1432.1s6.18-10.85,10.34-6.56c4.16,4.29-10.34,6.56-10.34,6.56"/>
          <path class="cls-18" d="m1531.15,1434.26l-2.18-2.16s-6.18-10.85-10.34-6.56c-4.16,4.29,10.34,6.56,10.34,6.56"/>
          <line class="cls-18" x1="1527.31" y1="1434.26" x2="1528.97" y2="1432.1"/>
        </g>
        <path class="cls-58" d="m1722.97,1450.31h-71.5l-.12-2.91-.88-19.27h48.65c6.02,0,11.6,3.54,15.86,7.22,3.52,3.16,6.15,7.29,7.38,12.05.29.94.49,1.93.61,2.91Z"/>
        <path class="cls-5" d="m1722.97,1450.31h-71.5l-.12-2.91h71.01c.29.94.49,1.93.61,2.91Z"/>
        <g>
          <path class="cls-18" d="m1700.59,1432.75s-6.18-10.85-10.34-6.56c-4.16,4.29,10.34,6.56,10.34,6.56"/>
          <path class="cls-18" d="m1698.42,1434.91l2.18-2.16s6.18-10.85,10.34-6.56c4.16,4.29-10.34,6.56-10.34,6.56"/>
          <line class="cls-18" x1="1702.25" y1="1434.91" x2="1700.59" y2="1432.75"/>
        </g>
        <polyline class="cls-16" points="1610.92 1190.71 1608.59 1171.66 1596.9 1163.6 1587.4 1124.9"/>
        <line class="cls-16" x1="1530.45" y1="1385.03" x2="1576.44" y2="1385.03"/>
        <line class="cls-16" x1="1653.5" y1="1385.03" x2="1699.48" y2="1385.03"/>
      </g>
      <g>
        <path class="cls-6" d="m564.33,563.48H133.28c-5.1,0-9.24,5.33-9.24,11.9v272.57h449.52v-272.57c0-6.57-4.14-11.9-9.24-11.9Z"/>
        <rect class="cls-2" x="129.07" y="596.28" width="439.48" height="244.72"/>
        <g>
          <rect class="cls-49" x="161" y="670.87" width="15.01" height="162.6"/>
          <rect class="cls-57" x="178.9" y="748.5" width="15.01" height="84.96"/>
          <rect class="cls-49" x="215.21" y="692.88" width="15.01" height="140.59"/>
          <rect class="cls-57" x="233.12" y="647" width="15.01" height="186.47"/>
          <rect class="cls-49" x="269.43" y="746.88" width="15.01" height="86.59"/>
          <rect class="cls-57" x="287.33" y="687.47" width="15.01" height="146"/>
          <rect class="cls-49" x="323.64" y="660.79" width="15.01" height="172.68"/>
          <rect class="cls-57" x="341.55" y="684.02" width="15.01" height="149.45"/>
          <rect class="cls-49" x="377.86" y="784.18" width="15.01" height="49.28"/>
          <rect class="cls-49" x="432.07" y="745.02" width="15.01" height="88.45"/>
          <rect class="cls-57" x="395.76" y="705.35" width="15.01" height="128.11"/>
          <rect class="cls-57" x="449.98" y="797.2" width="15.01" height="36.27"/>
          <rect class="cls-49" x="486.29" y="650.58" width="15.01" height="182.89"/>
          <rect class="cls-57" x="504.19" y="677.58" width="15.01" height="155.89"/>
          <polyline class="cls-23" points="138.86 603.81 138.86 833.47 558.76 833.47"/>
        </g>
      </g>
      <path class="cls-2" d="m794.06,87.03h-21.56v-29.79c0-15.86-12.9-28.76-28.76-28.76s-28.77,12.9-28.77,28.76v29.79h-21.56c-1.43,0-2.59,1.16-2.59,2.58v79.09c0,1.43,1.16,2.58,2.59,2.58h100.65c1.43,0,2.59-1.15,2.59-2.58v-79.09c0-1.42-1.16-2.58-2.59-2.58Zm-69.98-29.79c0-10.83,8.81-19.65,19.65-19.65s19.65,8.81,19.65,19.65v29.79h-39.3v-29.79Z"/>
      <path class="cls-2" d="m1086.02,237.88h0l22.03-17.95-3.69-4.53-6.45,5.26-3.34-4.1,6.45-5.26-5.29-6.5-8.66,7.06-3.34-4.1,8.66-7.06-4.94-6.06-12.11,9.86h0l-2.7,2.2-9.52,7.75-1.19.97h0l-58.59-71.91h0s14.23-11.61,14.23-11.61c8.8-7.19,10.12-20.25,2.98-29.01l-13.36-16.42c-7.17-8.76-20.23-10.12-29.01-2.96l-.2.16-3.66,2.99-.11.1-29.36,23.94-1.97,1.59-6.1,4.96c-3.73,3.03-6.1,7.11-7.05,11.5l-.02.02c-.03.23-.09.47-.12.7-.73,3.95-.34,8.08,1.25,11.85.75,1.73,1.74,3.41,2.99,4.95l.36.45h.02s5.67,6.97,5.67,6.97l.93,1.14,6.36,7.82c1.51,1.88,3.32,3.4,5.28,4.59,1.16.7,2.38,1.28,3.62,1.72,4.52,1.64,9.54,1.68,14.12.02,2.14-.75,4.16-1.87,6.02-3.38l11.89-9.69,1.5-1.23.49-.4h0s81.32,99.82,81.32,99.82c1.21,1.48,3.38,1.69,4.86.49l3.93-3.2h0l3.94-3.21c1.47-1.2,1.7-3.37.5-4.85l-2.12-2.6,2.54-2.07.94-.77Zm-138.61-96.41l-3.07-3.75s-.02-.03-.03-.04c-.27-.33-.5-.69-.7-1.06-.06-.11-.1-.22-.15-.32-.14-.29-.26-.59-.36-.9-.03-.11-.06-.22-.09-.33-.09-.33-.15-.67-.18-1.01,0-.08-.02-.16-.03-.25-.1-1.31.16-2.63.75-3.81.04-.08.09-.15.13-.23.17-.31.36-.6.58-.88.05-.07.11-.14.16-.21.27-.33.57-.64.91-.92l16.04-13.07.17-.14,5.53-4.51,10.96-8.93,2.14-1.74,2.28-1.85,4.29-3.49c.58-.47,1.23-.8,1.9-1.06,2.78-1.04,6.12-.3,8.06,2.08l13.35,16.38c.78.96,1.23,2.08,1.42,3.23.42,2.47-.42,5.11-2.45,6.75l-22.74,18.53-1.61,1.31-13.65,11.12-3.37,2.74c-1.25,1.02-2.77,1.5-4.3,1.54-2.13.05-4.28-.8-5.7-2.53l-7.23-8.9-1.21-1.49-1.82-2.25Z"/>
      <path class="cls-2" d="m192.67,943.05c13.03,18.84,37.58,24.75,57.63,15.22l48.36,69.92,12.12-8.38-48.36-69.91c16.05-15.38,19.13-40.44,6.08-59.3-14.47-20.93-43.2-26.24-64.13-11.77-20.93,14.47-26.18,43.3-11.71,64.22Zm67.6-46.75c11.27,16.3,7.16,38.85-9.14,50.13-16.39,11.34-38.85,7.16-50.13-9.14-11.34-16.39-7.25-38.79,9.14-50.13,16.3-11.27,38.79-7.25,50.13,9.14Z"/>
      <g>
        <polygon class="cls-39" points="306.51 524.76 306.29 491.3 345.55 497.09 306.51 524.76"/>
        <path class="cls-56" d="m518.94,366.04l3.54-10.38s6.38-9.93,8.28-13.77c1.07-2.17,4.56-7.7,5.47-8.38.71-.54,2.79-.34,2.98.52.24,1.12-1.52,7.3-2.16,9.73-.61,2.31-2.44,9.26-2.44,9.26,0,0,13.41-12.19,17.67-16.52,2.4-2.44,9.09-9.87,10.9-8.31,1.38,1.19-4.63,9.55-6.66,12.43-1.86,2.65-7.38,10.64-7.38,10.64,0,0,9.36-9.73,12.47-12.97,2.27-2.36,8.15-10.25,10.22-8.56,2.05,1.67-4.3,9.02-6.15,11.7-2.61,3.79-10.42,15.18-10.42,15.18,0,0,10.02-9.96,13.36-13.28,1.85-1.84,6.64-8.02,8.47-6.31,1.86,1.74-3.78,7.35-5.4,9.44-2.79,3.59-11.15,14.37-11.15,14.37,0,0,7.44-7,9.92-9.33,1.06-1,4.31-3.87,5.26-2.8,1.29,1.45-2.81,5.66-4.03,7.22l-10.07,12.89c-.81,1.04-1.75,1.98-2.77,2.8l-17.05,17.12-22.84-22.69Z"/>
        <path class="cls-1" d="m386.58,485.8l132.87,84.14c3.81,1.6,7.43,3.82,10.66,6.75,15.22,13.82,16.34,37.37,2.52,52.58-13.82,15.22-37.37,16.34-52.58,2.52l-153.17-80.29,59.7-65.71Z"/>
        <path class="cls-1" d="m542.15,609.43c.24-1.72.41-3.46.41-5.24,0-20.56-16.67-37.22-37.22-37.22s-37.22,16.67-37.22,37.22l2.2,166.22h61.94l9.89-160.98Z"/>
        <path class="cls-43" d="m316.15,550.78l83.22,99.55c14.69,17.57,41.09,19.93,58.66,5.24h0c17.57-14.69,19.93-41.09,5.24-58.66l-83.22-99.55c-14.69-17.57-41.09-19.93-58.66-5.24h0c-17.57,14.69-19.93,41.09-5.24,58.66Z"/>
        <polygon class="cls-44" points="384.25 326.06 423.61 343.78 418.19 503.69 306.29 505.42 290.67 330.36 343.98 323.13 384.25 326.06"/>
        <path class="cls-56" d="m384.24,302.96v24.97s-1.49,5.39-14.19,5.44c-12.67.03-26.07-8.38-26.07-8.38l3.93-54.6,36.33,32.56Z"/>
        <polygon class="cls-48" points="384.25 324.51 358.31 297.58 384.25 297.24 384.25 324.51"/>
        <path class="cls-56" d="m394.87,252.73v35.16c0,7.09-1.99,17.62-9.97,20.05-7.96,2.43-18.93-.89-26.57-9.19-7.64-8.32-24.61-45.81-1.02-59.66,23.61-13.85,37.01,9.97,37.56,13.64Z"/>
        <path class="cls-40" d="m448.26,471.58c8.32,6.82,20.31,6.5,28.3-.22h0l70-81.01-9.61-10.13-17.69-18.69-2.03-2.18-72.08,81.16c-7.69,9.4-6.27,23.37,3.12,31.06Z"/>
        <path class="cls-43" d="m473.12,619.94c0-20.56-16.67-37.22-37.22-37.22s-31.84,8.57-36.33,29.08c-10.41,47.6-32.25,174.37-32.25,174.37h64.5l40.89-160.98c.24-1.72.41-3.46.41-5.24Z"/>
        <path class="cls-40" d="m474.15,472.6h0c-12.31,6.98-28.1,2.63-35.09-9.69l-46.43-81.85c-6.98-12.31-2.63-28.1,9.69-35.09h0c12.31-6.98,28.1-2.63,35.09,9.69l46.43,81.85c6.98,12.31,2.63,28.1-9.69,35.09Z"/>
        <path class="cls-58" d="m359.75,237.79s28.54-13.17,35.12-4.52c6.58,8.65-4.38,11.67-4.38,11.67,0,0,13.61-1.61,13.08,7.57-.53,9.18-34.59-3.35-34.59-3.35,0,0,11.29,5.12,4.76,9.18-6.53,4.06-14-1.24-14-1.24,0,0-6.48,3.7-5.42,20.71,1.06,17.01-9.09,20.76-9.09,20.76,0,0,1.22-25.77-3.76-32.65-4.97-6.88,2.33-32.43,18.27-28.13Z"/>
        <g>
          <path class="cls-56" d="m355.93,281.75c2.77,4.34,3.51,7.39.1,9.56-3.41,2.17-9.07,1.49-11.84-2.85-2.77-4.34-2.25-9.62,1.15-11.79s7.81.74,10.58,5.08Z"/>
          <path class="cls-8" d="m347.05,281.42s3.5-.52,5.89,3.96c0,0-2.21-.51-4.9,0"/>
        </g>
        <path class="cls-41" d="m373.66,272.65c0,1.65.86,2.98,1.93,2.98s1.93-1.33,1.93-2.98-.86-2.98-1.93-2.98-1.93,1.33-1.93,2.98Z"/>
        <path class="cls-22" d="m374.9,291.34s2.86,5.57,10.1,4.27"/>
        <path class="cls-22" d="m381.85,273.79l3.63,10.51c.37,1.06-.04,2.24-.98,2.86l-2.96,1.93"/>
        <path class="cls-22" d="m370.62,267.7s4.06-2.84,7.93-1.04"/>
        <path class="cls-41" d="m393.56,272.65c0,1.65-.86,2.98-1.93,2.98s-1.93-1.33-1.93-2.98.86-2.98,1.93-2.98,1.93,1.33,1.93,2.98Z"/>
        <path class="cls-22" d="m395.35,267.54s-2.81-2.68-6.68-.88"/>
        <path class="cls-40" d="m266.79,471.52h0c-13.7-3.55-22.01-17.67-18.45-31.37l23.62-91.09c3.55-13.7,17.67-22.01,31.37-18.45h0c13.7,3.55,22.01,17.67,18.45,31.37l-23.62,91.09c-3.55,13.7-17.67,22.01-31.37,18.45Z"/>
        <path class="cls-56" d="m232.62,542.12l-30.32-18.74-.07.1c-4.55,8.11-21.56,24.92-27.84,30.98-1.39,1.4-1.8,3.44-1.01,5.25l7.41,17.14c1.15,2.7,3.39,4.75,6.14,5.66l11.9,4.03c1.22.38,2.39-.69,2.11-1.91l-2.44-9.7c-.31-1.39.36-2.84,1.67-3.39l11.5-5.17-9.62,15.35c-.53.88-.35,2.04.49,2.69l1.21.89c.85.65,2.05.55,2.77-.25l20.67-24.13,4.78-17.98s.23-.27.63-.81Z"/>
        <path class="cls-48" d="m376.72,283.51c-.51,1.51-3.35,1.92-6.36.91-3.01-1.01-5.03-3.05-4.53-4.56.51-1.51,3.35-1.92,6.36-.91s5.03,3.05,4.53,4.56Z"/>
        <path class="cls-48" d="m394.87,278.9v5.84c-2.46.29-4.48-.39-4.82-1.68-.37-1.52,1.78-3.38,4.82-4.16Z"/>
        <polygon class="cls-56" points="477.75 795.33 476.46 770.41 526.77 770.41 527.56 795.33 477.75 795.33"/>
        <polygon class="cls-48" points="527.23 784.9 476.46 770.41 526.77 770.41 527.23 784.9"/>
        <polygon class="cls-56" points="367.01 811.09 371.12 786.16 420.22 786.16 413.97 811.09 367.01 811.09"/>
        <polygon class="cls-42" points="376.99 337.82 367.88 337.82 367.08 339.55 371.28 342.67 374.86 342.67 377.86 339.01 376.99 337.82"/>
        <polygon class="cls-48" points="417.22 798.14 371.12 786.16 420.22 786.16 417.22 798.14"/>
        <path class="cls-40" d="m288.18,419.32c-11.21-7.87-26.13-6.19-33.07,3.75l-60.18,98.8,42.11,26.01,60.02-91.47c6.94-9.93,2.39-29.23-8.87-37.09Z"/>
        <polygon class="cls-2" points="344.13 322.85 372.77 333.38 367.55 345.33 342.87 325.47 344.13 322.85"/>
        <polygon class="cls-2" points="384.24 325.75 385.61 328.55 378.19 344.2 372.77 333.38 384.24 325.75"/>
        <polygon class="cls-42" points="374.86 342.67 388.43 447.97 377.86 461.6 364.11 449.24 371.28 342.67 374.86 342.67"/>
        <line class="cls-22" x1="314.8" y1="394.58" x2="299.74" y2="456.82"/>
        <line class="cls-22" x1="420.67" y1="432.37" x2="421.95" y2="394.58"/>
        <path class="cls-50" d="m367.01,811.09l-4.41,18.17h65.89c2.13-9.3-4.93-18.17-14.47-18.17h-47.01Z"/>
        <path class="cls-50" d="m477.75,795.33v19.78h69.02l-.08-1.63c-.53-10.17-8.93-18.15-19.11-18.15h-49.82Z"/>
        <path class="cls-14" d="m528.56,799.27s1.5-6.57,5.21-4.79-4.98,5.02-4.98,5.02l5.16,3.57"/>
        <path class="cls-14" d="m528.56,799.27s-1.5-6.57-5.21-4.79c-3.71,1.78,4.98,5.02,4.98,5.02l-5.16,3.57"/>
        <path class="cls-14" d="m413.5,815.76s1.5-6.57,5.21-4.79c3.71,1.78-4.98,5.02-4.98,5.02l5.16,3.57"/>
        <path class="cls-14" d="m413.5,815.76s-1.5-6.57-5.21-4.79c-3.71,1.78,4.98,5.02,4.98,5.02l-5.16,3.57"/>
        <path class="cls-40" d="m388.39,327.97s2.69,28.16,7.05,70.69c4.36,42.53,4.07,108.9,17.81,121.64,0,0,14.15,1.05,42.8,9.5,0,0-8.01-26.93-17.82-42.17-9.81-15.25-14.62-143.83-14.62-143.83l-35.22-15.81Z"/>
        <polygon class="cls-44" points="390.72 351.76 394.05 384.92 383.47 375.91 384.24 352.41 390.72 351.76"/>
        <path class="cls-40" d="m333.83,324.51s10.98,47.4,16.16,89.69c5.18,42.29,3.42,83.19,16.75,108.02,0,0-53.45,9.61-53.32,31.17,0,0-15.07-16.62-15.2-39.38-.13-22.76-7.55-183.66-7.55-183.66l43.16-5.85Z"/>
        <line class="cls-28" x1="430.54" y1="447.88" x2="423.61" y2="410.95"/>
        <line class="cls-28" x1="298.17" y1="453.07" x2="307.27" y2="410.95"/>
      </g>
      <g>
        <path class="cls-56" d="m941.35,936.08c.99,1.77-7.02,11.07-14.7,15.7-6.5,3.93-22.47,11.37-27.19,13.53l-13.04-20.36c2.34-1.96,4.84-4.2,6.76-6.39,4.74-5.36,19.3-18.46,21.18-16.33,1.88,2.09-6.3,13.09-4.78,13.34,1.52.24,9.39-6.43,12.51-9.53,3.15-3.1,8.78-10.84,11.32-10.45,2.58.39,2.95,4.17,2.95,4.17,0,0,1.81-3.21,3.61-1.71,1.8,1.5.22,7.2.22,7.2,0,0,.79-1.88,2.36.25,1.57,2.17-3.68,9.83-3.68,9.83,0,0,1.52-1.06,2.48.74Z"/>
        <path class="cls-58" d="m736.69,815.35c-16.92,1.47-31.61,15.85-31.81,36.38-.21,20.53-3.93,31.1-16.34,28.71,0,0,34.77,20.16,80.59,2.37,0,0-5.74-6.81-6.55-22.23-.8-15.42-25.88-45.24-25.88-45.24Z"/>
        <path class="cls-40" d="m825.66,1025.14h0c-10.78,5.8-24.35,1.73-30.15-9.05l-43.61-81.02c-5.8-10.78-1.73-24.35,9.05-30.15h0c10.78-5.8,24.35-1.73,30.15,9.05l43.61,81.02c5.8,10.78,1.73,24.35-9.05,30.15Z"/>
        <path class="cls-1" d="m726.55,1052.1c-14.57,19.08-20.06,58.63-10.77,101.24,9.29,42.61,12.43,70.62,12.43,70.62,2.42,19.72,20.37,33.75,40.1,31.33,19.72-2.42,33.75-20.38,31.33-40.1l-14.82-163.1h-58.27Z"/>
        <path class="cls-40" d="m723.34,895.69l-38.95,17.64s8.66,100.27,9.56,111.24c.9,10.97-2.46,27.53-2.46,27.53h93.34s-1.12-53.72,5.15-68.72c4.25-10.16,7.16-16.34,4.7-27.98-2.46-11.64-20.48-32.22-17.57-52.36l-20.32-6.51-33.45-.84Z"/>
        <path class="cls-40" d="m653.14,1041.32h0c-11.49-4.21-17.46-17.06-13.25-28.55l31.64-86.4c4.21-11.49,17.06-17.46,28.55-13.25h0c11.49,4.21,17.46,17.06,13.25,28.55l-31.64,86.4c-4.21,11.49-17.06,17.46-28.55,13.25Z"/>
        <path class="cls-37" d="m761.48,837.59s5.3-13.04-7.44-16.99l7.44,16.99Z"/>
        <path class="cls-56" d="m756.78,851.21v45.31s-.91,9.94-12.71,10.82c-10.19.77-16.68-5.94-19.42-9.52l-1.44-2.11-.04-.03,4.81-44.47h28.8Z"/>
        <polygon class="cls-48" points="756.77 891.36 736.69 869.53 756.78 877.08 756.77 891.36"/>
        <path class="cls-56" d="m736.85,874.36c9.39,5.54,20.46,5.53,27.14,1.03,6.69-4.47,5.59-14.77,3.6-21.3t-.01-.05c-.42-1.35-1-3.25-1.66-5.41-2.55-8.44-6.33-20.95-6.33-20.95-1.65-6.61-20.58-21.48-38.5-2.09-17.92,19.41,6.38,43.23,15.77,48.76Z"/>
        <path class="cls-58" d="m758.99,825.02s-.25,7.92-11.34,13.21c-11.09,5.29-21.62,13.38-20.3,25.08,1.33,11.7-2.68,18.29-2.68,18.29,0,0-1.65-14.58-9-26.92-2.85-4.79-5.35-14.89-.61-23.6,7.47-13.74,26.76-24.18,43.94-6.07Z"/>
        <path class="cls-56" d="m729.25,860.79c2.39,3.53,3.06,6.03.3,7.91-2.77,1.87-7.47,1.43-9.85-2.1-2.39-3.53-2.08-7.9.69-9.78,2.77-1.87,6.48.44,8.86,3.96Z"/>
        <path class="cls-29" d="m723,863.42c2.32-1.13,4.35-.12,4.35-.12-1.6-4.02-6.44-2.4-6.44-2.4"/>
        <path class="cls-41" d="m746.68,850.35c.44,1.58,1.63,2.64,2.65,2.35,1.03-.28,1.5-1.8,1.06-3.39s-1.63-2.64-2.65-2.35c-1.03.28-1.5,1.8-1.06,3.39Z"/>
        <path class="cls-41" d="m759.57,845.41c.41,1.46,1.5,2.44,2.45,2.17s1.38-1.66.98-3.13c-.41-1.46-1.5-2.44-2.45-2.17-.95.26-1.38,1.66-.98,3.13Z"/>
        <path class="cls-1" d="m812.55,1409.55h-63.22l-21.7-185.83-.28-4.25c0-20.2,16.65-36.49,36.99-35.88,18.34.53,33.71,15.45,34.79,33.79l13.42,192.17Z"/>
        <path class="cls-35" d="m741.26,847.84s2.08-4.83,6.19-4.44"/>
        <path class="cls-35" d="m757.78,839.77s2.19-1.07,5.35.75"/>
        <path class="cls-43" d="m697.09,1409.55h-60.33l19.15-191.95.06-.67c1.28-18.65,16.84-33.38,35.82-33.38s35.91,16.06,35.91,35.91c0,1.11-.06,2.2-.17,3.25l-30.43,186.84Z"/>
        <path class="cls-40" d="m905.58,974.89l-73.83,46.72-4.37,3.63c-8.9,6.17-21.95,2.96-28.96-7.15-7.01-10.11-5.42-23.43,3.48-29.6l82.7-46.35,1.83,2.83,13.04,20.36,6.12,9.57Z"/>
        <path class="cls-35" d="m754.22,846.59s2.36,7.8,7.24,7.48c0,0-1.1,1.74-2.78,2.8"/>
        <path class="cls-43" d="m755.55,1052.12l-.84,5.23-27.08,165.47c-2.07,19.77-19.77,34.1-39.55,32.03-19.74-2.07-34.1-19.77-32.03-39.55,0,0,3.27-27.99,3.79-71.62.42-33.79,8.08-61.04,20.13-78.68,3.51-5.13,7.38-9.45,11.52-12.89h64.06Z"/>
        <path class="cls-35" d="m761.28,863.2s-4.52,3.58-9.77-1.04"/>
        <path class="cls-48" d="m739.02,857.28c-.05,1.71,2.64,3.18,6,3.27,3.36.09,6.12-1.22,6.17-2.93s-2.64-3.18-6-3.27-6.12,1.22-6.17,2.93Z"/>
        <path class="cls-48" d="m764.03,853.23c.54.91,1.91,1.17,3.55.81-.42-1.35-1-3.25-1.66-5.41-1.76,1.61-2.6,3.46-1.89,4.59Z"/>
        <path class="cls-31" d="m730.85,868.7c.39,1.46-.48,2.96-1.94,3.35-1.46.39-2.96-.48-3.35-1.94-.39-1.46.48-2.96,1.94-3.35,1.46-.39,2.96.48,3.35,1.94Z"/>
        <polygon class="cls-56" points="624.62 1450.31 671.19 1450.31 677.23 1441.11 677.1 1450.31 687.35 1450.31 686.43 1423.72 688.68 1409.53 650.75 1409.53 650.61 1423.72 624.62 1450.31"/>
        <path class="cls-49" d="m758.21,896.34l-2.35,47.64-31.22-46.15c2.74,3.58,9.24,10.29,19.42,9.52,11.8-.88,14.15-11,14.15-11Z"/>
        <polygon class="cls-2" points="723.45 893.11 746.74 906.96 741.82 915.58 720.17 897.13 723.45 893.11"/>
        <polygon class="cls-2" points="756.77 895.1 746.74 906.96 752.8 914.28 759.12 897.28 756.77 895.1"/>
        <g>
          <polygon class="cls-52" points="881.94 1041.97 756.55 1047.23 785.34 951.97 910.72 946.71 881.94 1041.97"/>
          <g>
            <polygon class="cls-36" points="757.73 1042.62 715.21 1008.07 836.48 1002.98 883.11 1037.36 757.73 1042.62"/>
            <polygon class="cls-52" points="879.48 1039.99 754.1 1045.25 782.88 949.99 908.27 944.73 879.48 1039.99"/>
            <polygon class="cls-36" points="908.27 944.73 910.72 946.71 785.34 951.97 756.55 1047.23 754.1 1045.25 782.88 949.99 908.27 944.73"/>
            <polygon class="cls-51" points="715.21 1008.07 714.03 1012.68 756.55 1047.23 757.95 1042.61 715.21 1008.07"/>
          </g>
          <path class="cls-36" d="m852.87,997.23c.14,3.4-5.97,6.41-13.64,6.74-7.68.32-14.02-2.17-14.16-5.57s5.97-6.41,13.64-6.74c7.68-.32,14.02,2.17,14.16,5.57Z"/>
        </g>
        <polygon class="cls-56" points="792.15 1450.31 781.01 1442.02 781.96 1450.31 771.6 1450.31 766.51 1423.72 763.77 1409.53 803.95 1409.53 805.49 1423.72 837.74 1450.31 792.15 1450.31"/>
        <polygon class="cls-58" points="650.61 1423.72 624.62 1450.31 671.19 1450.31 677.23 1441.11 677.1 1450.31 687.35 1450.31 686.43 1423.72 650.61 1423.72"/>
        <polygon class="cls-58" points="792.15 1450.31 781.01 1442.02 781.96 1450.31 771.6 1450.31 766.51 1423.72 805.49 1423.72 837.74 1450.31 792.15 1450.31"/>
        <path class="cls-56" d="m808.32,1019.3c1.82,1.85-.14,5.11-.14,5.11,0,0,3.39-1.49,3.9.78.5,2.11-3.5,5.43-4.02,5.86.38-.18,1.67-.64,1.63,1.66-.02,2.54-7.99,5.36-8.75,5.62.29.04,1.75.27,1.49,2.1-.31,2.04-12.28,4.69-21.19,3.82-7.52-.75-24.68-4.38-29.81-5.48l1.36-24.07c3.14-.15,6.66-.48,9.54-1.11,7.03-1.47,26.53-3.21,26.76-.38.25,2.8-12.89,6.72-11.82,7.81,1.07,1.09,11.36.48,15.71-.12,4.4-.62,13.55-3.45,15.33-1.61Z"/>
        <path class="cls-40" d="m753.21,1007.44l-.42,7.27-1.36,24.07-.36,6.39-93.31-1.55c-10.83-.37-19.35-10.74-18.95-23.03.45-12.32,9.68-22.03,20.54-21.65l7.03,1.2h.03s86.79,7.3,86.79,7.3Z"/>
        <polyline class="cls-35" points="735.7 1005.97 691.16 1002.22 700.31 977.22"/>
        <line class="cls-35" x1="692.81" y1="1044.2" x2="672.56" y2="1044.2"/>
        <path class="cls-19" d="m751.92,849.31c1.38,2.78.78,5.9-1.34,6.95-2.12,1.05-4.96-.35-6.34-3.13-1.38-2.78-.78-5.9,1.34-6.95,2.12-1.05,4.96.35,6.34,3.13Z"/>
        <path class="cls-19" d="m764.65,844.43c1.38,2.78.78,5.9-1.34,6.95-2.12,1.05-4.96-.35-6.34-3.13-1.38-2.78-.78-5.9,1.34-6.95,2.12-1.05,4.96.35,6.34,3.13Z"/>
        <line class="cls-19" x1="751.17" y1="848.11" x2="756.33" y2="846.34"/>
      </g>
    </g>
  </g>
</svg>